<?xml version="1.0"  encoding="UTF-8" standalone="no"?>
<svg version="1.1" xmlns="http://www.w3.org/2000/svg" xmlns:xlink="http://www.w3.org/1999/xlink" stroke-linecap="round" stroke-linejoin="round" fill="none" width="180" height="940" viewBox="0 0 180 940" data-doc-id="symbol-Header 83X2A" data-doc-ver="2">
<g id = "scene" >
<g id = "DocumentMainGroup" >
<g id = "BackgroundGroup" >
<rect x = "0" y="0" width="180" height="940" fill="#FFFFFF" fill-opacity="1"/>
</g>
<g id = "symbol-Header 83X2A" >
<g id = "DocumentItemsGroup" >
<g id = "LHPJDRTW" >
<rect x = "70" y="50" width="40" height="840" stroke="#0000FF" stroke-width="1px"/>
</g>
<g id = "TJEGXHMO" >
<line x1="70" y1="60" x2="50" y2="60" stroke="#000000" stroke-width="1px"/>
<text x="77" y="63" font-size="8.888889px" font-family="Times New Roman" fill="#000000" xml:space="preserve">1</text>
</g>
<g id = "KTVJJYKP" >
<line x1="70" y1="70" x2="50" y2="70" stroke="#000000" stroke-width="1px"/>
<text x="77" y="73" font-size="8.888889px" font-family="Times New Roman" fill="#000000" xml:space="preserve">2</text>
</g>
<g id = "KOUGUPNP" >
<line x1="70" y1="80" x2="50" y2="80" stroke="#000000" stroke-width="1px"/>
<text x="77" y="83" font-size="8.888889px" font-family="Times New Roman" fill="#000000" xml:space="preserve">3</text>
</g>
<g id = "VLDSJNQR" >
<line x1="70" y1="90" x2="50" y2="90" stroke="#000000" stroke-width="1px"/>
<text x="77" y="93" font-size="8.888889px" font-family="Times New Roman" fill="#000000" xml:space="preserve">4</text>
</g>
<g id = "CFSGJKYZ" >
<line x1="70" y1="100" x2="50" y2="100" stroke="#000000" stroke-width="1px"/>
<text x="77" y="103" font-size="8.888889px" font-family="Times New Roman" fill="#000000" xml:space="preserve">5</text>
</g>
<g id = "NJLARWYQ" >
<line x1="70" y1="110" x2="50" y2="110" stroke="#000000" stroke-width="1px"/>
<text x="77" y="113" font-size="8.888889px" font-family="Times New Roman" fill="#000000" xml:space="preserve">6</text>
</g>
<g id = "FWZTONBN" >
<line x1="70" y1="120" x2="50" y2="120" stroke="#000000" stroke-width="1px"/>
<text x="77" y="123" font-size="8.888889px" font-family="Times New Roman" fill="#000000" xml:space="preserve">7</text>
</g>
<g id = "TSEGUSUK" >
<line x1="70" y1="130" x2="50" y2="130" stroke="#000000" stroke-width="1px"/>
<text x="77" y="133" font-size="8.888889px" font-family="Times New Roman" fill="#000000" xml:space="preserve">8</text>
</g>
<g id = "VEMHTIAY" >
<line x1="70" y1="140" x2="50" y2="140" stroke="#000000" stroke-width="1px"/>
<text x="77" y="143" font-size="8.888889px" font-family="Times New Roman" fill="#000000" xml:space="preserve">9</text>
</g>
<g id = "GADAGKDU" >
<line x1="70" y1="150" x2="50" y2="150" stroke="#000000" stroke-width="1px"/>
<text x="77" y="153" font-size="8.888889px" font-family="Times New Roman" fill="#000000" xml:space="preserve">10</text>
</g>
<g id = "SIBWLUKB" >
<line x1="70" y1="160" x2="50" y2="160" stroke="#000000" stroke-width="1px"/>
<text x="77" y="163" font-size="8.888889px" font-family="Times New Roman" fill="#000000" xml:space="preserve">11</text>
</g>
<g id = "MDPBPEQU" >
<line x1="70" y1="170" x2="50" y2="170" stroke="#000000" stroke-width="1px"/>
<text x="77" y="173" font-size="8.888889px" font-family="Times New Roman" fill="#000000" xml:space="preserve">12</text>
</g>
<g id = "HWMFEEJV" >
<line x1="70" y1="180" x2="50" y2="180" stroke="#000000" stroke-width="1px"/>
<text x="77" y="183" font-size="8.888889px" font-family="Times New Roman" fill="#000000" xml:space="preserve">13</text>
</g>
<g id = "CXFBVMIH" >
<line x1="70" y1="190" x2="50" y2="190" stroke="#000000" stroke-width="1px"/>
<text x="77" y="193" font-size="8.888889px" font-family="Times New Roman" fill="#000000" xml:space="preserve">14</text>
</g>
<g id = "BABABSVM" >
<line x1="70" y1="200" x2="50" y2="200" stroke="#000000" stroke-width="1px"/>
<text x="77" y="203" font-size="8.888889px" font-family="Times New Roman" fill="#000000" xml:space="preserve">15</text>
</g>
<g id = "HGXMAXUG" >
<line x1="70" y1="210" x2="50" y2="210" stroke="#000000" stroke-width="1px"/>
<text x="77" y="213" font-size="8.888889px" font-family="Times New Roman" fill="#000000" xml:space="preserve">16</text>
</g>
<g id = "GSXCYIOO" >
<line x1="70" y1="220" x2="50" y2="220" stroke="#000000" stroke-width="1px"/>
<text x="77" y="223" font-size="8.888889px" font-family="Times New Roman" fill="#000000" xml:space="preserve">17</text>
</g>
<g id = "VSPZFSYI" >
<line x1="70" y1="230" x2="50" y2="230" stroke="#000000" stroke-width="1px"/>
<text x="77" y="233" font-size="8.888889px" font-family="Times New Roman" fill="#000000" xml:space="preserve">18</text>
</g>
<g id = "NZSXXTLU" >
<line x1="70" y1="240" x2="50" y2="240" stroke="#000000" stroke-width="1px"/>
<text x="77" y="243" font-size="8.888889px" font-family="Times New Roman" fill="#000000" xml:space="preserve">19</text>
</g>
<g id = "SYBUYGVE" >
<line x1="70" y1="250" x2="50" y2="250" stroke="#000000" stroke-width="1px"/>
<text x="77" y="253" font-size="8.888889px" font-family="Times New Roman" fill="#000000" xml:space="preserve">20</text>
</g>
<g id = "SRXIKNKR" >
<line x1="70" y1="260" x2="50" y2="260" stroke="#000000" stroke-width="1px"/>
<text x="77" y="263" font-size="8.888889px" font-family="Times New Roman" fill="#000000" xml:space="preserve">21</text>
</g>
<g id = "XPTEBUBK" >
<line x1="70" y1="270" x2="50" y2="270" stroke="#000000" stroke-width="1px"/>
<text x="77" y="273" font-size="8.888889px" font-family="Times New Roman" fill="#000000" xml:space="preserve">22</text>
</g>
<g id = "PIOMOBCL" >
<line x1="70" y1="280" x2="50" y2="280" stroke="#000000" stroke-width="1px"/>
<text x="77" y="283" font-size="8.888889px" font-family="Times New Roman" fill="#000000" xml:space="preserve">23</text>
</g>
<g id = "WFXUXYAL" >
<line x1="70" y1="290" x2="50" y2="290" stroke="#000000" stroke-width="1px"/>
<text x="77" y="293" font-size="8.888889px" font-family="Times New Roman" fill="#000000" xml:space="preserve">24</text>
</g>
<g id = "UTDYIZEL" >
<line x1="70" y1="300" x2="50" y2="300" stroke="#000000" stroke-width="1px"/>
<text x="77" y="303" font-size="8.888889px" font-family="Times New Roman" fill="#000000" xml:space="preserve">25</text>
</g>
<g id = "GAHOPLPZ" >
<line x1="70" y1="310" x2="50" y2="310" stroke="#000000" stroke-width="1px"/>
<text x="77" y="313" font-size="8.888889px" font-family="Times New Roman" fill="#000000" xml:space="preserve">26</text>
</g>
<g id = "PFTEACXH" >
<line x1="70" y1="320" x2="50" y2="320" stroke="#000000" stroke-width="1px"/>
<text x="77" y="323" font-size="8.888889px" font-family="Times New Roman" fill="#000000" xml:space="preserve">27</text>
</g>
<g id = "ODMOLTPD" >
<line x1="70" y1="330" x2="50" y2="330" stroke="#000000" stroke-width="1px"/>
<text x="77" y="333" font-size="8.888889px" font-family="Times New Roman" fill="#000000" xml:space="preserve">28</text>
</g>
<g id = "QCFBNASF" >
<line x1="70" y1="340" x2="50" y2="340" stroke="#000000" stroke-width="1px"/>
<text x="77" y="343" font-size="8.888889px" font-family="Times New Roman" fill="#000000" xml:space="preserve">29</text>
</g>
<g id = "UEZHSOGG" >
<line x1="70" y1="350" x2="50" y2="350" stroke="#000000" stroke-width="1px"/>
<text x="77" y="353" font-size="8.888889px" font-family="Times New Roman" fill="#000000" xml:space="preserve">30</text>
</g>
<g id = "IAJPAKAB" >
<line x1="70" y1="360" x2="50" y2="360" stroke="#000000" stroke-width="1px"/>
<text x="77" y="363" font-size="8.888889px" font-family="Times New Roman" fill="#000000" xml:space="preserve">31</text>
</g>
<g id = "VPJISRWP" >
<line x1="70" y1="370" x2="50" y2="370" stroke="#000000" stroke-width="1px"/>
<text x="77" y="373" font-size="8.888889px" font-family="Times New Roman" fill="#000000" xml:space="preserve">32</text>
</g>
<g id = "IIIMDQKA" >
<line x1="70" y1="380" x2="50" y2="380" stroke="#000000" stroke-width="1px"/>
<text x="77" y="383" font-size="8.888889px" font-family="Times New Roman" fill="#000000" xml:space="preserve">33</text>
</g>
<g id = "EKPIYAJV" >
<line x1="70" y1="390" x2="50" y2="390" stroke="#000000" stroke-width="1px"/>
<text x="77" y="393" font-size="8.888889px" font-family="Times New Roman" fill="#000000" xml:space="preserve">34</text>
</g>
<g id = "LGSFEAJM" >
<line x1="70" y1="400" x2="50" y2="400" stroke="#000000" stroke-width="1px"/>
<text x="77" y="403" font-size="8.888889px" font-family="Times New Roman" fill="#000000" xml:space="preserve">35</text>
</g>
<g id = "EHCZZXKM" >
<line x1="70" y1="410" x2="50" y2="410" stroke="#000000" stroke-width="1px"/>
<text x="77" y="413" font-size="8.888889px" font-family="Times New Roman" fill="#000000" xml:space="preserve">36</text>
</g>
<g id = "SYBAPSFB" >
<line x1="70" y1="420" x2="50" y2="420" stroke="#000000" stroke-width="1px"/>
<text x="77" y="423" font-size="8.888889px" font-family="Times New Roman" fill="#000000" xml:space="preserve">37</text>
</g>
<g id = "RFCSECFW" >
<line x1="70" y1="430" x2="50" y2="430" stroke="#000000" stroke-width="1px"/>
<text x="77" y="433" font-size="8.888889px" font-family="Times New Roman" fill="#000000" xml:space="preserve">38</text>
</g>
<g id = "ADIOMDMB" >
<line x1="70" y1="440" x2="50" y2="440" stroke="#000000" stroke-width="1px"/>
<text x="77" y="443" font-size="8.888889px" font-family="Times New Roman" fill="#000000" xml:space="preserve">39</text>
</g>
<g id = "IECCWPCS" >
<line x1="70" y1="450" x2="50" y2="450" stroke="#000000" stroke-width="1px"/>
<text x="77" y="453" font-size="8.888889px" font-family="Times New Roman" fill="#000000" xml:space="preserve">40</text>
</g>
<g id = "YDQULVNJ" >
<line x1="70" y1="460" x2="50" y2="460" stroke="#000000" stroke-width="1px"/>
<text x="77" y="463" font-size="8.888889px" font-family="Times New Roman" fill="#000000" xml:space="preserve">41</text>
</g>
<g id = "CKRYGQHS" >
<line x1="70" y1="470" x2="50" y2="470" stroke="#000000" stroke-width="1px"/>
<text x="77" y="473" font-size="8.888889px" font-family="Times New Roman" fill="#000000" xml:space="preserve">42</text>
</g>
<g id = "LJMQRPIN" >
<line x1="70" y1="480" x2="50" y2="480" stroke="#000000" stroke-width="1px"/>
<text x="77" y="483" font-size="8.888889px" font-family="Times New Roman" fill="#000000" xml:space="preserve">43</text>
</g>
<g id = "ZZXQEPDV" >
<line x1="70" y1="490" x2="50" y2="490" stroke="#000000" stroke-width="1px"/>
<text x="77" y="493" font-size="8.888889px" font-family="Times New Roman" fill="#000000" xml:space="preserve">44</text>
</g>
<g id = "QYFHRQNS" >
<line x1="70" y1="500" x2="50" y2="500" stroke="#000000" stroke-width="1px"/>
<text x="77" y="503" font-size="8.888889px" font-family="Times New Roman" fill="#000000" xml:space="preserve">45</text>
</g>
<g id = "REJUMWCJ" >
<line x1="70" y1="510" x2="50" y2="510" stroke="#000000" stroke-width="1px"/>
<text x="77" y="513" font-size="8.888889px" font-family="Times New Roman" fill="#000000" xml:space="preserve">46</text>
</g>
<g id = "ZMTMKSNY" >
<line x1="70" y1="520" x2="50" y2="520" stroke="#000000" stroke-width="1px"/>
<text x="77" y="523" font-size="8.888889px" font-family="Times New Roman" fill="#000000" xml:space="preserve">47</text>
</g>
<g id = "FJINNLCJ" >
<line x1="70" y1="530" x2="50" y2="530" stroke="#000000" stroke-width="1px"/>
<text x="77" y="533" font-size="8.888889px" font-family="Times New Roman" fill="#000000" xml:space="preserve">48</text>
</g>
<g id = "NVJYKGNP" >
<line x1="70" y1="540" x2="50" y2="540" stroke="#000000" stroke-width="1px"/>
<text x="77" y="543" font-size="8.888889px" font-family="Times New Roman" fill="#000000" xml:space="preserve">49</text>
</g>
<g id = "BGDUJQYL" >
<line x1="70" y1="550" x2="50" y2="550" stroke="#000000" stroke-width="1px"/>
<text x="77" y="553" font-size="8.888889px" font-family="Times New Roman" fill="#000000" xml:space="preserve">50</text>
</g>
<g id = "BRYRWBAF" >
<line x1="70" y1="560" x2="50" y2="560" stroke="#000000" stroke-width="1px"/>
<text x="77" y="563" font-size="8.888889px" font-family="Times New Roman" fill="#000000" xml:space="preserve">51</text>
</g>
<g id = "LNVLCQSN" >
<line x1="70" y1="570" x2="50" y2="570" stroke="#000000" stroke-width="1px"/>
<text x="77" y="573" font-size="8.888889px" font-family="Times New Roman" fill="#000000" xml:space="preserve">52</text>
</g>
<g id = "SLPNHADL" >
<line x1="70" y1="580" x2="50" y2="580" stroke="#000000" stroke-width="1px"/>
<text x="77" y="583" font-size="8.888889px" font-family="Times New Roman" fill="#000000" xml:space="preserve">53</text>
</g>
<g id = "VQRENUUY" >
<line x1="70" y1="590" x2="50" y2="590" stroke="#000000" stroke-width="1px"/>
<text x="77" y="593" font-size="8.888889px" font-family="Times New Roman" fill="#000000" xml:space="preserve">54</text>
</g>
<g id = "CJXZNGAP" >
<line x1="70" y1="600" x2="50" y2="600" stroke="#000000" stroke-width="1px"/>
<text x="77" y="603" font-size="8.888889px" font-family="Times New Roman" fill="#000000" xml:space="preserve">55</text>
</g>
<g id = "URKTGKHV" >
<line x1="70" y1="610" x2="50" y2="610" stroke="#000000" stroke-width="1px"/>
<text x="77" y="613" font-size="8.888889px" font-family="Times New Roman" fill="#000000" xml:space="preserve">56</text>
</g>
<g id = "UOXVOCYS" >
<line x1="70" y1="620" x2="50" y2="620" stroke="#000000" stroke-width="1px"/>
<text x="77" y="623" font-size="8.888889px" font-family="Times New Roman" fill="#000000" xml:space="preserve">57</text>
</g>
<g id = "TMZFBKJG" >
<line x1="70" y1="630" x2="50" y2="630" stroke="#000000" stroke-width="1px"/>
<text x="77" y="633" font-size="8.888889px" font-family="Times New Roman" fill="#000000" xml:space="preserve">58</text>
</g>
<g id = "HXLURNTF" >
<line x1="70" y1="640" x2="50" y2="640" stroke="#000000" stroke-width="1px"/>
<text x="77" y="643" font-size="8.888889px" font-family="Times New Roman" fill="#000000" xml:space="preserve">59</text>
</g>
<g id = "QDWKNZQR" >
<line x1="70" y1="650" x2="50" y2="650" stroke="#000000" stroke-width="1px"/>
<text x="77" y="653" font-size="8.888889px" font-family="Times New Roman" fill="#000000" xml:space="preserve">60</text>
</g>
<g id = "NRFMFSRP" >
<line x1="70" y1="660" x2="50" y2="660" stroke="#000000" stroke-width="1px"/>
<text x="77" y="663" font-size="8.888889px" font-family="Times New Roman" fill="#000000" xml:space="preserve">61</text>
</g>
<g id = "LSHEDJIK" >
<line x1="70" y1="670" x2="50" y2="670" stroke="#000000" stroke-width="1px"/>
<text x="77" y="673" font-size="8.888889px" font-family="Times New Roman" fill="#000000" xml:space="preserve">62</text>
</g>
<g id = "FTPTHSSR" >
<line x1="70" y1="680" x2="50" y2="680" stroke="#000000" stroke-width="1px"/>
<text x="77" y="683" font-size="8.888889px" font-family="Times New Roman" fill="#000000" xml:space="preserve">63</text>
</g>
<g id = "QTHSXQNU" >
<line x1="70" y1="690" x2="50" y2="690" stroke="#000000" stroke-width="1px"/>
<text x="77" y="693" font-size="8.888889px" font-family="Times New Roman" fill="#000000" xml:space="preserve">64</text>
</g>
<g id = "JBMBRNMA" >
<line x1="70" y1="700" x2="50" y2="700" stroke="#000000" stroke-width="1px"/>
<text x="77" y="703" font-size="8.888889px" font-family="Times New Roman" fill="#000000" xml:space="preserve">65</text>
</g>
<g id = "YZANBZZT" >
<line x1="70" y1="710" x2="50" y2="710" stroke="#000000" stroke-width="1px"/>
<text x="77" y="713" font-size="8.888889px" font-family="Times New Roman" fill="#000000" xml:space="preserve">66</text>
</g>
<g id = "DMXKFEQJ" >
<line x1="70" y1="720" x2="50" y2="720" stroke="#000000" stroke-width="1px"/>
<text x="77" y="723" font-size="8.888889px" font-family="Times New Roman" fill="#000000" xml:space="preserve">67</text>
</g>
<g id = "GLIDGYAL" >
<line x1="70" y1="730" x2="50" y2="730" stroke="#000000" stroke-width="1px"/>
<text x="77" y="733" font-size="8.888889px" font-family="Times New Roman" fill="#000000" xml:space="preserve">68</text>
</g>
<g id = "LYIESHTP" >
<line x1="70" y1="740" x2="50" y2="740" stroke="#000000" stroke-width="1px"/>
<text x="77" y="743" font-size="8.888889px" font-family="Times New Roman" fill="#000000" xml:space="preserve">69</text>
</g>
<g id = "NOBFESEL" >
<line x1="70" y1="750" x2="50" y2="750" stroke="#000000" stroke-width="1px"/>
<text x="77" y="753" font-size="8.888889px" font-family="Times New Roman" fill="#000000" xml:space="preserve">70</text>
</g>
<g id = "KPMSCHUW" >
<line x1="70" y1="760" x2="50" y2="760" stroke="#000000" stroke-width="1px"/>
<text x="77" y="763" font-size="8.888889px" font-family="Times New Roman" fill="#000000" xml:space="preserve">71</text>
</g>
<g id = "KWTISUFL" >
<line x1="70" y1="770" x2="50" y2="770" stroke="#000000" stroke-width="1px"/>
<text x="77" y="773" font-size="8.888889px" font-family="Times New Roman" fill="#000000" xml:space="preserve">72</text>
</g>
<g id = "HZUOUVYM" >
<line x1="70" y1="780" x2="50" y2="780" stroke="#000000" stroke-width="1px"/>
<text x="77" y="783" font-size="8.888889px" font-family="Times New Roman" fill="#000000" xml:space="preserve">73</text>
</g>
<g id = "VWUIPOLM" >
<line x1="70" y1="790" x2="50" y2="790" stroke="#000000" stroke-width="1px"/>
<text x="77" y="793" font-size="8.888889px" font-family="Times New Roman" fill="#000000" xml:space="preserve">74</text>
</g>
<g id = "JUTTZOPM" >
<line x1="70" y1="800" x2="50" y2="800" stroke="#000000" stroke-width="1px"/>
<text x="77" y="803" font-size="8.888889px" font-family="Times New Roman" fill="#000000" xml:space="preserve">75</text>
</g>
<g id = "CQNNOGDK" >
<line x1="70" y1="810" x2="50" y2="810" stroke="#000000" stroke-width="1px"/>
<text x="77" y="813" font-size="8.888889px" font-family="Times New Roman" fill="#000000" xml:space="preserve">76</text>
</g>
<g id = "TQTJWQTT" >
<line x1="70" y1="820" x2="50" y2="820" stroke="#000000" stroke-width="1px"/>
<text x="77" y="823" font-size="8.888889px" font-family="Times New Roman" fill="#000000" xml:space="preserve">77</text>
</g>
<g id = "UUZAAINA" >
<line x1="70" y1="830" x2="50" y2="830" stroke="#000000" stroke-width="1px"/>
<text x="77" y="833" font-size="8.888889px" font-family="Times New Roman" fill="#000000" xml:space="preserve">78</text>
</g>
<g id = "QXTHFCSS" >
<line x1="70" y1="840" x2="50" y2="840" stroke="#000000" stroke-width="1px"/>
<text x="77" y="843" font-size="8.888889px" font-family="Times New Roman" fill="#000000" xml:space="preserve">79</text>
</g>
<g id = "UVYUEKRN" >
<line x1="70" y1="850" x2="50" y2="850" stroke="#000000" stroke-width="1px"/>
<text x="77" y="853" font-size="8.888889px" font-family="Times New Roman" fill="#000000" xml:space="preserve">80</text>
</g>
<g id = "MDEKVUEB" >
<line x1="70" y1="860" x2="50" y2="860" stroke="#000000" stroke-width="1px"/>
<text x="77" y="863" font-size="8.888889px" font-family="Times New Roman" fill="#000000" xml:space="preserve">81</text>
</g>
<g id = "NATFTTYG" >
<line x1="70" y1="870" x2="50" y2="870" stroke="#000000" stroke-width="1px"/>
<text x="77" y="873" font-size="8.888889px" font-family="Times New Roman" fill="#000000" xml:space="preserve">82</text>
</g>
<g id = "UWMIOHPS" >
<line x1="70" y1="880" x2="50" y2="880" stroke="#000000" stroke-width="1px"/>
<text x="77" y="883" font-size="8.888889px" font-family="Times New Roman" fill="#000000" xml:space="preserve">83</text>
</g>
<g id = "KRDFPZFN" >
<line x1="110" y1="60" x2="130" y2="60" stroke="#000000" stroke-width="1px"/>
<text x="93.1111" y="63" font-size="8.888889px" font-family="Times New Roman" fill="#000000" xml:space="preserve">84</text>
</g>
<g id = "YMUMDOXR" >
<line x1="110" y1="70" x2="130" y2="70" stroke="#000000" stroke-width="1px"/>
<text x="93.1111" y="73" font-size="8.888889px" font-family="Times New Roman" fill="#000000" xml:space="preserve">85</text>
</g>
<g id = "QISRYSHH" >
<line x1="110" y1="80" x2="130" y2="80" stroke="#000000" stroke-width="1px"/>
<text x="93.1111" y="83" font-size="8.888889px" font-family="Times New Roman" fill="#000000" xml:space="preserve">86</text>
</g>
<g id = "UKGKLMMT" >
<line x1="110" y1="90" x2="130" y2="90" stroke="#000000" stroke-width="1px"/>
<text x="93.1111" y="93" font-size="8.888889px" font-family="Times New Roman" fill="#000000" xml:space="preserve">87</text>
</g>
<g id = "BNMOWINJ" >
<line x1="110" y1="100" x2="130" y2="100" stroke="#000000" stroke-width="1px"/>
<text x="93.1111" y="103" font-size="8.888889px" font-family="Times New Roman" fill="#000000" xml:space="preserve">88</text>
</g>
<g id = "DVRWMHWH" >
<line x1="110" y1="110" x2="130" y2="110" stroke="#000000" stroke-width="1px"/>
<text x="93.1111" y="113" font-size="8.888889px" font-family="Times New Roman" fill="#000000" xml:space="preserve">89</text>
</g>
<g id = "UQSLZPIR" >
<line x1="110" y1="120" x2="130" y2="120" stroke="#000000" stroke-width="1px"/>
<text x="93.1111" y="123" font-size="8.888889px" font-family="Times New Roman" fill="#000000" xml:space="preserve">90</text>
</g>
<g id = "RXRTGAVT" >
<line x1="110" y1="130" x2="130" y2="130" stroke="#000000" stroke-width="1px"/>
<text x="93.1111" y="133" font-size="8.888889px" font-family="Times New Roman" fill="#000000" xml:space="preserve">91</text>
</g>
<g id = "GLAILLBO" >
<line x1="110" y1="140" x2="130" y2="140" stroke="#000000" stroke-width="1px"/>
<text x="93.1111" y="143" font-size="8.888889px" font-family="Times New Roman" fill="#000000" xml:space="preserve">92</text>
</g>
<g id = "ANVOTDKC" >
<line x1="110" y1="150" x2="130" y2="150" stroke="#000000" stroke-width="1px"/>
<text x="93.1111" y="153" font-size="8.888889px" font-family="Times New Roman" fill="#000000" xml:space="preserve">93</text>
</g>
<g id = "WRNDPRVY" >
<line x1="110" y1="160" x2="130" y2="160" stroke="#000000" stroke-width="1px"/>
<text x="93.1111" y="163" font-size="8.888889px" font-family="Times New Roman" fill="#000000" xml:space="preserve">94</text>
</g>
<g id = "MOMPQJJU" >
<line x1="110" y1="170" x2="130" y2="170" stroke="#000000" stroke-width="1px"/>
<text x="93.1111" y="173" font-size="8.888889px" font-family="Times New Roman" fill="#000000" xml:space="preserve">95</text>
</g>
<g id = "SEZPMYFZ" >
<line x1="110" y1="180" x2="130" y2="180" stroke="#000000" stroke-width="1px"/>
<text x="93.1111" y="183" font-size="8.888889px" font-family="Times New Roman" fill="#000000" xml:space="preserve">96</text>
</g>
<g id = "UHFTAJYZ" >
<line x1="110" y1="190" x2="130" y2="190" stroke="#000000" stroke-width="1px"/>
<text x="93.1111" y="193" font-size="8.888889px" font-family="Times New Roman" fill="#000000" xml:space="preserve">97</text>
</g>
<g id = "CVUQXTZO" >
<line x1="110" y1="200" x2="130" y2="200" stroke="#000000" stroke-width="1px"/>
<text x="93.1111" y="203" font-size="8.888889px" font-family="Times New Roman" fill="#000000" xml:space="preserve">98</text>
</g>
<g id = "LZPGLXYK" >
<line x1="110" y1="210" x2="130" y2="210" stroke="#000000" stroke-width="1px"/>
<text x="93.1111" y="213" font-size="8.888889px" font-family="Times New Roman" fill="#000000" xml:space="preserve">99</text>
</g>
<g id = "PTKKGNEC" >
<line x1="110" y1="220" x2="130" y2="220" stroke="#000000" stroke-width="1px"/>
<text x="88.1667" y="223" font-size="8.888889px" font-family="Times New Roman" fill="#000000" xml:space="preserve">100</text>
</g>
<g id = "ETSCIBIH" >
<line x1="110" y1="230" x2="130" y2="230" stroke="#000000" stroke-width="1px"/>
<text x="88.1667" y="233" font-size="8.888889px" font-family="Times New Roman" fill="#000000" xml:space="preserve">101</text>
</g>
<g id = "CHLVWCES" >
<line x1="110" y1="240" x2="130" y2="240" stroke="#000000" stroke-width="1px"/>
<text x="88.1667" y="243" font-size="8.888889px" font-family="Times New Roman" fill="#000000" xml:space="preserve">102</text>
</g>
<g id = "SASNTKOY" >
<line x1="110" y1="250" x2="130" y2="250" stroke="#000000" stroke-width="1px"/>
<text x="88.1667" y="253" font-size="8.888889px" font-family="Times New Roman" fill="#000000" xml:space="preserve">103</text>
</g>
<g id = "CFUFXNCJ" >
<line x1="110" y1="260" x2="130" y2="260" stroke="#000000" stroke-width="1px"/>
<text x="88.1667" y="263" font-size="8.888889px" font-family="Times New Roman" fill="#000000" xml:space="preserve">104</text>
</g>
<g id = "HURQSEKM" >
<line x1="110" y1="270" x2="130" y2="270" stroke="#000000" stroke-width="1px"/>
<text x="88.1667" y="273" font-size="8.888889px" font-family="Times New Roman" fill="#000000" xml:space="preserve">105</text>
</g>
<g id = "XGYLCHWS" >
<line x1="110" y1="280" x2="130" y2="280" stroke="#000000" stroke-width="1px"/>
<text x="88.1667" y="283" font-size="8.888889px" font-family="Times New Roman" fill="#000000" xml:space="preserve">106</text>
</g>
<g id = "PKIYOQTM" >
<line x1="110" y1="290" x2="130" y2="290" stroke="#000000" stroke-width="1px"/>
<text x="88.1667" y="293" font-size="8.888889px" font-family="Times New Roman" fill="#000000" xml:space="preserve">107</text>
</g>
<g id = "TDNUITZS" >
<line x1="110" y1="300" x2="130" y2="300" stroke="#000000" stroke-width="1px"/>
<text x="88.1667" y="303" font-size="8.888889px" font-family="Times New Roman" fill="#000000" xml:space="preserve">108</text>
</g>
<g id = "ZLLRDXAJ" >
<line x1="110" y1="310" x2="130" y2="310" stroke="#000000" stroke-width="1px"/>
<text x="88.1667" y="313" font-size="8.888889px" font-family="Times New Roman" fill="#000000" xml:space="preserve">109</text>
</g>
<g id = "APTAHGZZ" >
<line x1="110" y1="320" x2="130" y2="320" stroke="#000000" stroke-width="1px"/>
<text x="88.1667" y="323" font-size="8.888889px" font-family="Times New Roman" fill="#000000" xml:space="preserve">110</text>
</g>
<g id = "FFUOWOJS" >
<line x1="110" y1="330" x2="130" y2="330" stroke="#000000" stroke-width="1px"/>
<text x="88.1667" y="333" font-size="8.888889px" font-family="Times New Roman" fill="#000000" xml:space="preserve">111</text>
</g>
<g id = "OQROADDX" >
<line x1="110" y1="340" x2="130" y2="340" stroke="#000000" stroke-width="1px"/>
<text x="88.1667" y="343" font-size="8.888889px" font-family="Times New Roman" fill="#000000" xml:space="preserve">112</text>
</g>
<g id = "KVFRZJUB" >
<line x1="110" y1="350" x2="130" y2="350" stroke="#000000" stroke-width="1px"/>
<text x="88.1667" y="353" font-size="8.888889px" font-family="Times New Roman" fill="#000000" xml:space="preserve">113</text>
</g>
<g id = "WTNMHSYG" >
<line x1="110" y1="360" x2="130" y2="360" stroke="#000000" stroke-width="1px"/>
<text x="88.1667" y="363" font-size="8.888889px" font-family="Times New Roman" fill="#000000" xml:space="preserve">114</text>
</g>
<g id = "BNNECIEL" >
<line x1="110" y1="370" x2="130" y2="370" stroke="#000000" stroke-width="1px"/>
<text x="88.1667" y="373" font-size="8.888889px" font-family="Times New Roman" fill="#000000" xml:space="preserve">115</text>
</g>
<g id = "SWIGLSZR" >
<line x1="110" y1="380" x2="130" y2="380" stroke="#000000" stroke-width="1px"/>
<text x="88.1667" y="383" font-size="8.888889px" font-family="Times New Roman" fill="#000000" xml:space="preserve">116</text>
</g>
<g id = "PRXADWZS" >
<line x1="110" y1="390" x2="130" y2="390" stroke="#000000" stroke-width="1px"/>
<text x="88.1667" y="393" font-size="8.888889px" font-family="Times New Roman" fill="#000000" xml:space="preserve">117</text>
</g>
<g id = "ATRYFLSK" >
<line x1="110" y1="400" x2="130" y2="400" stroke="#000000" stroke-width="1px"/>
<text x="88.1667" y="403" font-size="8.888889px" font-family="Times New Roman" fill="#000000" xml:space="preserve">118</text>
</g>
<g id = "DGOROOAD" >
<line x1="110" y1="410" x2="130" y2="410" stroke="#000000" stroke-width="1px"/>
<text x="88.1667" y="413" font-size="8.888889px" font-family="Times New Roman" fill="#000000" xml:space="preserve">119</text>
</g>
<g id = "IVXIVGAJ" >
<line x1="110" y1="420" x2="130" y2="420" stroke="#000000" stroke-width="1px"/>
<text x="88.1667" y="423" font-size="8.888889px" font-family="Times New Roman" fill="#000000" xml:space="preserve">120</text>
</g>
<g id = "HAGLKHZJ" >
<line x1="110" y1="430" x2="130" y2="430" stroke="#000000" stroke-width="1px"/>
<text x="88.1667" y="433" font-size="8.888889px" font-family="Times New Roman" fill="#000000" xml:space="preserve">121</text>
</g>
<g id = "HSRYBGHM" >
<line x1="110" y1="440" x2="130" y2="440" stroke="#000000" stroke-width="1px"/>
<text x="88.1667" y="443" font-size="8.888889px" font-family="Times New Roman" fill="#000000" xml:space="preserve">122</text>
</g>
<g id = "WAEYDEYK" >
<line x1="110" y1="450" x2="130" y2="450" stroke="#000000" stroke-width="1px"/>
<text x="88.1667" y="453" font-size="8.888889px" font-family="Times New Roman" fill="#000000" xml:space="preserve">123</text>
</g>
<g id = "UGWOVNRM" >
<line x1="110" y1="460" x2="130" y2="460" stroke="#000000" stroke-width="1px"/>
<text x="88.1667" y="463" font-size="8.888889px" font-family="Times New Roman" fill="#000000" xml:space="preserve">124</text>
</g>
<g id = "RYTEPAWQ" >
<line x1="110" y1="470" x2="130" y2="470" stroke="#000000" stroke-width="1px"/>
<text x="88.1667" y="473" font-size="8.888889px" font-family="Times New Roman" fill="#000000" xml:space="preserve">125</text>
</g>
<g id = "KZVTXWNU" >
<line x1="110" y1="480" x2="130" y2="480" stroke="#000000" stroke-width="1px"/>
<text x="88.1667" y="483" font-size="8.888889px" font-family="Times New Roman" fill="#000000" xml:space="preserve">126</text>
</g>
<g id = "DYFKNCWF" >
<line x1="110" y1="490" x2="130" y2="490" stroke="#000000" stroke-width="1px"/>
<text x="88.1667" y="493" font-size="8.888889px" font-family="Times New Roman" fill="#000000" xml:space="preserve">127</text>
</g>
<g id = "ZEXDNTOM" >
<line x1="110" y1="500" x2="130" y2="500" stroke="#000000" stroke-width="1px"/>
<text x="88.1667" y="503" font-size="8.888889px" font-family="Times New Roman" fill="#000000" xml:space="preserve">128</text>
</g>
<g id = "HZYXMNUJ" >
<line x1="110" y1="510" x2="130" y2="510" stroke="#000000" stroke-width="1px"/>
<text x="88.1667" y="513" font-size="8.888889px" font-family="Times New Roman" fill="#000000" xml:space="preserve">129</text>
</g>
<g id = "VUIBGKXO" >
<line x1="110" y1="520" x2="130" y2="520" stroke="#000000" stroke-width="1px"/>
<text x="88.1667" y="523" font-size="8.888889px" font-family="Times New Roman" fill="#000000" xml:space="preserve">130</text>
</g>
<g id = "AGIGNRIV" >
<line x1="110" y1="530" x2="130" y2="530" stroke="#000000" stroke-width="1px"/>
<text x="88.1667" y="533" font-size="8.888889px" font-family="Times New Roman" fill="#000000" xml:space="preserve">131</text>
</g>
<g id = "XLUSUVYQ" >
<line x1="110" y1="540" x2="130" y2="540" stroke="#000000" stroke-width="1px"/>
<text x="88.1667" y="543" font-size="8.888889px" font-family="Times New Roman" fill="#000000" xml:space="preserve">132</text>
</g>
<g id = "VLHFKWCM" >
<line x1="110" y1="550" x2="130" y2="550" stroke="#000000" stroke-width="1px"/>
<text x="88.1667" y="553" font-size="8.888889px" font-family="Times New Roman" fill="#000000" xml:space="preserve">133</text>
</g>
<g id = "JRUXYHIH" >
<line x1="110" y1="560" x2="130" y2="560" stroke="#000000" stroke-width="1px"/>
<text x="88.1667" y="563" font-size="8.888889px" font-family="Times New Roman" fill="#000000" xml:space="preserve">134</text>
</g>
<g id = "APCVKWHP" >
<line x1="110" y1="570" x2="130" y2="570" stroke="#000000" stroke-width="1px"/>
<text x="88.1667" y="573" font-size="8.888889px" font-family="Times New Roman" fill="#000000" xml:space="preserve">135</text>
</g>
<g id = "BYNWAHOK" >
<line x1="110" y1="580" x2="130" y2="580" stroke="#000000" stroke-width="1px"/>
<text x="88.1667" y="583" font-size="8.888889px" font-family="Times New Roman" fill="#000000" xml:space="preserve">136</text>
</g>
<g id = "BSMFAHDY" >
<line x1="110" y1="590" x2="130" y2="590" stroke="#000000" stroke-width="1px"/>
<text x="88.1667" y="593" font-size="8.888889px" font-family="Times New Roman" fill="#000000" xml:space="preserve">137</text>
</g>
<g id = "CABLUIOH" >
<line x1="110" y1="600" x2="130" y2="600" stroke="#000000" stroke-width="1px"/>
<text x="88.1667" y="603" font-size="8.888889px" font-family="Times New Roman" fill="#000000" xml:space="preserve">138</text>
</g>
<g id = "HLRZUYPA" >
<line x1="110" y1="610" x2="130" y2="610" stroke="#000000" stroke-width="1px"/>
<text x="88.1667" y="613" font-size="8.888889px" font-family="Times New Roman" fill="#000000" xml:space="preserve">139</text>
</g>
<g id = "MQQVYSTZ" >
<line x1="110" y1="620" x2="130" y2="620" stroke="#000000" stroke-width="1px"/>
<text x="88.1667" y="623" font-size="8.888889px" font-family="Times New Roman" fill="#000000" xml:space="preserve">140</text>
</g>
<g id = "VXLIUYFY" >
<line x1="110" y1="630" x2="130" y2="630" stroke="#000000" stroke-width="1px"/>
<text x="88.1667" y="633" font-size="8.888889px" font-family="Times New Roman" fill="#000000" xml:space="preserve">141</text>
</g>
<g id = "GEDGPXZE" >
<line x1="110" y1="640" x2="130" y2="640" stroke="#000000" stroke-width="1px"/>
<text x="88.1667" y="643" font-size="8.888889px" font-family="Times New Roman" fill="#000000" xml:space="preserve">142</text>
</g>
<g id = "ROYCIFDM" >
<line x1="110" y1="650" x2="130" y2="650" stroke="#000000" stroke-width="1px"/>
<text x="88.1667" y="653" font-size="8.888889px" font-family="Times New Roman" fill="#000000" xml:space="preserve">143</text>
</g>
<g id = "KTCLYCSC" >
<line x1="110" y1="660" x2="130" y2="660" stroke="#000000" stroke-width="1px"/>
<text x="88.1667" y="663" font-size="8.888889px" font-family="Times New Roman" fill="#000000" xml:space="preserve">144</text>
</g>
<g id = "INSOMZYC" >
<line x1="110" y1="670" x2="130" y2="670" stroke="#000000" stroke-width="1px"/>
<text x="88.1667" y="673" font-size="8.888889px" font-family="Times New Roman" fill="#000000" xml:space="preserve">145</text>
</g>
<g id = "QTJXMVCW" >
<line x1="110" y1="680" x2="130" y2="680" stroke="#000000" stroke-width="1px"/>
<text x="88.1667" y="683" font-size="8.888889px" font-family="Times New Roman" fill="#000000" xml:space="preserve">146</text>
</g>
<g id = "LFMVXXDH" >
<line x1="110" y1="690" x2="130" y2="690" stroke="#000000" stroke-width="1px"/>
<text x="88.1667" y="693" font-size="8.888889px" font-family="Times New Roman" fill="#000000" xml:space="preserve">147</text>
</g>
<g id = "BYYGXNMF" >
<line x1="110" y1="700" x2="130" y2="700" stroke="#000000" stroke-width="1px"/>
<text x="88.1667" y="703" font-size="8.888889px" font-family="Times New Roman" fill="#000000" xml:space="preserve">148</text>
</g>
<g id = "XMZFMRGY" >
<line x1="110" y1="710" x2="130" y2="710" stroke="#000000" stroke-width="1px"/>
<text x="88.1667" y="713" font-size="8.888889px" font-family="Times New Roman" fill="#000000" xml:space="preserve">149</text>
</g>
<g id = "JBUYDEHB" >
<line x1="110" y1="720" x2="130" y2="720" stroke="#000000" stroke-width="1px"/>
<text x="88.1667" y="723" font-size="8.888889px" font-family="Times New Roman" fill="#000000" xml:space="preserve">150</text>
</g>
<g id = "OWCSLADB" >
<line x1="110" y1="730" x2="130" y2="730" stroke="#000000" stroke-width="1px"/>
<text x="88.1667" y="733" font-size="8.888889px" font-family="Times New Roman" fill="#000000" xml:space="preserve">151</text>
</g>
<g id = "VTDBJZMC" >
<line x1="110" y1="740" x2="130" y2="740" stroke="#000000" stroke-width="1px"/>
<text x="88.1667" y="743" font-size="8.888889px" font-family="Times New Roman" fill="#000000" xml:space="preserve">152</text>
</g>
<g id = "ONMKVRLS" >
<line x1="110" y1="750" x2="130" y2="750" stroke="#000000" stroke-width="1px"/>
<text x="88.1667" y="753" font-size="8.888889px" font-family="Times New Roman" fill="#000000" xml:space="preserve">153</text>
</g>
<g id = "LHPXVPPE" >
<line x1="110" y1="760" x2="130" y2="760" stroke="#000000" stroke-width="1px"/>
<text x="88.1667" y="763" font-size="8.888889px" font-family="Times New Roman" fill="#000000" xml:space="preserve">154</text>
</g>
<g id = "LIKMGDMS" >
<line x1="110" y1="770" x2="130" y2="770" stroke="#000000" stroke-width="1px"/>
<text x="88.1667" y="773" font-size="8.888889px" font-family="Times New Roman" fill="#000000" xml:space="preserve">155</text>
</g>
<g id = "WRHYQDOM" >
<line x1="110" y1="780" x2="130" y2="780" stroke="#000000" stroke-width="1px"/>
<text x="88.1667" y="783" font-size="8.888889px" font-family="Times New Roman" fill="#000000" xml:space="preserve">156</text>
</g>
<g id = "MWVEVLCE" >
<line x1="110" y1="790" x2="130" y2="790" stroke="#000000" stroke-width="1px"/>
<text x="88.1667" y="793" font-size="8.888889px" font-family="Times New Roman" fill="#000000" xml:space="preserve">157</text>
</g>
<g id = "TFZILLAX" >
<line x1="110" y1="800" x2="130" y2="800" stroke="#000000" stroke-width="1px"/>
<text x="88.1667" y="803" font-size="8.888889px" font-family="Times New Roman" fill="#000000" xml:space="preserve">158</text>
</g>
<g id = "TIQPHOQY" >
<line x1="110" y1="810" x2="130" y2="810" stroke="#000000" stroke-width="1px"/>
<text x="88.1667" y="813" font-size="8.888889px" font-family="Times New Roman" fill="#000000" xml:space="preserve">159</text>
</g>
<g id = "MBTPTCEM" >
<line x1="110" y1="820" x2="130" y2="820" stroke="#000000" stroke-width="1px"/>
<text x="88.1667" y="823" font-size="8.888889px" font-family="Times New Roman" fill="#000000" xml:space="preserve">160</text>
</g>
<g id = "XFTNHRJR" >
<line x1="110" y1="830" x2="130" y2="830" stroke="#000000" stroke-width="1px"/>
<text x="88.1667" y="833" font-size="8.888889px" font-family="Times New Roman" fill="#000000" xml:space="preserve">161</text>
</g>
<g id = "BZEQZOUB" >
<line x1="110" y1="840" x2="130" y2="840" stroke="#000000" stroke-width="1px"/>
<text x="88.1667" y="843" font-size="8.888889px" font-family="Times New Roman" fill="#000000" xml:space="preserve">162</text>
</g>
<g id = "OKEBTNPX" >
<line x1="110" y1="850" x2="130" y2="850" stroke="#000000" stroke-width="1px"/>
<text x="88.1667" y="853" font-size="8.888889px" font-family="Times New Roman" fill="#000000" xml:space="preserve">163</text>
</g>
<g id = "AZJHHOWR" >
<line x1="110" y1="860" x2="130" y2="860" stroke="#000000" stroke-width="1px"/>
<text x="88.1667" y="863" font-size="8.888889px" font-family="Times New Roman" fill="#000000" xml:space="preserve">164</text>
</g>
<g id = "DSIVGRXR" >
<line x1="110" y1="870" x2="130" y2="870" stroke="#000000" stroke-width="1px"/>
<text x="88.1667" y="873" font-size="8.888889px" font-family="Times New Roman" fill="#000000" xml:space="preserve">165</text>
</g>
<g id = "WIWXGWZJ" >
<line x1="110" y1="880" x2="130" y2="880" stroke="#000000" stroke-width="1px"/>
<text x="88.1667" y="883" font-size="8.888889px" font-family="Times New Roman" fill="#000000" xml:space="preserve">166</text>
</g>
</g>
</g>
</g>
</g>
</svg>