<?xml version="1.0"  encoding="UTF-8" standalone="no"?>
<svg version="1.1" xmlns="http://www.w3.org/2000/svg" xmlns:xlink="http://www.w3.org/1999/xlink" stroke-linecap="round" stroke-linejoin="round" fill="none" width="180" height="1010" viewBox="0 0 180 1010" data-doc-id="symbol-Header 90X2A" data-doc-ver="2">
<g id = "scene" >
<g id = "DocumentMainGroup" >
<g id = "BackgroundGroup" >
<rect x = "0" y="0" width="180" height="1010" fill="#FFFFFF" fill-opacity="1"/>
</g>
<g id = "symbol-Header 90X2A" >
<g id = "DocumentItemsGroup" >
<g id = "QEEXLDZX" >
<rect x = "70" y="50" width="40" height="910" stroke="#0000FF" stroke-width="1px"/>
</g>
<g id = "BWFDWRYN" >
<line x1="70" y1="60" x2="50" y2="60" stroke="#000000" stroke-width="1px"/>
<text x="77" y="63" font-size="8.888889px" font-family="Times New Roman" fill="#000000" xml:space="preserve">1</text>
</g>
<g id = "LODHXFXX" >
<line x1="70" y1="70" x2="50" y2="70" stroke="#000000" stroke-width="1px"/>
<text x="77" y="73" font-size="8.888889px" font-family="Times New Roman" fill="#000000" xml:space="preserve">2</text>
</g>
<g id = "SBWQEFNE" >
<line x1="70" y1="80" x2="50" y2="80" stroke="#000000" stroke-width="1px"/>
<text x="77" y="83" font-size="8.888889px" font-family="Times New Roman" fill="#000000" xml:space="preserve">3</text>
</g>
<g id = "FRXSRTRE" >
<line x1="70" y1="90" x2="50" y2="90" stroke="#000000" stroke-width="1px"/>
<text x="77" y="93" font-size="8.888889px" font-family="Times New Roman" fill="#000000" xml:space="preserve">4</text>
</g>
<g id = "DNFPVVXQ" >
<line x1="70" y1="100" x2="50" y2="100" stroke="#000000" stroke-width="1px"/>
<text x="77" y="103" font-size="8.888889px" font-family="Times New Roman" fill="#000000" xml:space="preserve">5</text>
</g>
<g id = "TWRVBHRL" >
<line x1="70" y1="110" x2="50" y2="110" stroke="#000000" stroke-width="1px"/>
<text x="77" y="113" font-size="8.888889px" font-family="Times New Roman" fill="#000000" xml:space="preserve">6</text>
</g>
<g id = "XBJHRNZM" >
<line x1="70" y1="120" x2="50" y2="120" stroke="#000000" stroke-width="1px"/>
<text x="77" y="123" font-size="8.888889px" font-family="Times New Roman" fill="#000000" xml:space="preserve">7</text>
</g>
<g id = "QHALEAJS" >
<line x1="70" y1="130" x2="50" y2="130" stroke="#000000" stroke-width="1px"/>
<text x="77" y="133" font-size="8.888889px" font-family="Times New Roman" fill="#000000" xml:space="preserve">8</text>
</g>
<g id = "HAZDTQJW" >
<line x1="70" y1="140" x2="50" y2="140" stroke="#000000" stroke-width="1px"/>
<text x="77" y="143" font-size="8.888889px" font-family="Times New Roman" fill="#000000" xml:space="preserve">9</text>
</g>
<g id = "WGVOYHRM" >
<line x1="70" y1="150" x2="50" y2="150" stroke="#000000" stroke-width="1px"/>
<text x="77" y="153" font-size="8.888889px" font-family="Times New Roman" fill="#000000" xml:space="preserve">10</text>
</g>
<g id = "CCHAWUVZ" >
<line x1="70" y1="160" x2="50" y2="160" stroke="#000000" stroke-width="1px"/>
<text x="77" y="163" font-size="8.888889px" font-family="Times New Roman" fill="#000000" xml:space="preserve">11</text>
</g>
<g id = "KDVBKRUY" >
<line x1="70" y1="170" x2="50" y2="170" stroke="#000000" stroke-width="1px"/>
<text x="77" y="173" font-size="8.888889px" font-family="Times New Roman" fill="#000000" xml:space="preserve">12</text>
</g>
<g id = "BVLXBJSM" >
<line x1="70" y1="180" x2="50" y2="180" stroke="#000000" stroke-width="1px"/>
<text x="77" y="183" font-size="8.888889px" font-family="Times New Roman" fill="#000000" xml:space="preserve">13</text>
</g>
<g id = "YOUXYUOG" >
<line x1="70" y1="190" x2="50" y2="190" stroke="#000000" stroke-width="1px"/>
<text x="77" y="193" font-size="8.888889px" font-family="Times New Roman" fill="#000000" xml:space="preserve">14</text>
</g>
<g id = "GEQMAVJG" >
<line x1="70" y1="200" x2="50" y2="200" stroke="#000000" stroke-width="1px"/>
<text x="77" y="203" font-size="8.888889px" font-family="Times New Roman" fill="#000000" xml:space="preserve">15</text>
</g>
<g id = "GBVOQLWD" >
<line x1="70" y1="210" x2="50" y2="210" stroke="#000000" stroke-width="1px"/>
<text x="77" y="213" font-size="8.888889px" font-family="Times New Roman" fill="#000000" xml:space="preserve">16</text>
</g>
<g id = "QZNBCLUA" >
<line x1="70" y1="220" x2="50" y2="220" stroke="#000000" stroke-width="1px"/>
<text x="77" y="223" font-size="8.888889px" font-family="Times New Roman" fill="#000000" xml:space="preserve">17</text>
</g>
<g id = "IQMBLEFV" >
<line x1="70" y1="230" x2="50" y2="230" stroke="#000000" stroke-width="1px"/>
<text x="77" y="233" font-size="8.888889px" font-family="Times New Roman" fill="#000000" xml:space="preserve">18</text>
</g>
<g id = "XPYMAWHY" >
<line x1="70" y1="240" x2="50" y2="240" stroke="#000000" stroke-width="1px"/>
<text x="77" y="243" font-size="8.888889px" font-family="Times New Roman" fill="#000000" xml:space="preserve">19</text>
</g>
<g id = "MFUCAQRM" >
<line x1="70" y1="250" x2="50" y2="250" stroke="#000000" stroke-width="1px"/>
<text x="77" y="253" font-size="8.888889px" font-family="Times New Roman" fill="#000000" xml:space="preserve">20</text>
</g>
<g id = "HEZYZZOK" >
<line x1="70" y1="260" x2="50" y2="260" stroke="#000000" stroke-width="1px"/>
<text x="77" y="263" font-size="8.888889px" font-family="Times New Roman" fill="#000000" xml:space="preserve">21</text>
</g>
<g id = "VBOOEWKU" >
<line x1="70" y1="270" x2="50" y2="270" stroke="#000000" stroke-width="1px"/>
<text x="77" y="273" font-size="8.888889px" font-family="Times New Roman" fill="#000000" xml:space="preserve">22</text>
</g>
<g id = "ABWMUBDE" >
<line x1="70" y1="280" x2="50" y2="280" stroke="#000000" stroke-width="1px"/>
<text x="77" y="283" font-size="8.888889px" font-family="Times New Roman" fill="#000000" xml:space="preserve">23</text>
</g>
<g id = "KCDVNZRO" >
<line x1="70" y1="290" x2="50" y2="290" stroke="#000000" stroke-width="1px"/>
<text x="77" y="293" font-size="8.888889px" font-family="Times New Roman" fill="#000000" xml:space="preserve">24</text>
</g>
<g id = "YSYUGPAW" >
<line x1="70" y1="300" x2="50" y2="300" stroke="#000000" stroke-width="1px"/>
<text x="77" y="303" font-size="8.888889px" font-family="Times New Roman" fill="#000000" xml:space="preserve">25</text>
</g>
<g id = "YLKNPGKB" >
<line x1="70" y1="310" x2="50" y2="310" stroke="#000000" stroke-width="1px"/>
<text x="77" y="313" font-size="8.888889px" font-family="Times New Roman" fill="#000000" xml:space="preserve">26</text>
</g>
<g id = "ISOOOGHA" >
<line x1="70" y1="320" x2="50" y2="320" stroke="#000000" stroke-width="1px"/>
<text x="77" y="323" font-size="8.888889px" font-family="Times New Roman" fill="#000000" xml:space="preserve">27</text>
</g>
<g id = "VQRJGGPJ" >
<line x1="70" y1="330" x2="50" y2="330" stroke="#000000" stroke-width="1px"/>
<text x="77" y="333" font-size="8.888889px" font-family="Times New Roman" fill="#000000" xml:space="preserve">28</text>
</g>
<g id = "DERBCKMO" >
<line x1="70" y1="340" x2="50" y2="340" stroke="#000000" stroke-width="1px"/>
<text x="77" y="343" font-size="8.888889px" font-family="Times New Roman" fill="#000000" xml:space="preserve">29</text>
</g>
<g id = "LVPOVTNK" >
<line x1="70" y1="350" x2="50" y2="350" stroke="#000000" stroke-width="1px"/>
<text x="77" y="353" font-size="8.888889px" font-family="Times New Roman" fill="#000000" xml:space="preserve">30</text>
</g>
<g id = "GDFAYUNQ" >
<line x1="70" y1="360" x2="50" y2="360" stroke="#000000" stroke-width="1px"/>
<text x="77" y="363" font-size="8.888889px" font-family="Times New Roman" fill="#000000" xml:space="preserve">31</text>
</g>
<g id = "KSVSVUCM" >
<line x1="70" y1="370" x2="50" y2="370" stroke="#000000" stroke-width="1px"/>
<text x="77" y="373" font-size="8.888889px" font-family="Times New Roman" fill="#000000" xml:space="preserve">32</text>
</g>
<g id = "WDWUNUOR" >
<line x1="70" y1="380" x2="50" y2="380" stroke="#000000" stroke-width="1px"/>
<text x="77" y="383" font-size="8.888889px" font-family="Times New Roman" fill="#000000" xml:space="preserve">33</text>
</g>
<g id = "XAAVFXHA" >
<line x1="70" y1="390" x2="50" y2="390" stroke="#000000" stroke-width="1px"/>
<text x="77" y="393" font-size="8.888889px" font-family="Times New Roman" fill="#000000" xml:space="preserve">34</text>
</g>
<g id = "NIPELUFA" >
<line x1="70" y1="400" x2="50" y2="400" stroke="#000000" stroke-width="1px"/>
<text x="77" y="403" font-size="8.888889px" font-family="Times New Roman" fill="#000000" xml:space="preserve">35</text>
</g>
<g id = "OJWCQGXE" >
<line x1="70" y1="410" x2="50" y2="410" stroke="#000000" stroke-width="1px"/>
<text x="77" y="413" font-size="8.888889px" font-family="Times New Roman" fill="#000000" xml:space="preserve">36</text>
</g>
<g id = "BGKWPDQF" >
<line x1="70" y1="420" x2="50" y2="420" stroke="#000000" stroke-width="1px"/>
<text x="77" y="423" font-size="8.888889px" font-family="Times New Roman" fill="#000000" xml:space="preserve">37</text>
</g>
<g id = "CNQMGOLK" >
<line x1="70" y1="430" x2="50" y2="430" stroke="#000000" stroke-width="1px"/>
<text x="77" y="433" font-size="8.888889px" font-family="Times New Roman" fill="#000000" xml:space="preserve">38</text>
</g>
<g id = "WGXISMJV" >
<line x1="70" y1="440" x2="50" y2="440" stroke="#000000" stroke-width="1px"/>
<text x="77" y="443" font-size="8.888889px" font-family="Times New Roman" fill="#000000" xml:space="preserve">39</text>
</g>
<g id = "CMOFKERC" >
<line x1="70" y1="450" x2="50" y2="450" stroke="#000000" stroke-width="1px"/>
<text x="77" y="453" font-size="8.888889px" font-family="Times New Roman" fill="#000000" xml:space="preserve">40</text>
</g>
<g id = "UZSAHJTD" >
<line x1="70" y1="460" x2="50" y2="460" stroke="#000000" stroke-width="1px"/>
<text x="77" y="463" font-size="8.888889px" font-family="Times New Roman" fill="#000000" xml:space="preserve">41</text>
</g>
<g id = "KPKMUDRB" >
<line x1="70" y1="470" x2="50" y2="470" stroke="#000000" stroke-width="1px"/>
<text x="77" y="473" font-size="8.888889px" font-family="Times New Roman" fill="#000000" xml:space="preserve">42</text>
</g>
<g id = "WZPSEOTE" >
<line x1="70" y1="480" x2="50" y2="480" stroke="#000000" stroke-width="1px"/>
<text x="77" y="483" font-size="8.888889px" font-family="Times New Roman" fill="#000000" xml:space="preserve">43</text>
</g>
<g id = "YVSUPMQS" >
<line x1="70" y1="490" x2="50" y2="490" stroke="#000000" stroke-width="1px"/>
<text x="77" y="493" font-size="8.888889px" font-family="Times New Roman" fill="#000000" xml:space="preserve">44</text>
</g>
<g id = "CEOXQOOA" >
<line x1="70" y1="500" x2="50" y2="500" stroke="#000000" stroke-width="1px"/>
<text x="77" y="503" font-size="8.888889px" font-family="Times New Roman" fill="#000000" xml:space="preserve">45</text>
</g>
<g id = "FFNZBVHJ" >
<line x1="70" y1="510" x2="50" y2="510" stroke="#000000" stroke-width="1px"/>
<text x="77" y="513" font-size="8.888889px" font-family="Times New Roman" fill="#000000" xml:space="preserve">46</text>
</g>
<g id = "DKTQNVDY" >
<line x1="70" y1="520" x2="50" y2="520" stroke="#000000" stroke-width="1px"/>
<text x="77" y="523" font-size="8.888889px" font-family="Times New Roman" fill="#000000" xml:space="preserve">47</text>
</g>
<g id = "QHCMLMWZ" >
<line x1="70" y1="530" x2="50" y2="530" stroke="#000000" stroke-width="1px"/>
<text x="77" y="533" font-size="8.888889px" font-family="Times New Roman" fill="#000000" xml:space="preserve">48</text>
</g>
<g id = "SHWHKVQF" >
<line x1="70" y1="540" x2="50" y2="540" stroke="#000000" stroke-width="1px"/>
<text x="77" y="543" font-size="8.888889px" font-family="Times New Roman" fill="#000000" xml:space="preserve">49</text>
</g>
<g id = "QGJPDGTB" >
<line x1="70" y1="550" x2="50" y2="550" stroke="#000000" stroke-width="1px"/>
<text x="77" y="553" font-size="8.888889px" font-family="Times New Roman" fill="#000000" xml:space="preserve">50</text>
</g>
<g id = "KEQMAFCE" >
<line x1="70" y1="560" x2="50" y2="560" stroke="#000000" stroke-width="1px"/>
<text x="77" y="563" font-size="8.888889px" font-family="Times New Roman" fill="#000000" xml:space="preserve">51</text>
</g>
<g id = "HSMAUDRD" >
<line x1="70" y1="570" x2="50" y2="570" stroke="#000000" stroke-width="1px"/>
<text x="77" y="573" font-size="8.888889px" font-family="Times New Roman" fill="#000000" xml:space="preserve">52</text>
</g>
<g id = "UVMIFHBJ" >
<line x1="70" y1="580" x2="50" y2="580" stroke="#000000" stroke-width="1px"/>
<text x="77" y="583" font-size="8.888889px" font-family="Times New Roman" fill="#000000" xml:space="preserve">53</text>
</g>
<g id = "LEMCVSAK" >
<line x1="70" y1="590" x2="50" y2="590" stroke="#000000" stroke-width="1px"/>
<text x="77" y="593" font-size="8.888889px" font-family="Times New Roman" fill="#000000" xml:space="preserve">54</text>
</g>
<g id = "PTSBUUWD" >
<line x1="70" y1="600" x2="50" y2="600" stroke="#000000" stroke-width="1px"/>
<text x="77" y="603" font-size="8.888889px" font-family="Times New Roman" fill="#000000" xml:space="preserve">55</text>
</g>
<g id = "EEOQGJMO" >
<line x1="70" y1="610" x2="50" y2="610" stroke="#000000" stroke-width="1px"/>
<text x="77" y="613" font-size="8.888889px" font-family="Times New Roman" fill="#000000" xml:space="preserve">56</text>
</g>
<g id = "JPBNEFFH" >
<line x1="70" y1="620" x2="50" y2="620" stroke="#000000" stroke-width="1px"/>
<text x="77" y="623" font-size="8.888889px" font-family="Times New Roman" fill="#000000" xml:space="preserve">57</text>
</g>
<g id = "TVABWEUT" >
<line x1="70" y1="630" x2="50" y2="630" stroke="#000000" stroke-width="1px"/>
<text x="77" y="633" font-size="8.888889px" font-family="Times New Roman" fill="#000000" xml:space="preserve">58</text>
</g>
<g id = "KTGYSNRO" >
<line x1="70" y1="640" x2="50" y2="640" stroke="#000000" stroke-width="1px"/>
<text x="77" y="643" font-size="8.888889px" font-family="Times New Roman" fill="#000000" xml:space="preserve">59</text>
</g>
<g id = "CLLFLNJX" >
<line x1="70" y1="650" x2="50" y2="650" stroke="#000000" stroke-width="1px"/>
<text x="77" y="653" font-size="8.888889px" font-family="Times New Roman" fill="#000000" xml:space="preserve">60</text>
</g>
<g id = "ANREHOFD" >
<line x1="70" y1="660" x2="50" y2="660" stroke="#000000" stroke-width="1px"/>
<text x="77" y="663" font-size="8.888889px" font-family="Times New Roman" fill="#000000" xml:space="preserve">61</text>
</g>
<g id = "CVGYJTXA" >
<line x1="70" y1="670" x2="50" y2="670" stroke="#000000" stroke-width="1px"/>
<text x="77" y="673" font-size="8.888889px" font-family="Times New Roman" fill="#000000" xml:space="preserve">62</text>
</g>
<g id = "OLBIJEQI" >
<line x1="70" y1="680" x2="50" y2="680" stroke="#000000" stroke-width="1px"/>
<text x="77" y="683" font-size="8.888889px" font-family="Times New Roman" fill="#000000" xml:space="preserve">63</text>
</g>
<g id = "SNIVYFOF" >
<line x1="70" y1="690" x2="50" y2="690" stroke="#000000" stroke-width="1px"/>
<text x="77" y="693" font-size="8.888889px" font-family="Times New Roman" fill="#000000" xml:space="preserve">64</text>
</g>
<g id = "CSPQWUKX" >
<line x1="70" y1="700" x2="50" y2="700" stroke="#000000" stroke-width="1px"/>
<text x="77" y="703" font-size="8.888889px" font-family="Times New Roman" fill="#000000" xml:space="preserve">65</text>
</g>
<g id = "OXSAHPDO" >
<line x1="70" y1="710" x2="50" y2="710" stroke="#000000" stroke-width="1px"/>
<text x="77" y="713" font-size="8.888889px" font-family="Times New Roman" fill="#000000" xml:space="preserve">66</text>
</g>
<g id = "WZRYWKPJ" >
<line x1="70" y1="720" x2="50" y2="720" stroke="#000000" stroke-width="1px"/>
<text x="77" y="723" font-size="8.888889px" font-family="Times New Roman" fill="#000000" xml:space="preserve">67</text>
</g>
<g id = "EWPGUNVN" >
<line x1="70" y1="730" x2="50" y2="730" stroke="#000000" stroke-width="1px"/>
<text x="77" y="733" font-size="8.888889px" font-family="Times New Roman" fill="#000000" xml:space="preserve">68</text>
</g>
<g id = "GWBCWYTD" >
<line x1="70" y1="740" x2="50" y2="740" stroke="#000000" stroke-width="1px"/>
<text x="77" y="743" font-size="8.888889px" font-family="Times New Roman" fill="#000000" xml:space="preserve">69</text>
</g>
<g id = "KCEZGWSQ" >
<line x1="70" y1="750" x2="50" y2="750" stroke="#000000" stroke-width="1px"/>
<text x="77" y="753" font-size="8.888889px" font-family="Times New Roman" fill="#000000" xml:space="preserve">70</text>
</g>
<g id = "KFQBVRHT" >
<line x1="70" y1="760" x2="50" y2="760" stroke="#000000" stroke-width="1px"/>
<text x="77" y="763" font-size="8.888889px" font-family="Times New Roman" fill="#000000" xml:space="preserve">71</text>
</g>
<g id = "UJCRDZCF" >
<line x1="70" y1="770" x2="50" y2="770" stroke="#000000" stroke-width="1px"/>
<text x="77" y="773" font-size="8.888889px" font-family="Times New Roman" fill="#000000" xml:space="preserve">72</text>
</g>
<g id = "GPWDXGXK" >
<line x1="70" y1="780" x2="50" y2="780" stroke="#000000" stroke-width="1px"/>
<text x="77" y="783" font-size="8.888889px" font-family="Times New Roman" fill="#000000" xml:space="preserve">73</text>
</g>
<g id = "AEYKZJIP" >
<line x1="70" y1="790" x2="50" y2="790" stroke="#000000" stroke-width="1px"/>
<text x="77" y="793" font-size="8.888889px" font-family="Times New Roman" fill="#000000" xml:space="preserve">74</text>
</g>
<g id = "YVGYQQJA" >
<line x1="70" y1="800" x2="50" y2="800" stroke="#000000" stroke-width="1px"/>
<text x="77" y="803" font-size="8.888889px" font-family="Times New Roman" fill="#000000" xml:space="preserve">75</text>
</g>
<g id = "FQIYGKHH" >
<line x1="70" y1="810" x2="50" y2="810" stroke="#000000" stroke-width="1px"/>
<text x="77" y="813" font-size="8.888889px" font-family="Times New Roman" fill="#000000" xml:space="preserve">76</text>
</g>
<g id = "MIAIWNAU" >
<line x1="70" y1="820" x2="50" y2="820" stroke="#000000" stroke-width="1px"/>
<text x="77" y="823" font-size="8.888889px" font-family="Times New Roman" fill="#000000" xml:space="preserve">77</text>
</g>
<g id = "WUOXUYMP" >
<line x1="70" y1="830" x2="50" y2="830" stroke="#000000" stroke-width="1px"/>
<text x="77" y="833" font-size="8.888889px" font-family="Times New Roman" fill="#000000" xml:space="preserve">78</text>
</g>
<g id = "SGSMNWXE" >
<line x1="70" y1="840" x2="50" y2="840" stroke="#000000" stroke-width="1px"/>
<text x="77" y="843" font-size="8.888889px" font-family="Times New Roman" fill="#000000" xml:space="preserve">79</text>
</g>
<g id = "NCDUNNUX" >
<line x1="70" y1="850" x2="50" y2="850" stroke="#000000" stroke-width="1px"/>
<text x="77" y="853" font-size="8.888889px" font-family="Times New Roman" fill="#000000" xml:space="preserve">80</text>
</g>
<g id = "RXMICAKR" >
<line x1="70" y1="860" x2="50" y2="860" stroke="#000000" stroke-width="1px"/>
<text x="77" y="863" font-size="8.888889px" font-family="Times New Roman" fill="#000000" xml:space="preserve">81</text>
</g>
<g id = "ZABDMZNP" >
<line x1="70" y1="870" x2="50" y2="870" stroke="#000000" stroke-width="1px"/>
<text x="77" y="873" font-size="8.888889px" font-family="Times New Roman" fill="#000000" xml:space="preserve">82</text>
</g>
<g id = "SYQCRNMM" >
<line x1="70" y1="880" x2="50" y2="880" stroke="#000000" stroke-width="1px"/>
<text x="77" y="883" font-size="8.888889px" font-family="Times New Roman" fill="#000000" xml:space="preserve">83</text>
</g>
<g id = "VGVLBTZR" >
<line x1="70" y1="890" x2="50" y2="890" stroke="#000000" stroke-width="1px"/>
<text x="77" y="893" font-size="8.888889px" font-family="Times New Roman" fill="#000000" xml:space="preserve">84</text>
</g>
<g id = "HEKFIUEG" >
<line x1="70" y1="900" x2="50" y2="900" stroke="#000000" stroke-width="1px"/>
<text x="77" y="903" font-size="8.888889px" font-family="Times New Roman" fill="#000000" xml:space="preserve">85</text>
</g>
<g id = "ZMGDRFGS" >
<line x1="70" y1="910" x2="50" y2="910" stroke="#000000" stroke-width="1px"/>
<text x="77" y="913" font-size="8.888889px" font-family="Times New Roman" fill="#000000" xml:space="preserve">86</text>
</g>
<g id = "JQHYNWGV" >
<line x1="70" y1="920" x2="50" y2="920" stroke="#000000" stroke-width="1px"/>
<text x="77" y="923" font-size="8.888889px" font-family="Times New Roman" fill="#000000" xml:space="preserve">87</text>
</g>
<g id = "ZSJZFHQO" >
<line x1="70" y1="930" x2="50" y2="930" stroke="#000000" stroke-width="1px"/>
<text x="77" y="933" font-size="8.888889px" font-family="Times New Roman" fill="#000000" xml:space="preserve">88</text>
</g>
<g id = "ZIQKZMEV" >
<line x1="70" y1="940" x2="50" y2="940" stroke="#000000" stroke-width="1px"/>
<text x="77" y="943" font-size="8.888889px" font-family="Times New Roman" fill="#000000" xml:space="preserve">89</text>
</g>
<g id = "PUAVIRTW" >
<line x1="70" y1="950" x2="50" y2="950" stroke="#000000" stroke-width="1px"/>
<text x="77" y="953" font-size="8.888889px" font-family="Times New Roman" fill="#000000" xml:space="preserve">90</text>
</g>
<g id = "OTFTSZOC" >
<line x1="110" y1="60" x2="130" y2="60" stroke="#000000" stroke-width="1px"/>
<text x="93.1111" y="63" font-size="8.888889px" font-family="Times New Roman" fill="#000000" xml:space="preserve">91</text>
</g>
<g id = "CEMYBIFK" >
<line x1="110" y1="70" x2="130" y2="70" stroke="#000000" stroke-width="1px"/>
<text x="93.1111" y="73" font-size="8.888889px" font-family="Times New Roman" fill="#000000" xml:space="preserve">92</text>
</g>
<g id = "MTMFGOKZ" >
<line x1="110" y1="80" x2="130" y2="80" stroke="#000000" stroke-width="1px"/>
<text x="93.1111" y="83" font-size="8.888889px" font-family="Times New Roman" fill="#000000" xml:space="preserve">93</text>
</g>
<g id = "HVCUEIMT" >
<line x1="110" y1="90" x2="130" y2="90" stroke="#000000" stroke-width="1px"/>
<text x="93.1111" y="93" font-size="8.888889px" font-family="Times New Roman" fill="#000000" xml:space="preserve">94</text>
</g>
<g id = "GNEVPXQM" >
<line x1="110" y1="100" x2="130" y2="100" stroke="#000000" stroke-width="1px"/>
<text x="93.1111" y="103" font-size="8.888889px" font-family="Times New Roman" fill="#000000" xml:space="preserve">95</text>
</g>
<g id = "NZZRDIAE" >
<line x1="110" y1="110" x2="130" y2="110" stroke="#000000" stroke-width="1px"/>
<text x="93.1111" y="113" font-size="8.888889px" font-family="Times New Roman" fill="#000000" xml:space="preserve">96</text>
</g>
<g id = "DAXUYTHZ" >
<line x1="110" y1="120" x2="130" y2="120" stroke="#000000" stroke-width="1px"/>
<text x="93.1111" y="123" font-size="8.888889px" font-family="Times New Roman" fill="#000000" xml:space="preserve">97</text>
</g>
<g id = "BISPKSSW" >
<line x1="110" y1="130" x2="130" y2="130" stroke="#000000" stroke-width="1px"/>
<text x="93.1111" y="133" font-size="8.888889px" font-family="Times New Roman" fill="#000000" xml:space="preserve">98</text>
</g>
<g id = "RWLWXIKS" >
<line x1="110" y1="140" x2="130" y2="140" stroke="#000000" stroke-width="1px"/>
<text x="93.1111" y="143" font-size="8.888889px" font-family="Times New Roman" fill="#000000" xml:space="preserve">99</text>
</g>
<g id = "AAWKGQSU" >
<line x1="110" y1="150" x2="130" y2="150" stroke="#000000" stroke-width="1px"/>
<text x="88.1667" y="153" font-size="8.888889px" font-family="Times New Roman" fill="#000000" xml:space="preserve">100</text>
</g>
<g id = "NONRWZDA" >
<line x1="110" y1="160" x2="130" y2="160" stroke="#000000" stroke-width="1px"/>
<text x="88.1667" y="163" font-size="8.888889px" font-family="Times New Roman" fill="#000000" xml:space="preserve">101</text>
</g>
<g id = "QQBNSSEC" >
<line x1="110" y1="170" x2="130" y2="170" stroke="#000000" stroke-width="1px"/>
<text x="88.1667" y="173" font-size="8.888889px" font-family="Times New Roman" fill="#000000" xml:space="preserve">102</text>
</g>
<g id = "UADTWEWJ" >
<line x1="110" y1="180" x2="130" y2="180" stroke="#000000" stroke-width="1px"/>
<text x="88.1667" y="183" font-size="8.888889px" font-family="Times New Roman" fill="#000000" xml:space="preserve">103</text>
</g>
<g id = "PMAMDASB" >
<line x1="110" y1="190" x2="130" y2="190" stroke="#000000" stroke-width="1px"/>
<text x="88.1667" y="193" font-size="8.888889px" font-family="Times New Roman" fill="#000000" xml:space="preserve">104</text>
</g>
<g id = "PSSORXDQ" >
<line x1="110" y1="200" x2="130" y2="200" stroke="#000000" stroke-width="1px"/>
<text x="88.1667" y="203" font-size="8.888889px" font-family="Times New Roman" fill="#000000" xml:space="preserve">105</text>
</g>
<g id = "NZBEGNVR" >
<line x1="110" y1="210" x2="130" y2="210" stroke="#000000" stroke-width="1px"/>
<text x="88.1667" y="213" font-size="8.888889px" font-family="Times New Roman" fill="#000000" xml:space="preserve">106</text>
</g>
<g id = "NJDXSZBD" >
<line x1="110" y1="220" x2="130" y2="220" stroke="#000000" stroke-width="1px"/>
<text x="88.1667" y="223" font-size="8.888889px" font-family="Times New Roman" fill="#000000" xml:space="preserve">107</text>
</g>
<g id = "YDYSHSQO" >
<line x1="110" y1="230" x2="130" y2="230" stroke="#000000" stroke-width="1px"/>
<text x="88.1667" y="233" font-size="8.888889px" font-family="Times New Roman" fill="#000000" xml:space="preserve">108</text>
</g>
<g id = "FJIXMWXH" >
<line x1="110" y1="240" x2="130" y2="240" stroke="#000000" stroke-width="1px"/>
<text x="88.1667" y="243" font-size="8.888889px" font-family="Times New Roman" fill="#000000" xml:space="preserve">109</text>
</g>
<g id = "PHZTBTTO" >
<line x1="110" y1="250" x2="130" y2="250" stroke="#000000" stroke-width="1px"/>
<text x="88.1667" y="253" font-size="8.888889px" font-family="Times New Roman" fill="#000000" xml:space="preserve">110</text>
</g>
<g id = "EHTCEZAF" >
<line x1="110" y1="260" x2="130" y2="260" stroke="#000000" stroke-width="1px"/>
<text x="88.1667" y="263" font-size="8.888889px" font-family="Times New Roman" fill="#000000" xml:space="preserve">111</text>
</g>
<g id = "CZEALGRK" >
<line x1="110" y1="270" x2="130" y2="270" stroke="#000000" stroke-width="1px"/>
<text x="88.1667" y="273" font-size="8.888889px" font-family="Times New Roman" fill="#000000" xml:space="preserve">112</text>
</g>
<g id = "XNXBOOQU" >
<line x1="110" y1="280" x2="130" y2="280" stroke="#000000" stroke-width="1px"/>
<text x="88.1667" y="283" font-size="8.888889px" font-family="Times New Roman" fill="#000000" xml:space="preserve">113</text>
</g>
<g id = "YYGBQHLO" >
<line x1="110" y1="290" x2="130" y2="290" stroke="#000000" stroke-width="1px"/>
<text x="88.1667" y="293" font-size="8.888889px" font-family="Times New Roman" fill="#000000" xml:space="preserve">114</text>
</g>
<g id = "WLYTCTKV" >
<line x1="110" y1="300" x2="130" y2="300" stroke="#000000" stroke-width="1px"/>
<text x="88.1667" y="303" font-size="8.888889px" font-family="Times New Roman" fill="#000000" xml:space="preserve">115</text>
</g>
<g id = "DHXRJKGD" >
<line x1="110" y1="310" x2="130" y2="310" stroke="#000000" stroke-width="1px"/>
<text x="88.1667" y="313" font-size="8.888889px" font-family="Times New Roman" fill="#000000" xml:space="preserve">116</text>
</g>
<g id = "VXBZBFAM" >
<line x1="110" y1="320" x2="130" y2="320" stroke="#000000" stroke-width="1px"/>
<text x="88.1667" y="323" font-size="8.888889px" font-family="Times New Roman" fill="#000000" xml:space="preserve">117</text>
</g>
<g id = "ILBNYTOO" >
<line x1="110" y1="330" x2="130" y2="330" stroke="#000000" stroke-width="1px"/>
<text x="88.1667" y="333" font-size="8.888889px" font-family="Times New Roman" fill="#000000" xml:space="preserve">118</text>
</g>
<g id = "TPCZUZAJ" >
<line x1="110" y1="340" x2="130" y2="340" stroke="#000000" stroke-width="1px"/>
<text x="88.1667" y="343" font-size="8.888889px" font-family="Times New Roman" fill="#000000" xml:space="preserve">119</text>
</g>
<g id = "WVIINAOC" >
<line x1="110" y1="350" x2="130" y2="350" stroke="#000000" stroke-width="1px"/>
<text x="88.1667" y="353" font-size="8.888889px" font-family="Times New Roman" fill="#000000" xml:space="preserve">120</text>
</g>
<g id = "OXBVVLHN" >
<line x1="110" y1="360" x2="130" y2="360" stroke="#000000" stroke-width="1px"/>
<text x="88.1667" y="363" font-size="8.888889px" font-family="Times New Roman" fill="#000000" xml:space="preserve">121</text>
</g>
<g id = "FFGYZWSQ" >
<line x1="110" y1="370" x2="130" y2="370" stroke="#000000" stroke-width="1px"/>
<text x="88.1667" y="373" font-size="8.888889px" font-family="Times New Roman" fill="#000000" xml:space="preserve">122</text>
</g>
<g id = "ZTUSTMWU" >
<line x1="110" y1="380" x2="130" y2="380" stroke="#000000" stroke-width="1px"/>
<text x="88.1667" y="383" font-size="8.888889px" font-family="Times New Roman" fill="#000000" xml:space="preserve">123</text>
</g>
<g id = "FUBYFFEE" >
<line x1="110" y1="390" x2="130" y2="390" stroke="#000000" stroke-width="1px"/>
<text x="88.1667" y="393" font-size="8.888889px" font-family="Times New Roman" fill="#000000" xml:space="preserve">124</text>
</g>
<g id = "PMCUSTAQ" >
<line x1="110" y1="400" x2="130" y2="400" stroke="#000000" stroke-width="1px"/>
<text x="88.1667" y="403" font-size="8.888889px" font-family="Times New Roman" fill="#000000" xml:space="preserve">125</text>
</g>
<g id = "WXDKJLAP" >
<line x1="110" y1="410" x2="130" y2="410" stroke="#000000" stroke-width="1px"/>
<text x="88.1667" y="413" font-size="8.888889px" font-family="Times New Roman" fill="#000000" xml:space="preserve">126</text>
</g>
<g id = "WZHMABIH" >
<line x1="110" y1="420" x2="130" y2="420" stroke="#000000" stroke-width="1px"/>
<text x="88.1667" y="423" font-size="8.888889px" font-family="Times New Roman" fill="#000000" xml:space="preserve">127</text>
</g>
<g id = "TAMFKSDF" >
<line x1="110" y1="430" x2="130" y2="430" stroke="#000000" stroke-width="1px"/>
<text x="88.1667" y="433" font-size="8.888889px" font-family="Times New Roman" fill="#000000" xml:space="preserve">128</text>
</g>
<g id = "VVHVCNPJ" >
<line x1="110" y1="440" x2="130" y2="440" stroke="#000000" stroke-width="1px"/>
<text x="88.1667" y="443" font-size="8.888889px" font-family="Times New Roman" fill="#000000" xml:space="preserve">129</text>
</g>
<g id = "XUEUPKRL" >
<line x1="110" y1="450" x2="130" y2="450" stroke="#000000" stroke-width="1px"/>
<text x="88.1667" y="453" font-size="8.888889px" font-family="Times New Roman" fill="#000000" xml:space="preserve">130</text>
</g>
<g id = "UXXDIJJX" >
<line x1="110" y1="460" x2="130" y2="460" stroke="#000000" stroke-width="1px"/>
<text x="88.1667" y="463" font-size="8.888889px" font-family="Times New Roman" fill="#000000" xml:space="preserve">131</text>
</g>
<g id = "HICGSCYE" >
<line x1="110" y1="470" x2="130" y2="470" stroke="#000000" stroke-width="1px"/>
<text x="88.1667" y="473" font-size="8.888889px" font-family="Times New Roman" fill="#000000" xml:space="preserve">132</text>
</g>
<g id = "YLHSVIPJ" >
<line x1="110" y1="480" x2="130" y2="480" stroke="#000000" stroke-width="1px"/>
<text x="88.1667" y="483" font-size="8.888889px" font-family="Times New Roman" fill="#000000" xml:space="preserve">133</text>
</g>
<g id = "TDMUQERU" >
<line x1="110" y1="490" x2="130" y2="490" stroke="#000000" stroke-width="1px"/>
<text x="88.1667" y="493" font-size="8.888889px" font-family="Times New Roman" fill="#000000" xml:space="preserve">134</text>
</g>
<g id = "RCISBCXH" >
<line x1="110" y1="500" x2="130" y2="500" stroke="#000000" stroke-width="1px"/>
<text x="88.1667" y="503" font-size="8.888889px" font-family="Times New Roman" fill="#000000" xml:space="preserve">135</text>
</g>
<g id = "MUFQKIFZ" >
<line x1="110" y1="510" x2="130" y2="510" stroke="#000000" stroke-width="1px"/>
<text x="88.1667" y="513" font-size="8.888889px" font-family="Times New Roman" fill="#000000" xml:space="preserve">136</text>
</g>
<g id = "GKTDSEJR" >
<line x1="110" y1="520" x2="130" y2="520" stroke="#000000" stroke-width="1px"/>
<text x="88.1667" y="523" font-size="8.888889px" font-family="Times New Roman" fill="#000000" xml:space="preserve">137</text>
</g>
<g id = "HHBJSHZA" >
<line x1="110" y1="530" x2="130" y2="530" stroke="#000000" stroke-width="1px"/>
<text x="88.1667" y="533" font-size="8.888889px" font-family="Times New Roman" fill="#000000" xml:space="preserve">138</text>
</g>
<g id = "ZLVBDUVJ" >
<line x1="110" y1="540" x2="130" y2="540" stroke="#000000" stroke-width="1px"/>
<text x="88.1667" y="543" font-size="8.888889px" font-family="Times New Roman" fill="#000000" xml:space="preserve">139</text>
</g>
<g id = "APWPBYWV" >
<line x1="110" y1="550" x2="130" y2="550" stroke="#000000" stroke-width="1px"/>
<text x="88.1667" y="553" font-size="8.888889px" font-family="Times New Roman" fill="#000000" xml:space="preserve">140</text>
</g>
<g id = "QGCMGUNK" >
<line x1="110" y1="560" x2="130" y2="560" stroke="#000000" stroke-width="1px"/>
<text x="88.1667" y="563" font-size="8.888889px" font-family="Times New Roman" fill="#000000" xml:space="preserve">141</text>
</g>
<g id = "FFTNGQFM" >
<line x1="110" y1="570" x2="130" y2="570" stroke="#000000" stroke-width="1px"/>
<text x="88.1667" y="573" font-size="8.888889px" font-family="Times New Roman" fill="#000000" xml:space="preserve">142</text>
</g>
<g id = "OVCGRUOR" >
<line x1="110" y1="580" x2="130" y2="580" stroke="#000000" stroke-width="1px"/>
<text x="88.1667" y="583" font-size="8.888889px" font-family="Times New Roman" fill="#000000" xml:space="preserve">143</text>
</g>
<g id = "KFUVDPEU" >
<line x1="110" y1="590" x2="130" y2="590" stroke="#000000" stroke-width="1px"/>
<text x="88.1667" y="593" font-size="8.888889px" font-family="Times New Roman" fill="#000000" xml:space="preserve">144</text>
</g>
<g id = "VKOBXEZN" >
<line x1="110" y1="600" x2="130" y2="600" stroke="#000000" stroke-width="1px"/>
<text x="88.1667" y="603" font-size="8.888889px" font-family="Times New Roman" fill="#000000" xml:space="preserve">145</text>
</g>
<g id = "CCCUDAPN" >
<line x1="110" y1="610" x2="130" y2="610" stroke="#000000" stroke-width="1px"/>
<text x="88.1667" y="613" font-size="8.888889px" font-family="Times New Roman" fill="#000000" xml:space="preserve">146</text>
</g>
<g id = "BMGALZRP" >
<line x1="110" y1="620" x2="130" y2="620" stroke="#000000" stroke-width="1px"/>
<text x="88.1667" y="623" font-size="8.888889px" font-family="Times New Roman" fill="#000000" xml:space="preserve">147</text>
</g>
<g id = "VJAQSPBQ" >
<line x1="110" y1="630" x2="130" y2="630" stroke="#000000" stroke-width="1px"/>
<text x="88.1667" y="633" font-size="8.888889px" font-family="Times New Roman" fill="#000000" xml:space="preserve">148</text>
</g>
<g id = "HJYRIPNS" >
<line x1="110" y1="640" x2="130" y2="640" stroke="#000000" stroke-width="1px"/>
<text x="88.1667" y="643" font-size="8.888889px" font-family="Times New Roman" fill="#000000" xml:space="preserve">149</text>
</g>
<g id = "PUVCSKCS" >
<line x1="110" y1="650" x2="130" y2="650" stroke="#000000" stroke-width="1px"/>
<text x="88.1667" y="653" font-size="8.888889px" font-family="Times New Roman" fill="#000000" xml:space="preserve">150</text>
</g>
<g id = "VWZTKBEY" >
<line x1="110" y1="660" x2="130" y2="660" stroke="#000000" stroke-width="1px"/>
<text x="88.1667" y="663" font-size="8.888889px" font-family="Times New Roman" fill="#000000" xml:space="preserve">151</text>
</g>
<g id = "NNGQVVPX" >
<line x1="110" y1="670" x2="130" y2="670" stroke="#000000" stroke-width="1px"/>
<text x="88.1667" y="673" font-size="8.888889px" font-family="Times New Roman" fill="#000000" xml:space="preserve">152</text>
</g>
<g id = "IXNIDYOH" >
<line x1="110" y1="680" x2="130" y2="680" stroke="#000000" stroke-width="1px"/>
<text x="88.1667" y="683" font-size="8.888889px" font-family="Times New Roman" fill="#000000" xml:space="preserve">153</text>
</g>
<g id = "AJTLSMRX" >
<line x1="110" y1="690" x2="130" y2="690" stroke="#000000" stroke-width="1px"/>
<text x="88.1667" y="693" font-size="8.888889px" font-family="Times New Roman" fill="#000000" xml:space="preserve">154</text>
</g>
<g id = "WXJOLEOO" >
<line x1="110" y1="700" x2="130" y2="700" stroke="#000000" stroke-width="1px"/>
<text x="88.1667" y="703" font-size="8.888889px" font-family="Times New Roman" fill="#000000" xml:space="preserve">155</text>
</g>
<g id = "DLWMKCJV" >
<line x1="110" y1="710" x2="130" y2="710" stroke="#000000" stroke-width="1px"/>
<text x="88.1667" y="713" font-size="8.888889px" font-family="Times New Roman" fill="#000000" xml:space="preserve">156</text>
</g>
<g id = "KFCYITJK" >
<line x1="110" y1="720" x2="130" y2="720" stroke="#000000" stroke-width="1px"/>
<text x="88.1667" y="723" font-size="8.888889px" font-family="Times New Roman" fill="#000000" xml:space="preserve">157</text>
</g>
<g id = "YFPPQCIL" >
<line x1="110" y1="730" x2="130" y2="730" stroke="#000000" stroke-width="1px"/>
<text x="88.1667" y="733" font-size="8.888889px" font-family="Times New Roman" fill="#000000" xml:space="preserve">158</text>
</g>
<g id = "VYIMWUHH" >
<line x1="110" y1="740" x2="130" y2="740" stroke="#000000" stroke-width="1px"/>
<text x="88.1667" y="743" font-size="8.888889px" font-family="Times New Roman" fill="#000000" xml:space="preserve">159</text>
</g>
<g id = "OEERNDLZ" >
<line x1="110" y1="750" x2="130" y2="750" stroke="#000000" stroke-width="1px"/>
<text x="88.1667" y="753" font-size="8.888889px" font-family="Times New Roman" fill="#000000" xml:space="preserve">160</text>
</g>
<g id = "FZIPLFEV" >
<line x1="110" y1="760" x2="130" y2="760" stroke="#000000" stroke-width="1px"/>
<text x="88.1667" y="763" font-size="8.888889px" font-family="Times New Roman" fill="#000000" xml:space="preserve">161</text>
</g>
<g id = "QNCVASTB" >
<line x1="110" y1="770" x2="130" y2="770" stroke="#000000" stroke-width="1px"/>
<text x="88.1667" y="773" font-size="8.888889px" font-family="Times New Roman" fill="#000000" xml:space="preserve">162</text>
</g>
<g id = "KTSASYJR" >
<line x1="110" y1="780" x2="130" y2="780" stroke="#000000" stroke-width="1px"/>
<text x="88.1667" y="783" font-size="8.888889px" font-family="Times New Roman" fill="#000000" xml:space="preserve">163</text>
</g>
<g id = "LFQKSAJQ" >
<line x1="110" y1="790" x2="130" y2="790" stroke="#000000" stroke-width="1px"/>
<text x="88.1667" y="793" font-size="8.888889px" font-family="Times New Roman" fill="#000000" xml:space="preserve">164</text>
</g>
<g id = "LJDYOSDZ" >
<line x1="110" y1="800" x2="130" y2="800" stroke="#000000" stroke-width="1px"/>
<text x="88.1667" y="803" font-size="8.888889px" font-family="Times New Roman" fill="#000000" xml:space="preserve">165</text>
</g>
<g id = "VKEUPNAB" >
<line x1="110" y1="810" x2="130" y2="810" stroke="#000000" stroke-width="1px"/>
<text x="88.1667" y="813" font-size="8.888889px" font-family="Times New Roman" fill="#000000" xml:space="preserve">166</text>
</g>
<g id = "XTUTSZUT" >
<line x1="110" y1="820" x2="130" y2="820" stroke="#000000" stroke-width="1px"/>
<text x="88.1667" y="823" font-size="8.888889px" font-family="Times New Roman" fill="#000000" xml:space="preserve">167</text>
</g>
<g id = "DFUGJDDP" >
<line x1="110" y1="830" x2="130" y2="830" stroke="#000000" stroke-width="1px"/>
<text x="88.1667" y="833" font-size="8.888889px" font-family="Times New Roman" fill="#000000" xml:space="preserve">168</text>
</g>
<g id = "KVESNDEA" >
<line x1="110" y1="840" x2="130" y2="840" stroke="#000000" stroke-width="1px"/>
<text x="88.1667" y="843" font-size="8.888889px" font-family="Times New Roman" fill="#000000" xml:space="preserve">169</text>
</g>
<g id = "GWBTUMFD" >
<line x1="110" y1="850" x2="130" y2="850" stroke="#000000" stroke-width="1px"/>
<text x="88.1667" y="853" font-size="8.888889px" font-family="Times New Roman" fill="#000000" xml:space="preserve">170</text>
</g>
<g id = "XILEPNQW" >
<line x1="110" y1="860" x2="130" y2="860" stroke="#000000" stroke-width="1px"/>
<text x="88.1667" y="863" font-size="8.888889px" font-family="Times New Roman" fill="#000000" xml:space="preserve">171</text>
</g>
<g id = "KOHXOUDY" >
<line x1="110" y1="870" x2="130" y2="870" stroke="#000000" stroke-width="1px"/>
<text x="88.1667" y="873" font-size="8.888889px" font-family="Times New Roman" fill="#000000" xml:space="preserve">172</text>
</g>
<g id = "MNWUBRVK" >
<line x1="110" y1="880" x2="130" y2="880" stroke="#000000" stroke-width="1px"/>
<text x="88.1667" y="883" font-size="8.888889px" font-family="Times New Roman" fill="#000000" xml:space="preserve">173</text>
</g>
<g id = "JRBSBIQQ" >
<line x1="110" y1="890" x2="130" y2="890" stroke="#000000" stroke-width="1px"/>
<text x="88.1667" y="893" font-size="8.888889px" font-family="Times New Roman" fill="#000000" xml:space="preserve">174</text>
</g>
<g id = "NHNHWDTW" >
<line x1="110" y1="900" x2="130" y2="900" stroke="#000000" stroke-width="1px"/>
<text x="88.1667" y="903" font-size="8.888889px" font-family="Times New Roman" fill="#000000" xml:space="preserve">175</text>
</g>
<g id = "EFKKSOSF" >
<line x1="110" y1="910" x2="130" y2="910" stroke="#000000" stroke-width="1px"/>
<text x="88.1667" y="913" font-size="8.888889px" font-family="Times New Roman" fill="#000000" xml:space="preserve">176</text>
</g>
<g id = "VGFVLVRU" >
<line x1="110" y1="920" x2="130" y2="920" stroke="#000000" stroke-width="1px"/>
<text x="88.1667" y="923" font-size="8.888889px" font-family="Times New Roman" fill="#000000" xml:space="preserve">177</text>
</g>
<g id = "OJIMAAFE" >
<line x1="110" y1="930" x2="130" y2="930" stroke="#000000" stroke-width="1px"/>
<text x="88.1667" y="933" font-size="8.888889px" font-family="Times New Roman" fill="#000000" xml:space="preserve">178</text>
</g>
<g id = "SMYEUYYP" >
<line x1="110" y1="940" x2="130" y2="940" stroke="#000000" stroke-width="1px"/>
<text x="88.1667" y="943" font-size="8.888889px" font-family="Times New Roman" fill="#000000" xml:space="preserve">179</text>
</g>
<g id = "YLIRDJLO" >
<line x1="110" y1="950" x2="130" y2="950" stroke="#000000" stroke-width="1px"/>
<text x="88.1667" y="953" font-size="8.888889px" font-family="Times New Roman" fill="#000000" xml:space="preserve">180</text>
</g>
</g>
</g>
</g>
</g>
</svg>