<?xml version="1.0"  encoding="UTF-8" standalone="no"?>
<svg version="1.1" xmlns="http://www.w3.org/2000/svg" xmlns:xlink="http://www.w3.org/1999/xlink" stroke-linecap="round" stroke-linejoin="round" fill="none" width="180" height="600" viewBox="0 0 180 600" data-doc-id="symbol-Socket 49X2" data-doc-ver="2">
<g id = "scene" >
<g id = "DocumentMainGroup" >
<g id = "BackgroundGroup" >
<rect x = "0" y="0" width="180" height="600" fill="#FFFFFF" fill-opacity="1"/>
</g>
<g id = "symbol-Socket 49X2" >
<g id = "DocumentItemsGroup" >
<g id = "HFBHXHIB" >
<rect x = "70" y="50" width="40" height="500" stroke="#0000FF" stroke-width="1px"/>
</g>
<g id = "CHUWYTER" >
<rect x = "67" y="57" width="6" height="6" rx="3" ry="3" stroke="#0000FF" stroke-width="1px"/>
<ellipse cx="70.00" cy="60.00" rx="3.00" ry="3.00" stroke="#0000FF" stroke-width="1.00px"/>
</g>
<g id = "EPQJWAWM" >
<rect x = "107" y="57" width="6" height="6" rx="3" ry="3" stroke="#0000FF" stroke-width="1px"/>
<ellipse cx="110.00" cy="60.00" rx="3.00" ry="3.00" stroke="#0000FF" stroke-width="1.00px"/>
</g>
<g id = "EWOWATKG" >
<rect x = "67" y="67" width="6" height="6" rx="3" ry="3" stroke="#0000FF" stroke-width="1px"/>
<ellipse cx="70.00" cy="70.00" rx="3.00" ry="3.00" stroke="#0000FF" stroke-width="1.00px"/>
</g>
<g id = "KMMMMCHE" >
<rect x = "107" y="67" width="6" height="6" rx="3" ry="3" stroke="#0000FF" stroke-width="1px"/>
<ellipse cx="110.00" cy="70.00" rx="3.00" ry="3.00" stroke="#0000FF" stroke-width="1.00px"/>
</g>
<g id = "GQEJWNSR" >
<rect x = "67" y="77" width="6" height="6" rx="3" ry="3" stroke="#0000FF" stroke-width="1px"/>
<ellipse cx="70.00" cy="80.00" rx="3.00" ry="3.00" stroke="#0000FF" stroke-width="1.00px"/>
</g>
<g id = "LMVBGVLS" >
<rect x = "107" y="77" width="6" height="6" rx="3" ry="3" stroke="#0000FF" stroke-width="1px"/>
<ellipse cx="110.00" cy="80.00" rx="3.00" ry="3.00" stroke="#0000FF" stroke-width="1.00px"/>
</g>
<g id = "TYUHAMRH" >
<rect x = "67" y="87" width="6" height="6" rx="3" ry="3" stroke="#0000FF" stroke-width="1px"/>
<ellipse cx="70.00" cy="90.00" rx="3.00" ry="3.00" stroke="#0000FF" stroke-width="1.00px"/>
</g>
<g id = "QLZKQPTO" >
<rect x = "107" y="87" width="6" height="6" rx="3" ry="3" stroke="#0000FF" stroke-width="1px"/>
<ellipse cx="110.00" cy="90.00" rx="3.00" ry="3.00" stroke="#0000FF" stroke-width="1.00px"/>
</g>
<g id = "PXZMCENE" >
<rect x = "67" y="97" width="6" height="6" rx="3" ry="3" stroke="#0000FF" stroke-width="1px"/>
<ellipse cx="70.00" cy="100.00" rx="3.00" ry="3.00" stroke="#0000FF" stroke-width="1.00px"/>
</g>
<g id = "ULBJQCVW" >
<rect x = "107" y="97" width="6" height="6" rx="3" ry="3" stroke="#0000FF" stroke-width="1px"/>
<ellipse cx="110.00" cy="100.00" rx="3.00" ry="3.00" stroke="#0000FF" stroke-width="1.00px"/>
</g>
<g id = "NNQWHLKX" >
<rect x = "67" y="107" width="6" height="6" rx="3" ry="3" stroke="#0000FF" stroke-width="1px"/>
<ellipse cx="70.00" cy="110.00" rx="3.00" ry="3.00" stroke="#0000FF" stroke-width="1.00px"/>
</g>
<g id = "VOCAKYKR" >
<rect x = "107" y="107" width="6" height="6" rx="3" ry="3" stroke="#0000FF" stroke-width="1px"/>
<ellipse cx="110.00" cy="110.00" rx="3.00" ry="3.00" stroke="#0000FF" stroke-width="1.00px"/>
</g>
<g id = "UVAPNDTB" >
<rect x = "67" y="117" width="6" height="6" rx="3" ry="3" stroke="#0000FF" stroke-width="1px"/>
<ellipse cx="70.00" cy="120.00" rx="3.00" ry="3.00" stroke="#0000FF" stroke-width="1.00px"/>
</g>
<g id = "GNALWEGH" >
<rect x = "107" y="117" width="6" height="6" rx="3" ry="3" stroke="#0000FF" stroke-width="1px"/>
<ellipse cx="110.00" cy="120.00" rx="3.00" ry="3.00" stroke="#0000FF" stroke-width="1.00px"/>
</g>
<g id = "XWHQIGJB" >
<rect x = "67" y="127" width="6" height="6" rx="3" ry="3" stroke="#0000FF" stroke-width="1px"/>
<ellipse cx="70.00" cy="130.00" rx="3.00" ry="3.00" stroke="#0000FF" stroke-width="1.00px"/>
</g>
<g id = "UNMQTYFL" >
<rect x = "107" y="127" width="6" height="6" rx="3" ry="3" stroke="#0000FF" stroke-width="1px"/>
<ellipse cx="110.00" cy="130.00" rx="3.00" ry="3.00" stroke="#0000FF" stroke-width="1.00px"/>
</g>
<g id = "CBCWIYBJ" >
<rect x = "67" y="137" width="6" height="6" rx="3" ry="3" stroke="#0000FF" stroke-width="1px"/>
<ellipse cx="70.00" cy="140.00" rx="3.00" ry="3.00" stroke="#0000FF" stroke-width="1.00px"/>
</g>
<g id = "CLGYUYJT" >
<rect x = "107" y="137" width="6" height="6" rx="3" ry="3" stroke="#0000FF" stroke-width="1px"/>
<ellipse cx="110.00" cy="140.00" rx="3.00" ry="3.00" stroke="#0000FF" stroke-width="1.00px"/>
</g>
<g id = "UOSIVYEH" >
<rect x = "67" y="147" width="6" height="6" rx="3" ry="3" stroke="#0000FF" stroke-width="1px"/>
<ellipse cx="70.00" cy="150.00" rx="3.00" ry="3.00" stroke="#0000FF" stroke-width="1.00px"/>
</g>
<g id = "EHGNXMBG" >
<rect x = "107" y="147" width="6" height="6" rx="3" ry="3" stroke="#0000FF" stroke-width="1px"/>
<ellipse cx="110.00" cy="150.00" rx="3.00" ry="3.00" stroke="#0000FF" stroke-width="1.00px"/>
</g>
<g id = "IIMFOZFG" >
<rect x = "67" y="157" width="6" height="6" rx="3" ry="3" stroke="#0000FF" stroke-width="1px"/>
<ellipse cx="70.00" cy="160.00" rx="3.00" ry="3.00" stroke="#0000FF" stroke-width="1.00px"/>
</g>
<g id = "JXNQMEUW" >
<rect x = "107" y="157" width="6" height="6" rx="3" ry="3" stroke="#0000FF" stroke-width="1px"/>
<ellipse cx="110.00" cy="160.00" rx="3.00" ry="3.00" stroke="#0000FF" stroke-width="1.00px"/>
</g>
<g id = "AMFXFMJL" >
<rect x = "67" y="167" width="6" height="6" rx="3" ry="3" stroke="#0000FF" stroke-width="1px"/>
<ellipse cx="70.00" cy="170.00" rx="3.00" ry="3.00" stroke="#0000FF" stroke-width="1.00px"/>
</g>
<g id = "NBJDRUXV" >
<rect x = "107" y="167" width="6" height="6" rx="3" ry="3" stroke="#0000FF" stroke-width="1px"/>
<ellipse cx="110.00" cy="170.00" rx="3.00" ry="3.00" stroke="#0000FF" stroke-width="1.00px"/>
</g>
<g id = "PNTOUPMP" >
<rect x = "67" y="177" width="6" height="6" rx="3" ry="3" stroke="#0000FF" stroke-width="1px"/>
<ellipse cx="70.00" cy="180.00" rx="3.00" ry="3.00" stroke="#0000FF" stroke-width="1.00px"/>
</g>
<g id = "WGBGJUDI" >
<rect x = "107" y="177" width="6" height="6" rx="3" ry="3" stroke="#0000FF" stroke-width="1px"/>
<ellipse cx="110.00" cy="180.00" rx="3.00" ry="3.00" stroke="#0000FF" stroke-width="1.00px"/>
</g>
<g id = "MEKQOWCW" >
<rect x = "67" y="187" width="6" height="6" rx="3" ry="3" stroke="#0000FF" stroke-width="1px"/>
<ellipse cx="70.00" cy="190.00" rx="3.00" ry="3.00" stroke="#0000FF" stroke-width="1.00px"/>
</g>
<g id = "IJCORPOV" >
<rect x = "107" y="187" width="6" height="6" rx="3" ry="3" stroke="#0000FF" stroke-width="1px"/>
<ellipse cx="110.00" cy="190.00" rx="3.00" ry="3.00" stroke="#0000FF" stroke-width="1.00px"/>
</g>
<g id = "HFIRSAET" >
<rect x = "67" y="197" width="6" height="6" rx="3" ry="3" stroke="#0000FF" stroke-width="1px"/>
<ellipse cx="70.00" cy="200.00" rx="3.00" ry="3.00" stroke="#0000FF" stroke-width="1.00px"/>
</g>
<g id = "GBBXRRBY" >
<rect x = "107" y="197" width="6" height="6" rx="3" ry="3" stroke="#0000FF" stroke-width="1px"/>
<ellipse cx="110.00" cy="200.00" rx="3.00" ry="3.00" stroke="#0000FF" stroke-width="1.00px"/>
</g>
<g id = "SDWUCHNX" >
<rect x = "67" y="207" width="6" height="6" rx="3" ry="3" stroke="#0000FF" stroke-width="1px"/>
<ellipse cx="70.00" cy="210.00" rx="3.00" ry="3.00" stroke="#0000FF" stroke-width="1.00px"/>
</g>
<g id = "QTMUSUNU" >
<rect x = "107" y="207" width="6" height="6" rx="3" ry="3" stroke="#0000FF" stroke-width="1px"/>
<ellipse cx="110.00" cy="210.00" rx="3.00" ry="3.00" stroke="#0000FF" stroke-width="1.00px"/>
</g>
<g id = "SZNHIKIH" >
<rect x = "67" y="217" width="6" height="6" rx="3" ry="3" stroke="#0000FF" stroke-width="1px"/>
<ellipse cx="70.00" cy="220.00" rx="3.00" ry="3.00" stroke="#0000FF" stroke-width="1.00px"/>
</g>
<g id = "LFUCAYMP" >
<rect x = "107" y="217" width="6" height="6" rx="3" ry="3" stroke="#0000FF" stroke-width="1px"/>
<ellipse cx="110.00" cy="220.00" rx="3.00" ry="3.00" stroke="#0000FF" stroke-width="1.00px"/>
</g>
<g id = "CPMYMNTE" >
<rect x = "67" y="227" width="6" height="6" rx="3" ry="3" stroke="#0000FF" stroke-width="1px"/>
<ellipse cx="70.00" cy="230.00" rx="3.00" ry="3.00" stroke="#0000FF" stroke-width="1.00px"/>
</g>
<g id = "XTUFUWEC" >
<rect x = "107" y="227" width="6" height="6" rx="3" ry="3" stroke="#0000FF" stroke-width="1px"/>
<ellipse cx="110.00" cy="230.00" rx="3.00" ry="3.00" stroke="#0000FF" stroke-width="1.00px"/>
</g>
<g id = "QNYRGLFO" >
<rect x = "67" y="237" width="6" height="6" rx="3" ry="3" stroke="#0000FF" stroke-width="1px"/>
<ellipse cx="70.00" cy="240.00" rx="3.00" ry="3.00" stroke="#0000FF" stroke-width="1.00px"/>
</g>
<g id = "AWBMYVYW" >
<rect x = "107" y="237" width="6" height="6" rx="3" ry="3" stroke="#0000FF" stroke-width="1px"/>
<ellipse cx="110.00" cy="240.00" rx="3.00" ry="3.00" stroke="#0000FF" stroke-width="1.00px"/>
</g>
<g id = "UCQMDXIS" >
<rect x = "67" y="247" width="6" height="6" rx="3" ry="3" stroke="#0000FF" stroke-width="1px"/>
<ellipse cx="70.00" cy="250.00" rx="3.00" ry="3.00" stroke="#0000FF" stroke-width="1.00px"/>
</g>
<g id = "JRMKFXEI" >
<rect x = "107" y="247" width="6" height="6" rx="3" ry="3" stroke="#0000FF" stroke-width="1px"/>
<ellipse cx="110.00" cy="250.00" rx="3.00" ry="3.00" stroke="#0000FF" stroke-width="1.00px"/>
</g>
<g id = "UJPJXEPA" >
<rect x = "67" y="257" width="6" height="6" rx="3" ry="3" stroke="#0000FF" stroke-width="1px"/>
<ellipse cx="70.00" cy="260.00" rx="3.00" ry="3.00" stroke="#0000FF" stroke-width="1.00px"/>
</g>
<g id = "RNCOEOOI" >
<rect x = "107" y="257" width="6" height="6" rx="3" ry="3" stroke="#0000FF" stroke-width="1px"/>
<ellipse cx="110.00" cy="260.00" rx="3.00" ry="3.00" stroke="#0000FF" stroke-width="1.00px"/>
</g>
<g id = "TTGWPHDQ" >
<rect x = "67" y="267" width="6" height="6" rx="3" ry="3" stroke="#0000FF" stroke-width="1px"/>
<ellipse cx="70.00" cy="270.00" rx="3.00" ry="3.00" stroke="#0000FF" stroke-width="1.00px"/>
</g>
<g id = "DNCZARWG" >
<rect x = "107" y="267" width="6" height="6" rx="3" ry="3" stroke="#0000FF" stroke-width="1px"/>
<ellipse cx="110.00" cy="270.00" rx="3.00" ry="3.00" stroke="#0000FF" stroke-width="1.00px"/>
</g>
<g id = "UHTIZQFR" >
<rect x = "67" y="277" width="6" height="6" rx="3" ry="3" stroke="#0000FF" stroke-width="1px"/>
<ellipse cx="70.00" cy="280.00" rx="3.00" ry="3.00" stroke="#0000FF" stroke-width="1.00px"/>
</g>
<g id = "NKATNLKO" >
<rect x = "107" y="277" width="6" height="6" rx="3" ry="3" stroke="#0000FF" stroke-width="1px"/>
<ellipse cx="110.00" cy="280.00" rx="3.00" ry="3.00" stroke="#0000FF" stroke-width="1.00px"/>
</g>
<g id = "DKHPLTTJ" >
<rect x = "67" y="287" width="6" height="6" rx="3" ry="3" stroke="#0000FF" stroke-width="1px"/>
<ellipse cx="70.00" cy="290.00" rx="3.00" ry="3.00" stroke="#0000FF" stroke-width="1.00px"/>
</g>
<g id = "OREOKJKO" >
<rect x = "107" y="287" width="6" height="6" rx="3" ry="3" stroke="#0000FF" stroke-width="1px"/>
<ellipse cx="110.00" cy="290.00" rx="3.00" ry="3.00" stroke="#0000FF" stroke-width="1.00px"/>
</g>
<g id = "CNQWWKOQ" >
<rect x = "67" y="297" width="6" height="6" rx="3" ry="3" stroke="#0000FF" stroke-width="1px"/>
<ellipse cx="70.00" cy="300.00" rx="3.00" ry="3.00" stroke="#0000FF" stroke-width="1.00px"/>
</g>
<g id = "CSOUMXQB" >
<rect x = "107" y="297" width="6" height="6" rx="3" ry="3" stroke="#0000FF" stroke-width="1px"/>
<ellipse cx="110.00" cy="300.00" rx="3.00" ry="3.00" stroke="#0000FF" stroke-width="1.00px"/>
</g>
<g id = "NLTHPCQC" >
<rect x = "67" y="307" width="6" height="6" rx="3" ry="3" stroke="#0000FF" stroke-width="1px"/>
<ellipse cx="70.00" cy="310.00" rx="3.00" ry="3.00" stroke="#0000FF" stroke-width="1.00px"/>
</g>
<g id = "XFXBYDDL" >
<rect x = "107" y="307" width="6" height="6" rx="3" ry="3" stroke="#0000FF" stroke-width="1px"/>
<ellipse cx="110.00" cy="310.00" rx="3.00" ry="3.00" stroke="#0000FF" stroke-width="1.00px"/>
</g>
<g id = "AQEZBIEA" >
<rect x = "67" y="317" width="6" height="6" rx="3" ry="3" stroke="#0000FF" stroke-width="1px"/>
<ellipse cx="70.00" cy="320.00" rx="3.00" ry="3.00" stroke="#0000FF" stroke-width="1.00px"/>
</g>
<g id = "XPOOLZLB" >
<rect x = "107" y="317" width="6" height="6" rx="3" ry="3" stroke="#0000FF" stroke-width="1px"/>
<ellipse cx="110.00" cy="320.00" rx="3.00" ry="3.00" stroke="#0000FF" stroke-width="1.00px"/>
</g>
<g id = "RSSOTJDY" >
<rect x = "67" y="327" width="6" height="6" rx="3" ry="3" stroke="#0000FF" stroke-width="1px"/>
<ellipse cx="70.00" cy="330.00" rx="3.00" ry="3.00" stroke="#0000FF" stroke-width="1.00px"/>
</g>
<g id = "GAAGZDDP" >
<rect x = "107" y="327" width="6" height="6" rx="3" ry="3" stroke="#0000FF" stroke-width="1px"/>
<ellipse cx="110.00" cy="330.00" rx="3.00" ry="3.00" stroke="#0000FF" stroke-width="1.00px"/>
</g>
<g id = "RYKWZYLZ" >
<rect x = "67" y="337" width="6" height="6" rx="3" ry="3" stroke="#0000FF" stroke-width="1px"/>
<ellipse cx="70.00" cy="340.00" rx="3.00" ry="3.00" stroke="#0000FF" stroke-width="1.00px"/>
</g>
<g id = "QZIZNMFL" >
<rect x = "107" y="337" width="6" height="6" rx="3" ry="3" stroke="#0000FF" stroke-width="1px"/>
<ellipse cx="110.00" cy="340.00" rx="3.00" ry="3.00" stroke="#0000FF" stroke-width="1.00px"/>
</g>
<g id = "YTZWTXJO" >
<rect x = "67" y="347" width="6" height="6" rx="3" ry="3" stroke="#0000FF" stroke-width="1px"/>
<ellipse cx="70.00" cy="350.00" rx="3.00" ry="3.00" stroke="#0000FF" stroke-width="1.00px"/>
</g>
<g id = "LQHQMQBQ" >
<rect x = "107" y="347" width="6" height="6" rx="3" ry="3" stroke="#0000FF" stroke-width="1px"/>
<ellipse cx="110.00" cy="350.00" rx="3.00" ry="3.00" stroke="#0000FF" stroke-width="1.00px"/>
</g>
<g id = "IRPJJWZN" >
<rect x = "67" y="357" width="6" height="6" rx="3" ry="3" stroke="#0000FF" stroke-width="1px"/>
<ellipse cx="70.00" cy="360.00" rx="3.00" ry="3.00" stroke="#0000FF" stroke-width="1.00px"/>
</g>
<g id = "ALKJKIBD" >
<rect x = "107" y="357" width="6" height="6" rx="3" ry="3" stroke="#0000FF" stroke-width="1px"/>
<ellipse cx="110.00" cy="360.00" rx="3.00" ry="3.00" stroke="#0000FF" stroke-width="1.00px"/>
</g>
<g id = "LYQVUNSS" >
<rect x = "67" y="367" width="6" height="6" rx="3" ry="3" stroke="#0000FF" stroke-width="1px"/>
<ellipse cx="70.00" cy="370.00" rx="3.00" ry="3.00" stroke="#0000FF" stroke-width="1.00px"/>
</g>
<g id = "YIPUNNVP" >
<rect x = "107" y="367" width="6" height="6" rx="3" ry="3" stroke="#0000FF" stroke-width="1px"/>
<ellipse cx="110.00" cy="370.00" rx="3.00" ry="3.00" stroke="#0000FF" stroke-width="1.00px"/>
</g>
<g id = "MENCRUHA" >
<rect x = "67" y="377" width="6" height="6" rx="3" ry="3" stroke="#0000FF" stroke-width="1px"/>
<ellipse cx="70.00" cy="380.00" rx="3.00" ry="3.00" stroke="#0000FF" stroke-width="1.00px"/>
</g>
<g id = "WKQBVVDS" >
<rect x = "107" y="377" width="6" height="6" rx="3" ry="3" stroke="#0000FF" stroke-width="1px"/>
<ellipse cx="110.00" cy="380.00" rx="3.00" ry="3.00" stroke="#0000FF" stroke-width="1.00px"/>
</g>
<g id = "VYFTWVPB" >
<rect x = "67" y="387" width="6" height="6" rx="3" ry="3" stroke="#0000FF" stroke-width="1px"/>
<ellipse cx="70.00" cy="390.00" rx="3.00" ry="3.00" stroke="#0000FF" stroke-width="1.00px"/>
</g>
<g id = "PYUMUNMF" >
<rect x = "107" y="387" width="6" height="6" rx="3" ry="3" stroke="#0000FF" stroke-width="1px"/>
<ellipse cx="110.00" cy="390.00" rx="3.00" ry="3.00" stroke="#0000FF" stroke-width="1.00px"/>
</g>
<g id = "DVPSHLGT" >
<rect x = "67" y="397" width="6" height="6" rx="3" ry="3" stroke="#0000FF" stroke-width="1px"/>
<ellipse cx="70.00" cy="400.00" rx="3.00" ry="3.00" stroke="#0000FF" stroke-width="1.00px"/>
</g>
<g id = "EKYHYXFN" >
<rect x = "107" y="397" width="6" height="6" rx="3" ry="3" stroke="#0000FF" stroke-width="1px"/>
<ellipse cx="110.00" cy="400.00" rx="3.00" ry="3.00" stroke="#0000FF" stroke-width="1.00px"/>
</g>
<g id = "YWGMSRRV" >
<rect x = "67" y="407" width="6" height="6" rx="3" ry="3" stroke="#0000FF" stroke-width="1px"/>
<ellipse cx="70.00" cy="410.00" rx="3.00" ry="3.00" stroke="#0000FF" stroke-width="1.00px"/>
</g>
<g id = "LJCXSHVH" >
<rect x = "107" y="407" width="6" height="6" rx="3" ry="3" stroke="#0000FF" stroke-width="1px"/>
<ellipse cx="110.00" cy="410.00" rx="3.00" ry="3.00" stroke="#0000FF" stroke-width="1.00px"/>
</g>
<g id = "WOWHLMBE" >
<rect x = "67" y="417" width="6" height="6" rx="3" ry="3" stroke="#0000FF" stroke-width="1px"/>
<ellipse cx="70.00" cy="420.00" rx="3.00" ry="3.00" stroke="#0000FF" stroke-width="1.00px"/>
</g>
<g id = "XDYTPEKB" >
<rect x = "107" y="417" width="6" height="6" rx="3" ry="3" stroke="#0000FF" stroke-width="1px"/>
<ellipse cx="110.00" cy="420.00" rx="3.00" ry="3.00" stroke="#0000FF" stroke-width="1.00px"/>
</g>
<g id = "TROGLJEC" >
<rect x = "67" y="427" width="6" height="6" rx="3" ry="3" stroke="#0000FF" stroke-width="1px"/>
<ellipse cx="70.00" cy="430.00" rx="3.00" ry="3.00" stroke="#0000FF" stroke-width="1.00px"/>
</g>
<g id = "ZRUYHLMT" >
<rect x = "107" y="427" width="6" height="6" rx="3" ry="3" stroke="#0000FF" stroke-width="1px"/>
<ellipse cx="110.00" cy="430.00" rx="3.00" ry="3.00" stroke="#0000FF" stroke-width="1.00px"/>
</g>
<g id = "IUERFSHW" >
<rect x = "67" y="437" width="6" height="6" rx="3" ry="3" stroke="#0000FF" stroke-width="1px"/>
<ellipse cx="70.00" cy="440.00" rx="3.00" ry="3.00" stroke="#0000FF" stroke-width="1.00px"/>
</g>
<g id = "WODWXSDR" >
<rect x = "107" y="437" width="6" height="6" rx="3" ry="3" stroke="#0000FF" stroke-width="1px"/>
<ellipse cx="110.00" cy="440.00" rx="3.00" ry="3.00" stroke="#0000FF" stroke-width="1.00px"/>
</g>
<g id = "EWRNIRVX" >
<rect x = "67" y="447" width="6" height="6" rx="3" ry="3" stroke="#0000FF" stroke-width="1px"/>
<ellipse cx="70.00" cy="450.00" rx="3.00" ry="3.00" stroke="#0000FF" stroke-width="1.00px"/>
</g>
<g id = "SRJAFAAD" >
<rect x = "107" y="447" width="6" height="6" rx="3" ry="3" stroke="#0000FF" stroke-width="1px"/>
<ellipse cx="110.00" cy="450.00" rx="3.00" ry="3.00" stroke="#0000FF" stroke-width="1.00px"/>
</g>
<g id = "VNADHKAN" >
<rect x = "67" y="457" width="6" height="6" rx="3" ry="3" stroke="#0000FF" stroke-width="1px"/>
<ellipse cx="70.00" cy="460.00" rx="3.00" ry="3.00" stroke="#0000FF" stroke-width="1.00px"/>
</g>
<g id = "EZNNHZMW" >
<rect x = "107" y="457" width="6" height="6" rx="3" ry="3" stroke="#0000FF" stroke-width="1px"/>
<ellipse cx="110.00" cy="460.00" rx="3.00" ry="3.00" stroke="#0000FF" stroke-width="1.00px"/>
</g>
<g id = "LSBABGFB" >
<rect x = "67" y="467" width="6" height="6" rx="3" ry="3" stroke="#0000FF" stroke-width="1px"/>
<ellipse cx="70.00" cy="470.00" rx="3.00" ry="3.00" stroke="#0000FF" stroke-width="1.00px"/>
</g>
<g id = "GSBESGIF" >
<rect x = "107" y="467" width="6" height="6" rx="3" ry="3" stroke="#0000FF" stroke-width="1px"/>
<ellipse cx="110.00" cy="470.00" rx="3.00" ry="3.00" stroke="#0000FF" stroke-width="1.00px"/>
</g>
<g id = "FJRKEVEL" >
<rect x = "67" y="477" width="6" height="6" rx="3" ry="3" stroke="#0000FF" stroke-width="1px"/>
<ellipse cx="70.00" cy="480.00" rx="3.00" ry="3.00" stroke="#0000FF" stroke-width="1.00px"/>
</g>
<g id = "YYJOOFHI" >
<rect x = "107" y="477" width="6" height="6" rx="3" ry="3" stroke="#0000FF" stroke-width="1px"/>
<ellipse cx="110.00" cy="480.00" rx="3.00" ry="3.00" stroke="#0000FF" stroke-width="1.00px"/>
</g>
<g id = "GBGTSTUD" >
<rect x = "67" y="487" width="6" height="6" rx="3" ry="3" stroke="#0000FF" stroke-width="1px"/>
<ellipse cx="70.00" cy="490.00" rx="3.00" ry="3.00" stroke="#0000FF" stroke-width="1.00px"/>
</g>
<g id = "EWGSPZBK" >
<rect x = "107" y="487" width="6" height="6" rx="3" ry="3" stroke="#0000FF" stroke-width="1px"/>
<ellipse cx="110.00" cy="490.00" rx="3.00" ry="3.00" stroke="#0000FF" stroke-width="1.00px"/>
</g>
<g id = "TSNKALVF" >
<rect x = "67" y="497" width="6" height="6" rx="3" ry="3" stroke="#0000FF" stroke-width="1px"/>
<ellipse cx="70.00" cy="500.00" rx="3.00" ry="3.00" stroke="#0000FF" stroke-width="1.00px"/>
</g>
<g id = "OSGWIUVR" >
<rect x = "107" y="497" width="6" height="6" rx="3" ry="3" stroke="#0000FF" stroke-width="1px"/>
<ellipse cx="110.00" cy="500.00" rx="3.00" ry="3.00" stroke="#0000FF" stroke-width="1.00px"/>
</g>
<g id = "LAXHNQRO" >
<rect x = "67" y="507" width="6" height="6" rx="3" ry="3" stroke="#0000FF" stroke-width="1px"/>
<ellipse cx="70.00" cy="510.00" rx="3.00" ry="3.00" stroke="#0000FF" stroke-width="1.00px"/>
</g>
<g id = "HMVWNBGM" >
<rect x = "107" y="507" width="6" height="6" rx="3" ry="3" stroke="#0000FF" stroke-width="1px"/>
<ellipse cx="110.00" cy="510.00" rx="3.00" ry="3.00" stroke="#0000FF" stroke-width="1.00px"/>
</g>
<g id = "KAVFFDRB" >
<rect x = "67" y="517" width="6" height="6" rx="3" ry="3" stroke="#0000FF" stroke-width="1px"/>
<ellipse cx="70.00" cy="520.00" rx="3.00" ry="3.00" stroke="#0000FF" stroke-width="1.00px"/>
</g>
<g id = "ZTRDYSHV" >
<rect x = "107" y="517" width="6" height="6" rx="3" ry="3" stroke="#0000FF" stroke-width="1px"/>
<ellipse cx="110.00" cy="520.00" rx="3.00" ry="3.00" stroke="#0000FF" stroke-width="1.00px"/>
</g>
<g id = "VXZZJDEI" >
<rect x = "67" y="527" width="6" height="6" rx="3" ry="3" stroke="#0000FF" stroke-width="1px"/>
<ellipse cx="70.00" cy="530.00" rx="3.00" ry="3.00" stroke="#0000FF" stroke-width="1.00px"/>
</g>
<g id = "UBWDKRQS" >
<rect x = "107" y="527" width="6" height="6" rx="3" ry="3" stroke="#0000FF" stroke-width="1px"/>
<ellipse cx="110.00" cy="530.00" rx="3.00" ry="3.00" stroke="#0000FF" stroke-width="1.00px"/>
</g>
<g id = "YRQZVNCT" >
<rect x = "67" y="537" width="6" height="6" rx="3" ry="3" stroke="#0000FF" stroke-width="1px"/>
<ellipse cx="70.00" cy="540.00" rx="3.00" ry="3.00" stroke="#0000FF" stroke-width="1.00px"/>
</g>
<g id = "RQZBSUTP" >
<rect x = "107" y="537" width="6" height="6" rx="3" ry="3" stroke="#0000FF" stroke-width="1px"/>
<ellipse cx="110.00" cy="540.00" rx="3.00" ry="3.00" stroke="#0000FF" stroke-width="1.00px"/>
</g>
<g id = "NTVPTISY" >
<line x1="70" y1="60" x2="50" y2="60" stroke="#000000" stroke-width="1px"/>
<text x="77" y="63" font-size="8.888889px" font-family="Times New Roman" fill="#000000" xml:space="preserve">1</text>
</g>
<g id = "ZHESOLQA" >
<line x1="110" y1="60" x2="130" y2="60" stroke="#000000" stroke-width="1px"/>
<text x="98.0556" y="63" font-size="8.888889px" font-family="Times New Roman" fill="#000000" xml:space="preserve">2</text>
</g>
<g id = "VWZQCFAK" >
<line x1="70" y1="70" x2="50" y2="70" stroke="#000000" stroke-width="1px"/>
<text x="77" y="73" font-size="8.888889px" font-family="Times New Roman" fill="#000000" xml:space="preserve">3</text>
</g>
<g id = "UIANYPEB" >
<line x1="110" y1="70" x2="130" y2="70" stroke="#000000" stroke-width="1px"/>
<text x="98.0556" y="73" font-size="8.888889px" font-family="Times New Roman" fill="#000000" xml:space="preserve">4</text>
</g>
<g id = "TUQJAJBZ" >
<line x1="70" y1="80" x2="50" y2="80" stroke="#000000" stroke-width="1px"/>
<text x="77" y="83" font-size="8.888889px" font-family="Times New Roman" fill="#000000" xml:space="preserve">5</text>
</g>
<g id = "NGDRKPSH" >
<line x1="110" y1="80" x2="130" y2="80" stroke="#000000" stroke-width="1px"/>
<text x="98.0556" y="83" font-size="8.888889px" font-family="Times New Roman" fill="#000000" xml:space="preserve">6</text>
</g>
<g id = "LHMPGXEV" >
<line x1="70" y1="90" x2="50" y2="90" stroke="#000000" stroke-width="1px"/>
<text x="77" y="93" font-size="8.888889px" font-family="Times New Roman" fill="#000000" xml:space="preserve">7</text>
</g>
<g id = "BGZFDYTO" >
<line x1="110" y1="90" x2="130" y2="90" stroke="#000000" stroke-width="1px"/>
<text x="98.0556" y="93" font-size="8.888889px" font-family="Times New Roman" fill="#000000" xml:space="preserve">8</text>
</g>
<g id = "MMSDGZIB" >
<line x1="70" y1="100" x2="50" y2="100" stroke="#000000" stroke-width="1px"/>
<text x="77" y="103" font-size="8.888889px" font-family="Times New Roman" fill="#000000" xml:space="preserve">9</text>
</g>
<g id = "UDVZILAY" >
<line x1="110" y1="100" x2="130" y2="100" stroke="#000000" stroke-width="1px"/>
<text x="93.1111" y="103" font-size="8.888889px" font-family="Times New Roman" fill="#000000" xml:space="preserve">10</text>
</g>
<g id = "OWKVJYSG" >
<line x1="70" y1="110" x2="50" y2="110" stroke="#000000" stroke-width="1px"/>
<text x="77" y="113" font-size="8.888889px" font-family="Times New Roman" fill="#000000" xml:space="preserve">11</text>
</g>
<g id = "EACOJBRV" >
<line x1="110" y1="110" x2="130" y2="110" stroke="#000000" stroke-width="1px"/>
<text x="93.1111" y="113" font-size="8.888889px" font-family="Times New Roman" fill="#000000" xml:space="preserve">12</text>
</g>
<g id = "HBPFHEUX" >
<line x1="70" y1="120" x2="50" y2="120" stroke="#000000" stroke-width="1px"/>
<text x="77" y="123" font-size="8.888889px" font-family="Times New Roman" fill="#000000" xml:space="preserve">13</text>
</g>
<g id = "MOJVCNUK" >
<line x1="110" y1="120" x2="130" y2="120" stroke="#000000" stroke-width="1px"/>
<text x="93.1111" y="123" font-size="8.888889px" font-family="Times New Roman" fill="#000000" xml:space="preserve">14</text>
</g>
<g id = "DPMSFVDP" >
<line x1="70" y1="130" x2="50" y2="130" stroke="#000000" stroke-width="1px"/>
<text x="77" y="133" font-size="8.888889px" font-family="Times New Roman" fill="#000000" xml:space="preserve">15</text>
</g>
<g id = "EJXRWXKW" >
<line x1="110" y1="130" x2="130" y2="130" stroke="#000000" stroke-width="1px"/>
<text x="93.1111" y="133" font-size="8.888889px" font-family="Times New Roman" fill="#000000" xml:space="preserve">16</text>
</g>
<g id = "HRVYAURS" >
<line x1="70" y1="140" x2="50" y2="140" stroke="#000000" stroke-width="1px"/>
<text x="77" y="143" font-size="8.888889px" font-family="Times New Roman" fill="#000000" xml:space="preserve">17</text>
</g>
<g id = "CMUZGRBK" >
<line x1="110" y1="140" x2="130" y2="140" stroke="#000000" stroke-width="1px"/>
<text x="93.1111" y="143" font-size="8.888889px" font-family="Times New Roman" fill="#000000" xml:space="preserve">18</text>
</g>
<g id = "GJSBRHBW" >
<line x1="70" y1="150" x2="50" y2="150" stroke="#000000" stroke-width="1px"/>
<text x="77" y="153" font-size="8.888889px" font-family="Times New Roman" fill="#000000" xml:space="preserve">19</text>
</g>
<g id = "HSVKUFFG" >
<line x1="110" y1="150" x2="130" y2="150" stroke="#000000" stroke-width="1px"/>
<text x="93.1111" y="153" font-size="8.888889px" font-family="Times New Roman" fill="#000000" xml:space="preserve">20</text>
</g>
<g id = "SHXTKHKW" >
<line x1="70" y1="160" x2="50" y2="160" stroke="#000000" stroke-width="1px"/>
<text x="77" y="163" font-size="8.888889px" font-family="Times New Roman" fill="#000000" xml:space="preserve">21</text>
</g>
<g id = "HREVSSSB" >
<line x1="110" y1="160" x2="130" y2="160" stroke="#000000" stroke-width="1px"/>
<text x="93.1111" y="163" font-size="8.888889px" font-family="Times New Roman" fill="#000000" xml:space="preserve">22</text>
</g>
<g id = "POSJVISX" >
<line x1="70" y1="170" x2="50" y2="170" stroke="#000000" stroke-width="1px"/>
<text x="77" y="173" font-size="8.888889px" font-family="Times New Roman" fill="#000000" xml:space="preserve">23</text>
</g>
<g id = "UZTVZNER" >
<line x1="110" y1="170" x2="130" y2="170" stroke="#000000" stroke-width="1px"/>
<text x="93.1111" y="173" font-size="8.888889px" font-family="Times New Roman" fill="#000000" xml:space="preserve">24</text>
</g>
<g id = "DKPJZJDV" >
<line x1="70" y1="180" x2="50" y2="180" stroke="#000000" stroke-width="1px"/>
<text x="77" y="183" font-size="8.888889px" font-family="Times New Roman" fill="#000000" xml:space="preserve">25</text>
</g>
<g id = "DDYFXEQZ" >
<line x1="110" y1="180" x2="130" y2="180" stroke="#000000" stroke-width="1px"/>
<text x="93.1111" y="183" font-size="8.888889px" font-family="Times New Roman" fill="#000000" xml:space="preserve">26</text>
</g>
<g id = "TKRGZGVR" >
<line x1="70" y1="190" x2="50" y2="190" stroke="#000000" stroke-width="1px"/>
<text x="77" y="193" font-size="8.888889px" font-family="Times New Roman" fill="#000000" xml:space="preserve">27</text>
</g>
<g id = "BWVGZHCS" >
<line x1="110" y1="190" x2="130" y2="190" stroke="#000000" stroke-width="1px"/>
<text x="93.1111" y="193" font-size="8.888889px" font-family="Times New Roman" fill="#000000" xml:space="preserve">28</text>
</g>
<g id = "COHDFTLL" >
<line x1="70" y1="200" x2="50" y2="200" stroke="#000000" stroke-width="1px"/>
<text x="77" y="203" font-size="8.888889px" font-family="Times New Roman" fill="#000000" xml:space="preserve">29</text>
</g>
<g id = "SXQKCOUL" >
<line x1="110" y1="200" x2="130" y2="200" stroke="#000000" stroke-width="1px"/>
<text x="93.1111" y="203" font-size="8.888889px" font-family="Times New Roman" fill="#000000" xml:space="preserve">30</text>
</g>
<g id = "KNILQOOG" >
<line x1="70" y1="210" x2="50" y2="210" stroke="#000000" stroke-width="1px"/>
<text x="77" y="213" font-size="8.888889px" font-family="Times New Roman" fill="#000000" xml:space="preserve">31</text>
</g>
<g id = "JMLBRZDU" >
<line x1="110" y1="210" x2="130" y2="210" stroke="#000000" stroke-width="1px"/>
<text x="93.1111" y="213" font-size="8.888889px" font-family="Times New Roman" fill="#000000" xml:space="preserve">32</text>
</g>
<g id = "PRXCRZIE" >
<line x1="70" y1="220" x2="50" y2="220" stroke="#000000" stroke-width="1px"/>
<text x="77" y="223" font-size="8.888889px" font-family="Times New Roman" fill="#000000" xml:space="preserve">33</text>
</g>
<g id = "CSWOYEJB" >
<line x1="110" y1="220" x2="130" y2="220" stroke="#000000" stroke-width="1px"/>
<text x="93.1111" y="223" font-size="8.888889px" font-family="Times New Roman" fill="#000000" xml:space="preserve">34</text>
</g>
<g id = "UTYTANLO" >
<line x1="70" y1="230" x2="50" y2="230" stroke="#000000" stroke-width="1px"/>
<text x="77" y="233" font-size="8.888889px" font-family="Times New Roman" fill="#000000" xml:space="preserve">35</text>
</g>
<g id = "QEZHOPLB" >
<line x1="110" y1="230" x2="130" y2="230" stroke="#000000" stroke-width="1px"/>
<text x="93.1111" y="233" font-size="8.888889px" font-family="Times New Roman" fill="#000000" xml:space="preserve">36</text>
</g>
<g id = "FCDGWZUD" >
<line x1="70" y1="240" x2="50" y2="240" stroke="#000000" stroke-width="1px"/>
<text x="77" y="243" font-size="8.888889px" font-family="Times New Roman" fill="#000000" xml:space="preserve">37</text>
</g>
<g id = "QYDKUDXK" >
<line x1="110" y1="240" x2="130" y2="240" stroke="#000000" stroke-width="1px"/>
<text x="93.1111" y="243" font-size="8.888889px" font-family="Times New Roman" fill="#000000" xml:space="preserve">38</text>
</g>
<g id = "RJNZPOSP" >
<line x1="70" y1="250" x2="50" y2="250" stroke="#000000" stroke-width="1px"/>
<text x="77" y="253" font-size="8.888889px" font-family="Times New Roman" fill="#000000" xml:space="preserve">39</text>
</g>
<g id = "HXTOGBKF" >
<line x1="110" y1="250" x2="130" y2="250" stroke="#000000" stroke-width="1px"/>
<text x="93.1111" y="253" font-size="8.888889px" font-family="Times New Roman" fill="#000000" xml:space="preserve">40</text>
</g>
<g id = "JHBHKMZU" >
<line x1="70" y1="260" x2="50" y2="260" stroke="#000000" stroke-width="1px"/>
<text x="77" y="263" font-size="8.888889px" font-family="Times New Roman" fill="#000000" xml:space="preserve">41</text>
</g>
<g id = "VJESMPWR" >
<line x1="110" y1="260" x2="130" y2="260" stroke="#000000" stroke-width="1px"/>
<text x="93.1111" y="263" font-size="8.888889px" font-family="Times New Roman" fill="#000000" xml:space="preserve">42</text>
</g>
<g id = "FNHFDPQY" >
<line x1="70" y1="270" x2="50" y2="270" stroke="#000000" stroke-width="1px"/>
<text x="77" y="273" font-size="8.888889px" font-family="Times New Roman" fill="#000000" xml:space="preserve">43</text>
</g>
<g id = "LYGATNRB" >
<line x1="110" y1="270" x2="130" y2="270" stroke="#000000" stroke-width="1px"/>
<text x="93.1111" y="273" font-size="8.888889px" font-family="Times New Roman" fill="#000000" xml:space="preserve">44</text>
</g>
<g id = "HCMJWPYW" >
<line x1="70" y1="280" x2="50" y2="280" stroke="#000000" stroke-width="1px"/>
<text x="77" y="283" font-size="8.888889px" font-family="Times New Roman" fill="#000000" xml:space="preserve">45</text>
</g>
<g id = "NZIYRKYH" >
<line x1="110" y1="280" x2="130" y2="280" stroke="#000000" stroke-width="1px"/>
<text x="93.1111" y="283" font-size="8.888889px" font-family="Times New Roman" fill="#000000" xml:space="preserve">46</text>
</g>
<g id = "DGEBDZHM" >
<line x1="70" y1="290" x2="50" y2="290" stroke="#000000" stroke-width="1px"/>
<text x="77" y="293" font-size="8.888889px" font-family="Times New Roman" fill="#000000" xml:space="preserve">47</text>
</g>
<g id = "VAVMLRHH" >
<line x1="110" y1="290" x2="130" y2="290" stroke="#000000" stroke-width="1px"/>
<text x="93.1111" y="293" font-size="8.888889px" font-family="Times New Roman" fill="#000000" xml:space="preserve">48</text>
</g>
<g id = "QRXLXAZH" >
<line x1="70" y1="300" x2="50" y2="300" stroke="#000000" stroke-width="1px"/>
<text x="77" y="303" font-size="8.888889px" font-family="Times New Roman" fill="#000000" xml:space="preserve">49</text>
</g>
<g id = "ISQQDRIR" >
<line x1="110" y1="300" x2="130" y2="300" stroke="#000000" stroke-width="1px"/>
<text x="93.1111" y="303" font-size="8.888889px" font-family="Times New Roman" fill="#000000" xml:space="preserve">50</text>
</g>
<g id = "YTTPHHOR" >
<line x1="70" y1="310" x2="50" y2="310" stroke="#000000" stroke-width="1px"/>
<text x="77" y="313" font-size="8.888889px" font-family="Times New Roman" fill="#000000" xml:space="preserve">51</text>
</g>
<g id = "ILMKJGYY" >
<line x1="110" y1="310" x2="130" y2="310" stroke="#000000" stroke-width="1px"/>
<text x="93.1111" y="313" font-size="8.888889px" font-family="Times New Roman" fill="#000000" xml:space="preserve">52</text>
</g>
<g id = "ANDPXFSK" >
<line x1="70" y1="320" x2="50" y2="320" stroke="#000000" stroke-width="1px"/>
<text x="77" y="323" font-size="8.888889px" font-family="Times New Roman" fill="#000000" xml:space="preserve">53</text>
</g>
<g id = "GJNPGWED" >
<line x1="110" y1="320" x2="130" y2="320" stroke="#000000" stroke-width="1px"/>
<text x="93.1111" y="323" font-size="8.888889px" font-family="Times New Roman" fill="#000000" xml:space="preserve">54</text>
</g>
<g id = "MEKZUWGC" >
<line x1="70" y1="330" x2="50" y2="330" stroke="#000000" stroke-width="1px"/>
<text x="77" y="333" font-size="8.888889px" font-family="Times New Roman" fill="#000000" xml:space="preserve">55</text>
</g>
<g id = "HCZVMNRE" >
<line x1="110" y1="330" x2="130" y2="330" stroke="#000000" stroke-width="1px"/>
<text x="93.1111" y="333" font-size="8.888889px" font-family="Times New Roman" fill="#000000" xml:space="preserve">56</text>
</g>
<g id = "WBDEFVOW" >
<line x1="70" y1="340" x2="50" y2="340" stroke="#000000" stroke-width="1px"/>
<text x="77" y="343" font-size="8.888889px" font-family="Times New Roman" fill="#000000" xml:space="preserve">57</text>
</g>
<g id = "SFQMSBNU" >
<line x1="110" y1="340" x2="130" y2="340" stroke="#000000" stroke-width="1px"/>
<text x="93.1111" y="343" font-size="8.888889px" font-family="Times New Roman" fill="#000000" xml:space="preserve">58</text>
</g>
<g id = "RLXGFFGG" >
<line x1="70" y1="350" x2="50" y2="350" stroke="#000000" stroke-width="1px"/>
<text x="77" y="353" font-size="8.888889px" font-family="Times New Roman" fill="#000000" xml:space="preserve">59</text>
</g>
<g id = "QNXFEIQH" >
<line x1="110" y1="350" x2="130" y2="350" stroke="#000000" stroke-width="1px"/>
<text x="93.1111" y="353" font-size="8.888889px" font-family="Times New Roman" fill="#000000" xml:space="preserve">60</text>
</g>
<g id = "OVJXSMAT" >
<line x1="70" y1="360" x2="50" y2="360" stroke="#000000" stroke-width="1px"/>
<text x="77" y="363" font-size="8.888889px" font-family="Times New Roman" fill="#000000" xml:space="preserve">61</text>
</g>
<g id = "IQPIAKEI" >
<line x1="110" y1="360" x2="130" y2="360" stroke="#000000" stroke-width="1px"/>
<text x="93.1111" y="363" font-size="8.888889px" font-family="Times New Roman" fill="#000000" xml:space="preserve">62</text>
</g>
<g id = "XOXNCTHP" >
<line x1="70" y1="370" x2="50" y2="370" stroke="#000000" stroke-width="1px"/>
<text x="77" y="373" font-size="8.888889px" font-family="Times New Roman" fill="#000000" xml:space="preserve">63</text>
</g>
<g id = "NRZGDKTO" >
<line x1="110" y1="370" x2="130" y2="370" stroke="#000000" stroke-width="1px"/>
<text x="93.1111" y="373" font-size="8.888889px" font-family="Times New Roman" fill="#000000" xml:space="preserve">64</text>
</g>
<g id = "YYURYCCJ" >
<line x1="70" y1="380" x2="50" y2="380" stroke="#000000" stroke-width="1px"/>
<text x="77" y="383" font-size="8.888889px" font-family="Times New Roman" fill="#000000" xml:space="preserve">65</text>
</g>
<g id = "IFJQASHK" >
<line x1="110" y1="380" x2="130" y2="380" stroke="#000000" stroke-width="1px"/>
<text x="93.1111" y="383" font-size="8.888889px" font-family="Times New Roman" fill="#000000" xml:space="preserve">66</text>
</g>
<g id = "WNLBGGBB" >
<line x1="70" y1="390" x2="50" y2="390" stroke="#000000" stroke-width="1px"/>
<text x="77" y="393" font-size="8.888889px" font-family="Times New Roman" fill="#000000" xml:space="preserve">67</text>
</g>
<g id = "XOBSGPKL" >
<line x1="110" y1="390" x2="130" y2="390" stroke="#000000" stroke-width="1px"/>
<text x="93.1111" y="393" font-size="8.888889px" font-family="Times New Roman" fill="#000000" xml:space="preserve">68</text>
</g>
<g id = "RXBDOPED" >
<line x1="70" y1="400" x2="50" y2="400" stroke="#000000" stroke-width="1px"/>
<text x="77" y="403" font-size="8.888889px" font-family="Times New Roman" fill="#000000" xml:space="preserve">69</text>
</g>
<g id = "WFKKTJFG" >
<line x1="110" y1="400" x2="130" y2="400" stroke="#000000" stroke-width="1px"/>
<text x="93.1111" y="403" font-size="8.888889px" font-family="Times New Roman" fill="#000000" xml:space="preserve">70</text>
</g>
<g id = "RDXPOWRZ" >
<line x1="70" y1="410" x2="50" y2="410" stroke="#000000" stroke-width="1px"/>
<text x="77" y="413" font-size="8.888889px" font-family="Times New Roman" fill="#000000" xml:space="preserve">71</text>
</g>
<g id = "OHEQQXKR" >
<line x1="110" y1="410" x2="130" y2="410" stroke="#000000" stroke-width="1px"/>
<text x="93.1111" y="413" font-size="8.888889px" font-family="Times New Roman" fill="#000000" xml:space="preserve">72</text>
</g>
<g id = "WJVRSRND" >
<line x1="70" y1="420" x2="50" y2="420" stroke="#000000" stroke-width="1px"/>
<text x="77" y="423" font-size="8.888889px" font-family="Times New Roman" fill="#000000" xml:space="preserve">73</text>
</g>
<g id = "OUYPWDLW" >
<line x1="110" y1="420" x2="130" y2="420" stroke="#000000" stroke-width="1px"/>
<text x="93.1111" y="423" font-size="8.888889px" font-family="Times New Roman" fill="#000000" xml:space="preserve">74</text>
</g>
<g id = "KFSMNGOQ" >
<line x1="70" y1="430" x2="50" y2="430" stroke="#000000" stroke-width="1px"/>
<text x="77" y="433" font-size="8.888889px" font-family="Times New Roman" fill="#000000" xml:space="preserve">75</text>
</g>
<g id = "AALIRBCP" >
<line x1="110" y1="430" x2="130" y2="430" stroke="#000000" stroke-width="1px"/>
<text x="93.1111" y="433" font-size="8.888889px" font-family="Times New Roman" fill="#000000" xml:space="preserve">76</text>
</g>
<g id = "EEVNAGIP" >
<line x1="70" y1="440" x2="50" y2="440" stroke="#000000" stroke-width="1px"/>
<text x="77" y="443" font-size="8.888889px" font-family="Times New Roman" fill="#000000" xml:space="preserve">77</text>
</g>
<g id = "VMXSXENH" >
<line x1="110" y1="440" x2="130" y2="440" stroke="#000000" stroke-width="1px"/>
<text x="93.1111" y="443" font-size="8.888889px" font-family="Times New Roman" fill="#000000" xml:space="preserve">78</text>
</g>
<g id = "IGCSTJZK" >
<line x1="70" y1="450" x2="50" y2="450" stroke="#000000" stroke-width="1px"/>
<text x="77" y="453" font-size="8.888889px" font-family="Times New Roman" fill="#000000" xml:space="preserve">79</text>
</g>
<g id = "ZSTHEGDI" >
<line x1="110" y1="450" x2="130" y2="450" stroke="#000000" stroke-width="1px"/>
<text x="93.1111" y="453" font-size="8.888889px" font-family="Times New Roman" fill="#000000" xml:space="preserve">80</text>
</g>
<g id = "EAVVRQOT" >
<line x1="70" y1="460" x2="50" y2="460" stroke="#000000" stroke-width="1px"/>
<text x="77" y="463" font-size="8.888889px" font-family="Times New Roman" fill="#000000" xml:space="preserve">81</text>
</g>
<g id = "WSZEVMDO" >
<line x1="110" y1="460" x2="130" y2="460" stroke="#000000" stroke-width="1px"/>
<text x="93.1111" y="463" font-size="8.888889px" font-family="Times New Roman" fill="#000000" xml:space="preserve">82</text>
</g>
<g id = "YEZHEKYU" >
<line x1="70" y1="470" x2="50" y2="470" stroke="#000000" stroke-width="1px"/>
<text x="77" y="473" font-size="8.888889px" font-family="Times New Roman" fill="#000000" xml:space="preserve">83</text>
</g>
<g id = "VUZFKNMJ" >
<line x1="110" y1="470" x2="130" y2="470" stroke="#000000" stroke-width="1px"/>
<text x="93.1111" y="473" font-size="8.888889px" font-family="Times New Roman" fill="#000000" xml:space="preserve">84</text>
</g>
<g id = "VWULURUN" >
<line x1="70" y1="480" x2="50" y2="480" stroke="#000000" stroke-width="1px"/>
<text x="77" y="483" font-size="8.888889px" font-family="Times New Roman" fill="#000000" xml:space="preserve">85</text>
</g>
<g id = "DOAFKXZX" >
<line x1="110" y1="480" x2="130" y2="480" stroke="#000000" stroke-width="1px"/>
<text x="93.1111" y="483" font-size="8.888889px" font-family="Times New Roman" fill="#000000" xml:space="preserve">86</text>
</g>
<g id = "REYNBQIT" >
<line x1="70" y1="490" x2="50" y2="490" stroke="#000000" stroke-width="1px"/>
<text x="77" y="493" font-size="8.888889px" font-family="Times New Roman" fill="#000000" xml:space="preserve">87</text>
</g>
<g id = "KLXBGPRW" >
<line x1="110" y1="490" x2="130" y2="490" stroke="#000000" stroke-width="1px"/>
<text x="93.1111" y="493" font-size="8.888889px" font-family="Times New Roman" fill="#000000" xml:space="preserve">88</text>
</g>
<g id = "PTJEUATL" >
<line x1="70" y1="500" x2="50" y2="500" stroke="#000000" stroke-width="1px"/>
<text x="77" y="503" font-size="8.888889px" font-family="Times New Roman" fill="#000000" xml:space="preserve">89</text>
</g>
<g id = "KHSCPBYD" >
<line x1="110" y1="500" x2="130" y2="500" stroke="#000000" stroke-width="1px"/>
<text x="93.1111" y="503" font-size="8.888889px" font-family="Times New Roman" fill="#000000" xml:space="preserve">90</text>
</g>
<g id = "QDSEKKXO" >
<line x1="70" y1="510" x2="50" y2="510" stroke="#000000" stroke-width="1px"/>
<text x="77" y="513" font-size="8.888889px" font-family="Times New Roman" fill="#000000" xml:space="preserve">91</text>
</g>
<g id = "OYFWNOXX" >
<line x1="110" y1="510" x2="130" y2="510" stroke="#000000" stroke-width="1px"/>
<text x="93.1111" y="513" font-size="8.888889px" font-family="Times New Roman" fill="#000000" xml:space="preserve">92</text>
</g>
<g id = "DHHPBNAG" >
<line x1="70" y1="520" x2="50" y2="520" stroke="#000000" stroke-width="1px"/>
<text x="77" y="523" font-size="8.888889px" font-family="Times New Roman" fill="#000000" xml:space="preserve">93</text>
</g>
<g id = "MQJZKLDD" >
<line x1="110" y1="520" x2="130" y2="520" stroke="#000000" stroke-width="1px"/>
<text x="93.1111" y="523" font-size="8.888889px" font-family="Times New Roman" fill="#000000" xml:space="preserve">94</text>
</g>
<g id = "KAWLBQEN" >
<line x1="70" y1="530" x2="50" y2="530" stroke="#000000" stroke-width="1px"/>
<text x="77" y="533" font-size="8.888889px" font-family="Times New Roman" fill="#000000" xml:space="preserve">95</text>
</g>
<g id = "PNJGNUKN" >
<line x1="110" y1="530" x2="130" y2="530" stroke="#000000" stroke-width="1px"/>
<text x="93.1111" y="533" font-size="8.888889px" font-family="Times New Roman" fill="#000000" xml:space="preserve">96</text>
</g>
<g id = "AFCMUKPG" >
<line x1="70" y1="540" x2="50" y2="540" stroke="#000000" stroke-width="1px"/>
<text x="77" y="543" font-size="8.888889px" font-family="Times New Roman" fill="#000000" xml:space="preserve">97</text>
</g>
<g id = "SPUETOQT" >
<line x1="110" y1="540" x2="130" y2="540" stroke="#000000" stroke-width="1px"/>
<text x="93.1111" y="543" font-size="8.888889px" font-family="Times New Roman" fill="#000000" xml:space="preserve">98</text>
</g>
</g>
</g>
</g>
</g>
</svg>