<?xml version="1.0"  encoding="UTF-8" standalone="no"?>
<svg version="1.1" xmlns="http://www.w3.org/2000/svg" xmlns:xlink="http://www.w3.org/1999/xlink" stroke-linecap="round" stroke-linejoin="round" fill="none" width="150" height="970" viewBox="0 0 150 970" data-doc-id="symbol-Socket 86" data-doc-ver="2">
<g id = "scene" >
<g id = "DocumentMainGroup" >
<g id = "BackgroundGroup" >
<rect x = "0" y="0" width="150" height="970" fill="#FFFFFF" fill-opacity="1"/>
</g>
<g id = "symbol-Socket 86" >
<g id = "DocumentItemsGroup" >
<g id = "HPRRUUBM" >
<rect x = "70" y="50" width="30" height="870" stroke="#0000FF" stroke-width="1px"/>
</g>
<g id = "QFIVRWHP" >
<rect x = "67" y="57" width="6" height="6" rx="3" ry="3" stroke="#0000FF" stroke-width="1px"/>
<ellipse cx="70.00" cy="60.00" rx="3.00" ry="3.00" stroke="#0000FF" stroke-width="1.00px"/>
</g>
<g id = "BBVSRBMH" >
<rect x = "67" y="67" width="6" height="6" rx="3" ry="3" stroke="#0000FF" stroke-width="1px"/>
<ellipse cx="70.00" cy="70.00" rx="3.00" ry="3.00" stroke="#0000FF" stroke-width="1.00px"/>
</g>
<g id = "YMRECEDK" >
<rect x = "67" y="77" width="6" height="6" rx="3" ry="3" stroke="#0000FF" stroke-width="1px"/>
<ellipse cx="70.00" cy="80.00" rx="3.00" ry="3.00" stroke="#0000FF" stroke-width="1.00px"/>
</g>
<g id = "LTPHXPEC" >
<rect x = "67" y="87" width="6" height="6" rx="3" ry="3" stroke="#0000FF" stroke-width="1px"/>
<ellipse cx="70.00" cy="90.00" rx="3.00" ry="3.00" stroke="#0000FF" stroke-width="1.00px"/>
</g>
<g id = "GOWLCEGR" >
<rect x = "67" y="97" width="6" height="6" rx="3" ry="3" stroke="#0000FF" stroke-width="1px"/>
<ellipse cx="70.00" cy="100.00" rx="3.00" ry="3.00" stroke="#0000FF" stroke-width="1.00px"/>
</g>
<g id = "YJHSNENR" >
<rect x = "67" y="107" width="6" height="6" rx="3" ry="3" stroke="#0000FF" stroke-width="1px"/>
<ellipse cx="70.00" cy="110.00" rx="3.00" ry="3.00" stroke="#0000FF" stroke-width="1.00px"/>
</g>
<g id = "TCCRPOAY" >
<rect x = "67" y="117" width="6" height="6" rx="3" ry="3" stroke="#0000FF" stroke-width="1px"/>
<ellipse cx="70.00" cy="120.00" rx="3.00" ry="3.00" stroke="#0000FF" stroke-width="1.00px"/>
</g>
<g id = "JZNAQMCT" >
<rect x = "67" y="127" width="6" height="6" rx="3" ry="3" stroke="#0000FF" stroke-width="1px"/>
<ellipse cx="70.00" cy="130.00" rx="3.00" ry="3.00" stroke="#0000FF" stroke-width="1.00px"/>
</g>
<g id = "NOZBJTFV" >
<rect x = "67" y="137" width="6" height="6" rx="3" ry="3" stroke="#0000FF" stroke-width="1px"/>
<ellipse cx="70.00" cy="140.00" rx="3.00" ry="3.00" stroke="#0000FF" stroke-width="1.00px"/>
</g>
<g id = "RQJGHVJB" >
<rect x = "67" y="147" width="6" height="6" rx="3" ry="3" stroke="#0000FF" stroke-width="1px"/>
<ellipse cx="70.00" cy="150.00" rx="3.00" ry="3.00" stroke="#0000FF" stroke-width="1.00px"/>
</g>
<g id = "FFPOYYOB" >
<rect x = "67" y="157" width="6" height="6" rx="3" ry="3" stroke="#0000FF" stroke-width="1px"/>
<ellipse cx="70.00" cy="160.00" rx="3.00" ry="3.00" stroke="#0000FF" stroke-width="1.00px"/>
</g>
<g id = "CWWROUYY" >
<rect x = "67" y="167" width="6" height="6" rx="3" ry="3" stroke="#0000FF" stroke-width="1px"/>
<ellipse cx="70.00" cy="170.00" rx="3.00" ry="3.00" stroke="#0000FF" stroke-width="1.00px"/>
</g>
<g id = "RVSTSLZQ" >
<rect x = "67" y="177" width="6" height="6" rx="3" ry="3" stroke="#0000FF" stroke-width="1px"/>
<ellipse cx="70.00" cy="180.00" rx="3.00" ry="3.00" stroke="#0000FF" stroke-width="1.00px"/>
</g>
<g id = "BKESWFGV" >
<rect x = "67" y="187" width="6" height="6" rx="3" ry="3" stroke="#0000FF" stroke-width="1px"/>
<ellipse cx="70.00" cy="190.00" rx="3.00" ry="3.00" stroke="#0000FF" stroke-width="1.00px"/>
</g>
<g id = "AAYNFDLT" >
<rect x = "67" y="197" width="6" height="6" rx="3" ry="3" stroke="#0000FF" stroke-width="1px"/>
<ellipse cx="70.00" cy="200.00" rx="3.00" ry="3.00" stroke="#0000FF" stroke-width="1.00px"/>
</g>
<g id = "JFUSUVFF" >
<rect x = "67" y="207" width="6" height="6" rx="3" ry="3" stroke="#0000FF" stroke-width="1px"/>
<ellipse cx="70.00" cy="210.00" rx="3.00" ry="3.00" stroke="#0000FF" stroke-width="1.00px"/>
</g>
<g id = "PIBZDMLD" >
<rect x = "67" y="217" width="6" height="6" rx="3" ry="3" stroke="#0000FF" stroke-width="1px"/>
<ellipse cx="70.00" cy="220.00" rx="3.00" ry="3.00" stroke="#0000FF" stroke-width="1.00px"/>
</g>
<g id = "AEGJWUNR" >
<rect x = "67" y="227" width="6" height="6" rx="3" ry="3" stroke="#0000FF" stroke-width="1px"/>
<ellipse cx="70.00" cy="230.00" rx="3.00" ry="3.00" stroke="#0000FF" stroke-width="1.00px"/>
</g>
<g id = "TIGIXZON" >
<rect x = "67" y="237" width="6" height="6" rx="3" ry="3" stroke="#0000FF" stroke-width="1px"/>
<ellipse cx="70.00" cy="240.00" rx="3.00" ry="3.00" stroke="#0000FF" stroke-width="1.00px"/>
</g>
<g id = "WRGFRBPH" >
<rect x = "67" y="247" width="6" height="6" rx="3" ry="3" stroke="#0000FF" stroke-width="1px"/>
<ellipse cx="70.00" cy="250.00" rx="3.00" ry="3.00" stroke="#0000FF" stroke-width="1.00px"/>
</g>
<g id = "CEOXXYRS" >
<rect x = "67" y="257" width="6" height="6" rx="3" ry="3" stroke="#0000FF" stroke-width="1px"/>
<ellipse cx="70.00" cy="260.00" rx="3.00" ry="3.00" stroke="#0000FF" stroke-width="1.00px"/>
</g>
<g id = "EAGEOXHD" >
<rect x = "67" y="267" width="6" height="6" rx="3" ry="3" stroke="#0000FF" stroke-width="1px"/>
<ellipse cx="70.00" cy="270.00" rx="3.00" ry="3.00" stroke="#0000FF" stroke-width="1.00px"/>
</g>
<g id = "HAWAOGWK" >
<rect x = "67" y="277" width="6" height="6" rx="3" ry="3" stroke="#0000FF" stroke-width="1px"/>
<ellipse cx="70.00" cy="280.00" rx="3.00" ry="3.00" stroke="#0000FF" stroke-width="1.00px"/>
</g>
<g id = "BCEHIKNK" >
<rect x = "67" y="287" width="6" height="6" rx="3" ry="3" stroke="#0000FF" stroke-width="1px"/>
<ellipse cx="70.00" cy="290.00" rx="3.00" ry="3.00" stroke="#0000FF" stroke-width="1.00px"/>
</g>
<g id = "OQNIWMIF" >
<rect x = "67" y="297" width="6" height="6" rx="3" ry="3" stroke="#0000FF" stroke-width="1px"/>
<ellipse cx="70.00" cy="300.00" rx="3.00" ry="3.00" stroke="#0000FF" stroke-width="1.00px"/>
</g>
<g id = "WLYGESJH" >
<rect x = "67" y="307" width="6" height="6" rx="3" ry="3" stroke="#0000FF" stroke-width="1px"/>
<ellipse cx="70.00" cy="310.00" rx="3.00" ry="3.00" stroke="#0000FF" stroke-width="1.00px"/>
</g>
<g id = "ACXNUZXP" >
<rect x = "67" y="317" width="6" height="6" rx="3" ry="3" stroke="#0000FF" stroke-width="1px"/>
<ellipse cx="70.00" cy="320.00" rx="3.00" ry="3.00" stroke="#0000FF" stroke-width="1.00px"/>
</g>
<g id = "IYSAVSLT" >
<rect x = "67" y="327" width="6" height="6" rx="3" ry="3" stroke="#0000FF" stroke-width="1px"/>
<ellipse cx="70.00" cy="330.00" rx="3.00" ry="3.00" stroke="#0000FF" stroke-width="1.00px"/>
</g>
<g id = "CYMUKHJN" >
<rect x = "67" y="337" width="6" height="6" rx="3" ry="3" stroke="#0000FF" stroke-width="1px"/>
<ellipse cx="70.00" cy="340.00" rx="3.00" ry="3.00" stroke="#0000FF" stroke-width="1.00px"/>
</g>
<g id = "QCFZHPAU" >
<rect x = "67" y="347" width="6" height="6" rx="3" ry="3" stroke="#0000FF" stroke-width="1px"/>
<ellipse cx="70.00" cy="350.00" rx="3.00" ry="3.00" stroke="#0000FF" stroke-width="1.00px"/>
</g>
<g id = "CWPHVKCK" >
<rect x = "67" y="357" width="6" height="6" rx="3" ry="3" stroke="#0000FF" stroke-width="1px"/>
<ellipse cx="70.00" cy="360.00" rx="3.00" ry="3.00" stroke="#0000FF" stroke-width="1.00px"/>
</g>
<g id = "MHAIIHFL" >
<rect x = "67" y="367" width="6" height="6" rx="3" ry="3" stroke="#0000FF" stroke-width="1px"/>
<ellipse cx="70.00" cy="370.00" rx="3.00" ry="3.00" stroke="#0000FF" stroke-width="1.00px"/>
</g>
<g id = "LHJKPNGH" >
<rect x = "67" y="377" width="6" height="6" rx="3" ry="3" stroke="#0000FF" stroke-width="1px"/>
<ellipse cx="70.00" cy="380.00" rx="3.00" ry="3.00" stroke="#0000FF" stroke-width="1.00px"/>
</g>
<g id = "ZNKDROOZ" >
<rect x = "67" y="387" width="6" height="6" rx="3" ry="3" stroke="#0000FF" stroke-width="1px"/>
<ellipse cx="70.00" cy="390.00" rx="3.00" ry="3.00" stroke="#0000FF" stroke-width="1.00px"/>
</g>
<g id = "LCOTVPLJ" >
<rect x = "67" y="397" width="6" height="6" rx="3" ry="3" stroke="#0000FF" stroke-width="1px"/>
<ellipse cx="70.00" cy="400.00" rx="3.00" ry="3.00" stroke="#0000FF" stroke-width="1.00px"/>
</g>
<g id = "NWSWLTSS" >
<rect x = "67" y="407" width="6" height="6" rx="3" ry="3" stroke="#0000FF" stroke-width="1px"/>
<ellipse cx="70.00" cy="410.00" rx="3.00" ry="3.00" stroke="#0000FF" stroke-width="1.00px"/>
</g>
<g id = "JIGMPGMT" >
<rect x = "67" y="417" width="6" height="6" rx="3" ry="3" stroke="#0000FF" stroke-width="1px"/>
<ellipse cx="70.00" cy="420.00" rx="3.00" ry="3.00" stroke="#0000FF" stroke-width="1.00px"/>
</g>
<g id = "IYVVWYJO" >
<rect x = "67" y="427" width="6" height="6" rx="3" ry="3" stroke="#0000FF" stroke-width="1px"/>
<ellipse cx="70.00" cy="430.00" rx="3.00" ry="3.00" stroke="#0000FF" stroke-width="1.00px"/>
</g>
<g id = "IDLPTRHL" >
<rect x = "67" y="437" width="6" height="6" rx="3" ry="3" stroke="#0000FF" stroke-width="1px"/>
<ellipse cx="70.00" cy="440.00" rx="3.00" ry="3.00" stroke="#0000FF" stroke-width="1.00px"/>
</g>
<g id = "VVPWPNVH" >
<rect x = "67" y="447" width="6" height="6" rx="3" ry="3" stroke="#0000FF" stroke-width="1px"/>
<ellipse cx="70.00" cy="450.00" rx="3.00" ry="3.00" stroke="#0000FF" stroke-width="1.00px"/>
</g>
<g id = "ARACLZDV" >
<rect x = "67" y="457" width="6" height="6" rx="3" ry="3" stroke="#0000FF" stroke-width="1px"/>
<ellipse cx="70.00" cy="460.00" rx="3.00" ry="3.00" stroke="#0000FF" stroke-width="1.00px"/>
</g>
<g id = "LJHGLJWS" >
<rect x = "67" y="467" width="6" height="6" rx="3" ry="3" stroke="#0000FF" stroke-width="1px"/>
<ellipse cx="70.00" cy="470.00" rx="3.00" ry="3.00" stroke="#0000FF" stroke-width="1.00px"/>
</g>
<g id = "QGURHUMN" >
<rect x = "67" y="477" width="6" height="6" rx="3" ry="3" stroke="#0000FF" stroke-width="1px"/>
<ellipse cx="70.00" cy="480.00" rx="3.00" ry="3.00" stroke="#0000FF" stroke-width="1.00px"/>
</g>
<g id = "WOMUPUKK" >
<rect x = "67" y="487" width="6" height="6" rx="3" ry="3" stroke="#0000FF" stroke-width="1px"/>
<ellipse cx="70.00" cy="490.00" rx="3.00" ry="3.00" stroke="#0000FF" stroke-width="1.00px"/>
</g>
<g id = "BAHMGYFD" >
<rect x = "67" y="497" width="6" height="6" rx="3" ry="3" stroke="#0000FF" stroke-width="1px"/>
<ellipse cx="70.00" cy="500.00" rx="3.00" ry="3.00" stroke="#0000FF" stroke-width="1.00px"/>
</g>
<g id = "DSSUNYLH" >
<rect x = "67" y="507" width="6" height="6" rx="3" ry="3" stroke="#0000FF" stroke-width="1px"/>
<ellipse cx="70.00" cy="510.00" rx="3.00" ry="3.00" stroke="#0000FF" stroke-width="1.00px"/>
</g>
<g id = "AZLAOPYP" >
<rect x = "67" y="517" width="6" height="6" rx="3" ry="3" stroke="#0000FF" stroke-width="1px"/>
<ellipse cx="70.00" cy="520.00" rx="3.00" ry="3.00" stroke="#0000FF" stroke-width="1.00px"/>
</g>
<g id = "QLQGSTJS" >
<rect x = "67" y="527" width="6" height="6" rx="3" ry="3" stroke="#0000FF" stroke-width="1px"/>
<ellipse cx="70.00" cy="530.00" rx="3.00" ry="3.00" stroke="#0000FF" stroke-width="1.00px"/>
</g>
<g id = "KJSEBLYE" >
<rect x = "67" y="537" width="6" height="6" rx="3" ry="3" stroke="#0000FF" stroke-width="1px"/>
<ellipse cx="70.00" cy="540.00" rx="3.00" ry="3.00" stroke="#0000FF" stroke-width="1.00px"/>
</g>
<g id = "XXXBKYRM" >
<rect x = "67" y="547" width="6" height="6" rx="3" ry="3" stroke="#0000FF" stroke-width="1px"/>
<ellipse cx="70.00" cy="550.00" rx="3.00" ry="3.00" stroke="#0000FF" stroke-width="1.00px"/>
</g>
<g id = "QAUGZKZV" >
<rect x = "67" y="557" width="6" height="6" rx="3" ry="3" stroke="#0000FF" stroke-width="1px"/>
<ellipse cx="70.00" cy="560.00" rx="3.00" ry="3.00" stroke="#0000FF" stroke-width="1.00px"/>
</g>
<g id = "PUCDYHGD" >
<rect x = "67" y="567" width="6" height="6" rx="3" ry="3" stroke="#0000FF" stroke-width="1px"/>
<ellipse cx="70.00" cy="570.00" rx="3.00" ry="3.00" stroke="#0000FF" stroke-width="1.00px"/>
</g>
<g id = "WZDBJQNL" >
<rect x = "67" y="577" width="6" height="6" rx="3" ry="3" stroke="#0000FF" stroke-width="1px"/>
<ellipse cx="70.00" cy="580.00" rx="3.00" ry="3.00" stroke="#0000FF" stroke-width="1.00px"/>
</g>
<g id = "YWQUVZGX" >
<rect x = "67" y="587" width="6" height="6" rx="3" ry="3" stroke="#0000FF" stroke-width="1px"/>
<ellipse cx="70.00" cy="590.00" rx="3.00" ry="3.00" stroke="#0000FF" stroke-width="1.00px"/>
</g>
<g id = "UBFPOVCX" >
<rect x = "67" y="597" width="6" height="6" rx="3" ry="3" stroke="#0000FF" stroke-width="1px"/>
<ellipse cx="70.00" cy="600.00" rx="3.00" ry="3.00" stroke="#0000FF" stroke-width="1.00px"/>
</g>
<g id = "XZUFANVH" >
<rect x = "67" y="607" width="6" height="6" rx="3" ry="3" stroke="#0000FF" stroke-width="1px"/>
<ellipse cx="70.00" cy="610.00" rx="3.00" ry="3.00" stroke="#0000FF" stroke-width="1.00px"/>
</g>
<g id = "VSJYWXMK" >
<rect x = "67" y="617" width="6" height="6" rx="3" ry="3" stroke="#0000FF" stroke-width="1px"/>
<ellipse cx="70.00" cy="620.00" rx="3.00" ry="3.00" stroke="#0000FF" stroke-width="1.00px"/>
</g>
<g id = "QFNLHNHH" >
<rect x = "67" y="627" width="6" height="6" rx="3" ry="3" stroke="#0000FF" stroke-width="1px"/>
<ellipse cx="70.00" cy="630.00" rx="3.00" ry="3.00" stroke="#0000FF" stroke-width="1.00px"/>
</g>
<g id = "QKAMAZTK" >
<rect x = "67" y="637" width="6" height="6" rx="3" ry="3" stroke="#0000FF" stroke-width="1px"/>
<ellipse cx="70.00" cy="640.00" rx="3.00" ry="3.00" stroke="#0000FF" stroke-width="1.00px"/>
</g>
<g id = "VJZLILHL" >
<rect x = "67" y="647" width="6" height="6" rx="3" ry="3" stroke="#0000FF" stroke-width="1px"/>
<ellipse cx="70.00" cy="650.00" rx="3.00" ry="3.00" stroke="#0000FF" stroke-width="1.00px"/>
</g>
<g id = "SDRNGIOG" >
<rect x = "67" y="657" width="6" height="6" rx="3" ry="3" stroke="#0000FF" stroke-width="1px"/>
<ellipse cx="70.00" cy="660.00" rx="3.00" ry="3.00" stroke="#0000FF" stroke-width="1.00px"/>
</g>
<g id = "BHEBGPRR" >
<rect x = "67" y="667" width="6" height="6" rx="3" ry="3" stroke="#0000FF" stroke-width="1px"/>
<ellipse cx="70.00" cy="670.00" rx="3.00" ry="3.00" stroke="#0000FF" stroke-width="1.00px"/>
</g>
<g id = "RQRCEVYU" >
<rect x = "67" y="677" width="6" height="6" rx="3" ry="3" stroke="#0000FF" stroke-width="1px"/>
<ellipse cx="70.00" cy="680.00" rx="3.00" ry="3.00" stroke="#0000FF" stroke-width="1.00px"/>
</g>
<g id = "ZQTHWWJC" >
<rect x = "67" y="687" width="6" height="6" rx="3" ry="3" stroke="#0000FF" stroke-width="1px"/>
<ellipse cx="70.00" cy="690.00" rx="3.00" ry="3.00" stroke="#0000FF" stroke-width="1.00px"/>
</g>
<g id = "SZVAOKLY" >
<rect x = "67" y="697" width="6" height="6" rx="3" ry="3" stroke="#0000FF" stroke-width="1px"/>
<ellipse cx="70.00" cy="700.00" rx="3.00" ry="3.00" stroke="#0000FF" stroke-width="1.00px"/>
</g>
<g id = "AIZBEZTR" >
<rect x = "67" y="707" width="6" height="6" rx="3" ry="3" stroke="#0000FF" stroke-width="1px"/>
<ellipse cx="70.00" cy="710.00" rx="3.00" ry="3.00" stroke="#0000FF" stroke-width="1.00px"/>
</g>
<g id = "YGBAKGLE" >
<rect x = "67" y="717" width="6" height="6" rx="3" ry="3" stroke="#0000FF" stroke-width="1px"/>
<ellipse cx="70.00" cy="720.00" rx="3.00" ry="3.00" stroke="#0000FF" stroke-width="1.00px"/>
</g>
<g id = "QJMCMSPP" >
<rect x = "67" y="727" width="6" height="6" rx="3" ry="3" stroke="#0000FF" stroke-width="1px"/>
<ellipse cx="70.00" cy="730.00" rx="3.00" ry="3.00" stroke="#0000FF" stroke-width="1.00px"/>
</g>
<g id = "MBBRKIUR" >
<rect x = "67" y="737" width="6" height="6" rx="3" ry="3" stroke="#0000FF" stroke-width="1px"/>
<ellipse cx="70.00" cy="740.00" rx="3.00" ry="3.00" stroke="#0000FF" stroke-width="1.00px"/>
</g>
<g id = "FZAVWNFW" >
<rect x = "67" y="747" width="6" height="6" rx="3" ry="3" stroke="#0000FF" stroke-width="1px"/>
<ellipse cx="70.00" cy="750.00" rx="3.00" ry="3.00" stroke="#0000FF" stroke-width="1.00px"/>
</g>
<g id = "VMUMFFAQ" >
<rect x = "67" y="757" width="6" height="6" rx="3" ry="3" stroke="#0000FF" stroke-width="1px"/>
<ellipse cx="70.00" cy="760.00" rx="3.00" ry="3.00" stroke="#0000FF" stroke-width="1.00px"/>
</g>
<g id = "RNLWABKS" >
<rect x = "67" y="767" width="6" height="6" rx="3" ry="3" stroke="#0000FF" stroke-width="1px"/>
<ellipse cx="70.00" cy="770.00" rx="3.00" ry="3.00" stroke="#0000FF" stroke-width="1.00px"/>
</g>
<g id = "ZQPHYEQN" >
<rect x = "67" y="777" width="6" height="6" rx="3" ry="3" stroke="#0000FF" stroke-width="1px"/>
<ellipse cx="70.00" cy="780.00" rx="3.00" ry="3.00" stroke="#0000FF" stroke-width="1.00px"/>
</g>
<g id = "QNWQFMYT" >
<rect x = "67" y="787" width="6" height="6" rx="3" ry="3" stroke="#0000FF" stroke-width="1px"/>
<ellipse cx="70.00" cy="790.00" rx="3.00" ry="3.00" stroke="#0000FF" stroke-width="1.00px"/>
</g>
<g id = "QTDLVXUM" >
<rect x = "67" y="797" width="6" height="6" rx="3" ry="3" stroke="#0000FF" stroke-width="1px"/>
<ellipse cx="70.00" cy="800.00" rx="3.00" ry="3.00" stroke="#0000FF" stroke-width="1.00px"/>
</g>
<g id = "BAPSAKBH" >
<rect x = "67" y="807" width="6" height="6" rx="3" ry="3" stroke="#0000FF" stroke-width="1px"/>
<ellipse cx="70.00" cy="810.00" rx="3.00" ry="3.00" stroke="#0000FF" stroke-width="1.00px"/>
</g>
<g id = "EZMMDRYR" >
<rect x = "67" y="817" width="6" height="6" rx="3" ry="3" stroke="#0000FF" stroke-width="1px"/>
<ellipse cx="70.00" cy="820.00" rx="3.00" ry="3.00" stroke="#0000FF" stroke-width="1.00px"/>
</g>
<g id = "ZKCPCQDH" >
<rect x = "67" y="827" width="6" height="6" rx="3" ry="3" stroke="#0000FF" stroke-width="1px"/>
<ellipse cx="70.00" cy="830.00" rx="3.00" ry="3.00" stroke="#0000FF" stroke-width="1.00px"/>
</g>
<g id = "MMNDBIXE" >
<rect x = "67" y="837" width="6" height="6" rx="3" ry="3" stroke="#0000FF" stroke-width="1px"/>
<ellipse cx="70.00" cy="840.00" rx="3.00" ry="3.00" stroke="#0000FF" stroke-width="1.00px"/>
</g>
<g id = "OPVYKESN" >
<rect x = "67" y="847" width="6" height="6" rx="3" ry="3" stroke="#0000FF" stroke-width="1px"/>
<ellipse cx="70.00" cy="850.00" rx="3.00" ry="3.00" stroke="#0000FF" stroke-width="1.00px"/>
</g>
<g id = "HBZKLDGW" >
<rect x = "67" y="857" width="6" height="6" rx="3" ry="3" stroke="#0000FF" stroke-width="1px"/>
<ellipse cx="70.00" cy="860.00" rx="3.00" ry="3.00" stroke="#0000FF" stroke-width="1.00px"/>
</g>
<g id = "PCAXJSNK" >
<rect x = "67" y="867" width="6" height="6" rx="3" ry="3" stroke="#0000FF" stroke-width="1px"/>
<ellipse cx="70.00" cy="870.00" rx="3.00" ry="3.00" stroke="#0000FF" stroke-width="1.00px"/>
</g>
<g id = "NGIAYVWK" >
<rect x = "67" y="877" width="6" height="6" rx="3" ry="3" stroke="#0000FF" stroke-width="1px"/>
<ellipse cx="70.00" cy="880.00" rx="3.00" ry="3.00" stroke="#0000FF" stroke-width="1.00px"/>
</g>
<g id = "ETUWMDNJ" >
<rect x = "67" y="887" width="6" height="6" rx="3" ry="3" stroke="#0000FF" stroke-width="1px"/>
<ellipse cx="70.00" cy="890.00" rx="3.00" ry="3.00" stroke="#0000FF" stroke-width="1.00px"/>
</g>
<g id = "HGSJLTNC" >
<rect x = "67" y="897" width="6" height="6" rx="3" ry="3" stroke="#0000FF" stroke-width="1px"/>
<ellipse cx="70.00" cy="900.00" rx="3.00" ry="3.00" stroke="#0000FF" stroke-width="1.00px"/>
</g>
<g id = "AJHWQTKK" >
<rect x = "67" y="907" width="6" height="6" rx="3" ry="3" stroke="#0000FF" stroke-width="1px"/>
<ellipse cx="70.00" cy="910.00" rx="3.00" ry="3.00" stroke="#0000FF" stroke-width="1.00px"/>
</g>
<g id = "WXOVVOKD" >
<line x1="70" y1="60" x2="50" y2="60" stroke="#000000" stroke-width="1px"/>
<text x="77" y="63" font-size="8.888889px" font-family="Times New Roman" fill="#000000" xml:space="preserve">1</text>
</g>
<g id = "EFPKCNDI" >
<line x1="70" y1="70" x2="50" y2="70" stroke="#000000" stroke-width="1px"/>
<text x="77" y="73" font-size="8.888889px" font-family="Times New Roman" fill="#000000" xml:space="preserve">2</text>
</g>
<g id = "EOUIAECK" >
<line x1="70" y1="80" x2="50" y2="80" stroke="#000000" stroke-width="1px"/>
<text x="77" y="83" font-size="8.888889px" font-family="Times New Roman" fill="#000000" xml:space="preserve">3</text>
</g>
<g id = "BVHZFXQN" >
<line x1="70" y1="90" x2="50" y2="90" stroke="#000000" stroke-width="1px"/>
<text x="77" y="93" font-size="8.888889px" font-family="Times New Roman" fill="#000000" xml:space="preserve">4</text>
</g>
<g id = "NIRUKCFR" >
<line x1="70" y1="100" x2="50" y2="100" stroke="#000000" stroke-width="1px"/>
<text x="77" y="103" font-size="8.888889px" font-family="Times New Roman" fill="#000000" xml:space="preserve">5</text>
</g>
<g id = "ZRBUJUUN" >
<line x1="70" y1="110" x2="50" y2="110" stroke="#000000" stroke-width="1px"/>
<text x="77" y="113" font-size="8.888889px" font-family="Times New Roman" fill="#000000" xml:space="preserve">6</text>
</g>
<g id = "EPGTSDST" >
<line x1="70" y1="120" x2="50" y2="120" stroke="#000000" stroke-width="1px"/>
<text x="77" y="123" font-size="8.888889px" font-family="Times New Roman" fill="#000000" xml:space="preserve">7</text>
</g>
<g id = "TVKNYJLE" >
<line x1="70" y1="130" x2="50" y2="130" stroke="#000000" stroke-width="1px"/>
<text x="77" y="133" font-size="8.888889px" font-family="Times New Roman" fill="#000000" xml:space="preserve">8</text>
</g>
<g id = "TWEMXVDM" >
<line x1="70" y1="140" x2="50" y2="140" stroke="#000000" stroke-width="1px"/>
<text x="77" y="143" font-size="8.888889px" font-family="Times New Roman" fill="#000000" xml:space="preserve">9</text>
</g>
<g id = "DJTMXSSO" >
<line x1="70" y1="150" x2="50" y2="150" stroke="#000000" stroke-width="1px"/>
<text x="77" y="153" font-size="8.888889px" font-family="Times New Roman" fill="#000000" xml:space="preserve">10</text>
</g>
<g id = "FIFVFKYJ" >
<line x1="70" y1="160" x2="50" y2="160" stroke="#000000" stroke-width="1px"/>
<text x="77" y="163" font-size="8.888889px" font-family="Times New Roman" fill="#000000" xml:space="preserve">11</text>
</g>
<g id = "YSSVBSJI" >
<line x1="70" y1="170" x2="50" y2="170" stroke="#000000" stroke-width="1px"/>
<text x="77" y="173" font-size="8.888889px" font-family="Times New Roman" fill="#000000" xml:space="preserve">12</text>
</g>
<g id = "GYGHKCAI" >
<line x1="70" y1="180" x2="50" y2="180" stroke="#000000" stroke-width="1px"/>
<text x="77" y="183" font-size="8.888889px" font-family="Times New Roman" fill="#000000" xml:space="preserve">13</text>
</g>
<g id = "LNIHFMGE" >
<line x1="70" y1="190" x2="50" y2="190" stroke="#000000" stroke-width="1px"/>
<text x="77" y="193" font-size="8.888889px" font-family="Times New Roman" fill="#000000" xml:space="preserve">14</text>
</g>
<g id = "WVEADUVZ" >
<line x1="70" y1="200" x2="50" y2="200" stroke="#000000" stroke-width="1px"/>
<text x="77" y="203" font-size="8.888889px" font-family="Times New Roman" fill="#000000" xml:space="preserve">15</text>
</g>
<g id = "YEGTPBYZ" >
<line x1="70" y1="210" x2="50" y2="210" stroke="#000000" stroke-width="1px"/>
<text x="77" y="213" font-size="8.888889px" font-family="Times New Roman" fill="#000000" xml:space="preserve">16</text>
</g>
<g id = "YGNQRIDS" >
<line x1="70" y1="220" x2="50" y2="220" stroke="#000000" stroke-width="1px"/>
<text x="77" y="223" font-size="8.888889px" font-family="Times New Roman" fill="#000000" xml:space="preserve">17</text>
</g>
<g id = "GGEPUGDU" >
<line x1="70" y1="230" x2="50" y2="230" stroke="#000000" stroke-width="1px"/>
<text x="77" y="233" font-size="8.888889px" font-family="Times New Roman" fill="#000000" xml:space="preserve">18</text>
</g>
<g id = "TZYLMFLY" >
<line x1="70" y1="240" x2="50" y2="240" stroke="#000000" stroke-width="1px"/>
<text x="77" y="243" font-size="8.888889px" font-family="Times New Roman" fill="#000000" xml:space="preserve">19</text>
</g>
<g id = "CIRMIRUU" >
<line x1="70" y1="250" x2="50" y2="250" stroke="#000000" stroke-width="1px"/>
<text x="77" y="253" font-size="8.888889px" font-family="Times New Roman" fill="#000000" xml:space="preserve">20</text>
</g>
<g id = "CPWTIDEN" >
<line x1="70" y1="260" x2="50" y2="260" stroke="#000000" stroke-width="1px"/>
<text x="77" y="263" font-size="8.888889px" font-family="Times New Roman" fill="#000000" xml:space="preserve">21</text>
</g>
<g id = "GLFSCCSR" >
<line x1="70" y1="270" x2="50" y2="270" stroke="#000000" stroke-width="1px"/>
<text x="77" y="273" font-size="8.888889px" font-family="Times New Roman" fill="#000000" xml:space="preserve">22</text>
</g>
<g id = "ICUCZIJC" >
<line x1="70" y1="280" x2="50" y2="280" stroke="#000000" stroke-width="1px"/>
<text x="77" y="283" font-size="8.888889px" font-family="Times New Roman" fill="#000000" xml:space="preserve">23</text>
</g>
<g id = "SJFOKLRS" >
<line x1="70" y1="290" x2="50" y2="290" stroke="#000000" stroke-width="1px"/>
<text x="77" y="293" font-size="8.888889px" font-family="Times New Roman" fill="#000000" xml:space="preserve">24</text>
</g>
<g id = "HEFWJPHL" >
<line x1="70" y1="300" x2="50" y2="300" stroke="#000000" stroke-width="1px"/>
<text x="77" y="303" font-size="8.888889px" font-family="Times New Roman" fill="#000000" xml:space="preserve">25</text>
</g>
<g id = "LNDOWTTI" >
<line x1="70" y1="310" x2="50" y2="310" stroke="#000000" stroke-width="1px"/>
<text x="77" y="313" font-size="8.888889px" font-family="Times New Roman" fill="#000000" xml:space="preserve">26</text>
</g>
<g id = "KGJKGGAM" >
<line x1="70" y1="320" x2="50" y2="320" stroke="#000000" stroke-width="1px"/>
<text x="77" y="323" font-size="8.888889px" font-family="Times New Roman" fill="#000000" xml:space="preserve">27</text>
</g>
<g id = "VYICHIRR" >
<line x1="70" y1="330" x2="50" y2="330" stroke="#000000" stroke-width="1px"/>
<text x="77" y="333" font-size="8.888889px" font-family="Times New Roman" fill="#000000" xml:space="preserve">28</text>
</g>
<g id = "DGKXWNYH" >
<line x1="70" y1="340" x2="50" y2="340" stroke="#000000" stroke-width="1px"/>
<text x="77" y="343" font-size="8.888889px" font-family="Times New Roman" fill="#000000" xml:space="preserve">29</text>
</g>
<g id = "UOAWUBXC" >
<line x1="70" y1="350" x2="50" y2="350" stroke="#000000" stroke-width="1px"/>
<text x="77" y="353" font-size="8.888889px" font-family="Times New Roman" fill="#000000" xml:space="preserve">30</text>
</g>
<g id = "QDWWHPZP" >
<line x1="70" y1="360" x2="50" y2="360" stroke="#000000" stroke-width="1px"/>
<text x="77" y="363" font-size="8.888889px" font-family="Times New Roman" fill="#000000" xml:space="preserve">31</text>
</g>
<g id = "VOWTVXTY" >
<line x1="70" y1="370" x2="50" y2="370" stroke="#000000" stroke-width="1px"/>
<text x="77" y="373" font-size="8.888889px" font-family="Times New Roman" fill="#000000" xml:space="preserve">32</text>
</g>
<g id = "VGBCVSKD" >
<line x1="70" y1="380" x2="50" y2="380" stroke="#000000" stroke-width="1px"/>
<text x="77" y="383" font-size="8.888889px" font-family="Times New Roman" fill="#000000" xml:space="preserve">33</text>
</g>
<g id = "ZFLWGRAK" >
<line x1="70" y1="390" x2="50" y2="390" stroke="#000000" stroke-width="1px"/>
<text x="77" y="393" font-size="8.888889px" font-family="Times New Roman" fill="#000000" xml:space="preserve">34</text>
</g>
<g id = "PNXQHMUU" >
<line x1="70" y1="400" x2="50" y2="400" stroke="#000000" stroke-width="1px"/>
<text x="77" y="403" font-size="8.888889px" font-family="Times New Roman" fill="#000000" xml:space="preserve">35</text>
</g>
<g id = "REUDOMLI" >
<line x1="70" y1="410" x2="50" y2="410" stroke="#000000" stroke-width="1px"/>
<text x="77" y="413" font-size="8.888889px" font-family="Times New Roman" fill="#000000" xml:space="preserve">36</text>
</g>
<g id = "WVSHBAGZ" >
<line x1="70" y1="420" x2="50" y2="420" stroke="#000000" stroke-width="1px"/>
<text x="77" y="423" font-size="8.888889px" font-family="Times New Roman" fill="#000000" xml:space="preserve">37</text>
</g>
<g id = "FLWLKQPK" >
<line x1="70" y1="430" x2="50" y2="430" stroke="#000000" stroke-width="1px"/>
<text x="77" y="433" font-size="8.888889px" font-family="Times New Roman" fill="#000000" xml:space="preserve">38</text>
</g>
<g id = "FTJVLOMS" >
<line x1="70" y1="440" x2="50" y2="440" stroke="#000000" stroke-width="1px"/>
<text x="77" y="443" font-size="8.888889px" font-family="Times New Roman" fill="#000000" xml:space="preserve">39</text>
</g>
<g id = "MYUAHGFI" >
<line x1="70" y1="450" x2="50" y2="450" stroke="#000000" stroke-width="1px"/>
<text x="77" y="453" font-size="8.888889px" font-family="Times New Roman" fill="#000000" xml:space="preserve">40</text>
</g>
<g id = "PATIEFLH" >
<line x1="70" y1="460" x2="50" y2="460" stroke="#000000" stroke-width="1px"/>
<text x="77" y="463" font-size="8.888889px" font-family="Times New Roman" fill="#000000" xml:space="preserve">41</text>
</g>
<g id = "VNKVYPTS" >
<line x1="70" y1="470" x2="50" y2="470" stroke="#000000" stroke-width="1px"/>
<text x="77" y="473" font-size="8.888889px" font-family="Times New Roman" fill="#000000" xml:space="preserve">42</text>
</g>
<g id = "MEGYYUZN" >
<line x1="70" y1="480" x2="50" y2="480" stroke="#000000" stroke-width="1px"/>
<text x="77" y="483" font-size="8.888889px" font-family="Times New Roman" fill="#000000" xml:space="preserve">43</text>
</g>
<g id = "KUDTJUET" >
<line x1="70" y1="490" x2="50" y2="490" stroke="#000000" stroke-width="1px"/>
<text x="77" y="493" font-size="8.888889px" font-family="Times New Roman" fill="#000000" xml:space="preserve">44</text>
</g>
<g id = "JMKUDNQF" >
<line x1="70" y1="500" x2="50" y2="500" stroke="#000000" stroke-width="1px"/>
<text x="77" y="503" font-size="8.888889px" font-family="Times New Roman" fill="#000000" xml:space="preserve">45</text>
</g>
<g id = "GNEPAKWT" >
<line x1="70" y1="510" x2="50" y2="510" stroke="#000000" stroke-width="1px"/>
<text x="77" y="513" font-size="8.888889px" font-family="Times New Roman" fill="#000000" xml:space="preserve">46</text>
</g>
<g id = "WNITNXCR" >
<line x1="70" y1="520" x2="50" y2="520" stroke="#000000" stroke-width="1px"/>
<text x="77" y="523" font-size="8.888889px" font-family="Times New Roman" fill="#000000" xml:space="preserve">47</text>
</g>
<g id = "BXLSFKER" >
<line x1="70" y1="530" x2="50" y2="530" stroke="#000000" stroke-width="1px"/>
<text x="77" y="533" font-size="8.888889px" font-family="Times New Roman" fill="#000000" xml:space="preserve">48</text>
</g>
<g id = "AVASKHPW" >
<line x1="70" y1="540" x2="50" y2="540" stroke="#000000" stroke-width="1px"/>
<text x="77" y="543" font-size="8.888889px" font-family="Times New Roman" fill="#000000" xml:space="preserve">49</text>
</g>
<g id = "SEJZGUQQ" >
<line x1="70" y1="550" x2="50" y2="550" stroke="#000000" stroke-width="1px"/>
<text x="77" y="553" font-size="8.888889px" font-family="Times New Roman" fill="#000000" xml:space="preserve">50</text>
</g>
<g id = "NLLUIMIW" >
<line x1="70" y1="560" x2="50" y2="560" stroke="#000000" stroke-width="1px"/>
<text x="77" y="563" font-size="8.888889px" font-family="Times New Roman" fill="#000000" xml:space="preserve">51</text>
</g>
<g id = "WFOJWNUY" >
<line x1="70" y1="570" x2="50" y2="570" stroke="#000000" stroke-width="1px"/>
<text x="77" y="573" font-size="8.888889px" font-family="Times New Roman" fill="#000000" xml:space="preserve">52</text>
</g>
<g id = "WLRDJKJU" >
<line x1="70" y1="580" x2="50" y2="580" stroke="#000000" stroke-width="1px"/>
<text x="77" y="583" font-size="8.888889px" font-family="Times New Roman" fill="#000000" xml:space="preserve">53</text>
</g>
<g id = "YTQZBPDX" >
<line x1="70" y1="590" x2="50" y2="590" stroke="#000000" stroke-width="1px"/>
<text x="77" y="593" font-size="8.888889px" font-family="Times New Roman" fill="#000000" xml:space="preserve">54</text>
</g>
<g id = "DAKNTKWY" >
<line x1="70" y1="600" x2="50" y2="600" stroke="#000000" stroke-width="1px"/>
<text x="77" y="603" font-size="8.888889px" font-family="Times New Roman" fill="#000000" xml:space="preserve">55</text>
</g>
<g id = "ZXSUWSYI" >
<line x1="70" y1="610" x2="50" y2="610" stroke="#000000" stroke-width="1px"/>
<text x="77" y="613" font-size="8.888889px" font-family="Times New Roman" fill="#000000" xml:space="preserve">56</text>
</g>
<g id = "CNKLIEFC" >
<line x1="70" y1="620" x2="50" y2="620" stroke="#000000" stroke-width="1px"/>
<text x="77" y="623" font-size="8.888889px" font-family="Times New Roman" fill="#000000" xml:space="preserve">57</text>
</g>
<g id = "EHGNLWFL" >
<line x1="70" y1="630" x2="50" y2="630" stroke="#000000" stroke-width="1px"/>
<text x="77" y="633" font-size="8.888889px" font-family="Times New Roman" fill="#000000" xml:space="preserve">58</text>
</g>
<g id = "EIPLPMZZ" >
<line x1="70" y1="640" x2="50" y2="640" stroke="#000000" stroke-width="1px"/>
<text x="77" y="643" font-size="8.888889px" font-family="Times New Roman" fill="#000000" xml:space="preserve">59</text>
</g>
<g id = "FHOAOIXR" >
<line x1="70" y1="650" x2="50" y2="650" stroke="#000000" stroke-width="1px"/>
<text x="77" y="653" font-size="8.888889px" font-family="Times New Roman" fill="#000000" xml:space="preserve">60</text>
</g>
<g id = "GNUGWLTW" >
<line x1="70" y1="660" x2="50" y2="660" stroke="#000000" stroke-width="1px"/>
<text x="77" y="663" font-size="8.888889px" font-family="Times New Roman" fill="#000000" xml:space="preserve">61</text>
</g>
<g id = "IHQBLDOE" >
<line x1="70" y1="670" x2="50" y2="670" stroke="#000000" stroke-width="1px"/>
<text x="77" y="673" font-size="8.888889px" font-family="Times New Roman" fill="#000000" xml:space="preserve">62</text>
</g>
<g id = "SESMKFTG" >
<line x1="70" y1="680" x2="50" y2="680" stroke="#000000" stroke-width="1px"/>
<text x="77" y="683" font-size="8.888889px" font-family="Times New Roman" fill="#000000" xml:space="preserve">63</text>
</g>
<g id = "RCJWAQGY" >
<line x1="70" y1="690" x2="50" y2="690" stroke="#000000" stroke-width="1px"/>
<text x="77" y="693" font-size="8.888889px" font-family="Times New Roman" fill="#000000" xml:space="preserve">64</text>
</g>
<g id = "ZCVAGUXT" >
<line x1="70" y1="700" x2="50" y2="700" stroke="#000000" stroke-width="1px"/>
<text x="77" y="703" font-size="8.888889px" font-family="Times New Roman" fill="#000000" xml:space="preserve">65</text>
</g>
<g id = "KKIIJVZV" >
<line x1="70" y1="710" x2="50" y2="710" stroke="#000000" stroke-width="1px"/>
<text x="77" y="713" font-size="8.888889px" font-family="Times New Roman" fill="#000000" xml:space="preserve">66</text>
</g>
<g id = "HLJMXVHZ" >
<line x1="70" y1="720" x2="50" y2="720" stroke="#000000" stroke-width="1px"/>
<text x="77" y="723" font-size="8.888889px" font-family="Times New Roman" fill="#000000" xml:space="preserve">67</text>
</g>
<g id = "OQHZXHZB" >
<line x1="70" y1="730" x2="50" y2="730" stroke="#000000" stroke-width="1px"/>
<text x="77" y="733" font-size="8.888889px" font-family="Times New Roman" fill="#000000" xml:space="preserve">68</text>
</g>
<g id = "YVNKLMDE" >
<line x1="70" y1="740" x2="50" y2="740" stroke="#000000" stroke-width="1px"/>
<text x="77" y="743" font-size="8.888889px" font-family="Times New Roman" fill="#000000" xml:space="preserve">69</text>
</g>
<g id = "FOXLKDQB" >
<line x1="70" y1="750" x2="50" y2="750" stroke="#000000" stroke-width="1px"/>
<text x="77" y="753" font-size="8.888889px" font-family="Times New Roman" fill="#000000" xml:space="preserve">70</text>
</g>
<g id = "FIBCCUGY" >
<line x1="70" y1="760" x2="50" y2="760" stroke="#000000" stroke-width="1px"/>
<text x="77" y="763" font-size="8.888889px" font-family="Times New Roman" fill="#000000" xml:space="preserve">71</text>
</g>
<g id = "HEHPVHMY" >
<line x1="70" y1="770" x2="50" y2="770" stroke="#000000" stroke-width="1px"/>
<text x="77" y="773" font-size="8.888889px" font-family="Times New Roman" fill="#000000" xml:space="preserve">72</text>
</g>
<g id = "GNQZBBZO" >
<line x1="70" y1="780" x2="50" y2="780" stroke="#000000" stroke-width="1px"/>
<text x="77" y="783" font-size="8.888889px" font-family="Times New Roman" fill="#000000" xml:space="preserve">73</text>
</g>
<g id = "AWZWCQAU" >
<line x1="70" y1="790" x2="50" y2="790" stroke="#000000" stroke-width="1px"/>
<text x="77" y="793" font-size="8.888889px" font-family="Times New Roman" fill="#000000" xml:space="preserve">74</text>
</g>
<g id = "BIVKQXZX" >
<line x1="70" y1="800" x2="50" y2="800" stroke="#000000" stroke-width="1px"/>
<text x="77" y="803" font-size="8.888889px" font-family="Times New Roman" fill="#000000" xml:space="preserve">75</text>
</g>
<g id = "RAYUYTKA" >
<line x1="70" y1="810" x2="50" y2="810" stroke="#000000" stroke-width="1px"/>
<text x="77" y="813" font-size="8.888889px" font-family="Times New Roman" fill="#000000" xml:space="preserve">76</text>
</g>
<g id = "XYAWDSAJ" >
<line x1="70" y1="820" x2="50" y2="820" stroke="#000000" stroke-width="1px"/>
<text x="77" y="823" font-size="8.888889px" font-family="Times New Roman" fill="#000000" xml:space="preserve">77</text>
</g>
<g id = "CJVPSCML" >
<line x1="70" y1="830" x2="50" y2="830" stroke="#000000" stroke-width="1px"/>
<text x="77" y="833" font-size="8.888889px" font-family="Times New Roman" fill="#000000" xml:space="preserve">78</text>
</g>
<g id = "WWTFDJRO" >
<line x1="70" y1="840" x2="50" y2="840" stroke="#000000" stroke-width="1px"/>
<text x="77" y="843" font-size="8.888889px" font-family="Times New Roman" fill="#000000" xml:space="preserve">79</text>
</g>
<g id = "DRHBXELG" >
<line x1="70" y1="850" x2="50" y2="850" stroke="#000000" stroke-width="1px"/>
<text x="77" y="853" font-size="8.888889px" font-family="Times New Roman" fill="#000000" xml:space="preserve">80</text>
</g>
<g id = "ZRMYONFF" >
<line x1="70" y1="860" x2="50" y2="860" stroke="#000000" stroke-width="1px"/>
<text x="77" y="863" font-size="8.888889px" font-family="Times New Roman" fill="#000000" xml:space="preserve">81</text>
</g>
<g id = "FJAFEVIK" >
<line x1="70" y1="870" x2="50" y2="870" stroke="#000000" stroke-width="1px"/>
<text x="77" y="873" font-size="8.888889px" font-family="Times New Roman" fill="#000000" xml:space="preserve">82</text>
</g>
<g id = "IPEFAXII" >
<line x1="70" y1="880" x2="50" y2="880" stroke="#000000" stroke-width="1px"/>
<text x="77" y="883" font-size="8.888889px" font-family="Times New Roman" fill="#000000" xml:space="preserve">83</text>
</g>
<g id = "JNOXZAJF" >
<line x1="70" y1="890" x2="50" y2="890" stroke="#000000" stroke-width="1px"/>
<text x="77" y="893" font-size="8.888889px" font-family="Times New Roman" fill="#000000" xml:space="preserve">84</text>
</g>
<g id = "MXVMSLWR" >
<line x1="70" y1="900" x2="50" y2="900" stroke="#000000" stroke-width="1px"/>
<text x="77" y="903" font-size="8.888889px" font-family="Times New Roman" fill="#000000" xml:space="preserve">85</text>
</g>
<g id = "PCMSCZAO" >
<line x1="70" y1="910" x2="50" y2="910" stroke="#000000" stroke-width="1px"/>
<text x="77" y="913" font-size="8.888889px" font-family="Times New Roman" fill="#000000" xml:space="preserve">86</text>
</g>
</g>
</g>
</g>
</g>
</svg>