<?xml version="1.0"  encoding="UTF-8" standalone="no"?>
<svg version="1.1" xmlns="http://www.w3.org/2000/svg" xmlns:xlink="http://www.w3.org/1999/xlink" stroke-linecap="round" stroke-linejoin="round" fill="none" width="150" height="510" viewBox="0 0 150 510" data-doc-id="symbol-Socket 40" data-doc-ver="2">
<g id = "scene" >
<g id = "DocumentMainGroup" >
<g id = "BackgroundGroup" >
<rect x = "0" y="0" width="150" height="510" fill="#FFFFFF" fill-opacity="1"/>
</g>
<g id = "symbol-Socket 40" >
<g id = "DocumentItemsGroup" >
<g id = "TEXTJLZU" >
<rect x = "70" y="50" width="30" height="410" stroke="#0000FF" stroke-width="1px"/>
</g>
<g id = "CBAECJZX" >
<rect x = "67" y="57" width="6" height="6" rx="3" ry="3" stroke="#0000FF" stroke-width="1px"/>
<ellipse cx="70.00" cy="60.00" rx="3.00" ry="3.00" stroke="#0000FF" stroke-width="1.00px"/>
</g>
<g id = "ZPZZGTHX" >
<rect x = "67" y="67" width="6" height="6" rx="3" ry="3" stroke="#0000FF" stroke-width="1px"/>
<ellipse cx="70.00" cy="70.00" rx="3.00" ry="3.00" stroke="#0000FF" stroke-width="1.00px"/>
</g>
<g id = "GTGCSMJK" >
<rect x = "67" y="77" width="6" height="6" rx="3" ry="3" stroke="#0000FF" stroke-width="1px"/>
<ellipse cx="70.00" cy="80.00" rx="3.00" ry="3.00" stroke="#0000FF" stroke-width="1.00px"/>
</g>
<g id = "IKIKHMDJ" >
<rect x = "67" y="87" width="6" height="6" rx="3" ry="3" stroke="#0000FF" stroke-width="1px"/>
<ellipse cx="70.00" cy="90.00" rx="3.00" ry="3.00" stroke="#0000FF" stroke-width="1.00px"/>
</g>
<g id = "JWKMYPLY" >
<rect x = "67" y="97" width="6" height="6" rx="3" ry="3" stroke="#0000FF" stroke-width="1px"/>
<ellipse cx="70.00" cy="100.00" rx="3.00" ry="3.00" stroke="#0000FF" stroke-width="1.00px"/>
</g>
<g id = "TEPDCBZH" >
<rect x = "67" y="107" width="6" height="6" rx="3" ry="3" stroke="#0000FF" stroke-width="1px"/>
<ellipse cx="70.00" cy="110.00" rx="3.00" ry="3.00" stroke="#0000FF" stroke-width="1.00px"/>
</g>
<g id = "QLTOYOHD" >
<rect x = "67" y="117" width="6" height="6" rx="3" ry="3" stroke="#0000FF" stroke-width="1px"/>
<ellipse cx="70.00" cy="120.00" rx="3.00" ry="3.00" stroke="#0000FF" stroke-width="1.00px"/>
</g>
<g id = "SUGMGIOH" >
<rect x = "67" y="127" width="6" height="6" rx="3" ry="3" stroke="#0000FF" stroke-width="1px"/>
<ellipse cx="70.00" cy="130.00" rx="3.00" ry="3.00" stroke="#0000FF" stroke-width="1.00px"/>
</g>
<g id = "XZSBSMTI" >
<rect x = "67" y="137" width="6" height="6" rx="3" ry="3" stroke="#0000FF" stroke-width="1px"/>
<ellipse cx="70.00" cy="140.00" rx="3.00" ry="3.00" stroke="#0000FF" stroke-width="1.00px"/>
</g>
<g id = "DKBUEESX" >
<rect x = "67" y="147" width="6" height="6" rx="3" ry="3" stroke="#0000FF" stroke-width="1px"/>
<ellipse cx="70.00" cy="150.00" rx="3.00" ry="3.00" stroke="#0000FF" stroke-width="1.00px"/>
</g>
<g id = "VKFFDFMR" >
<rect x = "67" y="157" width="6" height="6" rx="3" ry="3" stroke="#0000FF" stroke-width="1px"/>
<ellipse cx="70.00" cy="160.00" rx="3.00" ry="3.00" stroke="#0000FF" stroke-width="1.00px"/>
</g>
<g id = "EMUVPKPT" >
<rect x = "67" y="167" width="6" height="6" rx="3" ry="3" stroke="#0000FF" stroke-width="1px"/>
<ellipse cx="70.00" cy="170.00" rx="3.00" ry="3.00" stroke="#0000FF" stroke-width="1.00px"/>
</g>
<g id = "ZELATRNY" >
<rect x = "67" y="177" width="6" height="6" rx="3" ry="3" stroke="#0000FF" stroke-width="1px"/>
<ellipse cx="70.00" cy="180.00" rx="3.00" ry="3.00" stroke="#0000FF" stroke-width="1.00px"/>
</g>
<g id = "UOKJSHRC" >
<rect x = "67" y="187" width="6" height="6" rx="3" ry="3" stroke="#0000FF" stroke-width="1px"/>
<ellipse cx="70.00" cy="190.00" rx="3.00" ry="3.00" stroke="#0000FF" stroke-width="1.00px"/>
</g>
<g id = "MUPEMYWU" >
<rect x = "67" y="197" width="6" height="6" rx="3" ry="3" stroke="#0000FF" stroke-width="1px"/>
<ellipse cx="70.00" cy="200.00" rx="3.00" ry="3.00" stroke="#0000FF" stroke-width="1.00px"/>
</g>
<g id = "NGNJJIJM" >
<rect x = "67" y="207" width="6" height="6" rx="3" ry="3" stroke="#0000FF" stroke-width="1px"/>
<ellipse cx="70.00" cy="210.00" rx="3.00" ry="3.00" stroke="#0000FF" stroke-width="1.00px"/>
</g>
<g id = "RXVDSLGL" >
<rect x = "67" y="217" width="6" height="6" rx="3" ry="3" stroke="#0000FF" stroke-width="1px"/>
<ellipse cx="70.00" cy="220.00" rx="3.00" ry="3.00" stroke="#0000FF" stroke-width="1.00px"/>
</g>
<g id = "AEDZWILA" >
<rect x = "67" y="227" width="6" height="6" rx="3" ry="3" stroke="#0000FF" stroke-width="1px"/>
<ellipse cx="70.00" cy="230.00" rx="3.00" ry="3.00" stroke="#0000FF" stroke-width="1.00px"/>
</g>
<g id = "OFXBVTQZ" >
<rect x = "67" y="237" width="6" height="6" rx="3" ry="3" stroke="#0000FF" stroke-width="1px"/>
<ellipse cx="70.00" cy="240.00" rx="3.00" ry="3.00" stroke="#0000FF" stroke-width="1.00px"/>
</g>
<g id = "IOGEJYHK" >
<rect x = "67" y="247" width="6" height="6" rx="3" ry="3" stroke="#0000FF" stroke-width="1px"/>
<ellipse cx="70.00" cy="250.00" rx="3.00" ry="3.00" stroke="#0000FF" stroke-width="1.00px"/>
</g>
<g id = "VLDJKJVH" >
<rect x = "67" y="257" width="6" height="6" rx="3" ry="3" stroke="#0000FF" stroke-width="1px"/>
<ellipse cx="70.00" cy="260.00" rx="3.00" ry="3.00" stroke="#0000FF" stroke-width="1.00px"/>
</g>
<g id = "XVADSETC" >
<rect x = "67" y="267" width="6" height="6" rx="3" ry="3" stroke="#0000FF" stroke-width="1px"/>
<ellipse cx="70.00" cy="270.00" rx="3.00" ry="3.00" stroke="#0000FF" stroke-width="1.00px"/>
</g>
<g id = "FLSERHUQ" >
<rect x = "67" y="277" width="6" height="6" rx="3" ry="3" stroke="#0000FF" stroke-width="1px"/>
<ellipse cx="70.00" cy="280.00" rx="3.00" ry="3.00" stroke="#0000FF" stroke-width="1.00px"/>
</g>
<g id = "KPKFWDDV" >
<rect x = "67" y="287" width="6" height="6" rx="3" ry="3" stroke="#0000FF" stroke-width="1px"/>
<ellipse cx="70.00" cy="290.00" rx="3.00" ry="3.00" stroke="#0000FF" stroke-width="1.00px"/>
</g>
<g id = "XTCKSBOO" >
<rect x = "67" y="297" width="6" height="6" rx="3" ry="3" stroke="#0000FF" stroke-width="1px"/>
<ellipse cx="70.00" cy="300.00" rx="3.00" ry="3.00" stroke="#0000FF" stroke-width="1.00px"/>
</g>
<g id = "HKKLHOBV" >
<rect x = "67" y="307" width="6" height="6" rx="3" ry="3" stroke="#0000FF" stroke-width="1px"/>
<ellipse cx="70.00" cy="310.00" rx="3.00" ry="3.00" stroke="#0000FF" stroke-width="1.00px"/>
</g>
<g id = "VEOAQRYY" >
<rect x = "67" y="317" width="6" height="6" rx="3" ry="3" stroke="#0000FF" stroke-width="1px"/>
<ellipse cx="70.00" cy="320.00" rx="3.00" ry="3.00" stroke="#0000FF" stroke-width="1.00px"/>
</g>
<g id = "WMNCWIVI" >
<rect x = "67" y="327" width="6" height="6" rx="3" ry="3" stroke="#0000FF" stroke-width="1px"/>
<ellipse cx="70.00" cy="330.00" rx="3.00" ry="3.00" stroke="#0000FF" stroke-width="1.00px"/>
</g>
<g id = "FFCBHVQR" >
<rect x = "67" y="337" width="6" height="6" rx="3" ry="3" stroke="#0000FF" stroke-width="1px"/>
<ellipse cx="70.00" cy="340.00" rx="3.00" ry="3.00" stroke="#0000FF" stroke-width="1.00px"/>
</g>
<g id = "QYCJKEWU" >
<rect x = "67" y="347" width="6" height="6" rx="3" ry="3" stroke="#0000FF" stroke-width="1px"/>
<ellipse cx="70.00" cy="350.00" rx="3.00" ry="3.00" stroke="#0000FF" stroke-width="1.00px"/>
</g>
<g id = "UVDJGNWN" >
<rect x = "67" y="357" width="6" height="6" rx="3" ry="3" stroke="#0000FF" stroke-width="1px"/>
<ellipse cx="70.00" cy="360.00" rx="3.00" ry="3.00" stroke="#0000FF" stroke-width="1.00px"/>
</g>
<g id = "ROLXUCOT" >
<rect x = "67" y="367" width="6" height="6" rx="3" ry="3" stroke="#0000FF" stroke-width="1px"/>
<ellipse cx="70.00" cy="370.00" rx="3.00" ry="3.00" stroke="#0000FF" stroke-width="1.00px"/>
</g>
<g id = "TQKMCUWR" >
<rect x = "67" y="377" width="6" height="6" rx="3" ry="3" stroke="#0000FF" stroke-width="1px"/>
<ellipse cx="70.00" cy="380.00" rx="3.00" ry="3.00" stroke="#0000FF" stroke-width="1.00px"/>
</g>
<g id = "QBNOMMPC" >
<rect x = "67" y="387" width="6" height="6" rx="3" ry="3" stroke="#0000FF" stroke-width="1px"/>
<ellipse cx="70.00" cy="390.00" rx="3.00" ry="3.00" stroke="#0000FF" stroke-width="1.00px"/>
</g>
<g id = "HIKXROVL" >
<rect x = "67" y="397" width="6" height="6" rx="3" ry="3" stroke="#0000FF" stroke-width="1px"/>
<ellipse cx="70.00" cy="400.00" rx="3.00" ry="3.00" stroke="#0000FF" stroke-width="1.00px"/>
</g>
<g id = "MAAYOYEF" >
<rect x = "67" y="407" width="6" height="6" rx="3" ry="3" stroke="#0000FF" stroke-width="1px"/>
<ellipse cx="70.00" cy="410.00" rx="3.00" ry="3.00" stroke="#0000FF" stroke-width="1.00px"/>
</g>
<g id = "HQHJYVCQ" >
<rect x = "67" y="417" width="6" height="6" rx="3" ry="3" stroke="#0000FF" stroke-width="1px"/>
<ellipse cx="70.00" cy="420.00" rx="3.00" ry="3.00" stroke="#0000FF" stroke-width="1.00px"/>
</g>
<g id = "JQEIHGWZ" >
<rect x = "67" y="427" width="6" height="6" rx="3" ry="3" stroke="#0000FF" stroke-width="1px"/>
<ellipse cx="70.00" cy="430.00" rx="3.00" ry="3.00" stroke="#0000FF" stroke-width="1.00px"/>
</g>
<g id = "OJYAGLRC" >
<rect x = "67" y="437" width="6" height="6" rx="3" ry="3" stroke="#0000FF" stroke-width="1px"/>
<ellipse cx="70.00" cy="440.00" rx="3.00" ry="3.00" stroke="#0000FF" stroke-width="1.00px"/>
</g>
<g id = "PNMHERBC" >
<rect x = "67" y="447" width="6" height="6" rx="3" ry="3" stroke="#0000FF" stroke-width="1px"/>
<ellipse cx="70.00" cy="450.00" rx="3.00" ry="3.00" stroke="#0000FF" stroke-width="1.00px"/>
</g>
<g id = "QUNEZBFR" >
<line x1="70" y1="60" x2="50" y2="60" stroke="#000000" stroke-width="1px"/>
<text x="77" y="63" font-size="8.888889px" font-family="Times New Roman" fill="#000000" xml:space="preserve">1</text>
</g>
<g id = "TYDGNOKJ" >
<line x1="70" y1="70" x2="50" y2="70" stroke="#000000" stroke-width="1px"/>
<text x="77" y="73" font-size="8.888889px" font-family="Times New Roman" fill="#000000" xml:space="preserve">2</text>
</g>
<g id = "KBCSMDTM" >
<line x1="70" y1="80" x2="50" y2="80" stroke="#000000" stroke-width="1px"/>
<text x="77" y="83" font-size="8.888889px" font-family="Times New Roman" fill="#000000" xml:space="preserve">3</text>
</g>
<g id = "BGXOVOYG" >
<line x1="70" y1="90" x2="50" y2="90" stroke="#000000" stroke-width="1px"/>
<text x="77" y="93" font-size="8.888889px" font-family="Times New Roman" fill="#000000" xml:space="preserve">4</text>
</g>
<g id = "HMWQIUIM" >
<line x1="70" y1="100" x2="50" y2="100" stroke="#000000" stroke-width="1px"/>
<text x="77" y="103" font-size="8.888889px" font-family="Times New Roman" fill="#000000" xml:space="preserve">5</text>
</g>
<g id = "XODLYGXT" >
<line x1="70" y1="110" x2="50" y2="110" stroke="#000000" stroke-width="1px"/>
<text x="77" y="113" font-size="8.888889px" font-family="Times New Roman" fill="#000000" xml:space="preserve">6</text>
</g>
<g id = "VFQHSEDZ" >
<line x1="70" y1="120" x2="50" y2="120" stroke="#000000" stroke-width="1px"/>
<text x="77" y="123" font-size="8.888889px" font-family="Times New Roman" fill="#000000" xml:space="preserve">7</text>
</g>
<g id = "ZRSTQUGI" >
<line x1="70" y1="130" x2="50" y2="130" stroke="#000000" stroke-width="1px"/>
<text x="77" y="133" font-size="8.888889px" font-family="Times New Roman" fill="#000000" xml:space="preserve">8</text>
</g>
<g id = "ANUPHMBF" >
<line x1="70" y1="140" x2="50" y2="140" stroke="#000000" stroke-width="1px"/>
<text x="77" y="143" font-size="8.888889px" font-family="Times New Roman" fill="#000000" xml:space="preserve">9</text>
</g>
<g id = "DSXOLOPH" >
<line x1="70" y1="150" x2="50" y2="150" stroke="#000000" stroke-width="1px"/>
<text x="77" y="153" font-size="8.888889px" font-family="Times New Roman" fill="#000000" xml:space="preserve">10</text>
</g>
<g id = "ERZIDUUN" >
<line x1="70" y1="160" x2="50" y2="160" stroke="#000000" stroke-width="1px"/>
<text x="77" y="163" font-size="8.888889px" font-family="Times New Roman" fill="#000000" xml:space="preserve">11</text>
</g>
<g id = "UVHQBYJI" >
<line x1="70" y1="170" x2="50" y2="170" stroke="#000000" stroke-width="1px"/>
<text x="77" y="173" font-size="8.888889px" font-family="Times New Roman" fill="#000000" xml:space="preserve">12</text>
</g>
<g id = "UDPOVCUZ" >
<line x1="70" y1="180" x2="50" y2="180" stroke="#000000" stroke-width="1px"/>
<text x="77" y="183" font-size="8.888889px" font-family="Times New Roman" fill="#000000" xml:space="preserve">13</text>
</g>
<g id = "WNQSGVKZ" >
<line x1="70" y1="190" x2="50" y2="190" stroke="#000000" stroke-width="1px"/>
<text x="77" y="193" font-size="8.888889px" font-family="Times New Roman" fill="#000000" xml:space="preserve">14</text>
</g>
<g id = "PRYSSIOF" >
<line x1="70" y1="200" x2="50" y2="200" stroke="#000000" stroke-width="1px"/>
<text x="77" y="203" font-size="8.888889px" font-family="Times New Roman" fill="#000000" xml:space="preserve">15</text>
</g>
<g id = "KMGBGVEN" >
<line x1="70" y1="210" x2="50" y2="210" stroke="#000000" stroke-width="1px"/>
<text x="77" y="213" font-size="8.888889px" font-family="Times New Roman" fill="#000000" xml:space="preserve">16</text>
</g>
<g id = "GYUFEMAN" >
<line x1="70" y1="220" x2="50" y2="220" stroke="#000000" stroke-width="1px"/>
<text x="77" y="223" font-size="8.888889px" font-family="Times New Roman" fill="#000000" xml:space="preserve">17</text>
</g>
<g id = "PYSPVESK" >
<line x1="70" y1="230" x2="50" y2="230" stroke="#000000" stroke-width="1px"/>
<text x="77" y="233" font-size="8.888889px" font-family="Times New Roman" fill="#000000" xml:space="preserve">18</text>
</g>
<g id = "WGAZVUOG" >
<line x1="70" y1="240" x2="50" y2="240" stroke="#000000" stroke-width="1px"/>
<text x="77" y="243" font-size="8.888889px" font-family="Times New Roman" fill="#000000" xml:space="preserve">19</text>
</g>
<g id = "UCVCEYMS" >
<line x1="70" y1="250" x2="50" y2="250" stroke="#000000" stroke-width="1px"/>
<text x="77" y="253" font-size="8.888889px" font-family="Times New Roman" fill="#000000" xml:space="preserve">20</text>
</g>
<g id = "IJLFTRDT" >
<line x1="70" y1="260" x2="50" y2="260" stroke="#000000" stroke-width="1px"/>
<text x="77" y="263" font-size="8.888889px" font-family="Times New Roman" fill="#000000" xml:space="preserve">21</text>
</g>
<g id = "BGUBASXI" >
<line x1="70" y1="270" x2="50" y2="270" stroke="#000000" stroke-width="1px"/>
<text x="77" y="273" font-size="8.888889px" font-family="Times New Roman" fill="#000000" xml:space="preserve">22</text>
</g>
<g id = "WYVMOMGW" >
<line x1="70" y1="280" x2="50" y2="280" stroke="#000000" stroke-width="1px"/>
<text x="77" y="283" font-size="8.888889px" font-family="Times New Roman" fill="#000000" xml:space="preserve">23</text>
</g>
<g id = "YQFCWQOM" >
<line x1="70" y1="290" x2="50" y2="290" stroke="#000000" stroke-width="1px"/>
<text x="77" y="293" font-size="8.888889px" font-family="Times New Roman" fill="#000000" xml:space="preserve">24</text>
</g>
<g id = "BXQXMJOV" >
<line x1="70" y1="300" x2="50" y2="300" stroke="#000000" stroke-width="1px"/>
<text x="77" y="303" font-size="8.888889px" font-family="Times New Roman" fill="#000000" xml:space="preserve">25</text>
</g>
<g id = "VISZGZNF" >
<line x1="70" y1="310" x2="50" y2="310" stroke="#000000" stroke-width="1px"/>
<text x="77" y="313" font-size="8.888889px" font-family="Times New Roman" fill="#000000" xml:space="preserve">26</text>
</g>
<g id = "PEQPPRFZ" >
<line x1="70" y1="320" x2="50" y2="320" stroke="#000000" stroke-width="1px"/>
<text x="77" y="323" font-size="8.888889px" font-family="Times New Roman" fill="#000000" xml:space="preserve">27</text>
</g>
<g id = "ABZOHCFF" >
<line x1="70" y1="330" x2="50" y2="330" stroke="#000000" stroke-width="1px"/>
<text x="77" y="333" font-size="8.888889px" font-family="Times New Roman" fill="#000000" xml:space="preserve">28</text>
</g>
<g id = "OESLLSQK" >
<line x1="70" y1="340" x2="50" y2="340" stroke="#000000" stroke-width="1px"/>
<text x="77" y="343" font-size="8.888889px" font-family="Times New Roman" fill="#000000" xml:space="preserve">29</text>
</g>
<g id = "JTNLNILS" >
<line x1="70" y1="350" x2="50" y2="350" stroke="#000000" stroke-width="1px"/>
<text x="77" y="353" font-size="8.888889px" font-family="Times New Roman" fill="#000000" xml:space="preserve">30</text>
</g>
<g id = "AXZPMRDV" >
<line x1="70" y1="360" x2="50" y2="360" stroke="#000000" stroke-width="1px"/>
<text x="77" y="363" font-size="8.888889px" font-family="Times New Roman" fill="#000000" xml:space="preserve">31</text>
</g>
<g id = "EQCPTABV" >
<line x1="70" y1="370" x2="50" y2="370" stroke="#000000" stroke-width="1px"/>
<text x="77" y="373" font-size="8.888889px" font-family="Times New Roman" fill="#000000" xml:space="preserve">32</text>
</g>
<g id = "VWJKSPHE" >
<line x1="70" y1="380" x2="50" y2="380" stroke="#000000" stroke-width="1px"/>
<text x="77" y="383" font-size="8.888889px" font-family="Times New Roman" fill="#000000" xml:space="preserve">33</text>
</g>
<g id = "KXKTBMNF" >
<line x1="70" y1="390" x2="50" y2="390" stroke="#000000" stroke-width="1px"/>
<text x="77" y="393" font-size="8.888889px" font-family="Times New Roman" fill="#000000" xml:space="preserve">34</text>
</g>
<g id = "HOTSXECG" >
<line x1="70" y1="400" x2="50" y2="400" stroke="#000000" stroke-width="1px"/>
<text x="77" y="403" font-size="8.888889px" font-family="Times New Roman" fill="#000000" xml:space="preserve">35</text>
</g>
<g id = "VGZVKWET" >
<line x1="70" y1="410" x2="50" y2="410" stroke="#000000" stroke-width="1px"/>
<text x="77" y="413" font-size="8.888889px" font-family="Times New Roman" fill="#000000" xml:space="preserve">36</text>
</g>
<g id = "MPYUGQPN" >
<line x1="70" y1="420" x2="50" y2="420" stroke="#000000" stroke-width="1px"/>
<text x="77" y="423" font-size="8.888889px" font-family="Times New Roman" fill="#000000" xml:space="preserve">37</text>
</g>
<g id = "BFLJBSYG" >
<line x1="70" y1="430" x2="50" y2="430" stroke="#000000" stroke-width="1px"/>
<text x="77" y="433" font-size="8.888889px" font-family="Times New Roman" fill="#000000" xml:space="preserve">38</text>
</g>
<g id = "FCDYQDCW" >
<line x1="70" y1="440" x2="50" y2="440" stroke="#000000" stroke-width="1px"/>
<text x="77" y="443" font-size="8.888889px" font-family="Times New Roman" fill="#000000" xml:space="preserve">39</text>
</g>
<g id = "UIDXXZZX" >
<line x1="70" y1="450" x2="50" y2="450" stroke="#000000" stroke-width="1px"/>
<text x="77" y="453" font-size="8.888889px" font-family="Times New Roman" fill="#000000" xml:space="preserve">40</text>
</g>
</g>
</g>
</g>
</g>
</svg>