<?xml version="1.0"  encoding="UTF-8" standalone="no"?>
<svg version="1.1" xmlns="http://www.w3.org/2000/svg" xmlns:xlink="http://www.w3.org/1999/xlink" stroke-linecap="round" stroke-linejoin="round" fill="none" width="150" height="360" viewBox="0 0 150 360" data-doc-id="symbol-Socket 25" data-doc-ver="2">
<g id = "scene" >
<g id = "DocumentMainGroup" >
<g id = "BackgroundGroup" >
<rect x = "0" y="0" width="150" height="360" fill="#FFFFFF" fill-opacity="1"/>
</g>
<g id = "symbol-Socket 25" >
<g id = "DocumentItemsGroup" >
<g id = "SVTKVDUK" >
<rect x = "70" y="50" width="30" height="260" stroke="#0000FF" stroke-width="1px"/>
</g>
<g id = "YMTJCQIE" >
<rect x = "67" y="57" width="6" height="6" rx="3" ry="3" stroke="#0000FF" stroke-width="1px"/>
<ellipse cx="70.00" cy="60.00" rx="3.00" ry="3.00" stroke="#0000FF" stroke-width="1.00px"/>
</g>
<g id = "AQWASBWS" >
<rect x = "67" y="67" width="6" height="6" rx="3" ry="3" stroke="#0000FF" stroke-width="1px"/>
<ellipse cx="70.00" cy="70.00" rx="3.00" ry="3.00" stroke="#0000FF" stroke-width="1.00px"/>
</g>
<g id = "ZLUXOUJV" >
<rect x = "67" y="77" width="6" height="6" rx="3" ry="3" stroke="#0000FF" stroke-width="1px"/>
<ellipse cx="70.00" cy="80.00" rx="3.00" ry="3.00" stroke="#0000FF" stroke-width="1.00px"/>
</g>
<g id = "TTKXUVED" >
<rect x = "67" y="87" width="6" height="6" rx="3" ry="3" stroke="#0000FF" stroke-width="1px"/>
<ellipse cx="70.00" cy="90.00" rx="3.00" ry="3.00" stroke="#0000FF" stroke-width="1.00px"/>
</g>
<g id = "RRKIKPEU" >
<rect x = "67" y="97" width="6" height="6" rx="3" ry="3" stroke="#0000FF" stroke-width="1px"/>
<ellipse cx="70.00" cy="100.00" rx="3.00" ry="3.00" stroke="#0000FF" stroke-width="1.00px"/>
</g>
<g id = "BMKNPFDF" >
<rect x = "67" y="107" width="6" height="6" rx="3" ry="3" stroke="#0000FF" stroke-width="1px"/>
<ellipse cx="70.00" cy="110.00" rx="3.00" ry="3.00" stroke="#0000FF" stroke-width="1.00px"/>
</g>
<g id = "JNCVQTNX" >
<rect x = "67" y="117" width="6" height="6" rx="3" ry="3" stroke="#0000FF" stroke-width="1px"/>
<ellipse cx="70.00" cy="120.00" rx="3.00" ry="3.00" stroke="#0000FF" stroke-width="1.00px"/>
</g>
<g id = "LVHQMKAX" >
<rect x = "67" y="127" width="6" height="6" rx="3" ry="3" stroke="#0000FF" stroke-width="1px"/>
<ellipse cx="70.00" cy="130.00" rx="3.00" ry="3.00" stroke="#0000FF" stroke-width="1.00px"/>
</g>
<g id = "JVUTCHHC" >
<rect x = "67" y="137" width="6" height="6" rx="3" ry="3" stroke="#0000FF" stroke-width="1px"/>
<ellipse cx="70.00" cy="140.00" rx="3.00" ry="3.00" stroke="#0000FF" stroke-width="1.00px"/>
</g>
<g id = "TYQPDLGM" >
<rect x = "67" y="147" width="6" height="6" rx="3" ry="3" stroke="#0000FF" stroke-width="1px"/>
<ellipse cx="70.00" cy="150.00" rx="3.00" ry="3.00" stroke="#0000FF" stroke-width="1.00px"/>
</g>
<g id = "ZXKOFWSW" >
<rect x = "67" y="157" width="6" height="6" rx="3" ry="3" stroke="#0000FF" stroke-width="1px"/>
<ellipse cx="70.00" cy="160.00" rx="3.00" ry="3.00" stroke="#0000FF" stroke-width="1.00px"/>
</g>
<g id = "FXERBAHZ" >
<rect x = "67" y="167" width="6" height="6" rx="3" ry="3" stroke="#0000FF" stroke-width="1px"/>
<ellipse cx="70.00" cy="170.00" rx="3.00" ry="3.00" stroke="#0000FF" stroke-width="1.00px"/>
</g>
<g id = "ADYIVMGB" >
<rect x = "67" y="177" width="6" height="6" rx="3" ry="3" stroke="#0000FF" stroke-width="1px"/>
<ellipse cx="70.00" cy="180.00" rx="3.00" ry="3.00" stroke="#0000FF" stroke-width="1.00px"/>
</g>
<g id = "QAQKNMWH" >
<rect x = "67" y="187" width="6" height="6" rx="3" ry="3" stroke="#0000FF" stroke-width="1px"/>
<ellipse cx="70.00" cy="190.00" rx="3.00" ry="3.00" stroke="#0000FF" stroke-width="1.00px"/>
</g>
<g id = "IMXCUIHJ" >
<rect x = "67" y="197" width="6" height="6" rx="3" ry="3" stroke="#0000FF" stroke-width="1px"/>
<ellipse cx="70.00" cy="200.00" rx="3.00" ry="3.00" stroke="#0000FF" stroke-width="1.00px"/>
</g>
<g id = "IWFWOAML" >
<rect x = "67" y="207" width="6" height="6" rx="3" ry="3" stroke="#0000FF" stroke-width="1px"/>
<ellipse cx="70.00" cy="210.00" rx="3.00" ry="3.00" stroke="#0000FF" stroke-width="1.00px"/>
</g>
<g id = "HDRNVPLR" >
<rect x = "67" y="217" width="6" height="6" rx="3" ry="3" stroke="#0000FF" stroke-width="1px"/>
<ellipse cx="70.00" cy="220.00" rx="3.00" ry="3.00" stroke="#0000FF" stroke-width="1.00px"/>
</g>
<g id = "AWKKZXJZ" >
<rect x = "67" y="227" width="6" height="6" rx="3" ry="3" stroke="#0000FF" stroke-width="1px"/>
<ellipse cx="70.00" cy="230.00" rx="3.00" ry="3.00" stroke="#0000FF" stroke-width="1.00px"/>
</g>
<g id = "CLIGZOCY" >
<rect x = "67" y="237" width="6" height="6" rx="3" ry="3" stroke="#0000FF" stroke-width="1px"/>
<ellipse cx="70.00" cy="240.00" rx="3.00" ry="3.00" stroke="#0000FF" stroke-width="1.00px"/>
</g>
<g id = "EHDOIIBF" >
<rect x = "67" y="247" width="6" height="6" rx="3" ry="3" stroke="#0000FF" stroke-width="1px"/>
<ellipse cx="70.00" cy="250.00" rx="3.00" ry="3.00" stroke="#0000FF" stroke-width="1.00px"/>
</g>
<g id = "HHAQARMS" >
<rect x = "67" y="257" width="6" height="6" rx="3" ry="3" stroke="#0000FF" stroke-width="1px"/>
<ellipse cx="70.00" cy="260.00" rx="3.00" ry="3.00" stroke="#0000FF" stroke-width="1.00px"/>
</g>
<g id = "YXNCNAJK" >
<rect x = "67" y="267" width="6" height="6" rx="3" ry="3" stroke="#0000FF" stroke-width="1px"/>
<ellipse cx="70.00" cy="270.00" rx="3.00" ry="3.00" stroke="#0000FF" stroke-width="1.00px"/>
</g>
<g id = "IUMGUYRP" >
<rect x = "67" y="277" width="6" height="6" rx="3" ry="3" stroke="#0000FF" stroke-width="1px"/>
<ellipse cx="70.00" cy="280.00" rx="3.00" ry="3.00" stroke="#0000FF" stroke-width="1.00px"/>
</g>
<g id = "IUWWRKKL" >
<rect x = "67" y="287" width="6" height="6" rx="3" ry="3" stroke="#0000FF" stroke-width="1px"/>
<ellipse cx="70.00" cy="290.00" rx="3.00" ry="3.00" stroke="#0000FF" stroke-width="1.00px"/>
</g>
<g id = "UISUYIFM" >
<rect x = "67" y="297" width="6" height="6" rx="3" ry="3" stroke="#0000FF" stroke-width="1px"/>
<ellipse cx="70.00" cy="300.00" rx="3.00" ry="3.00" stroke="#0000FF" stroke-width="1.00px"/>
</g>
<g id = "KCQDRCDZ" >
<line x1="70" y1="60" x2="50" y2="60" stroke="#000000" stroke-width="1px"/>
<text x="77" y="63" font-size="8.888889px" font-family="Times New Roman" fill="#000000" xml:space="preserve">1</text>
</g>
<g id = "CMWYCRRT" >
<line x1="70" y1="70" x2="50" y2="70" stroke="#000000" stroke-width="1px"/>
<text x="77" y="73" font-size="8.888889px" font-family="Times New Roman" fill="#000000" xml:space="preserve">2</text>
</g>
<g id = "TGURPZPC" >
<line x1="70" y1="80" x2="50" y2="80" stroke="#000000" stroke-width="1px"/>
<text x="77" y="83" font-size="8.888889px" font-family="Times New Roman" fill="#000000" xml:space="preserve">3</text>
</g>
<g id = "OJUDUMDX" >
<line x1="70" y1="90" x2="50" y2="90" stroke="#000000" stroke-width="1px"/>
<text x="77" y="93" font-size="8.888889px" font-family="Times New Roman" fill="#000000" xml:space="preserve">4</text>
</g>
<g id = "LPHWAEOM" >
<line x1="70" y1="100" x2="50" y2="100" stroke="#000000" stroke-width="1px"/>
<text x="77" y="103" font-size="8.888889px" font-family="Times New Roman" fill="#000000" xml:space="preserve">5</text>
</g>
<g id = "KTKVCXQV" >
<line x1="70" y1="110" x2="50" y2="110" stroke="#000000" stroke-width="1px"/>
<text x="77" y="113" font-size="8.888889px" font-family="Times New Roman" fill="#000000" xml:space="preserve">6</text>
</g>
<g id = "DSUHDUCV" >
<line x1="70" y1="120" x2="50" y2="120" stroke="#000000" stroke-width="1px"/>
<text x="77" y="123" font-size="8.888889px" font-family="Times New Roman" fill="#000000" xml:space="preserve">7</text>
</g>
<g id = "GZASUNOG" >
<line x1="70" y1="130" x2="50" y2="130" stroke="#000000" stroke-width="1px"/>
<text x="77" y="133" font-size="8.888889px" font-family="Times New Roman" fill="#000000" xml:space="preserve">8</text>
</g>
<g id = "VFVWUXRB" >
<line x1="70" y1="140" x2="50" y2="140" stroke="#000000" stroke-width="1px"/>
<text x="77" y="143" font-size="8.888889px" font-family="Times New Roman" fill="#000000" xml:space="preserve">9</text>
</g>
<g id = "RGAUJXIY" >
<line x1="70" y1="150" x2="50" y2="150" stroke="#000000" stroke-width="1px"/>
<text x="77" y="153" font-size="8.888889px" font-family="Times New Roman" fill="#000000" xml:space="preserve">10</text>
</g>
<g id = "NXTPOPKW" >
<line x1="70" y1="160" x2="50" y2="160" stroke="#000000" stroke-width="1px"/>
<text x="77" y="163" font-size="8.888889px" font-family="Times New Roman" fill="#000000" xml:space="preserve">11</text>
</g>
<g id = "IQIHTLUD" >
<line x1="70" y1="170" x2="50" y2="170" stroke="#000000" stroke-width="1px"/>
<text x="77" y="173" font-size="8.888889px" font-family="Times New Roman" fill="#000000" xml:space="preserve">12</text>
</g>
<g id = "BSMSRXMU" >
<line x1="70" y1="180" x2="50" y2="180" stroke="#000000" stroke-width="1px"/>
<text x="77" y="183" font-size="8.888889px" font-family="Times New Roman" fill="#000000" xml:space="preserve">13</text>
</g>
<g id = "NYFOYQUD" >
<line x1="70" y1="190" x2="50" y2="190" stroke="#000000" stroke-width="1px"/>
<text x="77" y="193" font-size="8.888889px" font-family="Times New Roman" fill="#000000" xml:space="preserve">14</text>
</g>
<g id = "QDTQDUDY" >
<line x1="70" y1="200" x2="50" y2="200" stroke="#000000" stroke-width="1px"/>
<text x="77" y="203" font-size="8.888889px" font-family="Times New Roman" fill="#000000" xml:space="preserve">15</text>
</g>
<g id = "WQGMGYDZ" >
<line x1="70" y1="210" x2="50" y2="210" stroke="#000000" stroke-width="1px"/>
<text x="77" y="213" font-size="8.888889px" font-family="Times New Roman" fill="#000000" xml:space="preserve">16</text>
</g>
<g id = "WKIWZBBB" >
<line x1="70" y1="220" x2="50" y2="220" stroke="#000000" stroke-width="1px"/>
<text x="77" y="223" font-size="8.888889px" font-family="Times New Roman" fill="#000000" xml:space="preserve">17</text>
</g>
<g id = "ZACMYYYC" >
<line x1="70" y1="230" x2="50" y2="230" stroke="#000000" stroke-width="1px"/>
<text x="77" y="233" font-size="8.888889px" font-family="Times New Roman" fill="#000000" xml:space="preserve">18</text>
</g>
<g id = "RZAAQANJ" >
<line x1="70" y1="240" x2="50" y2="240" stroke="#000000" stroke-width="1px"/>
<text x="77" y="243" font-size="8.888889px" font-family="Times New Roman" fill="#000000" xml:space="preserve">19</text>
</g>
<g id = "QKJYDPCI" >
<line x1="70" y1="250" x2="50" y2="250" stroke="#000000" stroke-width="1px"/>
<text x="77" y="253" font-size="8.888889px" font-family="Times New Roman" fill="#000000" xml:space="preserve">20</text>
</g>
<g id = "XSFOCPUV" >
<line x1="70" y1="260" x2="50" y2="260" stroke="#000000" stroke-width="1px"/>
<text x="77" y="263" font-size="8.888889px" font-family="Times New Roman" fill="#000000" xml:space="preserve">21</text>
</g>
<g id = "VLBWPIOG" >
<line x1="70" y1="270" x2="50" y2="270" stroke="#000000" stroke-width="1px"/>
<text x="77" y="273" font-size="8.888889px" font-family="Times New Roman" fill="#000000" xml:space="preserve">22</text>
</g>
<g id = "KNLRPYMW" >
<line x1="70" y1="280" x2="50" y2="280" stroke="#000000" stroke-width="1px"/>
<text x="77" y="283" font-size="8.888889px" font-family="Times New Roman" fill="#000000" xml:space="preserve">23</text>
</g>
<g id = "BSRCBJAZ" >
<line x1="70" y1="290" x2="50" y2="290" stroke="#000000" stroke-width="1px"/>
<text x="77" y="293" font-size="8.888889px" font-family="Times New Roman" fill="#000000" xml:space="preserve">24</text>
</g>
<g id = "KRPOKVFH" >
<line x1="70" y1="300" x2="50" y2="300" stroke="#000000" stroke-width="1px"/>
<text x="77" y="303" font-size="8.888889px" font-family="Times New Roman" fill="#000000" xml:space="preserve">25</text>
</g>
</g>
</g>
</g>
</g>
</svg>