<?xml version="1.0"  encoding="UTF-8" standalone="no"?>
<svg version="1.1" xmlns="http://www.w3.org/2000/svg" xmlns:xlink="http://www.w3.org/1999/xlink" stroke-linecap="round" stroke-linejoin="round" fill="none" width="180" height="270" viewBox="0 0 180 270" data-doc-id="symbol-Socket 16X2A" data-doc-ver="2">
<g id = "scene" >
<g id = "DocumentMainGroup" >
<g id = "BackgroundGroup" >
<rect x = "0" y="0" width="180" height="270" fill="#FFFFFF" fill-opacity="1"/>
</g>
<g id = "symbol-Socket 16X2A" >
<g id = "DocumentItemsGroup" >
<g id = "WWYOCTJC" >
<rect x = "70" y="50" width="40" height="170" stroke="#0000FF" stroke-width="1px"/>
</g>
<g id = "DZOLTFAB" >
<line x1="70" y1="64" x2="71.5" y2="63.7" stroke="#0000FF" stroke-width="1px"/>
<line x1="71.5" y1="63.7" x2="72.8" y2="62.9" stroke="#0000FF" stroke-width="1px"/>
<line x1="72.8" y1="62.9" x2="73.7" y2="61.6" stroke="#0000FF" stroke-width="1px"/>
<line x1="73.7" y1="61.6" x2="74" y2="60.1" stroke="#0000FF" stroke-width="1px"/>
<line x1="74" y1="60.1" x2="73.8" y2="58.6" stroke="#0000FF" stroke-width="1px"/>
<line x1="73.8" y1="58.6" x2="73" y2="57.3" stroke="#0000FF" stroke-width="1px"/>
<line x1="73" y1="57.3" x2="71.8" y2="56.4" stroke="#0000FF" stroke-width="1px"/>
<line x1="71.8" y1="56.4" x2="70.3" y2="56" stroke="#0000FF" stroke-width="1px"/>
</g>
<g id = "SRCCXCFL" >
<line x1="110" y1="56" x2="108.5" y2="56.3" stroke="#0000FF" stroke-width="1px"/>
<line x1="108.5" y1="56.3" x2="107.2" y2="57.1" stroke="#0000FF" stroke-width="1px"/>
<line x1="107.2" y1="57.1" x2="106.3" y2="58.4" stroke="#0000FF" stroke-width="1px"/>
<line x1="106.3" y1="58.4" x2="106" y2="59.9" stroke="#0000FF" stroke-width="1px"/>
<line x1="106" y1="59.9" x2="106.2" y2="61.4" stroke="#0000FF" stroke-width="1px"/>
<line x1="106.2" y1="61.4" x2="107" y2="62.7" stroke="#0000FF" stroke-width="1px"/>
<line x1="107" y1="62.7" x2="108.2" y2="63.6" stroke="#0000FF" stroke-width="1px"/>
<line x1="108.2" y1="63.6" x2="109.7" y2="64" stroke="#0000FF" stroke-width="1px"/>
</g>
<g id = "WOXDWKLT" >
<line x1="70" y1="74" x2="71.5" y2="73.7" stroke="#0000FF" stroke-width="1px"/>
<line x1="71.5" y1="73.7" x2="72.8" y2="72.9" stroke="#0000FF" stroke-width="1px"/>
<line x1="72.8" y1="72.9" x2="73.7" y2="71.6" stroke="#0000FF" stroke-width="1px"/>
<line x1="73.7" y1="71.6" x2="74" y2="70.1" stroke="#0000FF" stroke-width="1px"/>
<line x1="74" y1="70.1" x2="73.8" y2="68.6" stroke="#0000FF" stroke-width="1px"/>
<line x1="73.8" y1="68.6" x2="73" y2="67.3" stroke="#0000FF" stroke-width="1px"/>
<line x1="73" y1="67.3" x2="71.8" y2="66.4" stroke="#0000FF" stroke-width="1px"/>
<line x1="71.8" y1="66.4" x2="70.3" y2="66" stroke="#0000FF" stroke-width="1px"/>
</g>
<g id = "TVOBQZIF" >
<line x1="110" y1="66" x2="108.5" y2="66.3" stroke="#0000FF" stroke-width="1px"/>
<line x1="108.5" y1="66.3" x2="107.2" y2="67.1" stroke="#0000FF" stroke-width="1px"/>
<line x1="107.2" y1="67.1" x2="106.3" y2="68.4" stroke="#0000FF" stroke-width="1px"/>
<line x1="106.3" y1="68.4" x2="106" y2="69.9" stroke="#0000FF" stroke-width="1px"/>
<line x1="106" y1="69.9" x2="106.2" y2="71.4" stroke="#0000FF" stroke-width="1px"/>
<line x1="106.2" y1="71.4" x2="107" y2="72.7" stroke="#0000FF" stroke-width="1px"/>
<line x1="107" y1="72.7" x2="108.2" y2="73.6" stroke="#0000FF" stroke-width="1px"/>
<line x1="108.2" y1="73.6" x2="109.7" y2="74" stroke="#0000FF" stroke-width="1px"/>
</g>
<g id = "AOJPXKDR" >
<line x1="70" y1="84" x2="71.5" y2="83.7" stroke="#0000FF" stroke-width="1px"/>
<line x1="71.5" y1="83.7" x2="72.8" y2="82.9" stroke="#0000FF" stroke-width="1px"/>
<line x1="72.8" y1="82.9" x2="73.7" y2="81.6" stroke="#0000FF" stroke-width="1px"/>
<line x1="73.7" y1="81.6" x2="74" y2="80.1" stroke="#0000FF" stroke-width="1px"/>
<line x1="74" y1="80.1" x2="73.8" y2="78.6" stroke="#0000FF" stroke-width="1px"/>
<line x1="73.8" y1="78.6" x2="73" y2="77.3" stroke="#0000FF" stroke-width="1px"/>
<line x1="73" y1="77.3" x2="71.8" y2="76.4" stroke="#0000FF" stroke-width="1px"/>
<line x1="71.8" y1="76.4" x2="70.3" y2="76" stroke="#0000FF" stroke-width="1px"/>
</g>
<g id = "CHAVTXTA" >
<line x1="110" y1="76" x2="108.5" y2="76.3" stroke="#0000FF" stroke-width="1px"/>
<line x1="108.5" y1="76.3" x2="107.2" y2="77.1" stroke="#0000FF" stroke-width="1px"/>
<line x1="107.2" y1="77.1" x2="106.3" y2="78.4" stroke="#0000FF" stroke-width="1px"/>
<line x1="106.3" y1="78.4" x2="106" y2="79.9" stroke="#0000FF" stroke-width="1px"/>
<line x1="106" y1="79.9" x2="106.2" y2="81.4" stroke="#0000FF" stroke-width="1px"/>
<line x1="106.2" y1="81.4" x2="107" y2="82.7" stroke="#0000FF" stroke-width="1px"/>
<line x1="107" y1="82.7" x2="108.2" y2="83.6" stroke="#0000FF" stroke-width="1px"/>
<line x1="108.2" y1="83.6" x2="109.7" y2="84" stroke="#0000FF" stroke-width="1px"/>
</g>
<g id = "INDAHMRB" >
<line x1="70" y1="94" x2="71.5" y2="93.7" stroke="#0000FF" stroke-width="1px"/>
<line x1="71.5" y1="93.7" x2="72.8" y2="92.9" stroke="#0000FF" stroke-width="1px"/>
<line x1="72.8" y1="92.9" x2="73.7" y2="91.6" stroke="#0000FF" stroke-width="1px"/>
<line x1="73.7" y1="91.6" x2="74" y2="90.1" stroke="#0000FF" stroke-width="1px"/>
<line x1="74" y1="90.1" x2="73.8" y2="88.6" stroke="#0000FF" stroke-width="1px"/>
<line x1="73.8" y1="88.6" x2="73" y2="87.3" stroke="#0000FF" stroke-width="1px"/>
<line x1="73" y1="87.3" x2="71.8" y2="86.4" stroke="#0000FF" stroke-width="1px"/>
<line x1="71.8" y1="86.4" x2="70.3" y2="86" stroke="#0000FF" stroke-width="1px"/>
</g>
<g id = "LVEHFOJM" >
<line x1="110" y1="86" x2="108.5" y2="86.3" stroke="#0000FF" stroke-width="1px"/>
<line x1="108.5" y1="86.3" x2="107.2" y2="87.1" stroke="#0000FF" stroke-width="1px"/>
<line x1="107.2" y1="87.1" x2="106.3" y2="88.4" stroke="#0000FF" stroke-width="1px"/>
<line x1="106.3" y1="88.4" x2="106" y2="89.9" stroke="#0000FF" stroke-width="1px"/>
<line x1="106" y1="89.9" x2="106.2" y2="91.4" stroke="#0000FF" stroke-width="1px"/>
<line x1="106.2" y1="91.4" x2="107" y2="92.7" stroke="#0000FF" stroke-width="1px"/>
<line x1="107" y1="92.7" x2="108.2" y2="93.6" stroke="#0000FF" stroke-width="1px"/>
<line x1="108.2" y1="93.6" x2="109.7" y2="94" stroke="#0000FF" stroke-width="1px"/>
</g>
<g id = "EOIKCXKE" >
<line x1="70" y1="104" x2="71.5" y2="103.7" stroke="#0000FF" stroke-width="1px"/>
<line x1="71.5" y1="103.7" x2="72.8" y2="102.9" stroke="#0000FF" stroke-width="1px"/>
<line x1="72.8" y1="102.9" x2="73.7" y2="101.6" stroke="#0000FF" stroke-width="1px"/>
<line x1="73.7" y1="101.6" x2="74" y2="100.1" stroke="#0000FF" stroke-width="1px"/>
<line x1="74" y1="100.1" x2="73.8" y2="98.6" stroke="#0000FF" stroke-width="1px"/>
<line x1="73.8" y1="98.6" x2="73" y2="97.3" stroke="#0000FF" stroke-width="1px"/>
<line x1="73" y1="97.3" x2="71.8" y2="96.4" stroke="#0000FF" stroke-width="1px"/>
<line x1="71.8" y1="96.4" x2="70.3" y2="96" stroke="#0000FF" stroke-width="1px"/>
</g>
<g id = "JMLTMXTX" >
<line x1="110" y1="96" x2="108.5" y2="96.3" stroke="#0000FF" stroke-width="1px"/>
<line x1="108.5" y1="96.3" x2="107.2" y2="97.1" stroke="#0000FF" stroke-width="1px"/>
<line x1="107.2" y1="97.1" x2="106.3" y2="98.4" stroke="#0000FF" stroke-width="1px"/>
<line x1="106.3" y1="98.4" x2="106" y2="99.9" stroke="#0000FF" stroke-width="1px"/>
<line x1="106" y1="99.9" x2="106.2" y2="101.4" stroke="#0000FF" stroke-width="1px"/>
<line x1="106.2" y1="101.4" x2="107" y2="102.7" stroke="#0000FF" stroke-width="1px"/>
<line x1="107" y1="102.7" x2="108.2" y2="103.6" stroke="#0000FF" stroke-width="1px"/>
<line x1="108.2" y1="103.6" x2="109.7" y2="104" stroke="#0000FF" stroke-width="1px"/>
</g>
<g id = "MMGUYKBA" >
<line x1="70" y1="114" x2="71.5" y2="113.7" stroke="#0000FF" stroke-width="1px"/>
<line x1="71.5" y1="113.7" x2="72.8" y2="112.9" stroke="#0000FF" stroke-width="1px"/>
<line x1="72.8" y1="112.9" x2="73.7" y2="111.6" stroke="#0000FF" stroke-width="1px"/>
<line x1="73.7" y1="111.6" x2="74" y2="110.1" stroke="#0000FF" stroke-width="1px"/>
<line x1="74" y1="110.1" x2="73.8" y2="108.6" stroke="#0000FF" stroke-width="1px"/>
<line x1="73.8" y1="108.6" x2="73" y2="107.3" stroke="#0000FF" stroke-width="1px"/>
<line x1="73" y1="107.3" x2="71.8" y2="106.4" stroke="#0000FF" stroke-width="1px"/>
<line x1="71.8" y1="106.4" x2="70.3" y2="106" stroke="#0000FF" stroke-width="1px"/>
</g>
<g id = "IAYYJYFW" >
<line x1="110" y1="106" x2="108.5" y2="106.3" stroke="#0000FF" stroke-width="1px"/>
<line x1="108.5" y1="106.3" x2="107.2" y2="107.1" stroke="#0000FF" stroke-width="1px"/>
<line x1="107.2" y1="107.1" x2="106.3" y2="108.4" stroke="#0000FF" stroke-width="1px"/>
<line x1="106.3" y1="108.4" x2="106" y2="109.9" stroke="#0000FF" stroke-width="1px"/>
<line x1="106" y1="109.9" x2="106.2" y2="111.4" stroke="#0000FF" stroke-width="1px"/>
<line x1="106.2" y1="111.4" x2="107" y2="112.7" stroke="#0000FF" stroke-width="1px"/>
<line x1="107" y1="112.7" x2="108.2" y2="113.6" stroke="#0000FF" stroke-width="1px"/>
<line x1="108.2" y1="113.6" x2="109.7" y2="114" stroke="#0000FF" stroke-width="1px"/>
</g>
<g id = "PATFRZLK" >
<line x1="70" y1="124" x2="71.5" y2="123.7" stroke="#0000FF" stroke-width="1px"/>
<line x1="71.5" y1="123.7" x2="72.8" y2="122.9" stroke="#0000FF" stroke-width="1px"/>
<line x1="72.8" y1="122.9" x2="73.7" y2="121.6" stroke="#0000FF" stroke-width="1px"/>
<line x1="73.7" y1="121.6" x2="74" y2="120.1" stroke="#0000FF" stroke-width="1px"/>
<line x1="74" y1="120.1" x2="73.8" y2="118.6" stroke="#0000FF" stroke-width="1px"/>
<line x1="73.8" y1="118.6" x2="73" y2="117.3" stroke="#0000FF" stroke-width="1px"/>
<line x1="73" y1="117.3" x2="71.8" y2="116.4" stroke="#0000FF" stroke-width="1px"/>
<line x1="71.8" y1="116.4" x2="70.3" y2="116" stroke="#0000FF" stroke-width="1px"/>
</g>
<g id = "CKRXZIIA" >
<line x1="110" y1="116" x2="108.5" y2="116.3" stroke="#0000FF" stroke-width="1px"/>
<line x1="108.5" y1="116.3" x2="107.2" y2="117.1" stroke="#0000FF" stroke-width="1px"/>
<line x1="107.2" y1="117.1" x2="106.3" y2="118.4" stroke="#0000FF" stroke-width="1px"/>
<line x1="106.3" y1="118.4" x2="106" y2="119.9" stroke="#0000FF" stroke-width="1px"/>
<line x1="106" y1="119.9" x2="106.2" y2="121.4" stroke="#0000FF" stroke-width="1px"/>
<line x1="106.2" y1="121.4" x2="107" y2="122.7" stroke="#0000FF" stroke-width="1px"/>
<line x1="107" y1="122.7" x2="108.2" y2="123.6" stroke="#0000FF" stroke-width="1px"/>
<line x1="108.2" y1="123.6" x2="109.7" y2="124" stroke="#0000FF" stroke-width="1px"/>
</g>
<g id = "PNDACJFZ" >
<line x1="70" y1="134" x2="71.5" y2="133.7" stroke="#0000FF" stroke-width="1px"/>
<line x1="71.5" y1="133.7" x2="72.8" y2="132.9" stroke="#0000FF" stroke-width="1px"/>
<line x1="72.8" y1="132.9" x2="73.7" y2="131.6" stroke="#0000FF" stroke-width="1px"/>
<line x1="73.7" y1="131.6" x2="74" y2="130.1" stroke="#0000FF" stroke-width="1px"/>
<line x1="74" y1="130.1" x2="73.8" y2="128.6" stroke="#0000FF" stroke-width="1px"/>
<line x1="73.8" y1="128.6" x2="73" y2="127.3" stroke="#0000FF" stroke-width="1px"/>
<line x1="73" y1="127.3" x2="71.8" y2="126.4" stroke="#0000FF" stroke-width="1px"/>
<line x1="71.8" y1="126.4" x2="70.3" y2="126" stroke="#0000FF" stroke-width="1px"/>
</g>
<g id = "ENJGKAXC" >
<line x1="110" y1="126" x2="108.5" y2="126.3" stroke="#0000FF" stroke-width="1px"/>
<line x1="108.5" y1="126.3" x2="107.2" y2="127.1" stroke="#0000FF" stroke-width="1px"/>
<line x1="107.2" y1="127.1" x2="106.3" y2="128.4" stroke="#0000FF" stroke-width="1px"/>
<line x1="106.3" y1="128.4" x2="106" y2="129.9" stroke="#0000FF" stroke-width="1px"/>
<line x1="106" y1="129.9" x2="106.2" y2="131.4" stroke="#0000FF" stroke-width="1px"/>
<line x1="106.2" y1="131.4" x2="107" y2="132.7" stroke="#0000FF" stroke-width="1px"/>
<line x1="107" y1="132.7" x2="108.2" y2="133.6" stroke="#0000FF" stroke-width="1px"/>
<line x1="108.2" y1="133.6" x2="109.7" y2="134" stroke="#0000FF" stroke-width="1px"/>
</g>
<g id = "BNCNBQDX" >
<line x1="70" y1="144" x2="71.5" y2="143.7" stroke="#0000FF" stroke-width="1px"/>
<line x1="71.5" y1="143.7" x2="72.8" y2="142.9" stroke="#0000FF" stroke-width="1px"/>
<line x1="72.8" y1="142.9" x2="73.7" y2="141.6" stroke="#0000FF" stroke-width="1px"/>
<line x1="73.7" y1="141.6" x2="74" y2="140.1" stroke="#0000FF" stroke-width="1px"/>
<line x1="74" y1="140.1" x2="73.8" y2="138.6" stroke="#0000FF" stroke-width="1px"/>
<line x1="73.8" y1="138.6" x2="73" y2="137.3" stroke="#0000FF" stroke-width="1px"/>
<line x1="73" y1="137.3" x2="71.8" y2="136.4" stroke="#0000FF" stroke-width="1px"/>
<line x1="71.8" y1="136.4" x2="70.3" y2="136" stroke="#0000FF" stroke-width="1px"/>
</g>
<g id = "MHFGBTLS" >
<line x1="110" y1="136" x2="108.5" y2="136.3" stroke="#0000FF" stroke-width="1px"/>
<line x1="108.5" y1="136.3" x2="107.2" y2="137.1" stroke="#0000FF" stroke-width="1px"/>
<line x1="107.2" y1="137.1" x2="106.3" y2="138.4" stroke="#0000FF" stroke-width="1px"/>
<line x1="106.3" y1="138.4" x2="106" y2="139.9" stroke="#0000FF" stroke-width="1px"/>
<line x1="106" y1="139.9" x2="106.2" y2="141.4" stroke="#0000FF" stroke-width="1px"/>
<line x1="106.2" y1="141.4" x2="107" y2="142.7" stroke="#0000FF" stroke-width="1px"/>
<line x1="107" y1="142.7" x2="108.2" y2="143.6" stroke="#0000FF" stroke-width="1px"/>
<line x1="108.2" y1="143.6" x2="109.7" y2="144" stroke="#0000FF" stroke-width="1px"/>
</g>
<g id = "SOEAXJRH" >
<line x1="70" y1="154" x2="71.5" y2="153.7" stroke="#0000FF" stroke-width="1px"/>
<line x1="71.5" y1="153.7" x2="72.8" y2="152.9" stroke="#0000FF" stroke-width="1px"/>
<line x1="72.8" y1="152.9" x2="73.7" y2="151.6" stroke="#0000FF" stroke-width="1px"/>
<line x1="73.7" y1="151.6" x2="74" y2="150.1" stroke="#0000FF" stroke-width="1px"/>
<line x1="74" y1="150.1" x2="73.8" y2="148.6" stroke="#0000FF" stroke-width="1px"/>
<line x1="73.8" y1="148.6" x2="73" y2="147.3" stroke="#0000FF" stroke-width="1px"/>
<line x1="73" y1="147.3" x2="71.8" y2="146.4" stroke="#0000FF" stroke-width="1px"/>
<line x1="71.8" y1="146.4" x2="70.3" y2="146" stroke="#0000FF" stroke-width="1px"/>
</g>
<g id = "ITKVMTGS" >
<line x1="110" y1="146" x2="108.5" y2="146.3" stroke="#0000FF" stroke-width="1px"/>
<line x1="108.5" y1="146.3" x2="107.2" y2="147.1" stroke="#0000FF" stroke-width="1px"/>
<line x1="107.2" y1="147.1" x2="106.3" y2="148.4" stroke="#0000FF" stroke-width="1px"/>
<line x1="106.3" y1="148.4" x2="106" y2="149.9" stroke="#0000FF" stroke-width="1px"/>
<line x1="106" y1="149.9" x2="106.2" y2="151.4" stroke="#0000FF" stroke-width="1px"/>
<line x1="106.2" y1="151.4" x2="107" y2="152.7" stroke="#0000FF" stroke-width="1px"/>
<line x1="107" y1="152.7" x2="108.2" y2="153.6" stroke="#0000FF" stroke-width="1px"/>
<line x1="108.2" y1="153.6" x2="109.7" y2="154" stroke="#0000FF" stroke-width="1px"/>
</g>
<g id = "VLOGVWRT" >
<line x1="70" y1="164" x2="71.5" y2="163.7" stroke="#0000FF" stroke-width="1px"/>
<line x1="71.5" y1="163.7" x2="72.8" y2="162.9" stroke="#0000FF" stroke-width="1px"/>
<line x1="72.8" y1="162.9" x2="73.7" y2="161.6" stroke="#0000FF" stroke-width="1px"/>
<line x1="73.7" y1="161.6" x2="74" y2="160.1" stroke="#0000FF" stroke-width="1px"/>
<line x1="74" y1="160.1" x2="73.8" y2="158.6" stroke="#0000FF" stroke-width="1px"/>
<line x1="73.8" y1="158.6" x2="73" y2="157.3" stroke="#0000FF" stroke-width="1px"/>
<line x1="73" y1="157.3" x2="71.8" y2="156.4" stroke="#0000FF" stroke-width="1px"/>
<line x1="71.8" y1="156.4" x2="70.3" y2="156" stroke="#0000FF" stroke-width="1px"/>
</g>
<g id = "PRBXAZDX" >
<line x1="110" y1="156" x2="108.5" y2="156.3" stroke="#0000FF" stroke-width="1px"/>
<line x1="108.5" y1="156.3" x2="107.2" y2="157.1" stroke="#0000FF" stroke-width="1px"/>
<line x1="107.2" y1="157.1" x2="106.3" y2="158.4" stroke="#0000FF" stroke-width="1px"/>
<line x1="106.3" y1="158.4" x2="106" y2="159.9" stroke="#0000FF" stroke-width="1px"/>
<line x1="106" y1="159.9" x2="106.2" y2="161.4" stroke="#0000FF" stroke-width="1px"/>
<line x1="106.2" y1="161.4" x2="107" y2="162.7" stroke="#0000FF" stroke-width="1px"/>
<line x1="107" y1="162.7" x2="108.2" y2="163.6" stroke="#0000FF" stroke-width="1px"/>
<line x1="108.2" y1="163.6" x2="109.7" y2="164" stroke="#0000FF" stroke-width="1px"/>
</g>
<g id = "GMNHGOMB" >
<line x1="70" y1="174" x2="71.5" y2="173.7" stroke="#0000FF" stroke-width="1px"/>
<line x1="71.5" y1="173.7" x2="72.8" y2="172.9" stroke="#0000FF" stroke-width="1px"/>
<line x1="72.8" y1="172.9" x2="73.7" y2="171.6" stroke="#0000FF" stroke-width="1px"/>
<line x1="73.7" y1="171.6" x2="74" y2="170.1" stroke="#0000FF" stroke-width="1px"/>
<line x1="74" y1="170.1" x2="73.8" y2="168.6" stroke="#0000FF" stroke-width="1px"/>
<line x1="73.8" y1="168.6" x2="73" y2="167.3" stroke="#0000FF" stroke-width="1px"/>
<line x1="73" y1="167.3" x2="71.8" y2="166.4" stroke="#0000FF" stroke-width="1px"/>
<line x1="71.8" y1="166.4" x2="70.3" y2="166" stroke="#0000FF" stroke-width="1px"/>
</g>
<g id = "XLDSVSGF" >
<line x1="110" y1="166" x2="108.5" y2="166.3" stroke="#0000FF" stroke-width="1px"/>
<line x1="108.5" y1="166.3" x2="107.2" y2="167.1" stroke="#0000FF" stroke-width="1px"/>
<line x1="107.2" y1="167.1" x2="106.3" y2="168.4" stroke="#0000FF" stroke-width="1px"/>
<line x1="106.3" y1="168.4" x2="106" y2="169.9" stroke="#0000FF" stroke-width="1px"/>
<line x1="106" y1="169.9" x2="106.2" y2="171.4" stroke="#0000FF" stroke-width="1px"/>
<line x1="106.2" y1="171.4" x2="107" y2="172.7" stroke="#0000FF" stroke-width="1px"/>
<line x1="107" y1="172.7" x2="108.2" y2="173.6" stroke="#0000FF" stroke-width="1px"/>
<line x1="108.2" y1="173.6" x2="109.7" y2="174" stroke="#0000FF" stroke-width="1px"/>
</g>
<g id = "ONEYDUPQ" >
<line x1="70" y1="184" x2="71.5" y2="183.7" stroke="#0000FF" stroke-width="1px"/>
<line x1="71.5" y1="183.7" x2="72.8" y2="182.9" stroke="#0000FF" stroke-width="1px"/>
<line x1="72.8" y1="182.9" x2="73.7" y2="181.6" stroke="#0000FF" stroke-width="1px"/>
<line x1="73.7" y1="181.6" x2="74" y2="180.1" stroke="#0000FF" stroke-width="1px"/>
<line x1="74" y1="180.1" x2="73.8" y2="178.6" stroke="#0000FF" stroke-width="1px"/>
<line x1="73.8" y1="178.6" x2="73" y2="177.3" stroke="#0000FF" stroke-width="1px"/>
<line x1="73" y1="177.3" x2="71.8" y2="176.4" stroke="#0000FF" stroke-width="1px"/>
<line x1="71.8" y1="176.4" x2="70.3" y2="176" stroke="#0000FF" stroke-width="1px"/>
</g>
<g id = "REREOURD" >
<line x1="110" y1="176" x2="108.5" y2="176.3" stroke="#0000FF" stroke-width="1px"/>
<line x1="108.5" y1="176.3" x2="107.2" y2="177.1" stroke="#0000FF" stroke-width="1px"/>
<line x1="107.2" y1="177.1" x2="106.3" y2="178.4" stroke="#0000FF" stroke-width="1px"/>
<line x1="106.3" y1="178.4" x2="106" y2="179.9" stroke="#0000FF" stroke-width="1px"/>
<line x1="106" y1="179.9" x2="106.2" y2="181.4" stroke="#0000FF" stroke-width="1px"/>
<line x1="106.2" y1="181.4" x2="107" y2="182.7" stroke="#0000FF" stroke-width="1px"/>
<line x1="107" y1="182.7" x2="108.2" y2="183.6" stroke="#0000FF" stroke-width="1px"/>
<line x1="108.2" y1="183.6" x2="109.7" y2="184" stroke="#0000FF" stroke-width="1px"/>
</g>
<g id = "NXNESDND" >
<line x1="70" y1="194" x2="71.5" y2="193.7" stroke="#0000FF" stroke-width="1px"/>
<line x1="71.5" y1="193.7" x2="72.8" y2="192.9" stroke="#0000FF" stroke-width="1px"/>
<line x1="72.8" y1="192.9" x2="73.7" y2="191.6" stroke="#0000FF" stroke-width="1px"/>
<line x1="73.7" y1="191.6" x2="74" y2="190.1" stroke="#0000FF" stroke-width="1px"/>
<line x1="74" y1="190.1" x2="73.8" y2="188.6" stroke="#0000FF" stroke-width="1px"/>
<line x1="73.8" y1="188.6" x2="73" y2="187.3" stroke="#0000FF" stroke-width="1px"/>
<line x1="73" y1="187.3" x2="71.8" y2="186.4" stroke="#0000FF" stroke-width="1px"/>
<line x1="71.8" y1="186.4" x2="70.3" y2="186" stroke="#0000FF" stroke-width="1px"/>
</g>
<g id = "GCURSQYR" >
<line x1="110" y1="186" x2="108.5" y2="186.3" stroke="#0000FF" stroke-width="1px"/>
<line x1="108.5" y1="186.3" x2="107.2" y2="187.1" stroke="#0000FF" stroke-width="1px"/>
<line x1="107.2" y1="187.1" x2="106.3" y2="188.4" stroke="#0000FF" stroke-width="1px"/>
<line x1="106.3" y1="188.4" x2="106" y2="189.9" stroke="#0000FF" stroke-width="1px"/>
<line x1="106" y1="189.9" x2="106.2" y2="191.4" stroke="#0000FF" stroke-width="1px"/>
<line x1="106.2" y1="191.4" x2="107" y2="192.7" stroke="#0000FF" stroke-width="1px"/>
<line x1="107" y1="192.7" x2="108.2" y2="193.6" stroke="#0000FF" stroke-width="1px"/>
<line x1="108.2" y1="193.6" x2="109.7" y2="194" stroke="#0000FF" stroke-width="1px"/>
</g>
<g id = "LMHSSTTI" >
<line x1="70" y1="204" x2="71.5" y2="203.7" stroke="#0000FF" stroke-width="1px"/>
<line x1="71.5" y1="203.7" x2="72.8" y2="202.9" stroke="#0000FF" stroke-width="1px"/>
<line x1="72.8" y1="202.9" x2="73.7" y2="201.6" stroke="#0000FF" stroke-width="1px"/>
<line x1="73.7" y1="201.6" x2="74" y2="200.1" stroke="#0000FF" stroke-width="1px"/>
<line x1="74" y1="200.1" x2="73.8" y2="198.6" stroke="#0000FF" stroke-width="1px"/>
<line x1="73.8" y1="198.6" x2="73" y2="197.3" stroke="#0000FF" stroke-width="1px"/>
<line x1="73" y1="197.3" x2="71.8" y2="196.4" stroke="#0000FF" stroke-width="1px"/>
<line x1="71.8" y1="196.4" x2="70.3" y2="196" stroke="#0000FF" stroke-width="1px"/>
</g>
<g id = "GNLFMKAX" >
<line x1="110" y1="196" x2="108.5" y2="196.3" stroke="#0000FF" stroke-width="1px"/>
<line x1="108.5" y1="196.3" x2="107.2" y2="197.1" stroke="#0000FF" stroke-width="1px"/>
<line x1="107.2" y1="197.1" x2="106.3" y2="198.4" stroke="#0000FF" stroke-width="1px"/>
<line x1="106.3" y1="198.4" x2="106" y2="199.9" stroke="#0000FF" stroke-width="1px"/>
<line x1="106" y1="199.9" x2="106.2" y2="201.4" stroke="#0000FF" stroke-width="1px"/>
<line x1="106.2" y1="201.4" x2="107" y2="202.7" stroke="#0000FF" stroke-width="1px"/>
<line x1="107" y1="202.7" x2="108.2" y2="203.6" stroke="#0000FF" stroke-width="1px"/>
<line x1="108.2" y1="203.6" x2="109.7" y2="204" stroke="#0000FF" stroke-width="1px"/>
</g>
<g id = "JSRLFARS" >
<line x1="70" y1="214" x2="71.5" y2="213.7" stroke="#0000FF" stroke-width="1px"/>
<line x1="71.5" y1="213.7" x2="72.8" y2="212.9" stroke="#0000FF" stroke-width="1px"/>
<line x1="72.8" y1="212.9" x2="73.7" y2="211.6" stroke="#0000FF" stroke-width="1px"/>
<line x1="73.7" y1="211.6" x2="74" y2="210.1" stroke="#0000FF" stroke-width="1px"/>
<line x1="74" y1="210.1" x2="73.8" y2="208.6" stroke="#0000FF" stroke-width="1px"/>
<line x1="73.8" y1="208.6" x2="73" y2="207.3" stroke="#0000FF" stroke-width="1px"/>
<line x1="73" y1="207.3" x2="71.8" y2="206.4" stroke="#0000FF" stroke-width="1px"/>
<line x1="71.8" y1="206.4" x2="70.3" y2="206" stroke="#0000FF" stroke-width="1px"/>
</g>
<g id = "ZJSBVOCK" >
<line x1="110" y1="206" x2="108.5" y2="206.3" stroke="#0000FF" stroke-width="1px"/>
<line x1="108.5" y1="206.3" x2="107.2" y2="207.1" stroke="#0000FF" stroke-width="1px"/>
<line x1="107.2" y1="207.1" x2="106.3" y2="208.4" stroke="#0000FF" stroke-width="1px"/>
<line x1="106.3" y1="208.4" x2="106" y2="209.9" stroke="#0000FF" stroke-width="1px"/>
<line x1="106" y1="209.9" x2="106.2" y2="211.4" stroke="#0000FF" stroke-width="1px"/>
<line x1="106.2" y1="211.4" x2="107" y2="212.7" stroke="#0000FF" stroke-width="1px"/>
<line x1="107" y1="212.7" x2="108.2" y2="213.6" stroke="#0000FF" stroke-width="1px"/>
<line x1="108.2" y1="213.6" x2="109.7" y2="214" stroke="#0000FF" stroke-width="1px"/>
</g>
<g id = "ABJMCSPS" >
<line x1="70" y1="60" x2="50" y2="60" stroke="#000000" stroke-width="1px"/>
<text x="77" y="63" font-size="8.888889px" font-family="Times New Roman" fill="#000000" xml:space="preserve">1</text>
</g>
<g id = "ARPLIOAR" >
<line x1="70" y1="70" x2="50" y2="70" stroke="#000000" stroke-width="1px"/>
<text x="77" y="73" font-size="8.888889px" font-family="Times New Roman" fill="#000000" xml:space="preserve">2</text>
</g>
<g id = "AUYMEDRN" >
<line x1="70" y1="80" x2="50" y2="80" stroke="#000000" stroke-width="1px"/>
<text x="77" y="83" font-size="8.888889px" font-family="Times New Roman" fill="#000000" xml:space="preserve">3</text>
</g>
<g id = "QLQTPXXP" >
<line x1="70" y1="90" x2="50" y2="90" stroke="#000000" stroke-width="1px"/>
<text x="77" y="93" font-size="8.888889px" font-family="Times New Roman" fill="#000000" xml:space="preserve">4</text>
</g>
<g id = "HZBLVBKW" >
<line x1="70" y1="100" x2="50" y2="100" stroke="#000000" stroke-width="1px"/>
<text x="77" y="103" font-size="8.888889px" font-family="Times New Roman" fill="#000000" xml:space="preserve">5</text>
</g>
<g id = "ERGUTAON" >
<line x1="70" y1="110" x2="50" y2="110" stroke="#000000" stroke-width="1px"/>
<text x="77" y="113" font-size="8.888889px" font-family="Times New Roman" fill="#000000" xml:space="preserve">6</text>
</g>
<g id = "YENBBJBW" >
<line x1="70" y1="120" x2="50" y2="120" stroke="#000000" stroke-width="1px"/>
<text x="77" y="123" font-size="8.888889px" font-family="Times New Roman" fill="#000000" xml:space="preserve">7</text>
</g>
<g id = "MTXSFJNY" >
<line x1="70" y1="130" x2="50" y2="130" stroke="#000000" stroke-width="1px"/>
<text x="77" y="133" font-size="8.888889px" font-family="Times New Roman" fill="#000000" xml:space="preserve">8</text>
</g>
<g id = "FUZXEXYR" >
<line x1="70" y1="140" x2="50" y2="140" stroke="#000000" stroke-width="1px"/>
<text x="77" y="143" font-size="8.888889px" font-family="Times New Roman" fill="#000000" xml:space="preserve">9</text>
</g>
<g id = "IXTRYEWR" >
<line x1="70" y1="150" x2="50" y2="150" stroke="#000000" stroke-width="1px"/>
<text x="77" y="153" font-size="8.888889px" font-family="Times New Roman" fill="#000000" xml:space="preserve">10</text>
</g>
<g id = "PBHUIZBC" >
<line x1="70" y1="160" x2="50" y2="160" stroke="#000000" stroke-width="1px"/>
<text x="77" y="163" font-size="8.888889px" font-family="Times New Roman" fill="#000000" xml:space="preserve">11</text>
</g>
<g id = "OWFDLIJP" >
<line x1="70" y1="170" x2="50" y2="170" stroke="#000000" stroke-width="1px"/>
<text x="77" y="173" font-size="8.888889px" font-family="Times New Roman" fill="#000000" xml:space="preserve">12</text>
</g>
<g id = "FGDTRCFN" >
<line x1="70" y1="180" x2="50" y2="180" stroke="#000000" stroke-width="1px"/>
<text x="77" y="183" font-size="8.888889px" font-family="Times New Roman" fill="#000000" xml:space="preserve">13</text>
</g>
<g id = "XQCQZELJ" >
<line x1="70" y1="190" x2="50" y2="190" stroke="#000000" stroke-width="1px"/>
<text x="77" y="193" font-size="8.888889px" font-family="Times New Roman" fill="#000000" xml:space="preserve">14</text>
</g>
<g id = "MJRCULCA" >
<line x1="70" y1="200" x2="50" y2="200" stroke="#000000" stroke-width="1px"/>
<text x="77" y="203" font-size="8.888889px" font-family="Times New Roman" fill="#000000" xml:space="preserve">15</text>
</g>
<g id = "DVVBFGBS" >
<line x1="70" y1="210" x2="50" y2="210" stroke="#000000" stroke-width="1px"/>
<text x="77" y="213" font-size="8.888889px" font-family="Times New Roman" fill="#000000" xml:space="preserve">16</text>
</g>
<g id = "AJRKTZVV" >
<line x1="110" y1="60" x2="130" y2="60" stroke="#000000" stroke-width="1px"/>
<text x="93.1111" y="63" font-size="8.888889px" font-family="Times New Roman" fill="#000000" xml:space="preserve">17</text>
</g>
<g id = "TNJSOXBJ" >
<line x1="110" y1="70" x2="130" y2="70" stroke="#000000" stroke-width="1px"/>
<text x="93.1111" y="73" font-size="8.888889px" font-family="Times New Roman" fill="#000000" xml:space="preserve">18</text>
</g>
<g id = "HVDWFUOM" >
<line x1="110" y1="80" x2="130" y2="80" stroke="#000000" stroke-width="1px"/>
<text x="93.1111" y="83" font-size="8.888889px" font-family="Times New Roman" fill="#000000" xml:space="preserve">19</text>
</g>
<g id = "BTICXDYI" >
<line x1="110" y1="90" x2="130" y2="90" stroke="#000000" stroke-width="1px"/>
<text x="93.1111" y="93" font-size="8.888889px" font-family="Times New Roman" fill="#000000" xml:space="preserve">20</text>
</g>
<g id = "DTGMOURD" >
<line x1="110" y1="100" x2="130" y2="100" stroke="#000000" stroke-width="1px"/>
<text x="93.1111" y="103" font-size="8.888889px" font-family="Times New Roman" fill="#000000" xml:space="preserve">21</text>
</g>
<g id = "JUXVPAKO" >
<line x1="110" y1="110" x2="130" y2="110" stroke="#000000" stroke-width="1px"/>
<text x="93.1111" y="113" font-size="8.888889px" font-family="Times New Roman" fill="#000000" xml:space="preserve">22</text>
</g>
<g id = "KSOLMOHX" >
<line x1="110" y1="120" x2="130" y2="120" stroke="#000000" stroke-width="1px"/>
<text x="93.1111" y="123" font-size="8.888889px" font-family="Times New Roman" fill="#000000" xml:space="preserve">23</text>
</g>
<g id = "YJLYSDEI" >
<line x1="110" y1="130" x2="130" y2="130" stroke="#000000" stroke-width="1px"/>
<text x="93.1111" y="133" font-size="8.888889px" font-family="Times New Roman" fill="#000000" xml:space="preserve">24</text>
</g>
<g id = "VNETBVRN" >
<line x1="110" y1="140" x2="130" y2="140" stroke="#000000" stroke-width="1px"/>
<text x="93.1111" y="143" font-size="8.888889px" font-family="Times New Roman" fill="#000000" xml:space="preserve">25</text>
</g>
<g id = "BHGWPMGU" >
<line x1="110" y1="150" x2="130" y2="150" stroke="#000000" stroke-width="1px"/>
<text x="93.1111" y="153" font-size="8.888889px" font-family="Times New Roman" fill="#000000" xml:space="preserve">26</text>
</g>
<g id = "VSIXMVZB" >
<line x1="110" y1="160" x2="130" y2="160" stroke="#000000" stroke-width="1px"/>
<text x="93.1111" y="163" font-size="8.888889px" font-family="Times New Roman" fill="#000000" xml:space="preserve">27</text>
</g>
<g id = "XQYTRIYP" >
<line x1="110" y1="170" x2="130" y2="170" stroke="#000000" stroke-width="1px"/>
<text x="93.1111" y="173" font-size="8.888889px" font-family="Times New Roman" fill="#000000" xml:space="preserve">28</text>
</g>
<g id = "XFTIWQUE" >
<line x1="110" y1="180" x2="130" y2="180" stroke="#000000" stroke-width="1px"/>
<text x="93.1111" y="183" font-size="8.888889px" font-family="Times New Roman" fill="#000000" xml:space="preserve">29</text>
</g>
<g id = "CVIZNJCY" >
<line x1="110" y1="190" x2="130" y2="190" stroke="#000000" stroke-width="1px"/>
<text x="93.1111" y="193" font-size="8.888889px" font-family="Times New Roman" fill="#000000" xml:space="preserve">30</text>
</g>
<g id = "BXQDIKAC" >
<line x1="110" y1="200" x2="130" y2="200" stroke="#000000" stroke-width="1px"/>
<text x="93.1111" y="203" font-size="8.888889px" font-family="Times New Roman" fill="#000000" xml:space="preserve">31</text>
</g>
<g id = "IALESQHR" >
<line x1="110" y1="210" x2="130" y2="210" stroke="#000000" stroke-width="1px"/>
<text x="93.1111" y="213" font-size="8.888889px" font-family="Times New Roman" fill="#000000" xml:space="preserve">32</text>
</g>
</g>
</g>
</g>
</g>
</svg>