<?xml version="1.0"  encoding="UTF-8" standalone="no"?>
<svg version="1.1" xmlns="http://www.w3.org/2000/svg" xmlns:xlink="http://www.w3.org/1999/xlink" stroke-linecap="round" stroke-linejoin="round" fill="none" width="180" height="210" viewBox="0 0 180 210" data-doc-id="symbol-Socket 10X2A" data-doc-ver="2">
<g id = "scene" >
<g id = "DocumentMainGroup" >
<g id = "BackgroundGroup" >
<rect x = "0" y="0" width="180" height="210" fill="#FFFFFF" fill-opacity="1"/>
</g>
<g id = "symbol-Socket 10X2A" >
<g id = "DocumentItemsGroup" >
<g id = "AQSZFQYI" >
<rect x = "70" y="50" width="40" height="110" stroke="#0000FF" stroke-width="1px"/>
</g>
<g id = "FENBWDZI" >
<line x1="70" y1="64" x2="71.5" y2="63.7" stroke="#0000FF" stroke-width="1px"/>
<line x1="71.5" y1="63.7" x2="72.8" y2="62.9" stroke="#0000FF" stroke-width="1px"/>
<line x1="72.8" y1="62.9" x2="73.7" y2="61.6" stroke="#0000FF" stroke-width="1px"/>
<line x1="73.7" y1="61.6" x2="74" y2="60.1" stroke="#0000FF" stroke-width="1px"/>
<line x1="74" y1="60.1" x2="73.8" y2="58.6" stroke="#0000FF" stroke-width="1px"/>
<line x1="73.8" y1="58.6" x2="73" y2="57.3" stroke="#0000FF" stroke-width="1px"/>
<line x1="73" y1="57.3" x2="71.8" y2="56.4" stroke="#0000FF" stroke-width="1px"/>
<line x1="71.8" y1="56.4" x2="70.3" y2="56" stroke="#0000FF" stroke-width="1px"/>
</g>
<g id = "WCISCGCO" >
<line x1="110" y1="56" x2="108.5" y2="56.3" stroke="#0000FF" stroke-width="1px"/>
<line x1="108.5" y1="56.3" x2="107.2" y2="57.1" stroke="#0000FF" stroke-width="1px"/>
<line x1="107.2" y1="57.1" x2="106.3" y2="58.4" stroke="#0000FF" stroke-width="1px"/>
<line x1="106.3" y1="58.4" x2="106" y2="59.9" stroke="#0000FF" stroke-width="1px"/>
<line x1="106" y1="59.9" x2="106.2" y2="61.4" stroke="#0000FF" stroke-width="1px"/>
<line x1="106.2" y1="61.4" x2="107" y2="62.7" stroke="#0000FF" stroke-width="1px"/>
<line x1="107" y1="62.7" x2="108.2" y2="63.6" stroke="#0000FF" stroke-width="1px"/>
<line x1="108.2" y1="63.6" x2="109.7" y2="64" stroke="#0000FF" stroke-width="1px"/>
</g>
<g id = "ZHTXZWPQ" >
<line x1="70" y1="74" x2="71.5" y2="73.7" stroke="#0000FF" stroke-width="1px"/>
<line x1="71.5" y1="73.7" x2="72.8" y2="72.9" stroke="#0000FF" stroke-width="1px"/>
<line x1="72.8" y1="72.9" x2="73.7" y2="71.6" stroke="#0000FF" stroke-width="1px"/>
<line x1="73.7" y1="71.6" x2="74" y2="70.1" stroke="#0000FF" stroke-width="1px"/>
<line x1="74" y1="70.1" x2="73.8" y2="68.6" stroke="#0000FF" stroke-width="1px"/>
<line x1="73.8" y1="68.6" x2="73" y2="67.3" stroke="#0000FF" stroke-width="1px"/>
<line x1="73" y1="67.3" x2="71.8" y2="66.4" stroke="#0000FF" stroke-width="1px"/>
<line x1="71.8" y1="66.4" x2="70.3" y2="66" stroke="#0000FF" stroke-width="1px"/>
</g>
<g id = "JIXCQRVS" >
<line x1="110" y1="66" x2="108.5" y2="66.3" stroke="#0000FF" stroke-width="1px"/>
<line x1="108.5" y1="66.3" x2="107.2" y2="67.1" stroke="#0000FF" stroke-width="1px"/>
<line x1="107.2" y1="67.1" x2="106.3" y2="68.4" stroke="#0000FF" stroke-width="1px"/>
<line x1="106.3" y1="68.4" x2="106" y2="69.9" stroke="#0000FF" stroke-width="1px"/>
<line x1="106" y1="69.9" x2="106.2" y2="71.4" stroke="#0000FF" stroke-width="1px"/>
<line x1="106.2" y1="71.4" x2="107" y2="72.7" stroke="#0000FF" stroke-width="1px"/>
<line x1="107" y1="72.7" x2="108.2" y2="73.6" stroke="#0000FF" stroke-width="1px"/>
<line x1="108.2" y1="73.6" x2="109.7" y2="74" stroke="#0000FF" stroke-width="1px"/>
</g>
<g id = "BMAJOSLV" >
<line x1="70" y1="84" x2="71.5" y2="83.7" stroke="#0000FF" stroke-width="1px"/>
<line x1="71.5" y1="83.7" x2="72.8" y2="82.9" stroke="#0000FF" stroke-width="1px"/>
<line x1="72.8" y1="82.9" x2="73.7" y2="81.6" stroke="#0000FF" stroke-width="1px"/>
<line x1="73.7" y1="81.6" x2="74" y2="80.1" stroke="#0000FF" stroke-width="1px"/>
<line x1="74" y1="80.1" x2="73.8" y2="78.6" stroke="#0000FF" stroke-width="1px"/>
<line x1="73.8" y1="78.6" x2="73" y2="77.3" stroke="#0000FF" stroke-width="1px"/>
<line x1="73" y1="77.3" x2="71.8" y2="76.4" stroke="#0000FF" stroke-width="1px"/>
<line x1="71.8" y1="76.4" x2="70.3" y2="76" stroke="#0000FF" stroke-width="1px"/>
</g>
<g id = "EVIYSJLQ" >
<line x1="110" y1="76" x2="108.5" y2="76.3" stroke="#0000FF" stroke-width="1px"/>
<line x1="108.5" y1="76.3" x2="107.2" y2="77.1" stroke="#0000FF" stroke-width="1px"/>
<line x1="107.2" y1="77.1" x2="106.3" y2="78.4" stroke="#0000FF" stroke-width="1px"/>
<line x1="106.3" y1="78.4" x2="106" y2="79.9" stroke="#0000FF" stroke-width="1px"/>
<line x1="106" y1="79.9" x2="106.2" y2="81.4" stroke="#0000FF" stroke-width="1px"/>
<line x1="106.2" y1="81.4" x2="107" y2="82.7" stroke="#0000FF" stroke-width="1px"/>
<line x1="107" y1="82.7" x2="108.2" y2="83.6" stroke="#0000FF" stroke-width="1px"/>
<line x1="108.2" y1="83.6" x2="109.7" y2="84" stroke="#0000FF" stroke-width="1px"/>
</g>
<g id = "NSHZJSPN" >
<line x1="70" y1="94" x2="71.5" y2="93.7" stroke="#0000FF" stroke-width="1px"/>
<line x1="71.5" y1="93.7" x2="72.8" y2="92.9" stroke="#0000FF" stroke-width="1px"/>
<line x1="72.8" y1="92.9" x2="73.7" y2="91.6" stroke="#0000FF" stroke-width="1px"/>
<line x1="73.7" y1="91.6" x2="74" y2="90.1" stroke="#0000FF" stroke-width="1px"/>
<line x1="74" y1="90.1" x2="73.8" y2="88.6" stroke="#0000FF" stroke-width="1px"/>
<line x1="73.8" y1="88.6" x2="73" y2="87.3" stroke="#0000FF" stroke-width="1px"/>
<line x1="73" y1="87.3" x2="71.8" y2="86.4" stroke="#0000FF" stroke-width="1px"/>
<line x1="71.8" y1="86.4" x2="70.3" y2="86" stroke="#0000FF" stroke-width="1px"/>
</g>
<g id = "AZFLYWHC" >
<line x1="110" y1="86" x2="108.5" y2="86.3" stroke="#0000FF" stroke-width="1px"/>
<line x1="108.5" y1="86.3" x2="107.2" y2="87.1" stroke="#0000FF" stroke-width="1px"/>
<line x1="107.2" y1="87.1" x2="106.3" y2="88.4" stroke="#0000FF" stroke-width="1px"/>
<line x1="106.3" y1="88.4" x2="106" y2="89.9" stroke="#0000FF" stroke-width="1px"/>
<line x1="106" y1="89.9" x2="106.2" y2="91.4" stroke="#0000FF" stroke-width="1px"/>
<line x1="106.2" y1="91.4" x2="107" y2="92.7" stroke="#0000FF" stroke-width="1px"/>
<line x1="107" y1="92.7" x2="108.2" y2="93.6" stroke="#0000FF" stroke-width="1px"/>
<line x1="108.2" y1="93.6" x2="109.7" y2="94" stroke="#0000FF" stroke-width="1px"/>
</g>
<g id = "SVNWLBJC" >
<line x1="70" y1="104" x2="71.5" y2="103.7" stroke="#0000FF" stroke-width="1px"/>
<line x1="71.5" y1="103.7" x2="72.8" y2="102.9" stroke="#0000FF" stroke-width="1px"/>
<line x1="72.8" y1="102.9" x2="73.7" y2="101.6" stroke="#0000FF" stroke-width="1px"/>
<line x1="73.7" y1="101.6" x2="74" y2="100.1" stroke="#0000FF" stroke-width="1px"/>
<line x1="74" y1="100.1" x2="73.8" y2="98.6" stroke="#0000FF" stroke-width="1px"/>
<line x1="73.8" y1="98.6" x2="73" y2="97.3" stroke="#0000FF" stroke-width="1px"/>
<line x1="73" y1="97.3" x2="71.8" y2="96.4" stroke="#0000FF" stroke-width="1px"/>
<line x1="71.8" y1="96.4" x2="70.3" y2="96" stroke="#0000FF" stroke-width="1px"/>
</g>
<g id = "TGTFJQHN" >
<line x1="110" y1="96" x2="108.5" y2="96.3" stroke="#0000FF" stroke-width="1px"/>
<line x1="108.5" y1="96.3" x2="107.2" y2="97.1" stroke="#0000FF" stroke-width="1px"/>
<line x1="107.2" y1="97.1" x2="106.3" y2="98.4" stroke="#0000FF" stroke-width="1px"/>
<line x1="106.3" y1="98.4" x2="106" y2="99.9" stroke="#0000FF" stroke-width="1px"/>
<line x1="106" y1="99.9" x2="106.2" y2="101.4" stroke="#0000FF" stroke-width="1px"/>
<line x1="106.2" y1="101.4" x2="107" y2="102.7" stroke="#0000FF" stroke-width="1px"/>
<line x1="107" y1="102.7" x2="108.2" y2="103.6" stroke="#0000FF" stroke-width="1px"/>
<line x1="108.2" y1="103.6" x2="109.7" y2="104" stroke="#0000FF" stroke-width="1px"/>
</g>
<g id = "EDNITREC" >
<line x1="70" y1="114" x2="71.5" y2="113.7" stroke="#0000FF" stroke-width="1px"/>
<line x1="71.5" y1="113.7" x2="72.8" y2="112.9" stroke="#0000FF" stroke-width="1px"/>
<line x1="72.8" y1="112.9" x2="73.7" y2="111.6" stroke="#0000FF" stroke-width="1px"/>
<line x1="73.7" y1="111.6" x2="74" y2="110.1" stroke="#0000FF" stroke-width="1px"/>
<line x1="74" y1="110.1" x2="73.8" y2="108.6" stroke="#0000FF" stroke-width="1px"/>
<line x1="73.8" y1="108.6" x2="73" y2="107.3" stroke="#0000FF" stroke-width="1px"/>
<line x1="73" y1="107.3" x2="71.8" y2="106.4" stroke="#0000FF" stroke-width="1px"/>
<line x1="71.8" y1="106.4" x2="70.3" y2="106" stroke="#0000FF" stroke-width="1px"/>
</g>
<g id = "MJNLUNWQ" >
<line x1="110" y1="106" x2="108.5" y2="106.3" stroke="#0000FF" stroke-width="1px"/>
<line x1="108.5" y1="106.3" x2="107.2" y2="107.1" stroke="#0000FF" stroke-width="1px"/>
<line x1="107.2" y1="107.1" x2="106.3" y2="108.4" stroke="#0000FF" stroke-width="1px"/>
<line x1="106.3" y1="108.4" x2="106" y2="109.9" stroke="#0000FF" stroke-width="1px"/>
<line x1="106" y1="109.9" x2="106.2" y2="111.4" stroke="#0000FF" stroke-width="1px"/>
<line x1="106.2" y1="111.4" x2="107" y2="112.7" stroke="#0000FF" stroke-width="1px"/>
<line x1="107" y1="112.7" x2="108.2" y2="113.6" stroke="#0000FF" stroke-width="1px"/>
<line x1="108.2" y1="113.6" x2="109.7" y2="114" stroke="#0000FF" stroke-width="1px"/>
</g>
<g id = "JEYYVDPX" >
<line x1="70" y1="124" x2="71.5" y2="123.7" stroke="#0000FF" stroke-width="1px"/>
<line x1="71.5" y1="123.7" x2="72.8" y2="122.9" stroke="#0000FF" stroke-width="1px"/>
<line x1="72.8" y1="122.9" x2="73.7" y2="121.6" stroke="#0000FF" stroke-width="1px"/>
<line x1="73.7" y1="121.6" x2="74" y2="120.1" stroke="#0000FF" stroke-width="1px"/>
<line x1="74" y1="120.1" x2="73.8" y2="118.6" stroke="#0000FF" stroke-width="1px"/>
<line x1="73.8" y1="118.6" x2="73" y2="117.3" stroke="#0000FF" stroke-width="1px"/>
<line x1="73" y1="117.3" x2="71.8" y2="116.4" stroke="#0000FF" stroke-width="1px"/>
<line x1="71.8" y1="116.4" x2="70.3" y2="116" stroke="#0000FF" stroke-width="1px"/>
</g>
<g id = "TOSGVVCU" >
<line x1="110" y1="116" x2="108.5" y2="116.3" stroke="#0000FF" stroke-width="1px"/>
<line x1="108.5" y1="116.3" x2="107.2" y2="117.1" stroke="#0000FF" stroke-width="1px"/>
<line x1="107.2" y1="117.1" x2="106.3" y2="118.4" stroke="#0000FF" stroke-width="1px"/>
<line x1="106.3" y1="118.4" x2="106" y2="119.9" stroke="#0000FF" stroke-width="1px"/>
<line x1="106" y1="119.9" x2="106.2" y2="121.4" stroke="#0000FF" stroke-width="1px"/>
<line x1="106.2" y1="121.4" x2="107" y2="122.7" stroke="#0000FF" stroke-width="1px"/>
<line x1="107" y1="122.7" x2="108.2" y2="123.6" stroke="#0000FF" stroke-width="1px"/>
<line x1="108.2" y1="123.6" x2="109.7" y2="124" stroke="#0000FF" stroke-width="1px"/>
</g>
<g id = "VBUMRVUF" >
<line x1="70" y1="134" x2="71.5" y2="133.7" stroke="#0000FF" stroke-width="1px"/>
<line x1="71.5" y1="133.7" x2="72.8" y2="132.9" stroke="#0000FF" stroke-width="1px"/>
<line x1="72.8" y1="132.9" x2="73.7" y2="131.6" stroke="#0000FF" stroke-width="1px"/>
<line x1="73.7" y1="131.6" x2="74" y2="130.1" stroke="#0000FF" stroke-width="1px"/>
<line x1="74" y1="130.1" x2="73.8" y2="128.6" stroke="#0000FF" stroke-width="1px"/>
<line x1="73.8" y1="128.6" x2="73" y2="127.3" stroke="#0000FF" stroke-width="1px"/>
<line x1="73" y1="127.3" x2="71.8" y2="126.4" stroke="#0000FF" stroke-width="1px"/>
<line x1="71.8" y1="126.4" x2="70.3" y2="126" stroke="#0000FF" stroke-width="1px"/>
</g>
<g id = "EQSHSCFP" >
<line x1="110" y1="126" x2="108.5" y2="126.3" stroke="#0000FF" stroke-width="1px"/>
<line x1="108.5" y1="126.3" x2="107.2" y2="127.1" stroke="#0000FF" stroke-width="1px"/>
<line x1="107.2" y1="127.1" x2="106.3" y2="128.4" stroke="#0000FF" stroke-width="1px"/>
<line x1="106.3" y1="128.4" x2="106" y2="129.9" stroke="#0000FF" stroke-width="1px"/>
<line x1="106" y1="129.9" x2="106.2" y2="131.4" stroke="#0000FF" stroke-width="1px"/>
<line x1="106.2" y1="131.4" x2="107" y2="132.7" stroke="#0000FF" stroke-width="1px"/>
<line x1="107" y1="132.7" x2="108.2" y2="133.6" stroke="#0000FF" stroke-width="1px"/>
<line x1="108.2" y1="133.6" x2="109.7" y2="134" stroke="#0000FF" stroke-width="1px"/>
</g>
<g id = "CEIYLNSD" >
<line x1="70" y1="144" x2="71.5" y2="143.7" stroke="#0000FF" stroke-width="1px"/>
<line x1="71.5" y1="143.7" x2="72.8" y2="142.9" stroke="#0000FF" stroke-width="1px"/>
<line x1="72.8" y1="142.9" x2="73.7" y2="141.6" stroke="#0000FF" stroke-width="1px"/>
<line x1="73.7" y1="141.6" x2="74" y2="140.1" stroke="#0000FF" stroke-width="1px"/>
<line x1="74" y1="140.1" x2="73.8" y2="138.6" stroke="#0000FF" stroke-width="1px"/>
<line x1="73.8" y1="138.6" x2="73" y2="137.3" stroke="#0000FF" stroke-width="1px"/>
<line x1="73" y1="137.3" x2="71.8" y2="136.4" stroke="#0000FF" stroke-width="1px"/>
<line x1="71.8" y1="136.4" x2="70.3" y2="136" stroke="#0000FF" stroke-width="1px"/>
</g>
<g id = "RPFYHXNK" >
<line x1="110" y1="136" x2="108.5" y2="136.3" stroke="#0000FF" stroke-width="1px"/>
<line x1="108.5" y1="136.3" x2="107.2" y2="137.1" stroke="#0000FF" stroke-width="1px"/>
<line x1="107.2" y1="137.1" x2="106.3" y2="138.4" stroke="#0000FF" stroke-width="1px"/>
<line x1="106.3" y1="138.4" x2="106" y2="139.9" stroke="#0000FF" stroke-width="1px"/>
<line x1="106" y1="139.9" x2="106.2" y2="141.4" stroke="#0000FF" stroke-width="1px"/>
<line x1="106.2" y1="141.4" x2="107" y2="142.7" stroke="#0000FF" stroke-width="1px"/>
<line x1="107" y1="142.7" x2="108.2" y2="143.6" stroke="#0000FF" stroke-width="1px"/>
<line x1="108.2" y1="143.6" x2="109.7" y2="144" stroke="#0000FF" stroke-width="1px"/>
</g>
<g id = "LRWJXZFG" >
<line x1="70" y1="154" x2="71.5" y2="153.7" stroke="#0000FF" stroke-width="1px"/>
<line x1="71.5" y1="153.7" x2="72.8" y2="152.9" stroke="#0000FF" stroke-width="1px"/>
<line x1="72.8" y1="152.9" x2="73.7" y2="151.6" stroke="#0000FF" stroke-width="1px"/>
<line x1="73.7" y1="151.6" x2="74" y2="150.1" stroke="#0000FF" stroke-width="1px"/>
<line x1="74" y1="150.1" x2="73.8" y2="148.6" stroke="#0000FF" stroke-width="1px"/>
<line x1="73.8" y1="148.6" x2="73" y2="147.3" stroke="#0000FF" stroke-width="1px"/>
<line x1="73" y1="147.3" x2="71.8" y2="146.4" stroke="#0000FF" stroke-width="1px"/>
<line x1="71.8" y1="146.4" x2="70.3" y2="146" stroke="#0000FF" stroke-width="1px"/>
</g>
<g id = "XQXNCAFL" >
<line x1="110" y1="146" x2="108.5" y2="146.3" stroke="#0000FF" stroke-width="1px"/>
<line x1="108.5" y1="146.3" x2="107.2" y2="147.1" stroke="#0000FF" stroke-width="1px"/>
<line x1="107.2" y1="147.1" x2="106.3" y2="148.4" stroke="#0000FF" stroke-width="1px"/>
<line x1="106.3" y1="148.4" x2="106" y2="149.9" stroke="#0000FF" stroke-width="1px"/>
<line x1="106" y1="149.9" x2="106.2" y2="151.4" stroke="#0000FF" stroke-width="1px"/>
<line x1="106.2" y1="151.4" x2="107" y2="152.7" stroke="#0000FF" stroke-width="1px"/>
<line x1="107" y1="152.7" x2="108.2" y2="153.6" stroke="#0000FF" stroke-width="1px"/>
<line x1="108.2" y1="153.6" x2="109.7" y2="154" stroke="#0000FF" stroke-width="1px"/>
</g>
<g id = "NVKUGFBK" >
<line x1="70" y1="60" x2="50" y2="60" stroke="#000000" stroke-width="1px"/>
<text x="77" y="63" font-size="8.888889px" font-family="Times New Roman" fill="#000000" xml:space="preserve">1</text>
</g>
<g id = "DRWKUYJM" >
<line x1="70" y1="70" x2="50" y2="70" stroke="#000000" stroke-width="1px"/>
<text x="77" y="73" font-size="8.888889px" font-family="Times New Roman" fill="#000000" xml:space="preserve">2</text>
</g>
<g id = "IGTSEFPE" >
<line x1="70" y1="80" x2="50" y2="80" stroke="#000000" stroke-width="1px"/>
<text x="77" y="83" font-size="8.888889px" font-family="Times New Roman" fill="#000000" xml:space="preserve">3</text>
</g>
<g id = "LRWSHFXW" >
<line x1="70" y1="90" x2="50" y2="90" stroke="#000000" stroke-width="1px"/>
<text x="77" y="93" font-size="8.888889px" font-family="Times New Roman" fill="#000000" xml:space="preserve">4</text>
</g>
<g id = "JKYJADCL" >
<line x1="70" y1="100" x2="50" y2="100" stroke="#000000" stroke-width="1px"/>
<text x="77" y="103" font-size="8.888889px" font-family="Times New Roman" fill="#000000" xml:space="preserve">5</text>
</g>
<g id = "BYQEVVSL" >
<line x1="70" y1="110" x2="50" y2="110" stroke="#000000" stroke-width="1px"/>
<text x="77" y="113" font-size="8.888889px" font-family="Times New Roman" fill="#000000" xml:space="preserve">6</text>
</g>
<g id = "MYKLLSHH" >
<line x1="70" y1="120" x2="50" y2="120" stroke="#000000" stroke-width="1px"/>
<text x="77" y="123" font-size="8.888889px" font-family="Times New Roman" fill="#000000" xml:space="preserve">7</text>
</g>
<g id = "AOKGMBKM" >
<line x1="70" y1="130" x2="50" y2="130" stroke="#000000" stroke-width="1px"/>
<text x="77" y="133" font-size="8.888889px" font-family="Times New Roman" fill="#000000" xml:space="preserve">8</text>
</g>
<g id = "YCAWVLXH" >
<line x1="70" y1="140" x2="50" y2="140" stroke="#000000" stroke-width="1px"/>
<text x="77" y="143" font-size="8.888889px" font-family="Times New Roman" fill="#000000" xml:space="preserve">9</text>
</g>
<g id = "OWBBGRLG" >
<line x1="70" y1="150" x2="50" y2="150" stroke="#000000" stroke-width="1px"/>
<text x="77" y="153" font-size="8.888889px" font-family="Times New Roman" fill="#000000" xml:space="preserve">10</text>
</g>
<g id = "SUKVOQZS" >
<line x1="110" y1="60" x2="130" y2="60" stroke="#000000" stroke-width="1px"/>
<text x="93.1111" y="63" font-size="8.888889px" font-family="Times New Roman" fill="#000000" xml:space="preserve">11</text>
</g>
<g id = "ZALDMEYN" >
<line x1="110" y1="70" x2="130" y2="70" stroke="#000000" stroke-width="1px"/>
<text x="93.1111" y="73" font-size="8.888889px" font-family="Times New Roman" fill="#000000" xml:space="preserve">12</text>
</g>
<g id = "VTPXZRBV" >
<line x1="110" y1="80" x2="130" y2="80" stroke="#000000" stroke-width="1px"/>
<text x="93.1111" y="83" font-size="8.888889px" font-family="Times New Roman" fill="#000000" xml:space="preserve">13</text>
</g>
<g id = "WLSTWLFL" >
<line x1="110" y1="90" x2="130" y2="90" stroke="#000000" stroke-width="1px"/>
<text x="93.1111" y="93" font-size="8.888889px" font-family="Times New Roman" fill="#000000" xml:space="preserve">14</text>
</g>
<g id = "JISYOSYU" >
<line x1="110" y1="100" x2="130" y2="100" stroke="#000000" stroke-width="1px"/>
<text x="93.1111" y="103" font-size="8.888889px" font-family="Times New Roman" fill="#000000" xml:space="preserve">15</text>
</g>
<g id = "FKSZOPWP" >
<line x1="110" y1="110" x2="130" y2="110" stroke="#000000" stroke-width="1px"/>
<text x="93.1111" y="113" font-size="8.888889px" font-family="Times New Roman" fill="#000000" xml:space="preserve">16</text>
</g>
<g id = "UDAHXYXR" >
<line x1="110" y1="120" x2="130" y2="120" stroke="#000000" stroke-width="1px"/>
<text x="93.1111" y="123" font-size="8.888889px" font-family="Times New Roman" fill="#000000" xml:space="preserve">17</text>
</g>
<g id = "GLVFGCZX" >
<line x1="110" y1="130" x2="130" y2="130" stroke="#000000" stroke-width="1px"/>
<text x="93.1111" y="133" font-size="8.888889px" font-family="Times New Roman" fill="#000000" xml:space="preserve">18</text>
</g>
<g id = "DAQKJMXR" >
<line x1="110" y1="140" x2="130" y2="140" stroke="#000000" stroke-width="1px"/>
<text x="93.1111" y="143" font-size="8.888889px" font-family="Times New Roman" fill="#000000" xml:space="preserve">19</text>
</g>
<g id = "SSLWRKQV" >
<line x1="110" y1="150" x2="130" y2="150" stroke="#000000" stroke-width="1px"/>
<text x="93.1111" y="153" font-size="8.888889px" font-family="Times New Roman" fill="#000000" xml:space="preserve">20</text>
</g>
</g>
</g>
</g>
</g>
</svg>