<?xml version="1.0"  encoding="UTF-8" standalone="no"?>
<svg version="1.1" xmlns="http://www.w3.org/2000/svg" xmlns:xlink="http://www.w3.org/1999/xlink" stroke-linecap="round" stroke-linejoin="round" fill="none" width="180" height="820" viewBox="0 0 180 820" data-doc-id="symbol-Jumper 71X2" data-doc-ver="2">
<g id = "scene" >
<g id = "DocumentMainGroup" >
<g id = "BackgroundGroup" >
<rect x = "0" y="0" width="180" height="820" fill="#FFFFFF" fill-opacity="1"/>
</g>
<g id = "symbol-Jumper 71X2" >
<g id = "DocumentItemsGroup" >
<g id = "SCCIYOFK" >
<rect x = "70" y="50" width="40" height="720" stroke="#0000FF" stroke-width="1px"/>
</g>
<g id = "LHDRJSKJ" >
<line x1="70" y1="60" x2="50" y2="60" stroke="#000000" stroke-width="1px"/>
<text x="77" y="63" font-size="8.888889px" font-family="Times New Roman" fill="#000000" xml:space="preserve">1</text>
</g>
<g id = "BANSIIEH" >
<line x1="110" y1="60" x2="130" y2="60" stroke="#000000" stroke-width="1px"/>
<text x="98.0556" y="63" font-size="8.888889px" font-family="Times New Roman" fill="#000000" xml:space="preserve">2</text>
</g>
<g id = "MFOEGICS" >
<line x1="70" y1="70" x2="50" y2="70" stroke="#000000" stroke-width="1px"/>
<text x="77" y="73" font-size="8.888889px" font-family="Times New Roman" fill="#000000" xml:space="preserve">3</text>
</g>
<g id = "YDZNBBJX" >
<line x1="110" y1="70" x2="130" y2="70" stroke="#000000" stroke-width="1px"/>
<text x="98.0556" y="73" font-size="8.888889px" font-family="Times New Roman" fill="#000000" xml:space="preserve">4</text>
</g>
<g id = "TPLRNYPK" >
<line x1="70" y1="80" x2="50" y2="80" stroke="#000000" stroke-width="1px"/>
<text x="77" y="83" font-size="8.888889px" font-family="Times New Roman" fill="#000000" xml:space="preserve">5</text>
</g>
<g id = "YFUDDLIJ" >
<line x1="110" y1="80" x2="130" y2="80" stroke="#000000" stroke-width="1px"/>
<text x="98.0556" y="83" font-size="8.888889px" font-family="Times New Roman" fill="#000000" xml:space="preserve">6</text>
</g>
<g id = "VKJTFAEG" >
<line x1="70" y1="90" x2="50" y2="90" stroke="#000000" stroke-width="1px"/>
<text x="77" y="93" font-size="8.888889px" font-family="Times New Roman" fill="#000000" xml:space="preserve">7</text>
</g>
<g id = "LTOJSHSW" >
<line x1="110" y1="90" x2="130" y2="90" stroke="#000000" stroke-width="1px"/>
<text x="98.0556" y="93" font-size="8.888889px" font-family="Times New Roman" fill="#000000" xml:space="preserve">8</text>
</g>
<g id = "EZXTEQIE" >
<line x1="70" y1="100" x2="50" y2="100" stroke="#000000" stroke-width="1px"/>
<text x="77" y="103" font-size="8.888889px" font-family="Times New Roman" fill="#000000" xml:space="preserve">9</text>
</g>
<g id = "CSFIBRWO" >
<line x1="110" y1="100" x2="130" y2="100" stroke="#000000" stroke-width="1px"/>
<text x="93.1111" y="103" font-size="8.888889px" font-family="Times New Roman" fill="#000000" xml:space="preserve">10</text>
</g>
<g id = "FRTNFBLF" >
<line x1="70" y1="110" x2="50" y2="110" stroke="#000000" stroke-width="1px"/>
<text x="77" y="113" font-size="8.888889px" font-family="Times New Roman" fill="#000000" xml:space="preserve">11</text>
</g>
<g id = "DBERTMGB" >
<line x1="110" y1="110" x2="130" y2="110" stroke="#000000" stroke-width="1px"/>
<text x="93.1111" y="113" font-size="8.888889px" font-family="Times New Roman" fill="#000000" xml:space="preserve">12</text>
</g>
<g id = "FHPSEKUS" >
<line x1="70" y1="120" x2="50" y2="120" stroke="#000000" stroke-width="1px"/>
<text x="77" y="123" font-size="8.888889px" font-family="Times New Roman" fill="#000000" xml:space="preserve">13</text>
</g>
<g id = "KMJSDJDD" >
<line x1="110" y1="120" x2="130" y2="120" stroke="#000000" stroke-width="1px"/>
<text x="93.1111" y="123" font-size="8.888889px" font-family="Times New Roman" fill="#000000" xml:space="preserve">14</text>
</g>
<g id = "EQFWIKRF" >
<line x1="70" y1="130" x2="50" y2="130" stroke="#000000" stroke-width="1px"/>
<text x="77" y="133" font-size="8.888889px" font-family="Times New Roman" fill="#000000" xml:space="preserve">15</text>
</g>
<g id = "AOCHGFWG" >
<line x1="110" y1="130" x2="130" y2="130" stroke="#000000" stroke-width="1px"/>
<text x="93.1111" y="133" font-size="8.888889px" font-family="Times New Roman" fill="#000000" xml:space="preserve">16</text>
</g>
<g id = "DJDEIZSK" >
<line x1="70" y1="140" x2="50" y2="140" stroke="#000000" stroke-width="1px"/>
<text x="77" y="143" font-size="8.888889px" font-family="Times New Roman" fill="#000000" xml:space="preserve">17</text>
</g>
<g id = "CKGAMYZK" >
<line x1="110" y1="140" x2="130" y2="140" stroke="#000000" stroke-width="1px"/>
<text x="93.1111" y="143" font-size="8.888889px" font-family="Times New Roman" fill="#000000" xml:space="preserve">18</text>
</g>
<g id = "OZENXKXK" >
<line x1="70" y1="150" x2="50" y2="150" stroke="#000000" stroke-width="1px"/>
<text x="77" y="153" font-size="8.888889px" font-family="Times New Roman" fill="#000000" xml:space="preserve">19</text>
</g>
<g id = "WXVYIXNQ" >
<line x1="110" y1="150" x2="130" y2="150" stroke="#000000" stroke-width="1px"/>
<text x="93.1111" y="153" font-size="8.888889px" font-family="Times New Roman" fill="#000000" xml:space="preserve">20</text>
</g>
<g id = "JSRVSPSK" >
<line x1="70" y1="160" x2="50" y2="160" stroke="#000000" stroke-width="1px"/>
<text x="77" y="163" font-size="8.888889px" font-family="Times New Roman" fill="#000000" xml:space="preserve">21</text>
</g>
<g id = "SVPMIHHW" >
<line x1="110" y1="160" x2="130" y2="160" stroke="#000000" stroke-width="1px"/>
<text x="93.1111" y="163" font-size="8.888889px" font-family="Times New Roman" fill="#000000" xml:space="preserve">22</text>
</g>
<g id = "HHOPUJBT" >
<line x1="70" y1="170" x2="50" y2="170" stroke="#000000" stroke-width="1px"/>
<text x="77" y="173" font-size="8.888889px" font-family="Times New Roman" fill="#000000" xml:space="preserve">23</text>
</g>
<g id = "TNHJYYUQ" >
<line x1="110" y1="170" x2="130" y2="170" stroke="#000000" stroke-width="1px"/>
<text x="93.1111" y="173" font-size="8.888889px" font-family="Times New Roman" fill="#000000" xml:space="preserve">24</text>
</g>
<g id = "ATQLFZTO" >
<line x1="70" y1="180" x2="50" y2="180" stroke="#000000" stroke-width="1px"/>
<text x="77" y="183" font-size="8.888889px" font-family="Times New Roman" fill="#000000" xml:space="preserve">25</text>
</g>
<g id = "XYGSKFRV" >
<line x1="110" y1="180" x2="130" y2="180" stroke="#000000" stroke-width="1px"/>
<text x="93.1111" y="183" font-size="8.888889px" font-family="Times New Roman" fill="#000000" xml:space="preserve">26</text>
</g>
<g id = "VJVGCZBT" >
<line x1="70" y1="190" x2="50" y2="190" stroke="#000000" stroke-width="1px"/>
<text x="77" y="193" font-size="8.888889px" font-family="Times New Roman" fill="#000000" xml:space="preserve">27</text>
</g>
<g id = "EMTPCJDV" >
<line x1="110" y1="190" x2="130" y2="190" stroke="#000000" stroke-width="1px"/>
<text x="93.1111" y="193" font-size="8.888889px" font-family="Times New Roman" fill="#000000" xml:space="preserve">28</text>
</g>
<g id = "GKYQDBHI" >
<line x1="70" y1="200" x2="50" y2="200" stroke="#000000" stroke-width="1px"/>
<text x="77" y="203" font-size="8.888889px" font-family="Times New Roman" fill="#000000" xml:space="preserve">29</text>
</g>
<g id = "FDVAPIRW" >
<line x1="110" y1="200" x2="130" y2="200" stroke="#000000" stroke-width="1px"/>
<text x="93.1111" y="203" font-size="8.888889px" font-family="Times New Roman" fill="#000000" xml:space="preserve">30</text>
</g>
<g id = "GUDWROKA" >
<line x1="70" y1="210" x2="50" y2="210" stroke="#000000" stroke-width="1px"/>
<text x="77" y="213" font-size="8.888889px" font-family="Times New Roman" fill="#000000" xml:space="preserve">31</text>
</g>
<g id = "WNTDTHJM" >
<line x1="110" y1="210" x2="130" y2="210" stroke="#000000" stroke-width="1px"/>
<text x="93.1111" y="213" font-size="8.888889px" font-family="Times New Roman" fill="#000000" xml:space="preserve">32</text>
</g>
<g id = "SQFTHZLF" >
<line x1="70" y1="220" x2="50" y2="220" stroke="#000000" stroke-width="1px"/>
<text x="77" y="223" font-size="8.888889px" font-family="Times New Roman" fill="#000000" xml:space="preserve">33</text>
</g>
<g id = "MUJZHVSZ" >
<line x1="110" y1="220" x2="130" y2="220" stroke="#000000" stroke-width="1px"/>
<text x="93.1111" y="223" font-size="8.888889px" font-family="Times New Roman" fill="#000000" xml:space="preserve">34</text>
</g>
<g id = "JVYHHRLQ" >
<line x1="70" y1="230" x2="50" y2="230" stroke="#000000" stroke-width="1px"/>
<text x="77" y="233" font-size="8.888889px" font-family="Times New Roman" fill="#000000" xml:space="preserve">35</text>
</g>
<g id = "TDCANENK" >
<line x1="110" y1="230" x2="130" y2="230" stroke="#000000" stroke-width="1px"/>
<text x="93.1111" y="233" font-size="8.888889px" font-family="Times New Roman" fill="#000000" xml:space="preserve">36</text>
</g>
<g id = "QCCXKCTT" >
<line x1="70" y1="240" x2="50" y2="240" stroke="#000000" stroke-width="1px"/>
<text x="77" y="243" font-size="8.888889px" font-family="Times New Roman" fill="#000000" xml:space="preserve">37</text>
</g>
<g id = "GINBFKVX" >
<line x1="110" y1="240" x2="130" y2="240" stroke="#000000" stroke-width="1px"/>
<text x="93.1111" y="243" font-size="8.888889px" font-family="Times New Roman" fill="#000000" xml:space="preserve">38</text>
</g>
<g id = "QXVAPQUM" >
<line x1="70" y1="250" x2="50" y2="250" stroke="#000000" stroke-width="1px"/>
<text x="77" y="253" font-size="8.888889px" font-family="Times New Roman" fill="#000000" xml:space="preserve">39</text>
</g>
<g id = "JORDCEXL" >
<line x1="110" y1="250" x2="130" y2="250" stroke="#000000" stroke-width="1px"/>
<text x="93.1111" y="253" font-size="8.888889px" font-family="Times New Roman" fill="#000000" xml:space="preserve">40</text>
</g>
<g id = "CCPNTABE" >
<line x1="70" y1="260" x2="50" y2="260" stroke="#000000" stroke-width="1px"/>
<text x="77" y="263" font-size="8.888889px" font-family="Times New Roman" fill="#000000" xml:space="preserve">41</text>
</g>
<g id = "RNCLLDXW" >
<line x1="110" y1="260" x2="130" y2="260" stroke="#000000" stroke-width="1px"/>
<text x="93.1111" y="263" font-size="8.888889px" font-family="Times New Roman" fill="#000000" xml:space="preserve">42</text>
</g>
<g id = "ZXXFGGZU" >
<line x1="70" y1="270" x2="50" y2="270" stroke="#000000" stroke-width="1px"/>
<text x="77" y="273" font-size="8.888889px" font-family="Times New Roman" fill="#000000" xml:space="preserve">43</text>
</g>
<g id = "AHIGXCMB" >
<line x1="110" y1="270" x2="130" y2="270" stroke="#000000" stroke-width="1px"/>
<text x="93.1111" y="273" font-size="8.888889px" font-family="Times New Roman" fill="#000000" xml:space="preserve">44</text>
</g>
<g id = "YQUFRQBT" >
<line x1="70" y1="280" x2="50" y2="280" stroke="#000000" stroke-width="1px"/>
<text x="77" y="283" font-size="8.888889px" font-family="Times New Roman" fill="#000000" xml:space="preserve">45</text>
</g>
<g id = "NTVBJQLD" >
<line x1="110" y1="280" x2="130" y2="280" stroke="#000000" stroke-width="1px"/>
<text x="93.1111" y="283" font-size="8.888889px" font-family="Times New Roman" fill="#000000" xml:space="preserve">46</text>
</g>
<g id = "OGRSYORR" >
<line x1="70" y1="290" x2="50" y2="290" stroke="#000000" stroke-width="1px"/>
<text x="77" y="293" font-size="8.888889px" font-family="Times New Roman" fill="#000000" xml:space="preserve">47</text>
</g>
<g id = "ITOVZXEE" >
<line x1="110" y1="290" x2="130" y2="290" stroke="#000000" stroke-width="1px"/>
<text x="93.1111" y="293" font-size="8.888889px" font-family="Times New Roman" fill="#000000" xml:space="preserve">48</text>
</g>
<g id = "XQLPAHGE" >
<line x1="70" y1="300" x2="50" y2="300" stroke="#000000" stroke-width="1px"/>
<text x="77" y="303" font-size="8.888889px" font-family="Times New Roman" fill="#000000" xml:space="preserve">49</text>
</g>
<g id = "NPTVJNBX" >
<line x1="110" y1="300" x2="130" y2="300" stroke="#000000" stroke-width="1px"/>
<text x="93.1111" y="303" font-size="8.888889px" font-family="Times New Roman" fill="#000000" xml:space="preserve">50</text>
</g>
<g id = "MIYRGXYS" >
<line x1="70" y1="310" x2="50" y2="310" stroke="#000000" stroke-width="1px"/>
<text x="77" y="313" font-size="8.888889px" font-family="Times New Roman" fill="#000000" xml:space="preserve">51</text>
</g>
<g id = "SPDLCTYY" >
<line x1="110" y1="310" x2="130" y2="310" stroke="#000000" stroke-width="1px"/>
<text x="93.1111" y="313" font-size="8.888889px" font-family="Times New Roman" fill="#000000" xml:space="preserve">52</text>
</g>
<g id = "FVCSTFUT" >
<line x1="70" y1="320" x2="50" y2="320" stroke="#000000" stroke-width="1px"/>
<text x="77" y="323" font-size="8.888889px" font-family="Times New Roman" fill="#000000" xml:space="preserve">53</text>
</g>
<g id = "HMVSZTRH" >
<line x1="110" y1="320" x2="130" y2="320" stroke="#000000" stroke-width="1px"/>
<text x="93.1111" y="323" font-size="8.888889px" font-family="Times New Roman" fill="#000000" xml:space="preserve">54</text>
</g>
<g id = "XPMIRGKK" >
<line x1="70" y1="330" x2="50" y2="330" stroke="#000000" stroke-width="1px"/>
<text x="77" y="333" font-size="8.888889px" font-family="Times New Roman" fill="#000000" xml:space="preserve">55</text>
</g>
<g id = "VMNCYBVQ" >
<line x1="110" y1="330" x2="130" y2="330" stroke="#000000" stroke-width="1px"/>
<text x="93.1111" y="333" font-size="8.888889px" font-family="Times New Roman" fill="#000000" xml:space="preserve">56</text>
</g>
<g id = "NGFOUQAP" >
<line x1="70" y1="340" x2="50" y2="340" stroke="#000000" stroke-width="1px"/>
<text x="77" y="343" font-size="8.888889px" font-family="Times New Roman" fill="#000000" xml:space="preserve">57</text>
</g>
<g id = "LMNBMRGX" >
<line x1="110" y1="340" x2="130" y2="340" stroke="#000000" stroke-width="1px"/>
<text x="93.1111" y="343" font-size="8.888889px" font-family="Times New Roman" fill="#000000" xml:space="preserve">58</text>
</g>
<g id = "RNNHWQDG" >
<line x1="70" y1="350" x2="50" y2="350" stroke="#000000" stroke-width="1px"/>
<text x="77" y="353" font-size="8.888889px" font-family="Times New Roman" fill="#000000" xml:space="preserve">59</text>
</g>
<g id = "YLCQSCZO" >
<line x1="110" y1="350" x2="130" y2="350" stroke="#000000" stroke-width="1px"/>
<text x="93.1111" y="353" font-size="8.888889px" font-family="Times New Roman" fill="#000000" xml:space="preserve">60</text>
</g>
<g id = "IQUYKQKX" >
<line x1="70" y1="360" x2="50" y2="360" stroke="#000000" stroke-width="1px"/>
<text x="77" y="363" font-size="8.888889px" font-family="Times New Roman" fill="#000000" xml:space="preserve">61</text>
</g>
<g id = "JNFHKSIE" >
<line x1="110" y1="360" x2="130" y2="360" stroke="#000000" stroke-width="1px"/>
<text x="93.1111" y="363" font-size="8.888889px" font-family="Times New Roman" fill="#000000" xml:space="preserve">62</text>
</g>
<g id = "BMPBOAFD" >
<line x1="70" y1="370" x2="50" y2="370" stroke="#000000" stroke-width="1px"/>
<text x="77" y="373" font-size="8.888889px" font-family="Times New Roman" fill="#000000" xml:space="preserve">63</text>
</g>
<g id = "UOFRBXBS" >
<line x1="110" y1="370" x2="130" y2="370" stroke="#000000" stroke-width="1px"/>
<text x="93.1111" y="373" font-size="8.888889px" font-family="Times New Roman" fill="#000000" xml:space="preserve">64</text>
</g>
<g id = "JQSQFSXD" >
<line x1="70" y1="380" x2="50" y2="380" stroke="#000000" stroke-width="1px"/>
<text x="77" y="383" font-size="8.888889px" font-family="Times New Roman" fill="#000000" xml:space="preserve">65</text>
</g>
<g id = "QEQIBGIN" >
<line x1="110" y1="380" x2="130" y2="380" stroke="#000000" stroke-width="1px"/>
<text x="93.1111" y="383" font-size="8.888889px" font-family="Times New Roman" fill="#000000" xml:space="preserve">66</text>
</g>
<g id = "YKEHXMAC" >
<line x1="70" y1="390" x2="50" y2="390" stroke="#000000" stroke-width="1px"/>
<text x="77" y="393" font-size="8.888889px" font-family="Times New Roman" fill="#000000" xml:space="preserve">67</text>
</g>
<g id = "LFJKAQER" >
<line x1="110" y1="390" x2="130" y2="390" stroke="#000000" stroke-width="1px"/>
<text x="93.1111" y="393" font-size="8.888889px" font-family="Times New Roman" fill="#000000" xml:space="preserve">68</text>
</g>
<g id = "VXSJWCYN" >
<line x1="70" y1="400" x2="50" y2="400" stroke="#000000" stroke-width="1px"/>
<text x="77" y="403" font-size="8.888889px" font-family="Times New Roman" fill="#000000" xml:space="preserve">69</text>
</g>
<g id = "VNBVEKOK" >
<line x1="110" y1="400" x2="130" y2="400" stroke="#000000" stroke-width="1px"/>
<text x="93.1111" y="403" font-size="8.888889px" font-family="Times New Roman" fill="#000000" xml:space="preserve">70</text>
</g>
<g id = "FRFJANXS" >
<line x1="70" y1="410" x2="50" y2="410" stroke="#000000" stroke-width="1px"/>
<text x="77" y="413" font-size="8.888889px" font-family="Times New Roman" fill="#000000" xml:space="preserve">71</text>
</g>
<g id = "DTUEKJPK" >
<line x1="110" y1="410" x2="130" y2="410" stroke="#000000" stroke-width="1px"/>
<text x="93.1111" y="413" font-size="8.888889px" font-family="Times New Roman" fill="#000000" xml:space="preserve">72</text>
</g>
<g id = "GVUHHYFX" >
<line x1="70" y1="420" x2="50" y2="420" stroke="#000000" stroke-width="1px"/>
<text x="77" y="423" font-size="8.888889px" font-family="Times New Roman" fill="#000000" xml:space="preserve">73</text>
</g>
<g id = "YMHKBQBN" >
<line x1="110" y1="420" x2="130" y2="420" stroke="#000000" stroke-width="1px"/>
<text x="93.1111" y="423" font-size="8.888889px" font-family="Times New Roman" fill="#000000" xml:space="preserve">74</text>
</g>
<g id = "BUEAVBQN" >
<line x1="70" y1="430" x2="50" y2="430" stroke="#000000" stroke-width="1px"/>
<text x="77" y="433" font-size="8.888889px" font-family="Times New Roman" fill="#000000" xml:space="preserve">75</text>
</g>
<g id = "VIMNRDQV" >
<line x1="110" y1="430" x2="130" y2="430" stroke="#000000" stroke-width="1px"/>
<text x="93.1111" y="433" font-size="8.888889px" font-family="Times New Roman" fill="#000000" xml:space="preserve">76</text>
</g>
<g id = "QJMGZEAO" >
<line x1="70" y1="440" x2="50" y2="440" stroke="#000000" stroke-width="1px"/>
<text x="77" y="443" font-size="8.888889px" font-family="Times New Roman" fill="#000000" xml:space="preserve">77</text>
</g>
<g id = "BYNJCNRB" >
<line x1="110" y1="440" x2="130" y2="440" stroke="#000000" stroke-width="1px"/>
<text x="93.1111" y="443" font-size="8.888889px" font-family="Times New Roman" fill="#000000" xml:space="preserve">78</text>
</g>
<g id = "BJEVDWGF" >
<line x1="70" y1="450" x2="50" y2="450" stroke="#000000" stroke-width="1px"/>
<text x="77" y="453" font-size="8.888889px" font-family="Times New Roman" fill="#000000" xml:space="preserve">79</text>
</g>
<g id = "STXFRFFZ" >
<line x1="110" y1="450" x2="130" y2="450" stroke="#000000" stroke-width="1px"/>
<text x="93.1111" y="453" font-size="8.888889px" font-family="Times New Roman" fill="#000000" xml:space="preserve">80</text>
</g>
<g id = "HYHLSODU" >
<line x1="70" y1="460" x2="50" y2="460" stroke="#000000" stroke-width="1px"/>
<text x="77" y="463" font-size="8.888889px" font-family="Times New Roman" fill="#000000" xml:space="preserve">81</text>
</g>
<g id = "TGMWMLTQ" >
<line x1="110" y1="460" x2="130" y2="460" stroke="#000000" stroke-width="1px"/>
<text x="93.1111" y="463" font-size="8.888889px" font-family="Times New Roman" fill="#000000" xml:space="preserve">82</text>
</g>
<g id = "YOIOTBJD" >
<line x1="70" y1="470" x2="50" y2="470" stroke="#000000" stroke-width="1px"/>
<text x="77" y="473" font-size="8.888889px" font-family="Times New Roman" fill="#000000" xml:space="preserve">83</text>
</g>
<g id = "WVUHEHEF" >
<line x1="110" y1="470" x2="130" y2="470" stroke="#000000" stroke-width="1px"/>
<text x="93.1111" y="473" font-size="8.888889px" font-family="Times New Roman" fill="#000000" xml:space="preserve">84</text>
</g>
<g id = "NOBTQJYJ" >
<line x1="70" y1="480" x2="50" y2="480" stroke="#000000" stroke-width="1px"/>
<text x="77" y="483" font-size="8.888889px" font-family="Times New Roman" fill="#000000" xml:space="preserve">85</text>
</g>
<g id = "RBFATNDC" >
<line x1="110" y1="480" x2="130" y2="480" stroke="#000000" stroke-width="1px"/>
<text x="93.1111" y="483" font-size="8.888889px" font-family="Times New Roman" fill="#000000" xml:space="preserve">86</text>
</g>
<g id = "QFFRDVVA" >
<line x1="70" y1="490" x2="50" y2="490" stroke="#000000" stroke-width="1px"/>
<text x="77" y="493" font-size="8.888889px" font-family="Times New Roman" fill="#000000" xml:space="preserve">87</text>
</g>
<g id = "NOETRNCT" >
<line x1="110" y1="490" x2="130" y2="490" stroke="#000000" stroke-width="1px"/>
<text x="93.1111" y="493" font-size="8.888889px" font-family="Times New Roman" fill="#000000" xml:space="preserve">88</text>
</g>
<g id = "EMBHTHBU" >
<line x1="70" y1="500" x2="50" y2="500" stroke="#000000" stroke-width="1px"/>
<text x="77" y="503" font-size="8.888889px" font-family="Times New Roman" fill="#000000" xml:space="preserve">89</text>
</g>
<g id = "MAOENRAV" >
<line x1="110" y1="500" x2="130" y2="500" stroke="#000000" stroke-width="1px"/>
<text x="93.1111" y="503" font-size="8.888889px" font-family="Times New Roman" fill="#000000" xml:space="preserve">90</text>
</g>
<g id = "DYBDMDLS" >
<line x1="70" y1="510" x2="50" y2="510" stroke="#000000" stroke-width="1px"/>
<text x="77" y="513" font-size="8.888889px" font-family="Times New Roman" fill="#000000" xml:space="preserve">91</text>
</g>
<g id = "LPBGTQNK" >
<line x1="110" y1="510" x2="130" y2="510" stroke="#000000" stroke-width="1px"/>
<text x="93.1111" y="513" font-size="8.888889px" font-family="Times New Roman" fill="#000000" xml:space="preserve">92</text>
</g>
<g id = "EPGEUNFW" >
<line x1="70" y1="520" x2="50" y2="520" stroke="#000000" stroke-width="1px"/>
<text x="77" y="523" font-size="8.888889px" font-family="Times New Roman" fill="#000000" xml:space="preserve">93</text>
</g>
<g id = "IBVACADE" >
<line x1="110" y1="520" x2="130" y2="520" stroke="#000000" stroke-width="1px"/>
<text x="93.1111" y="523" font-size="8.888889px" font-family="Times New Roman" fill="#000000" xml:space="preserve">94</text>
</g>
<g id = "QSYWUCMV" >
<line x1="70" y1="530" x2="50" y2="530" stroke="#000000" stroke-width="1px"/>
<text x="77" y="533" font-size="8.888889px" font-family="Times New Roman" fill="#000000" xml:space="preserve">95</text>
</g>
<g id = "BNZNPCLH" >
<line x1="110" y1="530" x2="130" y2="530" stroke="#000000" stroke-width="1px"/>
<text x="93.1111" y="533" font-size="8.888889px" font-family="Times New Roman" fill="#000000" xml:space="preserve">96</text>
</g>
<g id = "TWTGBVXC" >
<line x1="70" y1="540" x2="50" y2="540" stroke="#000000" stroke-width="1px"/>
<text x="77" y="543" font-size="8.888889px" font-family="Times New Roman" fill="#000000" xml:space="preserve">97</text>
</g>
<g id = "YZAMARTA" >
<line x1="110" y1="540" x2="130" y2="540" stroke="#000000" stroke-width="1px"/>
<text x="93.1111" y="543" font-size="8.888889px" font-family="Times New Roman" fill="#000000" xml:space="preserve">98</text>
</g>
<g id = "LFFTVIGY" >
<line x1="70" y1="550" x2="50" y2="550" stroke="#000000" stroke-width="1px"/>
<text x="77" y="553" font-size="8.888889px" font-family="Times New Roman" fill="#000000" xml:space="preserve">99</text>
</g>
<g id = "CSEVRDRO" >
<line x1="110" y1="550" x2="130" y2="550" stroke="#000000" stroke-width="1px"/>
<text x="88.1667" y="553" font-size="8.888889px" font-family="Times New Roman" fill="#000000" xml:space="preserve">100</text>
</g>
<g id = "ZZGBGJJS" >
<line x1="70" y1="560" x2="50" y2="560" stroke="#000000" stroke-width="1px"/>
<text x="77" y="563" font-size="8.888889px" font-family="Times New Roman" fill="#000000" xml:space="preserve">101</text>
</g>
<g id = "XAQYLNBC" >
<line x1="110" y1="560" x2="130" y2="560" stroke="#000000" stroke-width="1px"/>
<text x="88.1667" y="563" font-size="8.888889px" font-family="Times New Roman" fill="#000000" xml:space="preserve">102</text>
</g>
<g id = "MLUEVXJT" >
<line x1="70" y1="570" x2="50" y2="570" stroke="#000000" stroke-width="1px"/>
<text x="77" y="573" font-size="8.888889px" font-family="Times New Roman" fill="#000000" xml:space="preserve">103</text>
</g>
<g id = "FBGDOFJV" >
<line x1="110" y1="570" x2="130" y2="570" stroke="#000000" stroke-width="1px"/>
<text x="88.1667" y="573" font-size="8.888889px" font-family="Times New Roman" fill="#000000" xml:space="preserve">104</text>
</g>
<g id = "EGOSJSRO" >
<line x1="70" y1="580" x2="50" y2="580" stroke="#000000" stroke-width="1px"/>
<text x="77" y="583" font-size="8.888889px" font-family="Times New Roman" fill="#000000" xml:space="preserve">105</text>
</g>
<g id = "XEUAQHNW" >
<line x1="110" y1="580" x2="130" y2="580" stroke="#000000" stroke-width="1px"/>
<text x="88.1667" y="583" font-size="8.888889px" font-family="Times New Roman" fill="#000000" xml:space="preserve">106</text>
</g>
<g id = "QPYPETPV" >
<line x1="70" y1="590" x2="50" y2="590" stroke="#000000" stroke-width="1px"/>
<text x="77" y="593" font-size="8.888889px" font-family="Times New Roman" fill="#000000" xml:space="preserve">107</text>
</g>
<g id = "KSAPZUOV" >
<line x1="110" y1="590" x2="130" y2="590" stroke="#000000" stroke-width="1px"/>
<text x="88.1667" y="593" font-size="8.888889px" font-family="Times New Roman" fill="#000000" xml:space="preserve">108</text>
</g>
<g id = "EYASVRSX" >
<line x1="70" y1="600" x2="50" y2="600" stroke="#000000" stroke-width="1px"/>
<text x="77" y="603" font-size="8.888889px" font-family="Times New Roman" fill="#000000" xml:space="preserve">109</text>
</g>
<g id = "ZZTMBBZL" >
<line x1="110" y1="600" x2="130" y2="600" stroke="#000000" stroke-width="1px"/>
<text x="88.1667" y="603" font-size="8.888889px" font-family="Times New Roman" fill="#000000" xml:space="preserve">110</text>
</g>
<g id = "EKJNVSSM" >
<line x1="70" y1="610" x2="50" y2="610" stroke="#000000" stroke-width="1px"/>
<text x="77" y="613" font-size="8.888889px" font-family="Times New Roman" fill="#000000" xml:space="preserve">111</text>
</g>
<g id = "EQPRLNTE" >
<line x1="110" y1="610" x2="130" y2="610" stroke="#000000" stroke-width="1px"/>
<text x="88.1667" y="613" font-size="8.888889px" font-family="Times New Roman" fill="#000000" xml:space="preserve">112</text>
</g>
<g id = "VVFWSIDI" >
<line x1="70" y1="620" x2="50" y2="620" stroke="#000000" stroke-width="1px"/>
<text x="77" y="623" font-size="8.888889px" font-family="Times New Roman" fill="#000000" xml:space="preserve">113</text>
</g>
<g id = "UJUJVUFK" >
<line x1="110" y1="620" x2="130" y2="620" stroke="#000000" stroke-width="1px"/>
<text x="88.1667" y="623" font-size="8.888889px" font-family="Times New Roman" fill="#000000" xml:space="preserve">114</text>
</g>
<g id = "ESAYESQJ" >
<line x1="70" y1="630" x2="50" y2="630" stroke="#000000" stroke-width="1px"/>
<text x="77" y="633" font-size="8.888889px" font-family="Times New Roman" fill="#000000" xml:space="preserve">115</text>
</g>
<g id = "THEDEFDH" >
<line x1="110" y1="630" x2="130" y2="630" stroke="#000000" stroke-width="1px"/>
<text x="88.1667" y="633" font-size="8.888889px" font-family="Times New Roman" fill="#000000" xml:space="preserve">116</text>
</g>
<g id = "GOTJPTIW" >
<line x1="70" y1="640" x2="50" y2="640" stroke="#000000" stroke-width="1px"/>
<text x="77" y="643" font-size="8.888889px" font-family="Times New Roman" fill="#000000" xml:space="preserve">117</text>
</g>
<g id = "BYRAZCUS" >
<line x1="110" y1="640" x2="130" y2="640" stroke="#000000" stroke-width="1px"/>
<text x="88.1667" y="643" font-size="8.888889px" font-family="Times New Roman" fill="#000000" xml:space="preserve">118</text>
</g>
<g id = "NRTVJNRS" >
<line x1="70" y1="650" x2="50" y2="650" stroke="#000000" stroke-width="1px"/>
<text x="77" y="653" font-size="8.888889px" font-family="Times New Roman" fill="#000000" xml:space="preserve">119</text>
</g>
<g id = "VOKCUKHB" >
<line x1="110" y1="650" x2="130" y2="650" stroke="#000000" stroke-width="1px"/>
<text x="88.1667" y="653" font-size="8.888889px" font-family="Times New Roman" fill="#000000" xml:space="preserve">120</text>
</g>
<g id = "JKBTLIOU" >
<line x1="70" y1="660" x2="50" y2="660" stroke="#000000" stroke-width="1px"/>
<text x="77" y="663" font-size="8.888889px" font-family="Times New Roman" fill="#000000" xml:space="preserve">121</text>
</g>
<g id = "PTJNRQLE" >
<line x1="110" y1="660" x2="130" y2="660" stroke="#000000" stroke-width="1px"/>
<text x="88.1667" y="663" font-size="8.888889px" font-family="Times New Roman" fill="#000000" xml:space="preserve">122</text>
</g>
<g id = "XCMEJTQO" >
<line x1="70" y1="670" x2="50" y2="670" stroke="#000000" stroke-width="1px"/>
<text x="77" y="673" font-size="8.888889px" font-family="Times New Roman" fill="#000000" xml:space="preserve">123</text>
</g>
<g id = "UJHPUBEN" >
<line x1="110" y1="670" x2="130" y2="670" stroke="#000000" stroke-width="1px"/>
<text x="88.1667" y="673" font-size="8.888889px" font-family="Times New Roman" fill="#000000" xml:space="preserve">124</text>
</g>
<g id = "NHIBUKEY" >
<line x1="70" y1="680" x2="50" y2="680" stroke="#000000" stroke-width="1px"/>
<text x="77" y="683" font-size="8.888889px" font-family="Times New Roman" fill="#000000" xml:space="preserve">125</text>
</g>
<g id = "MBJCILFZ" >
<line x1="110" y1="680" x2="130" y2="680" stroke="#000000" stroke-width="1px"/>
<text x="88.1667" y="683" font-size="8.888889px" font-family="Times New Roman" fill="#000000" xml:space="preserve">126</text>
</g>
<g id = "BGBZVHEL" >
<line x1="70" y1="690" x2="50" y2="690" stroke="#000000" stroke-width="1px"/>
<text x="77" y="693" font-size="8.888889px" font-family="Times New Roman" fill="#000000" xml:space="preserve">127</text>
</g>
<g id = "VVSSPNSG" >
<line x1="110" y1="690" x2="130" y2="690" stroke="#000000" stroke-width="1px"/>
<text x="88.1667" y="693" font-size="8.888889px" font-family="Times New Roman" fill="#000000" xml:space="preserve">128</text>
</g>
<g id = "CAQDRVRP" >
<line x1="70" y1="700" x2="50" y2="700" stroke="#000000" stroke-width="1px"/>
<text x="77" y="703" font-size="8.888889px" font-family="Times New Roman" fill="#000000" xml:space="preserve">129</text>
</g>
<g id = "WJVEXBJA" >
<line x1="110" y1="700" x2="130" y2="700" stroke="#000000" stroke-width="1px"/>
<text x="88.1667" y="703" font-size="8.888889px" font-family="Times New Roman" fill="#000000" xml:space="preserve">130</text>
</g>
<g id = "POBPXDHB" >
<line x1="70" y1="710" x2="50" y2="710" stroke="#000000" stroke-width="1px"/>
<text x="77" y="713" font-size="8.888889px" font-family="Times New Roman" fill="#000000" xml:space="preserve">131</text>
</g>
<g id = "MWNTAANH" >
<line x1="110" y1="710" x2="130" y2="710" stroke="#000000" stroke-width="1px"/>
<text x="88.1667" y="713" font-size="8.888889px" font-family="Times New Roman" fill="#000000" xml:space="preserve">132</text>
</g>
<g id = "EMPKONBQ" >
<line x1="70" y1="720" x2="50" y2="720" stroke="#000000" stroke-width="1px"/>
<text x="77" y="723" font-size="8.888889px" font-family="Times New Roman" fill="#000000" xml:space="preserve">133</text>
</g>
<g id = "KFZWIFVH" >
<line x1="110" y1="720" x2="130" y2="720" stroke="#000000" stroke-width="1px"/>
<text x="88.1667" y="723" font-size="8.888889px" font-family="Times New Roman" fill="#000000" xml:space="preserve">134</text>
</g>
<g id = "SANIYVSH" >
<line x1="70" y1="730" x2="50" y2="730" stroke="#000000" stroke-width="1px"/>
<text x="77" y="733" font-size="8.888889px" font-family="Times New Roman" fill="#000000" xml:space="preserve">135</text>
</g>
<g id = "XHODUGGI" >
<line x1="110" y1="730" x2="130" y2="730" stroke="#000000" stroke-width="1px"/>
<text x="88.1667" y="733" font-size="8.888889px" font-family="Times New Roman" fill="#000000" xml:space="preserve">136</text>
</g>
<g id = "IGNVPLQA" >
<line x1="70" y1="740" x2="50" y2="740" stroke="#000000" stroke-width="1px"/>
<text x="77" y="743" font-size="8.888889px" font-family="Times New Roman" fill="#000000" xml:space="preserve">137</text>
</g>
<g id = "RUAPSEJM" >
<line x1="110" y1="740" x2="130" y2="740" stroke="#000000" stroke-width="1px"/>
<text x="88.1667" y="743" font-size="8.888889px" font-family="Times New Roman" fill="#000000" xml:space="preserve">138</text>
</g>
<g id = "JDNKUYPL" >
<line x1="70" y1="750" x2="50" y2="750" stroke="#000000" stroke-width="1px"/>
<text x="77" y="753" font-size="8.888889px" font-family="Times New Roman" fill="#000000" xml:space="preserve">139</text>
</g>
<g id = "OWJUKHLI" >
<line x1="110" y1="750" x2="130" y2="750" stroke="#000000" stroke-width="1px"/>
<text x="88.1667" y="753" font-size="8.888889px" font-family="Times New Roman" fill="#000000" xml:space="preserve">140</text>
</g>
<g id = "AMXEBPRX" >
<line x1="70" y1="760" x2="50" y2="760" stroke="#000000" stroke-width="1px"/>
<text x="77" y="763" font-size="8.888889px" font-family="Times New Roman" fill="#000000" xml:space="preserve">141</text>
</g>
<g id = "YVGFBRYF" >
<line x1="110" y1="760" x2="130" y2="760" stroke="#000000" stroke-width="1px"/>
<text x="88.1667" y="763" font-size="8.888889px" font-family="Times New Roman" fill="#000000" xml:space="preserve">142</text>
</g>
</g>
</g>
</g>
</g>
</svg>