<?xml version="1.0"  encoding="UTF-8" standalone="no"?>
<svg version="1.1" xmlns="http://www.w3.org/2000/svg" xmlns:xlink="http://www.w3.org/1999/xlink" stroke-linecap="round" stroke-linejoin="round" fill="none" width="180" height="570" viewBox="0 0 180 570" data-doc-id="symbol-Header 46X2A" data-doc-ver="2">
<g id = "scene" >
<g id = "DocumentMainGroup" >
<g id = "BackgroundGroup" >
<rect x = "0" y="0" width="180" height="570" fill="#FFFFFF" fill-opacity="1"/>
</g>
<g id = "symbol-Header 46X2A" >
<g id = "DocumentItemsGroup" >
<g id = "ADCBSNXY" >
<rect x = "70" y="50" width="40" height="470" stroke="#0000FF" stroke-width="1px"/>
</g>
<g id = "RMVUUVZI" >
<line x1="70" y1="60" x2="50" y2="60" stroke="#000000" stroke-width="1px"/>
<text x="77" y="63" font-size="8.888889px" font-family="Times New Roman" fill="#000000" xml:space="preserve">1</text>
</g>
<g id = "UHRLEPAF" >
<line x1="70" y1="70" x2="50" y2="70" stroke="#000000" stroke-width="1px"/>
<text x="77" y="73" font-size="8.888889px" font-family="Times New Roman" fill="#000000" xml:space="preserve">2</text>
</g>
<g id = "ZJXTCHQS" >
<line x1="70" y1="80" x2="50" y2="80" stroke="#000000" stroke-width="1px"/>
<text x="77" y="83" font-size="8.888889px" font-family="Times New Roman" fill="#000000" xml:space="preserve">3</text>
</g>
<g id = "ZYYBHIRC" >
<line x1="70" y1="90" x2="50" y2="90" stroke="#000000" stroke-width="1px"/>
<text x="77" y="93" font-size="8.888889px" font-family="Times New Roman" fill="#000000" xml:space="preserve">4</text>
</g>
<g id = "KRIKYKUR" >
<line x1="70" y1="100" x2="50" y2="100" stroke="#000000" stroke-width="1px"/>
<text x="77" y="103" font-size="8.888889px" font-family="Times New Roman" fill="#000000" xml:space="preserve">5</text>
</g>
<g id = "DKJDAJUE" >
<line x1="70" y1="110" x2="50" y2="110" stroke="#000000" stroke-width="1px"/>
<text x="77" y="113" font-size="8.888889px" font-family="Times New Roman" fill="#000000" xml:space="preserve">6</text>
</g>
<g id = "ODLBYQAP" >
<line x1="70" y1="120" x2="50" y2="120" stroke="#000000" stroke-width="1px"/>
<text x="77" y="123" font-size="8.888889px" font-family="Times New Roman" fill="#000000" xml:space="preserve">7</text>
</g>
<g id = "HMGCTVPJ" >
<line x1="70" y1="130" x2="50" y2="130" stroke="#000000" stroke-width="1px"/>
<text x="77" y="133" font-size="8.888889px" font-family="Times New Roman" fill="#000000" xml:space="preserve">8</text>
</g>
<g id = "ISKCYRGN" >
<line x1="70" y1="140" x2="50" y2="140" stroke="#000000" stroke-width="1px"/>
<text x="77" y="143" font-size="8.888889px" font-family="Times New Roman" fill="#000000" xml:space="preserve">9</text>
</g>
<g id = "ALKBZQKB" >
<line x1="70" y1="150" x2="50" y2="150" stroke="#000000" stroke-width="1px"/>
<text x="77" y="153" font-size="8.888889px" font-family="Times New Roman" fill="#000000" xml:space="preserve">10</text>
</g>
<g id = "LLYICWGG" >
<line x1="70" y1="160" x2="50" y2="160" stroke="#000000" stroke-width="1px"/>
<text x="77" y="163" font-size="8.888889px" font-family="Times New Roman" fill="#000000" xml:space="preserve">11</text>
</g>
<g id = "VUEWZGOZ" >
<line x1="70" y1="170" x2="50" y2="170" stroke="#000000" stroke-width="1px"/>
<text x="77" y="173" font-size="8.888889px" font-family="Times New Roman" fill="#000000" xml:space="preserve">12</text>
</g>
<g id = "CEDZVLIT" >
<line x1="70" y1="180" x2="50" y2="180" stroke="#000000" stroke-width="1px"/>
<text x="77" y="183" font-size="8.888889px" font-family="Times New Roman" fill="#000000" xml:space="preserve">13</text>
</g>
<g id = "MNKLDKDZ" >
<line x1="70" y1="190" x2="50" y2="190" stroke="#000000" stroke-width="1px"/>
<text x="77" y="193" font-size="8.888889px" font-family="Times New Roman" fill="#000000" xml:space="preserve">14</text>
</g>
<g id = "FQDLWCOB" >
<line x1="70" y1="200" x2="50" y2="200" stroke="#000000" stroke-width="1px"/>
<text x="77" y="203" font-size="8.888889px" font-family="Times New Roman" fill="#000000" xml:space="preserve">15</text>
</g>
<g id = "DYYKMFIM" >
<line x1="70" y1="210" x2="50" y2="210" stroke="#000000" stroke-width="1px"/>
<text x="77" y="213" font-size="8.888889px" font-family="Times New Roman" fill="#000000" xml:space="preserve">16</text>
</g>
<g id = "RMZFCTQT" >
<line x1="70" y1="220" x2="50" y2="220" stroke="#000000" stroke-width="1px"/>
<text x="77" y="223" font-size="8.888889px" font-family="Times New Roman" fill="#000000" xml:space="preserve">17</text>
</g>
<g id = "GRAJMEVI" >
<line x1="70" y1="230" x2="50" y2="230" stroke="#000000" stroke-width="1px"/>
<text x="77" y="233" font-size="8.888889px" font-family="Times New Roman" fill="#000000" xml:space="preserve">18</text>
</g>
<g id = "GOPSJTCX" >
<line x1="70" y1="240" x2="50" y2="240" stroke="#000000" stroke-width="1px"/>
<text x="77" y="243" font-size="8.888889px" font-family="Times New Roman" fill="#000000" xml:space="preserve">19</text>
</g>
<g id = "FICMXCBQ" >
<line x1="70" y1="250" x2="50" y2="250" stroke="#000000" stroke-width="1px"/>
<text x="77" y="253" font-size="8.888889px" font-family="Times New Roman" fill="#000000" xml:space="preserve">20</text>
</g>
<g id = "GHSGPSXE" >
<line x1="70" y1="260" x2="50" y2="260" stroke="#000000" stroke-width="1px"/>
<text x="77" y="263" font-size="8.888889px" font-family="Times New Roman" fill="#000000" xml:space="preserve">21</text>
</g>
<g id = "SVVHNCGS" >
<line x1="70" y1="270" x2="50" y2="270" stroke="#000000" stroke-width="1px"/>
<text x="77" y="273" font-size="8.888889px" font-family="Times New Roman" fill="#000000" xml:space="preserve">22</text>
</g>
<g id = "IATTLZUV" >
<line x1="70" y1="280" x2="50" y2="280" stroke="#000000" stroke-width="1px"/>
<text x="77" y="283" font-size="8.888889px" font-family="Times New Roman" fill="#000000" xml:space="preserve">23</text>
</g>
<g id = "JNHYNGCT" >
<line x1="70" y1="290" x2="50" y2="290" stroke="#000000" stroke-width="1px"/>
<text x="77" y="293" font-size="8.888889px" font-family="Times New Roman" fill="#000000" xml:space="preserve">24</text>
</g>
<g id = "GQYTBLNC" >
<line x1="70" y1="300" x2="50" y2="300" stroke="#000000" stroke-width="1px"/>
<text x="77" y="303" font-size="8.888889px" font-family="Times New Roman" fill="#000000" xml:space="preserve">25</text>
</g>
<g id = "HGQGFCAG" >
<line x1="70" y1="310" x2="50" y2="310" stroke="#000000" stroke-width="1px"/>
<text x="77" y="313" font-size="8.888889px" font-family="Times New Roman" fill="#000000" xml:space="preserve">26</text>
</g>
<g id = "JVRONYHD" >
<line x1="70" y1="320" x2="50" y2="320" stroke="#000000" stroke-width="1px"/>
<text x="77" y="323" font-size="8.888889px" font-family="Times New Roman" fill="#000000" xml:space="preserve">27</text>
</g>
<g id = "LTNOPDIF" >
<line x1="70" y1="330" x2="50" y2="330" stroke="#000000" stroke-width="1px"/>
<text x="77" y="333" font-size="8.888889px" font-family="Times New Roman" fill="#000000" xml:space="preserve">28</text>
</g>
<g id = "OEPGIONE" >
<line x1="70" y1="340" x2="50" y2="340" stroke="#000000" stroke-width="1px"/>
<text x="77" y="343" font-size="8.888889px" font-family="Times New Roman" fill="#000000" xml:space="preserve">29</text>
</g>
<g id = "FZJDZDEI" >
<line x1="70" y1="350" x2="50" y2="350" stroke="#000000" stroke-width="1px"/>
<text x="77" y="353" font-size="8.888889px" font-family="Times New Roman" fill="#000000" xml:space="preserve">30</text>
</g>
<g id = "WBIUKVJA" >
<line x1="70" y1="360" x2="50" y2="360" stroke="#000000" stroke-width="1px"/>
<text x="77" y="363" font-size="8.888889px" font-family="Times New Roman" fill="#000000" xml:space="preserve">31</text>
</g>
<g id = "JXYZZPNN" >
<line x1="70" y1="370" x2="50" y2="370" stroke="#000000" stroke-width="1px"/>
<text x="77" y="373" font-size="8.888889px" font-family="Times New Roman" fill="#000000" xml:space="preserve">32</text>
</g>
<g id = "VNTLEPJV" >
<line x1="70" y1="380" x2="50" y2="380" stroke="#000000" stroke-width="1px"/>
<text x="77" y="383" font-size="8.888889px" font-family="Times New Roman" fill="#000000" xml:space="preserve">33</text>
</g>
<g id = "EJBYYOLE" >
<line x1="70" y1="390" x2="50" y2="390" stroke="#000000" stroke-width="1px"/>
<text x="77" y="393" font-size="8.888889px" font-family="Times New Roman" fill="#000000" xml:space="preserve">34</text>
</g>
<g id = "XUZVWOMR" >
<line x1="70" y1="400" x2="50" y2="400" stroke="#000000" stroke-width="1px"/>
<text x="77" y="403" font-size="8.888889px" font-family="Times New Roman" fill="#000000" xml:space="preserve">35</text>
</g>
<g id = "WNLURMNS" >
<line x1="70" y1="410" x2="50" y2="410" stroke="#000000" stroke-width="1px"/>
<text x="77" y="413" font-size="8.888889px" font-family="Times New Roman" fill="#000000" xml:space="preserve">36</text>
</g>
<g id = "EDYHGFGW" >
<line x1="70" y1="420" x2="50" y2="420" stroke="#000000" stroke-width="1px"/>
<text x="77" y="423" font-size="8.888889px" font-family="Times New Roman" fill="#000000" xml:space="preserve">37</text>
</g>
<g id = "AVVWTPTW" >
<line x1="70" y1="430" x2="50" y2="430" stroke="#000000" stroke-width="1px"/>
<text x="77" y="433" font-size="8.888889px" font-family="Times New Roman" fill="#000000" xml:space="preserve">38</text>
</g>
<g id = "AQGAYOTL" >
<line x1="70" y1="440" x2="50" y2="440" stroke="#000000" stroke-width="1px"/>
<text x="77" y="443" font-size="8.888889px" font-family="Times New Roman" fill="#000000" xml:space="preserve">39</text>
</g>
<g id = "GWLHQSBR" >
<line x1="70" y1="450" x2="50" y2="450" stroke="#000000" stroke-width="1px"/>
<text x="77" y="453" font-size="8.888889px" font-family="Times New Roman" fill="#000000" xml:space="preserve">40</text>
</g>
<g id = "SBLSAOTC" >
<line x1="70" y1="460" x2="50" y2="460" stroke="#000000" stroke-width="1px"/>
<text x="77" y="463" font-size="8.888889px" font-family="Times New Roman" fill="#000000" xml:space="preserve">41</text>
</g>
<g id = "AUMTRFQU" >
<line x1="70" y1="470" x2="50" y2="470" stroke="#000000" stroke-width="1px"/>
<text x="77" y="473" font-size="8.888889px" font-family="Times New Roman" fill="#000000" xml:space="preserve">42</text>
</g>
<g id = "NEAJLABG" >
<line x1="70" y1="480" x2="50" y2="480" stroke="#000000" stroke-width="1px"/>
<text x="77" y="483" font-size="8.888889px" font-family="Times New Roman" fill="#000000" xml:space="preserve">43</text>
</g>
<g id = "VZIXFUFZ" >
<line x1="70" y1="490" x2="50" y2="490" stroke="#000000" stroke-width="1px"/>
<text x="77" y="493" font-size="8.888889px" font-family="Times New Roman" fill="#000000" xml:space="preserve">44</text>
</g>
<g id = "EBCONOCS" >
<line x1="70" y1="500" x2="50" y2="500" stroke="#000000" stroke-width="1px"/>
<text x="77" y="503" font-size="8.888889px" font-family="Times New Roman" fill="#000000" xml:space="preserve">45</text>
</g>
<g id = "DXYMNXOH" >
<line x1="70" y1="510" x2="50" y2="510" stroke="#000000" stroke-width="1px"/>
<text x="77" y="513" font-size="8.888889px" font-family="Times New Roman" fill="#000000" xml:space="preserve">46</text>
</g>
<g id = "UVSAXVEX" >
<line x1="110" y1="60" x2="130" y2="60" stroke="#000000" stroke-width="1px"/>
<text x="93.1111" y="63" font-size="8.888889px" font-family="Times New Roman" fill="#000000" xml:space="preserve">47</text>
</g>
<g id = "SVKDGTGS" >
<line x1="110" y1="70" x2="130" y2="70" stroke="#000000" stroke-width="1px"/>
<text x="93.1111" y="73" font-size="8.888889px" font-family="Times New Roman" fill="#000000" xml:space="preserve">48</text>
</g>
<g id = "RRGZXOJB" >
<line x1="110" y1="80" x2="130" y2="80" stroke="#000000" stroke-width="1px"/>
<text x="93.1111" y="83" font-size="8.888889px" font-family="Times New Roman" fill="#000000" xml:space="preserve">49</text>
</g>
<g id = "MTAAUBCI" >
<line x1="110" y1="90" x2="130" y2="90" stroke="#000000" stroke-width="1px"/>
<text x="93.1111" y="93" font-size="8.888889px" font-family="Times New Roman" fill="#000000" xml:space="preserve">50</text>
</g>
<g id = "MFVOIJPT" >
<line x1="110" y1="100" x2="130" y2="100" stroke="#000000" stroke-width="1px"/>
<text x="93.1111" y="103" font-size="8.888889px" font-family="Times New Roman" fill="#000000" xml:space="preserve">51</text>
</g>
<g id = "USHVITSN" >
<line x1="110" y1="110" x2="130" y2="110" stroke="#000000" stroke-width="1px"/>
<text x="93.1111" y="113" font-size="8.888889px" font-family="Times New Roman" fill="#000000" xml:space="preserve">52</text>
</g>
<g id = "XNJNNDVN" >
<line x1="110" y1="120" x2="130" y2="120" stroke="#000000" stroke-width="1px"/>
<text x="93.1111" y="123" font-size="8.888889px" font-family="Times New Roman" fill="#000000" xml:space="preserve">53</text>
</g>
<g id = "UAKETSOI" >
<line x1="110" y1="130" x2="130" y2="130" stroke="#000000" stroke-width="1px"/>
<text x="93.1111" y="133" font-size="8.888889px" font-family="Times New Roman" fill="#000000" xml:space="preserve">54</text>
</g>
<g id = "KGNSECXT" >
<line x1="110" y1="140" x2="130" y2="140" stroke="#000000" stroke-width="1px"/>
<text x="93.1111" y="143" font-size="8.888889px" font-family="Times New Roman" fill="#000000" xml:space="preserve">55</text>
</g>
<g id = "HCSJYQWH" >
<line x1="110" y1="150" x2="130" y2="150" stroke="#000000" stroke-width="1px"/>
<text x="93.1111" y="153" font-size="8.888889px" font-family="Times New Roman" fill="#000000" xml:space="preserve">56</text>
</g>
<g id = "XQNJANCK" >
<line x1="110" y1="160" x2="130" y2="160" stroke="#000000" stroke-width="1px"/>
<text x="93.1111" y="163" font-size="8.888889px" font-family="Times New Roman" fill="#000000" xml:space="preserve">57</text>
</g>
<g id = "XSLGFDDV" >
<line x1="110" y1="170" x2="130" y2="170" stroke="#000000" stroke-width="1px"/>
<text x="93.1111" y="173" font-size="8.888889px" font-family="Times New Roman" fill="#000000" xml:space="preserve">58</text>
</g>
<g id = "CFZYWFCB" >
<line x1="110" y1="180" x2="130" y2="180" stroke="#000000" stroke-width="1px"/>
<text x="93.1111" y="183" font-size="8.888889px" font-family="Times New Roman" fill="#000000" xml:space="preserve">59</text>
</g>
<g id = "BUWVILMX" >
<line x1="110" y1="190" x2="130" y2="190" stroke="#000000" stroke-width="1px"/>
<text x="93.1111" y="193" font-size="8.888889px" font-family="Times New Roman" fill="#000000" xml:space="preserve">60</text>
</g>
<g id = "HZTNSJFZ" >
<line x1="110" y1="200" x2="130" y2="200" stroke="#000000" stroke-width="1px"/>
<text x="93.1111" y="203" font-size="8.888889px" font-family="Times New Roman" fill="#000000" xml:space="preserve">61</text>
</g>
<g id = "NTBTGAOU" >
<line x1="110" y1="210" x2="130" y2="210" stroke="#000000" stroke-width="1px"/>
<text x="93.1111" y="213" font-size="8.888889px" font-family="Times New Roman" fill="#000000" xml:space="preserve">62</text>
</g>
<g id = "NBREKLLK" >
<line x1="110" y1="220" x2="130" y2="220" stroke="#000000" stroke-width="1px"/>
<text x="93.1111" y="223" font-size="8.888889px" font-family="Times New Roman" fill="#000000" xml:space="preserve">63</text>
</g>
<g id = "MELIFDRK" >
<line x1="110" y1="230" x2="130" y2="230" stroke="#000000" stroke-width="1px"/>
<text x="93.1111" y="233" font-size="8.888889px" font-family="Times New Roman" fill="#000000" xml:space="preserve">64</text>
</g>
<g id = "JKUPRYIU" >
<line x1="110" y1="240" x2="130" y2="240" stroke="#000000" stroke-width="1px"/>
<text x="93.1111" y="243" font-size="8.888889px" font-family="Times New Roman" fill="#000000" xml:space="preserve">65</text>
</g>
<g id = "EBMGSQUB" >
<line x1="110" y1="250" x2="130" y2="250" stroke="#000000" stroke-width="1px"/>
<text x="93.1111" y="253" font-size="8.888889px" font-family="Times New Roman" fill="#000000" xml:space="preserve">66</text>
</g>
<g id = "IAIRSXUU" >
<line x1="110" y1="260" x2="130" y2="260" stroke="#000000" stroke-width="1px"/>
<text x="93.1111" y="263" font-size="8.888889px" font-family="Times New Roman" fill="#000000" xml:space="preserve">67</text>
</g>
<g id = "MHCKXNIG" >
<line x1="110" y1="270" x2="130" y2="270" stroke="#000000" stroke-width="1px"/>
<text x="93.1111" y="273" font-size="8.888889px" font-family="Times New Roman" fill="#000000" xml:space="preserve">68</text>
</g>
<g id = "RDAFDTIF" >
<line x1="110" y1="280" x2="130" y2="280" stroke="#000000" stroke-width="1px"/>
<text x="93.1111" y="283" font-size="8.888889px" font-family="Times New Roman" fill="#000000" xml:space="preserve">69</text>
</g>
<g id = "WMXCLUOE" >
<line x1="110" y1="290" x2="130" y2="290" stroke="#000000" stroke-width="1px"/>
<text x="93.1111" y="293" font-size="8.888889px" font-family="Times New Roman" fill="#000000" xml:space="preserve">70</text>
</g>
<g id = "WJNWUKMQ" >
<line x1="110" y1="300" x2="130" y2="300" stroke="#000000" stroke-width="1px"/>
<text x="93.1111" y="303" font-size="8.888889px" font-family="Times New Roman" fill="#000000" xml:space="preserve">71</text>
</g>
<g id = "QJIZPMPX" >
<line x1="110" y1="310" x2="130" y2="310" stroke="#000000" stroke-width="1px"/>
<text x="93.1111" y="313" font-size="8.888889px" font-family="Times New Roman" fill="#000000" xml:space="preserve">72</text>
</g>
<g id = "KIGPFWIA" >
<line x1="110" y1="320" x2="130" y2="320" stroke="#000000" stroke-width="1px"/>
<text x="93.1111" y="323" font-size="8.888889px" font-family="Times New Roman" fill="#000000" xml:space="preserve">73</text>
</g>
<g id = "QDYPQFMK" >
<line x1="110" y1="330" x2="130" y2="330" stroke="#000000" stroke-width="1px"/>
<text x="93.1111" y="333" font-size="8.888889px" font-family="Times New Roman" fill="#000000" xml:space="preserve">74</text>
</g>
<g id = "IPUJKIGL" >
<line x1="110" y1="340" x2="130" y2="340" stroke="#000000" stroke-width="1px"/>
<text x="93.1111" y="343" font-size="8.888889px" font-family="Times New Roman" fill="#000000" xml:space="preserve">75</text>
</g>
<g id = "COTUEJKP" >
<line x1="110" y1="350" x2="130" y2="350" stroke="#000000" stroke-width="1px"/>
<text x="93.1111" y="353" font-size="8.888889px" font-family="Times New Roman" fill="#000000" xml:space="preserve">76</text>
</g>
<g id = "QVHIVFDA" >
<line x1="110" y1="360" x2="130" y2="360" stroke="#000000" stroke-width="1px"/>
<text x="93.1111" y="363" font-size="8.888889px" font-family="Times New Roman" fill="#000000" xml:space="preserve">77</text>
</g>
<g id = "HAUWTDOS" >
<line x1="110" y1="370" x2="130" y2="370" stroke="#000000" stroke-width="1px"/>
<text x="93.1111" y="373" font-size="8.888889px" font-family="Times New Roman" fill="#000000" xml:space="preserve">78</text>
</g>
<g id = "JLOOLCRQ" >
<line x1="110" y1="380" x2="130" y2="380" stroke="#000000" stroke-width="1px"/>
<text x="93.1111" y="383" font-size="8.888889px" font-family="Times New Roman" fill="#000000" xml:space="preserve">79</text>
</g>
<g id = "DPRANZPS" >
<line x1="110" y1="390" x2="130" y2="390" stroke="#000000" stroke-width="1px"/>
<text x="93.1111" y="393" font-size="8.888889px" font-family="Times New Roman" fill="#000000" xml:space="preserve">80</text>
</g>
<g id = "QGZMUWLN" >
<line x1="110" y1="400" x2="130" y2="400" stroke="#000000" stroke-width="1px"/>
<text x="93.1111" y="403" font-size="8.888889px" font-family="Times New Roman" fill="#000000" xml:space="preserve">81</text>
</g>
<g id = "NYPZDGJJ" >
<line x1="110" y1="410" x2="130" y2="410" stroke="#000000" stroke-width="1px"/>
<text x="93.1111" y="413" font-size="8.888889px" font-family="Times New Roman" fill="#000000" xml:space="preserve">82</text>
</g>
<g id = "WQMWCALF" >
<line x1="110" y1="420" x2="130" y2="420" stroke="#000000" stroke-width="1px"/>
<text x="93.1111" y="423" font-size="8.888889px" font-family="Times New Roman" fill="#000000" xml:space="preserve">83</text>
</g>
<g id = "YPJDBVSX" >
<line x1="110" y1="430" x2="130" y2="430" stroke="#000000" stroke-width="1px"/>
<text x="93.1111" y="433" font-size="8.888889px" font-family="Times New Roman" fill="#000000" xml:space="preserve">84</text>
</g>
<g id = "YIVJXILZ" >
<line x1="110" y1="440" x2="130" y2="440" stroke="#000000" stroke-width="1px"/>
<text x="93.1111" y="443" font-size="8.888889px" font-family="Times New Roman" fill="#000000" xml:space="preserve">85</text>
</g>
<g id = "UNRFQAXT" >
<line x1="110" y1="450" x2="130" y2="450" stroke="#000000" stroke-width="1px"/>
<text x="93.1111" y="453" font-size="8.888889px" font-family="Times New Roman" fill="#000000" xml:space="preserve">86</text>
</g>
<g id = "XHDCDQHI" >
<line x1="110" y1="460" x2="130" y2="460" stroke="#000000" stroke-width="1px"/>
<text x="93.1111" y="463" font-size="8.888889px" font-family="Times New Roman" fill="#000000" xml:space="preserve">87</text>
</g>
<g id = "DSSIFGKX" >
<line x1="110" y1="470" x2="130" y2="470" stroke="#000000" stroke-width="1px"/>
<text x="93.1111" y="473" font-size="8.888889px" font-family="Times New Roman" fill="#000000" xml:space="preserve">88</text>
</g>
<g id = "CKGJCIKB" >
<line x1="110" y1="480" x2="130" y2="480" stroke="#000000" stroke-width="1px"/>
<text x="93.1111" y="483" font-size="8.888889px" font-family="Times New Roman" fill="#000000" xml:space="preserve">89</text>
</g>
<g id = "BUWRKPFN" >
<line x1="110" y1="490" x2="130" y2="490" stroke="#000000" stroke-width="1px"/>
<text x="93.1111" y="493" font-size="8.888889px" font-family="Times New Roman" fill="#000000" xml:space="preserve">90</text>
</g>
<g id = "STUKAMLA" >
<line x1="110" y1="500" x2="130" y2="500" stroke="#000000" stroke-width="1px"/>
<text x="93.1111" y="503" font-size="8.888889px" font-family="Times New Roman" fill="#000000" xml:space="preserve">91</text>
</g>
<g id = "KMCCIXQN" >
<line x1="110" y1="510" x2="130" y2="510" stroke="#000000" stroke-width="1px"/>
<text x="93.1111" y="513" font-size="8.888889px" font-family="Times New Roman" fill="#000000" xml:space="preserve">92</text>
</g>
</g>
</g>
</g>
</g>
</svg>