<?xml version="1.0"  encoding="UTF-8" standalone="no"?>
<svg version="1.1" xmlns="http://www.w3.org/2000/svg" xmlns:xlink="http://www.w3.org/1999/xlink" stroke-linecap="round" stroke-linejoin="round" fill="none" width="180" height="990" viewBox="0 0 180 990" data-doc-id="symbol-Header 88X2A" data-doc-ver="2">
<g id = "scene" >
<g id = "DocumentMainGroup" >
<g id = "BackgroundGroup" >
<rect x = "0" y="0" width="180" height="990" fill="#FFFFFF" fill-opacity="1"/>
</g>
<g id = "symbol-Header 88X2A" >
<g id = "DocumentItemsGroup" >
<g id = "MUAKWWZZ" >
<rect x = "70" y="50" width="40" height="890" stroke="#0000FF" stroke-width="1px"/>
</g>
<g id = "ANOPGNQE" >
<line x1="70" y1="60" x2="50" y2="60" stroke="#000000" stroke-width="1px"/>
<text x="77" y="63" font-size="8.888889px" font-family="Times New Roman" fill="#000000" xml:space="preserve">1</text>
</g>
<g id = "LZQRIMRT" >
<line x1="70" y1="70" x2="50" y2="70" stroke="#000000" stroke-width="1px"/>
<text x="77" y="73" font-size="8.888889px" font-family="Times New Roman" fill="#000000" xml:space="preserve">2</text>
</g>
<g id = "EIYHNPSH" >
<line x1="70" y1="80" x2="50" y2="80" stroke="#000000" stroke-width="1px"/>
<text x="77" y="83" font-size="8.888889px" font-family="Times New Roman" fill="#000000" xml:space="preserve">3</text>
</g>
<g id = "QUBVQSAH" >
<line x1="70" y1="90" x2="50" y2="90" stroke="#000000" stroke-width="1px"/>
<text x="77" y="93" font-size="8.888889px" font-family="Times New Roman" fill="#000000" xml:space="preserve">4</text>
</g>
<g id = "UONVKUMJ" >
<line x1="70" y1="100" x2="50" y2="100" stroke="#000000" stroke-width="1px"/>
<text x="77" y="103" font-size="8.888889px" font-family="Times New Roman" fill="#000000" xml:space="preserve">5</text>
</g>
<g id = "UBCUUEEO" >
<line x1="70" y1="110" x2="50" y2="110" stroke="#000000" stroke-width="1px"/>
<text x="77" y="113" font-size="8.888889px" font-family="Times New Roman" fill="#000000" xml:space="preserve">6</text>
</g>
<g id = "NZHTPBXH" >
<line x1="70" y1="120" x2="50" y2="120" stroke="#000000" stroke-width="1px"/>
<text x="77" y="123" font-size="8.888889px" font-family="Times New Roman" fill="#000000" xml:space="preserve">7</text>
</g>
<g id = "XBLWBZJE" >
<line x1="70" y1="130" x2="50" y2="130" stroke="#000000" stroke-width="1px"/>
<text x="77" y="133" font-size="8.888889px" font-family="Times New Roman" fill="#000000" xml:space="preserve">8</text>
</g>
<g id = "RFDOGXYX" >
<line x1="70" y1="140" x2="50" y2="140" stroke="#000000" stroke-width="1px"/>
<text x="77" y="143" font-size="8.888889px" font-family="Times New Roman" fill="#000000" xml:space="preserve">9</text>
</g>
<g id = "GSHVYYUR" >
<line x1="70" y1="150" x2="50" y2="150" stroke="#000000" stroke-width="1px"/>
<text x="77" y="153" font-size="8.888889px" font-family="Times New Roman" fill="#000000" xml:space="preserve">10</text>
</g>
<g id = "TSYBLTLU" >
<line x1="70" y1="160" x2="50" y2="160" stroke="#000000" stroke-width="1px"/>
<text x="77" y="163" font-size="8.888889px" font-family="Times New Roman" fill="#000000" xml:space="preserve">11</text>
</g>
<g id = "UELUDZNL" >
<line x1="70" y1="170" x2="50" y2="170" stroke="#000000" stroke-width="1px"/>
<text x="77" y="173" font-size="8.888889px" font-family="Times New Roman" fill="#000000" xml:space="preserve">12</text>
</g>
<g id = "CGQEKJKO" >
<line x1="70" y1="180" x2="50" y2="180" stroke="#000000" stroke-width="1px"/>
<text x="77" y="183" font-size="8.888889px" font-family="Times New Roman" fill="#000000" xml:space="preserve">13</text>
</g>
<g id = "QITIFKQU" >
<line x1="70" y1="190" x2="50" y2="190" stroke="#000000" stroke-width="1px"/>
<text x="77" y="193" font-size="8.888889px" font-family="Times New Roman" fill="#000000" xml:space="preserve">14</text>
</g>
<g id = "OQGRZSFF" >
<line x1="70" y1="200" x2="50" y2="200" stroke="#000000" stroke-width="1px"/>
<text x="77" y="203" font-size="8.888889px" font-family="Times New Roman" fill="#000000" xml:space="preserve">15</text>
</g>
<g id = "QAWCLNKL" >
<line x1="70" y1="210" x2="50" y2="210" stroke="#000000" stroke-width="1px"/>
<text x="77" y="213" font-size="8.888889px" font-family="Times New Roman" fill="#000000" xml:space="preserve">16</text>
</g>
<g id = "QTOOOYBD" >
<line x1="70" y1="220" x2="50" y2="220" stroke="#000000" stroke-width="1px"/>
<text x="77" y="223" font-size="8.888889px" font-family="Times New Roman" fill="#000000" xml:space="preserve">17</text>
</g>
<g id = "OARBMDNN" >
<line x1="70" y1="230" x2="50" y2="230" stroke="#000000" stroke-width="1px"/>
<text x="77" y="233" font-size="8.888889px" font-family="Times New Roman" fill="#000000" xml:space="preserve">18</text>
</g>
<g id = "ZJZKQMOA" >
<line x1="70" y1="240" x2="50" y2="240" stroke="#000000" stroke-width="1px"/>
<text x="77" y="243" font-size="8.888889px" font-family="Times New Roman" fill="#000000" xml:space="preserve">19</text>
</g>
<g id = "DWMLVMEE" >
<line x1="70" y1="250" x2="50" y2="250" stroke="#000000" stroke-width="1px"/>
<text x="77" y="253" font-size="8.888889px" font-family="Times New Roman" fill="#000000" xml:space="preserve">20</text>
</g>
<g id = "WPLTTTMC" >
<line x1="70" y1="260" x2="50" y2="260" stroke="#000000" stroke-width="1px"/>
<text x="77" y="263" font-size="8.888889px" font-family="Times New Roman" fill="#000000" xml:space="preserve">21</text>
</g>
<g id = "GJMBEKND" >
<line x1="70" y1="270" x2="50" y2="270" stroke="#000000" stroke-width="1px"/>
<text x="77" y="273" font-size="8.888889px" font-family="Times New Roman" fill="#000000" xml:space="preserve">22</text>
</g>
<g id = "JBNXQZOP" >
<line x1="70" y1="280" x2="50" y2="280" stroke="#000000" stroke-width="1px"/>
<text x="77" y="283" font-size="8.888889px" font-family="Times New Roman" fill="#000000" xml:space="preserve">23</text>
</g>
<g id = "ONDWVLXA" >
<line x1="70" y1="290" x2="50" y2="290" stroke="#000000" stroke-width="1px"/>
<text x="77" y="293" font-size="8.888889px" font-family="Times New Roman" fill="#000000" xml:space="preserve">24</text>
</g>
<g id = "YUXZJXTW" >
<line x1="70" y1="300" x2="50" y2="300" stroke="#000000" stroke-width="1px"/>
<text x="77" y="303" font-size="8.888889px" font-family="Times New Roman" fill="#000000" xml:space="preserve">25</text>
</g>
<g id = "GCKJJWXM" >
<line x1="70" y1="310" x2="50" y2="310" stroke="#000000" stroke-width="1px"/>
<text x="77" y="313" font-size="8.888889px" font-family="Times New Roman" fill="#000000" xml:space="preserve">26</text>
</g>
<g id = "DACCPOWF" >
<line x1="70" y1="320" x2="50" y2="320" stroke="#000000" stroke-width="1px"/>
<text x="77" y="323" font-size="8.888889px" font-family="Times New Roman" fill="#000000" xml:space="preserve">27</text>
</g>
<g id = "ZIYQQAOF" >
<line x1="70" y1="330" x2="50" y2="330" stroke="#000000" stroke-width="1px"/>
<text x="77" y="333" font-size="8.888889px" font-family="Times New Roman" fill="#000000" xml:space="preserve">28</text>
</g>
<g id = "AJLMZBJX" >
<line x1="70" y1="340" x2="50" y2="340" stroke="#000000" stroke-width="1px"/>
<text x="77" y="343" font-size="8.888889px" font-family="Times New Roman" fill="#000000" xml:space="preserve">29</text>
</g>
<g id = "XBTPPBMN" >
<line x1="70" y1="350" x2="50" y2="350" stroke="#000000" stroke-width="1px"/>
<text x="77" y="353" font-size="8.888889px" font-family="Times New Roman" fill="#000000" xml:space="preserve">30</text>
</g>
<g id = "SVHWLULW" >
<line x1="70" y1="360" x2="50" y2="360" stroke="#000000" stroke-width="1px"/>
<text x="77" y="363" font-size="8.888889px" font-family="Times New Roman" fill="#000000" xml:space="preserve">31</text>
</g>
<g id = "WFEAAZWK" >
<line x1="70" y1="370" x2="50" y2="370" stroke="#000000" stroke-width="1px"/>
<text x="77" y="373" font-size="8.888889px" font-family="Times New Roman" fill="#000000" xml:space="preserve">32</text>
</g>
<g id = "ILXYWQHR" >
<line x1="70" y1="380" x2="50" y2="380" stroke="#000000" stroke-width="1px"/>
<text x="77" y="383" font-size="8.888889px" font-family="Times New Roman" fill="#000000" xml:space="preserve">33</text>
</g>
<g id = "IWESYPHT" >
<line x1="70" y1="390" x2="50" y2="390" stroke="#000000" stroke-width="1px"/>
<text x="77" y="393" font-size="8.888889px" font-family="Times New Roman" fill="#000000" xml:space="preserve">34</text>
</g>
<g id = "EPSSPFEC" >
<line x1="70" y1="400" x2="50" y2="400" stroke="#000000" stroke-width="1px"/>
<text x="77" y="403" font-size="8.888889px" font-family="Times New Roman" fill="#000000" xml:space="preserve">35</text>
</g>
<g id = "QOGKANIB" >
<line x1="70" y1="410" x2="50" y2="410" stroke="#000000" stroke-width="1px"/>
<text x="77" y="413" font-size="8.888889px" font-family="Times New Roman" fill="#000000" xml:space="preserve">36</text>
</g>
<g id = "BSBINTBI" >
<line x1="70" y1="420" x2="50" y2="420" stroke="#000000" stroke-width="1px"/>
<text x="77" y="423" font-size="8.888889px" font-family="Times New Roman" fill="#000000" xml:space="preserve">37</text>
</g>
<g id = "LWNCVGLF" >
<line x1="70" y1="430" x2="50" y2="430" stroke="#000000" stroke-width="1px"/>
<text x="77" y="433" font-size="8.888889px" font-family="Times New Roman" fill="#000000" xml:space="preserve">38</text>
</g>
<g id = "WIRETGFX" >
<line x1="70" y1="440" x2="50" y2="440" stroke="#000000" stroke-width="1px"/>
<text x="77" y="443" font-size="8.888889px" font-family="Times New Roman" fill="#000000" xml:space="preserve">39</text>
</g>
<g id = "GKQRFMIO" >
<line x1="70" y1="450" x2="50" y2="450" stroke="#000000" stroke-width="1px"/>
<text x="77" y="453" font-size="8.888889px" font-family="Times New Roman" fill="#000000" xml:space="preserve">40</text>
</g>
<g id = "PJLIQDYC" >
<line x1="70" y1="460" x2="50" y2="460" stroke="#000000" stroke-width="1px"/>
<text x="77" y="463" font-size="8.888889px" font-family="Times New Roman" fill="#000000" xml:space="preserve">41</text>
</g>
<g id = "FXPGQEQA" >
<line x1="70" y1="470" x2="50" y2="470" stroke="#000000" stroke-width="1px"/>
<text x="77" y="473" font-size="8.888889px" font-family="Times New Roman" fill="#000000" xml:space="preserve">42</text>
</g>
<g id = "NDUBUAIP" >
<line x1="70" y1="480" x2="50" y2="480" stroke="#000000" stroke-width="1px"/>
<text x="77" y="483" font-size="8.888889px" font-family="Times New Roman" fill="#000000" xml:space="preserve">43</text>
</g>
<g id = "JKZXDNDB" >
<line x1="70" y1="490" x2="50" y2="490" stroke="#000000" stroke-width="1px"/>
<text x="77" y="493" font-size="8.888889px" font-family="Times New Roman" fill="#000000" xml:space="preserve">44</text>
</g>
<g id = "INBHTEGI" >
<line x1="70" y1="500" x2="50" y2="500" stroke="#000000" stroke-width="1px"/>
<text x="77" y="503" font-size="8.888889px" font-family="Times New Roman" fill="#000000" xml:space="preserve">45</text>
</g>
<g id = "WPEAYMNM" >
<line x1="70" y1="510" x2="50" y2="510" stroke="#000000" stroke-width="1px"/>
<text x="77" y="513" font-size="8.888889px" font-family="Times New Roman" fill="#000000" xml:space="preserve">46</text>
</g>
<g id = "MUIWLMLN" >
<line x1="70" y1="520" x2="50" y2="520" stroke="#000000" stroke-width="1px"/>
<text x="77" y="523" font-size="8.888889px" font-family="Times New Roman" fill="#000000" xml:space="preserve">47</text>
</g>
<g id = "OKORRGMZ" >
<line x1="70" y1="530" x2="50" y2="530" stroke="#000000" stroke-width="1px"/>
<text x="77" y="533" font-size="8.888889px" font-family="Times New Roman" fill="#000000" xml:space="preserve">48</text>
</g>
<g id = "UFJHWHBA" >
<line x1="70" y1="540" x2="50" y2="540" stroke="#000000" stroke-width="1px"/>
<text x="77" y="543" font-size="8.888889px" font-family="Times New Roman" fill="#000000" xml:space="preserve">49</text>
</g>
<g id = "LJIJMQKH" >
<line x1="70" y1="550" x2="50" y2="550" stroke="#000000" stroke-width="1px"/>
<text x="77" y="553" font-size="8.888889px" font-family="Times New Roman" fill="#000000" xml:space="preserve">50</text>
</g>
<g id = "WVIJKHSX" >
<line x1="70" y1="560" x2="50" y2="560" stroke="#000000" stroke-width="1px"/>
<text x="77" y="563" font-size="8.888889px" font-family="Times New Roman" fill="#000000" xml:space="preserve">51</text>
</g>
<g id = "ZGEQCIKI" >
<line x1="70" y1="570" x2="50" y2="570" stroke="#000000" stroke-width="1px"/>
<text x="77" y="573" font-size="8.888889px" font-family="Times New Roman" fill="#000000" xml:space="preserve">52</text>
</g>
<g id = "CZEGGUVT" >
<line x1="70" y1="580" x2="50" y2="580" stroke="#000000" stroke-width="1px"/>
<text x="77" y="583" font-size="8.888889px" font-family="Times New Roman" fill="#000000" xml:space="preserve">53</text>
</g>
<g id = "NXCQFKTW" >
<line x1="70" y1="590" x2="50" y2="590" stroke="#000000" stroke-width="1px"/>
<text x="77" y="593" font-size="8.888889px" font-family="Times New Roman" fill="#000000" xml:space="preserve">54</text>
</g>
<g id = "BKZJQRVY" >
<line x1="70" y1="600" x2="50" y2="600" stroke="#000000" stroke-width="1px"/>
<text x="77" y="603" font-size="8.888889px" font-family="Times New Roman" fill="#000000" xml:space="preserve">55</text>
</g>
<g id = "VWAJUIHR" >
<line x1="70" y1="610" x2="50" y2="610" stroke="#000000" stroke-width="1px"/>
<text x="77" y="613" font-size="8.888889px" font-family="Times New Roman" fill="#000000" xml:space="preserve">56</text>
</g>
<g id = "YFJHRZBL" >
<line x1="70" y1="620" x2="50" y2="620" stroke="#000000" stroke-width="1px"/>
<text x="77" y="623" font-size="8.888889px" font-family="Times New Roman" fill="#000000" xml:space="preserve">57</text>
</g>
<g id = "CVVKXCKE" >
<line x1="70" y1="630" x2="50" y2="630" stroke="#000000" stroke-width="1px"/>
<text x="77" y="633" font-size="8.888889px" font-family="Times New Roman" fill="#000000" xml:space="preserve">58</text>
</g>
<g id = "YSCDFPYK" >
<line x1="70" y1="640" x2="50" y2="640" stroke="#000000" stroke-width="1px"/>
<text x="77" y="643" font-size="8.888889px" font-family="Times New Roman" fill="#000000" xml:space="preserve">59</text>
</g>
<g id = "WUOAELAV" >
<line x1="70" y1="650" x2="50" y2="650" stroke="#000000" stroke-width="1px"/>
<text x="77" y="653" font-size="8.888889px" font-family="Times New Roman" fill="#000000" xml:space="preserve">60</text>
</g>
<g id = "ORKKUGZZ" >
<line x1="70" y1="660" x2="50" y2="660" stroke="#000000" stroke-width="1px"/>
<text x="77" y="663" font-size="8.888889px" font-family="Times New Roman" fill="#000000" xml:space="preserve">61</text>
</g>
<g id = "XWISSFJL" >
<line x1="70" y1="670" x2="50" y2="670" stroke="#000000" stroke-width="1px"/>
<text x="77" y="673" font-size="8.888889px" font-family="Times New Roman" fill="#000000" xml:space="preserve">62</text>
</g>
<g id = "SFDEUTMM" >
<line x1="70" y1="680" x2="50" y2="680" stroke="#000000" stroke-width="1px"/>
<text x="77" y="683" font-size="8.888889px" font-family="Times New Roman" fill="#000000" xml:space="preserve">63</text>
</g>
<g id = "RLHAANYF" >
<line x1="70" y1="690" x2="50" y2="690" stroke="#000000" stroke-width="1px"/>
<text x="77" y="693" font-size="8.888889px" font-family="Times New Roman" fill="#000000" xml:space="preserve">64</text>
</g>
<g id = "RPJWONOD" >
<line x1="70" y1="700" x2="50" y2="700" stroke="#000000" stroke-width="1px"/>
<text x="77" y="703" font-size="8.888889px" font-family="Times New Roman" fill="#000000" xml:space="preserve">65</text>
</g>
<g id = "JDXEDIFA" >
<line x1="70" y1="710" x2="50" y2="710" stroke="#000000" stroke-width="1px"/>
<text x="77" y="713" font-size="8.888889px" font-family="Times New Roman" fill="#000000" xml:space="preserve">66</text>
</g>
<g id = "LZLIZXJA" >
<line x1="70" y1="720" x2="50" y2="720" stroke="#000000" stroke-width="1px"/>
<text x="77" y="723" font-size="8.888889px" font-family="Times New Roman" fill="#000000" xml:space="preserve">67</text>
</g>
<g id = "VAGUZLNE" >
<line x1="70" y1="730" x2="50" y2="730" stroke="#000000" stroke-width="1px"/>
<text x="77" y="733" font-size="8.888889px" font-family="Times New Roman" fill="#000000" xml:space="preserve">68</text>
</g>
<g id = "YOVIGMPP" >
<line x1="70" y1="740" x2="50" y2="740" stroke="#000000" stroke-width="1px"/>
<text x="77" y="743" font-size="8.888889px" font-family="Times New Roman" fill="#000000" xml:space="preserve">69</text>
</g>
<g id = "FUPZMIFJ" >
<line x1="70" y1="750" x2="50" y2="750" stroke="#000000" stroke-width="1px"/>
<text x="77" y="753" font-size="8.888889px" font-family="Times New Roman" fill="#000000" xml:space="preserve">70</text>
</g>
<g id = "JGZUWMNW" >
<line x1="70" y1="760" x2="50" y2="760" stroke="#000000" stroke-width="1px"/>
<text x="77" y="763" font-size="8.888889px" font-family="Times New Roman" fill="#000000" xml:space="preserve">71</text>
</g>
<g id = "JAEAIGAN" >
<line x1="70" y1="770" x2="50" y2="770" stroke="#000000" stroke-width="1px"/>
<text x="77" y="773" font-size="8.888889px" font-family="Times New Roman" fill="#000000" xml:space="preserve">72</text>
</g>
<g id = "DCYBZSGD" >
<line x1="70" y1="780" x2="50" y2="780" stroke="#000000" stroke-width="1px"/>
<text x="77" y="783" font-size="8.888889px" font-family="Times New Roman" fill="#000000" xml:space="preserve">73</text>
</g>
<g id = "ZSPJPBPJ" >
<line x1="70" y1="790" x2="50" y2="790" stroke="#000000" stroke-width="1px"/>
<text x="77" y="793" font-size="8.888889px" font-family="Times New Roman" fill="#000000" xml:space="preserve">74</text>
</g>
<g id = "JRZTGUHR" >
<line x1="70" y1="800" x2="50" y2="800" stroke="#000000" stroke-width="1px"/>
<text x="77" y="803" font-size="8.888889px" font-family="Times New Roman" fill="#000000" xml:space="preserve">75</text>
</g>
<g id = "WMKVYNPX" >
<line x1="70" y1="810" x2="50" y2="810" stroke="#000000" stroke-width="1px"/>
<text x="77" y="813" font-size="8.888889px" font-family="Times New Roman" fill="#000000" xml:space="preserve">76</text>
</g>
<g id = "JWAOZZHV" >
<line x1="70" y1="820" x2="50" y2="820" stroke="#000000" stroke-width="1px"/>
<text x="77" y="823" font-size="8.888889px" font-family="Times New Roman" fill="#000000" xml:space="preserve">77</text>
</g>
<g id = "EGZKCSPF" >
<line x1="70" y1="830" x2="50" y2="830" stroke="#000000" stroke-width="1px"/>
<text x="77" y="833" font-size="8.888889px" font-family="Times New Roman" fill="#000000" xml:space="preserve">78</text>
</g>
<g id = "YORPPIPM" >
<line x1="70" y1="840" x2="50" y2="840" stroke="#000000" stroke-width="1px"/>
<text x="77" y="843" font-size="8.888889px" font-family="Times New Roman" fill="#000000" xml:space="preserve">79</text>
</g>
<g id = "XAIBCFVU" >
<line x1="70" y1="850" x2="50" y2="850" stroke="#000000" stroke-width="1px"/>
<text x="77" y="853" font-size="8.888889px" font-family="Times New Roman" fill="#000000" xml:space="preserve">80</text>
</g>
<g id = "MIPHISXC" >
<line x1="70" y1="860" x2="50" y2="860" stroke="#000000" stroke-width="1px"/>
<text x="77" y="863" font-size="8.888889px" font-family="Times New Roman" fill="#000000" xml:space="preserve">81</text>
</g>
<g id = "QDERLIBD" >
<line x1="70" y1="870" x2="50" y2="870" stroke="#000000" stroke-width="1px"/>
<text x="77" y="873" font-size="8.888889px" font-family="Times New Roman" fill="#000000" xml:space="preserve">82</text>
</g>
<g id = "STRWYYOE" >
<line x1="70" y1="880" x2="50" y2="880" stroke="#000000" stroke-width="1px"/>
<text x="77" y="883" font-size="8.888889px" font-family="Times New Roman" fill="#000000" xml:space="preserve">83</text>
</g>
<g id = "CGFKUBVE" >
<line x1="70" y1="890" x2="50" y2="890" stroke="#000000" stroke-width="1px"/>
<text x="77" y="893" font-size="8.888889px" font-family="Times New Roman" fill="#000000" xml:space="preserve">84</text>
</g>
<g id = "NGEFBZSH" >
<line x1="70" y1="900" x2="50" y2="900" stroke="#000000" stroke-width="1px"/>
<text x="77" y="903" font-size="8.888889px" font-family="Times New Roman" fill="#000000" xml:space="preserve">85</text>
</g>
<g id = "OKXWKYRO" >
<line x1="70" y1="910" x2="50" y2="910" stroke="#000000" stroke-width="1px"/>
<text x="77" y="913" font-size="8.888889px" font-family="Times New Roman" fill="#000000" xml:space="preserve">86</text>
</g>
<g id = "IFOSLDFL" >
<line x1="70" y1="920" x2="50" y2="920" stroke="#000000" stroke-width="1px"/>
<text x="77" y="923" font-size="8.888889px" font-family="Times New Roman" fill="#000000" xml:space="preserve">87</text>
</g>
<g id = "IDUPQAKA" >
<line x1="70" y1="930" x2="50" y2="930" stroke="#000000" stroke-width="1px"/>
<text x="77" y="933" font-size="8.888889px" font-family="Times New Roman" fill="#000000" xml:space="preserve">88</text>
</g>
<g id = "ZMGSLCRG" >
<line x1="110" y1="60" x2="130" y2="60" stroke="#000000" stroke-width="1px"/>
<text x="93.1111" y="63" font-size="8.888889px" font-family="Times New Roman" fill="#000000" xml:space="preserve">89</text>
</g>
<g id = "NCFXMGNS" >
<line x1="110" y1="70" x2="130" y2="70" stroke="#000000" stroke-width="1px"/>
<text x="93.1111" y="73" font-size="8.888889px" font-family="Times New Roman" fill="#000000" xml:space="preserve">90</text>
</g>
<g id = "DDPZVNQE" >
<line x1="110" y1="80" x2="130" y2="80" stroke="#000000" stroke-width="1px"/>
<text x="93.1111" y="83" font-size="8.888889px" font-family="Times New Roman" fill="#000000" xml:space="preserve">91</text>
</g>
<g id = "ZJMQOZFU" >
<line x1="110" y1="90" x2="130" y2="90" stroke="#000000" stroke-width="1px"/>
<text x="93.1111" y="93" font-size="8.888889px" font-family="Times New Roman" fill="#000000" xml:space="preserve">92</text>
</g>
<g id = "MGYBFAJG" >
<line x1="110" y1="100" x2="130" y2="100" stroke="#000000" stroke-width="1px"/>
<text x="93.1111" y="103" font-size="8.888889px" font-family="Times New Roman" fill="#000000" xml:space="preserve">93</text>
</g>
<g id = "VBNKQQOP" >
<line x1="110" y1="110" x2="130" y2="110" stroke="#000000" stroke-width="1px"/>
<text x="93.1111" y="113" font-size="8.888889px" font-family="Times New Roman" fill="#000000" xml:space="preserve">94</text>
</g>
<g id = "RWAKFHVT" >
<line x1="110" y1="120" x2="130" y2="120" stroke="#000000" stroke-width="1px"/>
<text x="93.1111" y="123" font-size="8.888889px" font-family="Times New Roman" fill="#000000" xml:space="preserve">95</text>
</g>
<g id = "BVFPZGMI" >
<line x1="110" y1="130" x2="130" y2="130" stroke="#000000" stroke-width="1px"/>
<text x="93.1111" y="133" font-size="8.888889px" font-family="Times New Roman" fill="#000000" xml:space="preserve">96</text>
</g>
<g id = "QTKDQWLT" >
<line x1="110" y1="140" x2="130" y2="140" stroke="#000000" stroke-width="1px"/>
<text x="93.1111" y="143" font-size="8.888889px" font-family="Times New Roman" fill="#000000" xml:space="preserve">97</text>
</g>
<g id = "TKOLROCZ" >
<line x1="110" y1="150" x2="130" y2="150" stroke="#000000" stroke-width="1px"/>
<text x="93.1111" y="153" font-size="8.888889px" font-family="Times New Roman" fill="#000000" xml:space="preserve">98</text>
</g>
<g id = "TZPNMRLF" >
<line x1="110" y1="160" x2="130" y2="160" stroke="#000000" stroke-width="1px"/>
<text x="93.1111" y="163" font-size="8.888889px" font-family="Times New Roman" fill="#000000" xml:space="preserve">99</text>
</g>
<g id = "XYGKDTNU" >
<line x1="110" y1="170" x2="130" y2="170" stroke="#000000" stroke-width="1px"/>
<text x="88.1667" y="173" font-size="8.888889px" font-family="Times New Roman" fill="#000000" xml:space="preserve">100</text>
</g>
<g id = "IGSMESQL" >
<line x1="110" y1="180" x2="130" y2="180" stroke="#000000" stroke-width="1px"/>
<text x="88.1667" y="183" font-size="8.888889px" font-family="Times New Roman" fill="#000000" xml:space="preserve">101</text>
</g>
<g id = "IKETDNNF" >
<line x1="110" y1="190" x2="130" y2="190" stroke="#000000" stroke-width="1px"/>
<text x="88.1667" y="193" font-size="8.888889px" font-family="Times New Roman" fill="#000000" xml:space="preserve">102</text>
</g>
<g id = "UCMSLGTA" >
<line x1="110" y1="200" x2="130" y2="200" stroke="#000000" stroke-width="1px"/>
<text x="88.1667" y="203" font-size="8.888889px" font-family="Times New Roman" fill="#000000" xml:space="preserve">103</text>
</g>
<g id = "COPBXGWU" >
<line x1="110" y1="210" x2="130" y2="210" stroke="#000000" stroke-width="1px"/>
<text x="88.1667" y="213" font-size="8.888889px" font-family="Times New Roman" fill="#000000" xml:space="preserve">104</text>
</g>
<g id = "PIZSVRBR" >
<line x1="110" y1="220" x2="130" y2="220" stroke="#000000" stroke-width="1px"/>
<text x="88.1667" y="223" font-size="8.888889px" font-family="Times New Roman" fill="#000000" xml:space="preserve">105</text>
</g>
<g id = "KNGVQYEL" >
<line x1="110" y1="230" x2="130" y2="230" stroke="#000000" stroke-width="1px"/>
<text x="88.1667" y="233" font-size="8.888889px" font-family="Times New Roman" fill="#000000" xml:space="preserve">106</text>
</g>
<g id = "PSYBVEMP" >
<line x1="110" y1="240" x2="130" y2="240" stroke="#000000" stroke-width="1px"/>
<text x="88.1667" y="243" font-size="8.888889px" font-family="Times New Roman" fill="#000000" xml:space="preserve">107</text>
</g>
<g id = "CQLDVSER" >
<line x1="110" y1="250" x2="130" y2="250" stroke="#000000" stroke-width="1px"/>
<text x="88.1667" y="253" font-size="8.888889px" font-family="Times New Roman" fill="#000000" xml:space="preserve">108</text>
</g>
<g id = "GEFHNNZJ" >
<line x1="110" y1="260" x2="130" y2="260" stroke="#000000" stroke-width="1px"/>
<text x="88.1667" y="263" font-size="8.888889px" font-family="Times New Roman" fill="#000000" xml:space="preserve">109</text>
</g>
<g id = "EBTKTLWT" >
<line x1="110" y1="270" x2="130" y2="270" stroke="#000000" stroke-width="1px"/>
<text x="88.1667" y="273" font-size="8.888889px" font-family="Times New Roman" fill="#000000" xml:space="preserve">110</text>
</g>
<g id = "GTDTHODN" >
<line x1="110" y1="280" x2="130" y2="280" stroke="#000000" stroke-width="1px"/>
<text x="88.1667" y="283" font-size="8.888889px" font-family="Times New Roman" fill="#000000" xml:space="preserve">111</text>
</g>
<g id = "CTXYCTHK" >
<line x1="110" y1="290" x2="130" y2="290" stroke="#000000" stroke-width="1px"/>
<text x="88.1667" y="293" font-size="8.888889px" font-family="Times New Roman" fill="#000000" xml:space="preserve">112</text>
</g>
<g id = "COFVRFHX" >
<line x1="110" y1="300" x2="130" y2="300" stroke="#000000" stroke-width="1px"/>
<text x="88.1667" y="303" font-size="8.888889px" font-family="Times New Roman" fill="#000000" xml:space="preserve">113</text>
</g>
<g id = "VIBPCKKG" >
<line x1="110" y1="310" x2="130" y2="310" stroke="#000000" stroke-width="1px"/>
<text x="88.1667" y="313" font-size="8.888889px" font-family="Times New Roman" fill="#000000" xml:space="preserve">114</text>
</g>
<g id = "FTAEXAQV" >
<line x1="110" y1="320" x2="130" y2="320" stroke="#000000" stroke-width="1px"/>
<text x="88.1667" y="323" font-size="8.888889px" font-family="Times New Roman" fill="#000000" xml:space="preserve">115</text>
</g>
<g id = "MEWOIJBZ" >
<line x1="110" y1="330" x2="130" y2="330" stroke="#000000" stroke-width="1px"/>
<text x="88.1667" y="333" font-size="8.888889px" font-family="Times New Roman" fill="#000000" xml:space="preserve">116</text>
</g>
<g id = "NBQUQUYC" >
<line x1="110" y1="340" x2="130" y2="340" stroke="#000000" stroke-width="1px"/>
<text x="88.1667" y="343" font-size="8.888889px" font-family="Times New Roman" fill="#000000" xml:space="preserve">117</text>
</g>
<g id = "PDAWCASW" >
<line x1="110" y1="350" x2="130" y2="350" stroke="#000000" stroke-width="1px"/>
<text x="88.1667" y="353" font-size="8.888889px" font-family="Times New Roman" fill="#000000" xml:space="preserve">118</text>
</g>
<g id = "AQVRTYWO" >
<line x1="110" y1="360" x2="130" y2="360" stroke="#000000" stroke-width="1px"/>
<text x="88.1667" y="363" font-size="8.888889px" font-family="Times New Roman" fill="#000000" xml:space="preserve">119</text>
</g>
<g id = "SRQTKGSV" >
<line x1="110" y1="370" x2="130" y2="370" stroke="#000000" stroke-width="1px"/>
<text x="88.1667" y="373" font-size="8.888889px" font-family="Times New Roman" fill="#000000" xml:space="preserve">120</text>
</g>
<g id = "QEZQVSSB" >
<line x1="110" y1="380" x2="130" y2="380" stroke="#000000" stroke-width="1px"/>
<text x="88.1667" y="383" font-size="8.888889px" font-family="Times New Roman" fill="#000000" xml:space="preserve">121</text>
</g>
<g id = "OTOSAYRH" >
<line x1="110" y1="390" x2="130" y2="390" stroke="#000000" stroke-width="1px"/>
<text x="88.1667" y="393" font-size="8.888889px" font-family="Times New Roman" fill="#000000" xml:space="preserve">122</text>
</g>
<g id = "MGJOVBAZ" >
<line x1="110" y1="400" x2="130" y2="400" stroke="#000000" stroke-width="1px"/>
<text x="88.1667" y="403" font-size="8.888889px" font-family="Times New Roman" fill="#000000" xml:space="preserve">123</text>
</g>
<g id = "PPLHNHYC" >
<line x1="110" y1="410" x2="130" y2="410" stroke="#000000" stroke-width="1px"/>
<text x="88.1667" y="413" font-size="8.888889px" font-family="Times New Roman" fill="#000000" xml:space="preserve">124</text>
</g>
<g id = "OIRLWFBJ" >
<line x1="110" y1="420" x2="130" y2="420" stroke="#000000" stroke-width="1px"/>
<text x="88.1667" y="423" font-size="8.888889px" font-family="Times New Roman" fill="#000000" xml:space="preserve">125</text>
</g>
<g id = "BJLCWCLE" >
<line x1="110" y1="430" x2="130" y2="430" stroke="#000000" stroke-width="1px"/>
<text x="88.1667" y="433" font-size="8.888889px" font-family="Times New Roman" fill="#000000" xml:space="preserve">126</text>
</g>
<g id = "JUDOCJKH" >
<line x1="110" y1="440" x2="130" y2="440" stroke="#000000" stroke-width="1px"/>
<text x="88.1667" y="443" font-size="8.888889px" font-family="Times New Roman" fill="#000000" xml:space="preserve">127</text>
</g>
<g id = "KVJPEIQB" >
<line x1="110" y1="450" x2="130" y2="450" stroke="#000000" stroke-width="1px"/>
<text x="88.1667" y="453" font-size="8.888889px" font-family="Times New Roman" fill="#000000" xml:space="preserve">128</text>
</g>
<g id = "TJLLKLGQ" >
<line x1="110" y1="460" x2="130" y2="460" stroke="#000000" stroke-width="1px"/>
<text x="88.1667" y="463" font-size="8.888889px" font-family="Times New Roman" fill="#000000" xml:space="preserve">129</text>
</g>
<g id = "FHRJJFHR" >
<line x1="110" y1="470" x2="130" y2="470" stroke="#000000" stroke-width="1px"/>
<text x="88.1667" y="473" font-size="8.888889px" font-family="Times New Roman" fill="#000000" xml:space="preserve">130</text>
</g>
<g id = "QHMSVIEJ" >
<line x1="110" y1="480" x2="130" y2="480" stroke="#000000" stroke-width="1px"/>
<text x="88.1667" y="483" font-size="8.888889px" font-family="Times New Roman" fill="#000000" xml:space="preserve">131</text>
</g>
<g id = "CTYWVCYE" >
<line x1="110" y1="490" x2="130" y2="490" stroke="#000000" stroke-width="1px"/>
<text x="88.1667" y="493" font-size="8.888889px" font-family="Times New Roman" fill="#000000" xml:space="preserve">132</text>
</g>
<g id = "DEVVDSMF" >
<line x1="110" y1="500" x2="130" y2="500" stroke="#000000" stroke-width="1px"/>
<text x="88.1667" y="503" font-size="8.888889px" font-family="Times New Roman" fill="#000000" xml:space="preserve">133</text>
</g>
<g id = "SSVBFAMY" >
<line x1="110" y1="510" x2="130" y2="510" stroke="#000000" stroke-width="1px"/>
<text x="88.1667" y="513" font-size="8.888889px" font-family="Times New Roman" fill="#000000" xml:space="preserve">134</text>
</g>
<g id = "UBFTUFND" >
<line x1="110" y1="520" x2="130" y2="520" stroke="#000000" stroke-width="1px"/>
<text x="88.1667" y="523" font-size="8.888889px" font-family="Times New Roman" fill="#000000" xml:space="preserve">135</text>
</g>
<g id = "WUVMFCQZ" >
<line x1="110" y1="530" x2="130" y2="530" stroke="#000000" stroke-width="1px"/>
<text x="88.1667" y="533" font-size="8.888889px" font-family="Times New Roman" fill="#000000" xml:space="preserve">136</text>
</g>
<g id = "LYVVFEKV" >
<line x1="110" y1="540" x2="130" y2="540" stroke="#000000" stroke-width="1px"/>
<text x="88.1667" y="543" font-size="8.888889px" font-family="Times New Roman" fill="#000000" xml:space="preserve">137</text>
</g>
<g id = "MBIPQBPD" >
<line x1="110" y1="550" x2="130" y2="550" stroke="#000000" stroke-width="1px"/>
<text x="88.1667" y="553" font-size="8.888889px" font-family="Times New Roman" fill="#000000" xml:space="preserve">138</text>
</g>
<g id = "CIBOBFCG" >
<line x1="110" y1="560" x2="130" y2="560" stroke="#000000" stroke-width="1px"/>
<text x="88.1667" y="563" font-size="8.888889px" font-family="Times New Roman" fill="#000000" xml:space="preserve">139</text>
</g>
<g id = "RIQKIIPM" >
<line x1="110" y1="570" x2="130" y2="570" stroke="#000000" stroke-width="1px"/>
<text x="88.1667" y="573" font-size="8.888889px" font-family="Times New Roman" fill="#000000" xml:space="preserve">140</text>
</g>
<g id = "DECXGIKY" >
<line x1="110" y1="580" x2="130" y2="580" stroke="#000000" stroke-width="1px"/>
<text x="88.1667" y="583" font-size="8.888889px" font-family="Times New Roman" fill="#000000" xml:space="preserve">141</text>
</g>
<g id = "TETBPIYF" >
<line x1="110" y1="590" x2="130" y2="590" stroke="#000000" stroke-width="1px"/>
<text x="88.1667" y="593" font-size="8.888889px" font-family="Times New Roman" fill="#000000" xml:space="preserve">142</text>
</g>
<g id = "NQEMVGLT" >
<line x1="110" y1="600" x2="130" y2="600" stroke="#000000" stroke-width="1px"/>
<text x="88.1667" y="603" font-size="8.888889px" font-family="Times New Roman" fill="#000000" xml:space="preserve">143</text>
</g>
<g id = "PCXHQTCD" >
<line x1="110" y1="610" x2="130" y2="610" stroke="#000000" stroke-width="1px"/>
<text x="88.1667" y="613" font-size="8.888889px" font-family="Times New Roman" fill="#000000" xml:space="preserve">144</text>
</g>
<g id = "XQPLQIKV" >
<line x1="110" y1="620" x2="130" y2="620" stroke="#000000" stroke-width="1px"/>
<text x="88.1667" y="623" font-size="8.888889px" font-family="Times New Roman" fill="#000000" xml:space="preserve">145</text>
</g>
<g id = "JIPEJJZD" >
<line x1="110" y1="630" x2="130" y2="630" stroke="#000000" stroke-width="1px"/>
<text x="88.1667" y="633" font-size="8.888889px" font-family="Times New Roman" fill="#000000" xml:space="preserve">146</text>
</g>
<g id = "RCVZTYQT" >
<line x1="110" y1="640" x2="130" y2="640" stroke="#000000" stroke-width="1px"/>
<text x="88.1667" y="643" font-size="8.888889px" font-family="Times New Roman" fill="#000000" xml:space="preserve">147</text>
</g>
<g id = "QEHPXOVC" >
<line x1="110" y1="650" x2="130" y2="650" stroke="#000000" stroke-width="1px"/>
<text x="88.1667" y="653" font-size="8.888889px" font-family="Times New Roman" fill="#000000" xml:space="preserve">148</text>
</g>
<g id = "HXZALZKU" >
<line x1="110" y1="660" x2="130" y2="660" stroke="#000000" stroke-width="1px"/>
<text x="88.1667" y="663" font-size="8.888889px" font-family="Times New Roman" fill="#000000" xml:space="preserve">149</text>
</g>
<g id = "PXFTYPUB" >
<line x1="110" y1="670" x2="130" y2="670" stroke="#000000" stroke-width="1px"/>
<text x="88.1667" y="673" font-size="8.888889px" font-family="Times New Roman" fill="#000000" xml:space="preserve">150</text>
</g>
<g id = "EMOWLFJH" >
<line x1="110" y1="680" x2="130" y2="680" stroke="#000000" stroke-width="1px"/>
<text x="88.1667" y="683" font-size="8.888889px" font-family="Times New Roman" fill="#000000" xml:space="preserve">151</text>
</g>
<g id = "HUDYXVLR" >
<line x1="110" y1="690" x2="130" y2="690" stroke="#000000" stroke-width="1px"/>
<text x="88.1667" y="693" font-size="8.888889px" font-family="Times New Roman" fill="#000000" xml:space="preserve">152</text>
</g>
<g id = "SDDCMEAA" >
<line x1="110" y1="700" x2="130" y2="700" stroke="#000000" stroke-width="1px"/>
<text x="88.1667" y="703" font-size="8.888889px" font-family="Times New Roman" fill="#000000" xml:space="preserve">153</text>
</g>
<g id = "SBJWRMBH" >
<line x1="110" y1="710" x2="130" y2="710" stroke="#000000" stroke-width="1px"/>
<text x="88.1667" y="713" font-size="8.888889px" font-family="Times New Roman" fill="#000000" xml:space="preserve">154</text>
</g>
<g id = "RESBONOJ" >
<line x1="110" y1="720" x2="130" y2="720" stroke="#000000" stroke-width="1px"/>
<text x="88.1667" y="723" font-size="8.888889px" font-family="Times New Roman" fill="#000000" xml:space="preserve">155</text>
</g>
<g id = "OMONTUPQ" >
<line x1="110" y1="730" x2="130" y2="730" stroke="#000000" stroke-width="1px"/>
<text x="88.1667" y="733" font-size="8.888889px" font-family="Times New Roman" fill="#000000" xml:space="preserve">156</text>
</g>
<g id = "STEJBHUE" >
<line x1="110" y1="740" x2="130" y2="740" stroke="#000000" stroke-width="1px"/>
<text x="88.1667" y="743" font-size="8.888889px" font-family="Times New Roman" fill="#000000" xml:space="preserve">157</text>
</g>
<g id = "JLFFGDOJ" >
<line x1="110" y1="750" x2="130" y2="750" stroke="#000000" stroke-width="1px"/>
<text x="88.1667" y="753" font-size="8.888889px" font-family="Times New Roman" fill="#000000" xml:space="preserve">158</text>
</g>
<g id = "FXLCZKTL" >
<line x1="110" y1="760" x2="130" y2="760" stroke="#000000" stroke-width="1px"/>
<text x="88.1667" y="763" font-size="8.888889px" font-family="Times New Roman" fill="#000000" xml:space="preserve">159</text>
</g>
<g id = "ZUFUAPBB" >
<line x1="110" y1="770" x2="130" y2="770" stroke="#000000" stroke-width="1px"/>
<text x="88.1667" y="773" font-size="8.888889px" font-family="Times New Roman" fill="#000000" xml:space="preserve">160</text>
</g>
<g id = "UMDNMKAA" >
<line x1="110" y1="780" x2="130" y2="780" stroke="#000000" stroke-width="1px"/>
<text x="88.1667" y="783" font-size="8.888889px" font-family="Times New Roman" fill="#000000" xml:space="preserve">161</text>
</g>
<g id = "JJTUAOTC" >
<line x1="110" y1="790" x2="130" y2="790" stroke="#000000" stroke-width="1px"/>
<text x="88.1667" y="793" font-size="8.888889px" font-family="Times New Roman" fill="#000000" xml:space="preserve">162</text>
</g>
<g id = "DLADMLTC" >
<line x1="110" y1="800" x2="130" y2="800" stroke="#000000" stroke-width="1px"/>
<text x="88.1667" y="803" font-size="8.888889px" font-family="Times New Roman" fill="#000000" xml:space="preserve">163</text>
</g>
<g id = "FCRWDEQZ" >
<line x1="110" y1="810" x2="130" y2="810" stroke="#000000" stroke-width="1px"/>
<text x="88.1667" y="813" font-size="8.888889px" font-family="Times New Roman" fill="#000000" xml:space="preserve">164</text>
</g>
<g id = "ULAFRYQK" >
<line x1="110" y1="820" x2="130" y2="820" stroke="#000000" stroke-width="1px"/>
<text x="88.1667" y="823" font-size="8.888889px" font-family="Times New Roman" fill="#000000" xml:space="preserve">165</text>
</g>
<g id = "DASULYLS" >
<line x1="110" y1="830" x2="130" y2="830" stroke="#000000" stroke-width="1px"/>
<text x="88.1667" y="833" font-size="8.888889px" font-family="Times New Roman" fill="#000000" xml:space="preserve">166</text>
</g>
<g id = "TGUAJVEF" >
<line x1="110" y1="840" x2="130" y2="840" stroke="#000000" stroke-width="1px"/>
<text x="88.1667" y="843" font-size="8.888889px" font-family="Times New Roman" fill="#000000" xml:space="preserve">167</text>
</g>
<g id = "NSDXBRNL" >
<line x1="110" y1="850" x2="130" y2="850" stroke="#000000" stroke-width="1px"/>
<text x="88.1667" y="853" font-size="8.888889px" font-family="Times New Roman" fill="#000000" xml:space="preserve">168</text>
</g>
<g id = "BPUFKVDF" >
<line x1="110" y1="860" x2="130" y2="860" stroke="#000000" stroke-width="1px"/>
<text x="88.1667" y="863" font-size="8.888889px" font-family="Times New Roman" fill="#000000" xml:space="preserve">169</text>
</g>
<g id = "IAXDGNJE" >
<line x1="110" y1="870" x2="130" y2="870" stroke="#000000" stroke-width="1px"/>
<text x="88.1667" y="873" font-size="8.888889px" font-family="Times New Roman" fill="#000000" xml:space="preserve">170</text>
</g>
<g id = "MFVONJXX" >
<line x1="110" y1="880" x2="130" y2="880" stroke="#000000" stroke-width="1px"/>
<text x="88.1667" y="883" font-size="8.888889px" font-family="Times New Roman" fill="#000000" xml:space="preserve">171</text>
</g>
<g id = "NIWQMOYW" >
<line x1="110" y1="890" x2="130" y2="890" stroke="#000000" stroke-width="1px"/>
<text x="88.1667" y="893" font-size="8.888889px" font-family="Times New Roman" fill="#000000" xml:space="preserve">172</text>
</g>
<g id = "FBGPFDVL" >
<line x1="110" y1="900" x2="130" y2="900" stroke="#000000" stroke-width="1px"/>
<text x="88.1667" y="903" font-size="8.888889px" font-family="Times New Roman" fill="#000000" xml:space="preserve">173</text>
</g>
<g id = "UJHEFWWR" >
<line x1="110" y1="910" x2="130" y2="910" stroke="#000000" stroke-width="1px"/>
<text x="88.1667" y="913" font-size="8.888889px" font-family="Times New Roman" fill="#000000" xml:space="preserve">174</text>
</g>
<g id = "HRZMRPUM" >
<line x1="110" y1="920" x2="130" y2="920" stroke="#000000" stroke-width="1px"/>
<text x="88.1667" y="923" font-size="8.888889px" font-family="Times New Roman" fill="#000000" xml:space="preserve">175</text>
</g>
<g id = "EVIYRDAC" >
<line x1="110" y1="930" x2="130" y2="930" stroke="#000000" stroke-width="1px"/>
<text x="88.1667" y="933" font-size="8.888889px" font-family="Times New Roman" fill="#000000" xml:space="preserve">176</text>
</g>
</g>
</g>
</g>
</g>
</svg>