<?xml version="1.0"  encoding="UTF-8" standalone="no"?>
<svg version="1.1" xmlns="http://www.w3.org/2000/svg" xmlns:xlink="http://www.w3.org/1999/xlink" stroke-linecap="round" stroke-linejoin="round" fill="none" width="180" height="1080" viewBox="0 0 180 1080" data-doc-id="symbol-Header 97X2A" data-doc-ver="2">
<g id = "scene" >
<g id = "DocumentMainGroup" >
<g id = "BackgroundGroup" >
<rect x = "0" y="0" width="180" height="1080" fill="#FFFFFF" fill-opacity="1"/>
</g>
<g id = "symbol-Header 97X2A" >
<g id = "DocumentItemsGroup" >
<g id = "SMPTDSDX" >
<rect x = "70" y="50" width="40" height="980" stroke="#0000FF" stroke-width="1px"/>
</g>
<g id = "WQBGBSKC" >
<line x1="70" y1="60" x2="50" y2="60" stroke="#000000" stroke-width="1px"/>
<text x="77" y="63" font-size="8.888889px" font-family="Times New Roman" fill="#000000" xml:space="preserve">1</text>
</g>
<g id = "FPRNSYZO" >
<line x1="70" y1="70" x2="50" y2="70" stroke="#000000" stroke-width="1px"/>
<text x="77" y="73" font-size="8.888889px" font-family="Times New Roman" fill="#000000" xml:space="preserve">2</text>
</g>
<g id = "EQYDSGWB" >
<line x1="70" y1="80" x2="50" y2="80" stroke="#000000" stroke-width="1px"/>
<text x="77" y="83" font-size="8.888889px" font-family="Times New Roman" fill="#000000" xml:space="preserve">3</text>
</g>
<g id = "JCAQRHQO" >
<line x1="70" y1="90" x2="50" y2="90" stroke="#000000" stroke-width="1px"/>
<text x="77" y="93" font-size="8.888889px" font-family="Times New Roman" fill="#000000" xml:space="preserve">4</text>
</g>
<g id = "CVCYXVNX" >
<line x1="70" y1="100" x2="50" y2="100" stroke="#000000" stroke-width="1px"/>
<text x="77" y="103" font-size="8.888889px" font-family="Times New Roman" fill="#000000" xml:space="preserve">5</text>
</g>
<g id = "QUJKFMDH" >
<line x1="70" y1="110" x2="50" y2="110" stroke="#000000" stroke-width="1px"/>
<text x="77" y="113" font-size="8.888889px" font-family="Times New Roman" fill="#000000" xml:space="preserve">6</text>
</g>
<g id = "YGNPNLJM" >
<line x1="70" y1="120" x2="50" y2="120" stroke="#000000" stroke-width="1px"/>
<text x="77" y="123" font-size="8.888889px" font-family="Times New Roman" fill="#000000" xml:space="preserve">7</text>
</g>
<g id = "VWQZSVHH" >
<line x1="70" y1="130" x2="50" y2="130" stroke="#000000" stroke-width="1px"/>
<text x="77" y="133" font-size="8.888889px" font-family="Times New Roman" fill="#000000" xml:space="preserve">8</text>
</g>
<g id = "WJASSDWN" >
<line x1="70" y1="140" x2="50" y2="140" stroke="#000000" stroke-width="1px"/>
<text x="77" y="143" font-size="8.888889px" font-family="Times New Roman" fill="#000000" xml:space="preserve">9</text>
</g>
<g id = "SZRQXJTU" >
<line x1="70" y1="150" x2="50" y2="150" stroke="#000000" stroke-width="1px"/>
<text x="77" y="153" font-size="8.888889px" font-family="Times New Roman" fill="#000000" xml:space="preserve">10</text>
</g>
<g id = "ISBVIUKZ" >
<line x1="70" y1="160" x2="50" y2="160" stroke="#000000" stroke-width="1px"/>
<text x="77" y="163" font-size="8.888889px" font-family="Times New Roman" fill="#000000" xml:space="preserve">11</text>
</g>
<g id = "XKQMSIZQ" >
<line x1="70" y1="170" x2="50" y2="170" stroke="#000000" stroke-width="1px"/>
<text x="77" y="173" font-size="8.888889px" font-family="Times New Roman" fill="#000000" xml:space="preserve">12</text>
</g>
<g id = "GEJKOEAM" >
<line x1="70" y1="180" x2="50" y2="180" stroke="#000000" stroke-width="1px"/>
<text x="77" y="183" font-size="8.888889px" font-family="Times New Roman" fill="#000000" xml:space="preserve">13</text>
</g>
<g id = "NUNLMBSY" >
<line x1="70" y1="190" x2="50" y2="190" stroke="#000000" stroke-width="1px"/>
<text x="77" y="193" font-size="8.888889px" font-family="Times New Roman" fill="#000000" xml:space="preserve">14</text>
</g>
<g id = "RQVAVUFE" >
<line x1="70" y1="200" x2="50" y2="200" stroke="#000000" stroke-width="1px"/>
<text x="77" y="203" font-size="8.888889px" font-family="Times New Roman" fill="#000000" xml:space="preserve">15</text>
</g>
<g id = "DIQAKIHB" >
<line x1="70" y1="210" x2="50" y2="210" stroke="#000000" stroke-width="1px"/>
<text x="77" y="213" font-size="8.888889px" font-family="Times New Roman" fill="#000000" xml:space="preserve">16</text>
</g>
<g id = "UHPNROGP" >
<line x1="70" y1="220" x2="50" y2="220" stroke="#000000" stroke-width="1px"/>
<text x="77" y="223" font-size="8.888889px" font-family="Times New Roman" fill="#000000" xml:space="preserve">17</text>
</g>
<g id = "GNQZGIIC" >
<line x1="70" y1="230" x2="50" y2="230" stroke="#000000" stroke-width="1px"/>
<text x="77" y="233" font-size="8.888889px" font-family="Times New Roman" fill="#000000" xml:space="preserve">18</text>
</g>
<g id = "TAIMZHPR" >
<line x1="70" y1="240" x2="50" y2="240" stroke="#000000" stroke-width="1px"/>
<text x="77" y="243" font-size="8.888889px" font-family="Times New Roman" fill="#000000" xml:space="preserve">19</text>
</g>
<g id = "JLVDUDHE" >
<line x1="70" y1="250" x2="50" y2="250" stroke="#000000" stroke-width="1px"/>
<text x="77" y="253" font-size="8.888889px" font-family="Times New Roman" fill="#000000" xml:space="preserve">20</text>
</g>
<g id = "QCGKYGCZ" >
<line x1="70" y1="260" x2="50" y2="260" stroke="#000000" stroke-width="1px"/>
<text x="77" y="263" font-size="8.888889px" font-family="Times New Roman" fill="#000000" xml:space="preserve">21</text>
</g>
<g id = "YGLOWRYE" >
<line x1="70" y1="270" x2="50" y2="270" stroke="#000000" stroke-width="1px"/>
<text x="77" y="273" font-size="8.888889px" font-family="Times New Roman" fill="#000000" xml:space="preserve">22</text>
</g>
<g id = "UDEPFFJM" >
<line x1="70" y1="280" x2="50" y2="280" stroke="#000000" stroke-width="1px"/>
<text x="77" y="283" font-size="8.888889px" font-family="Times New Roman" fill="#000000" xml:space="preserve">23</text>
</g>
<g id = "PVCMAHCZ" >
<line x1="70" y1="290" x2="50" y2="290" stroke="#000000" stroke-width="1px"/>
<text x="77" y="293" font-size="8.888889px" font-family="Times New Roman" fill="#000000" xml:space="preserve">24</text>
</g>
<g id = "HISWJGRB" >
<line x1="70" y1="300" x2="50" y2="300" stroke="#000000" stroke-width="1px"/>
<text x="77" y="303" font-size="8.888889px" font-family="Times New Roman" fill="#000000" xml:space="preserve">25</text>
</g>
<g id = "MAPTNDJH" >
<line x1="70" y1="310" x2="50" y2="310" stroke="#000000" stroke-width="1px"/>
<text x="77" y="313" font-size="8.888889px" font-family="Times New Roman" fill="#000000" xml:space="preserve">26</text>
</g>
<g id = "DXSIKRIK" >
<line x1="70" y1="320" x2="50" y2="320" stroke="#000000" stroke-width="1px"/>
<text x="77" y="323" font-size="8.888889px" font-family="Times New Roman" fill="#000000" xml:space="preserve">27</text>
</g>
<g id = "XMMSURNT" >
<line x1="70" y1="330" x2="50" y2="330" stroke="#000000" stroke-width="1px"/>
<text x="77" y="333" font-size="8.888889px" font-family="Times New Roman" fill="#000000" xml:space="preserve">28</text>
</g>
<g id = "JCFDCPVF" >
<line x1="70" y1="340" x2="50" y2="340" stroke="#000000" stroke-width="1px"/>
<text x="77" y="343" font-size="8.888889px" font-family="Times New Roman" fill="#000000" xml:space="preserve">29</text>
</g>
<g id = "QZQGLNBM" >
<line x1="70" y1="350" x2="50" y2="350" stroke="#000000" stroke-width="1px"/>
<text x="77" y="353" font-size="8.888889px" font-family="Times New Roman" fill="#000000" xml:space="preserve">30</text>
</g>
<g id = "GDIMAJOV" >
<line x1="70" y1="360" x2="50" y2="360" stroke="#000000" stroke-width="1px"/>
<text x="77" y="363" font-size="8.888889px" font-family="Times New Roman" fill="#000000" xml:space="preserve">31</text>
</g>
<g id = "XDUZAKGL" >
<line x1="70" y1="370" x2="50" y2="370" stroke="#000000" stroke-width="1px"/>
<text x="77" y="373" font-size="8.888889px" font-family="Times New Roman" fill="#000000" xml:space="preserve">32</text>
</g>
<g id = "HHBKQLRW" >
<line x1="70" y1="380" x2="50" y2="380" stroke="#000000" stroke-width="1px"/>
<text x="77" y="383" font-size="8.888889px" font-family="Times New Roman" fill="#000000" xml:space="preserve">33</text>
</g>
<g id = "REAKJRUN" >
<line x1="70" y1="390" x2="50" y2="390" stroke="#000000" stroke-width="1px"/>
<text x="77" y="393" font-size="8.888889px" font-family="Times New Roman" fill="#000000" xml:space="preserve">34</text>
</g>
<g id = "RGIELGMS" >
<line x1="70" y1="400" x2="50" y2="400" stroke="#000000" stroke-width="1px"/>
<text x="77" y="403" font-size="8.888889px" font-family="Times New Roman" fill="#000000" xml:space="preserve">35</text>
</g>
<g id = "HGENEZGH" >
<line x1="70" y1="410" x2="50" y2="410" stroke="#000000" stroke-width="1px"/>
<text x="77" y="413" font-size="8.888889px" font-family="Times New Roman" fill="#000000" xml:space="preserve">36</text>
</g>
<g id = "TKMWHHGS" >
<line x1="70" y1="420" x2="50" y2="420" stroke="#000000" stroke-width="1px"/>
<text x="77" y="423" font-size="8.888889px" font-family="Times New Roman" fill="#000000" xml:space="preserve">37</text>
</g>
<g id = "XTPLWGED" >
<line x1="70" y1="430" x2="50" y2="430" stroke="#000000" stroke-width="1px"/>
<text x="77" y="433" font-size="8.888889px" font-family="Times New Roman" fill="#000000" xml:space="preserve">38</text>
</g>
<g id = "ABBEDGTT" >
<line x1="70" y1="440" x2="50" y2="440" stroke="#000000" stroke-width="1px"/>
<text x="77" y="443" font-size="8.888889px" font-family="Times New Roman" fill="#000000" xml:space="preserve">39</text>
</g>
<g id = "XMOOYEGA" >
<line x1="70" y1="450" x2="50" y2="450" stroke="#000000" stroke-width="1px"/>
<text x="77" y="453" font-size="8.888889px" font-family="Times New Roman" fill="#000000" xml:space="preserve">40</text>
</g>
<g id = "MDUGJBHI" >
<line x1="70" y1="460" x2="50" y2="460" stroke="#000000" stroke-width="1px"/>
<text x="77" y="463" font-size="8.888889px" font-family="Times New Roman" fill="#000000" xml:space="preserve">41</text>
</g>
<g id = "TCSMUJNX" >
<line x1="70" y1="470" x2="50" y2="470" stroke="#000000" stroke-width="1px"/>
<text x="77" y="473" font-size="8.888889px" font-family="Times New Roman" fill="#000000" xml:space="preserve">42</text>
</g>
<g id = "VYKFMNUH" >
<line x1="70" y1="480" x2="50" y2="480" stroke="#000000" stroke-width="1px"/>
<text x="77" y="483" font-size="8.888889px" font-family="Times New Roman" fill="#000000" xml:space="preserve">43</text>
</g>
<g id = "YPKYNOQM" >
<line x1="70" y1="490" x2="50" y2="490" stroke="#000000" stroke-width="1px"/>
<text x="77" y="493" font-size="8.888889px" font-family="Times New Roman" fill="#000000" xml:space="preserve">44</text>
</g>
<g id = "ICKQQMIK" >
<line x1="70" y1="500" x2="50" y2="500" stroke="#000000" stroke-width="1px"/>
<text x="77" y="503" font-size="8.888889px" font-family="Times New Roman" fill="#000000" xml:space="preserve">45</text>
</g>
<g id = "YQJTWUNI" >
<line x1="70" y1="510" x2="50" y2="510" stroke="#000000" stroke-width="1px"/>
<text x="77" y="513" font-size="8.888889px" font-family="Times New Roman" fill="#000000" xml:space="preserve">46</text>
</g>
<g id = "NDERHVZO" >
<line x1="70" y1="520" x2="50" y2="520" stroke="#000000" stroke-width="1px"/>
<text x="77" y="523" font-size="8.888889px" font-family="Times New Roman" fill="#000000" xml:space="preserve">47</text>
</g>
<g id = "KHDQWYDQ" >
<line x1="70" y1="530" x2="50" y2="530" stroke="#000000" stroke-width="1px"/>
<text x="77" y="533" font-size="8.888889px" font-family="Times New Roman" fill="#000000" xml:space="preserve">48</text>
</g>
<g id = "NILPHJQJ" >
<line x1="70" y1="540" x2="50" y2="540" stroke="#000000" stroke-width="1px"/>
<text x="77" y="543" font-size="8.888889px" font-family="Times New Roman" fill="#000000" xml:space="preserve">49</text>
</g>
<g id = "YJSOGWME" >
<line x1="70" y1="550" x2="50" y2="550" stroke="#000000" stroke-width="1px"/>
<text x="77" y="553" font-size="8.888889px" font-family="Times New Roman" fill="#000000" xml:space="preserve">50</text>
</g>
<g id = "DFDKFGAB" >
<line x1="70" y1="560" x2="50" y2="560" stroke="#000000" stroke-width="1px"/>
<text x="77" y="563" font-size="8.888889px" font-family="Times New Roman" fill="#000000" xml:space="preserve">51</text>
</g>
<g id = "UGYNSMBX" >
<line x1="70" y1="570" x2="50" y2="570" stroke="#000000" stroke-width="1px"/>
<text x="77" y="573" font-size="8.888889px" font-family="Times New Roman" fill="#000000" xml:space="preserve">52</text>
</g>
<g id = "JTEFGJRM" >
<line x1="70" y1="580" x2="50" y2="580" stroke="#000000" stroke-width="1px"/>
<text x="77" y="583" font-size="8.888889px" font-family="Times New Roman" fill="#000000" xml:space="preserve">53</text>
</g>
<g id = "MXLKCWUS" >
<line x1="70" y1="590" x2="50" y2="590" stroke="#000000" stroke-width="1px"/>
<text x="77" y="593" font-size="8.888889px" font-family="Times New Roman" fill="#000000" xml:space="preserve">54</text>
</g>
<g id = "ACXSUZEY" >
<line x1="70" y1="600" x2="50" y2="600" stroke="#000000" stroke-width="1px"/>
<text x="77" y="603" font-size="8.888889px" font-family="Times New Roman" fill="#000000" xml:space="preserve">55</text>
</g>
<g id = "NPDFRAPL" >
<line x1="70" y1="610" x2="50" y2="610" stroke="#000000" stroke-width="1px"/>
<text x="77" y="613" font-size="8.888889px" font-family="Times New Roman" fill="#000000" xml:space="preserve">56</text>
</g>
<g id = "TLSLENFX" >
<line x1="70" y1="620" x2="50" y2="620" stroke="#000000" stroke-width="1px"/>
<text x="77" y="623" font-size="8.888889px" font-family="Times New Roman" fill="#000000" xml:space="preserve">57</text>
</g>
<g id = "ZSFAHRDM" >
<line x1="70" y1="630" x2="50" y2="630" stroke="#000000" stroke-width="1px"/>
<text x="77" y="633" font-size="8.888889px" font-family="Times New Roman" fill="#000000" xml:space="preserve">58</text>
</g>
<g id = "MCQTLLDA" >
<line x1="70" y1="640" x2="50" y2="640" stroke="#000000" stroke-width="1px"/>
<text x="77" y="643" font-size="8.888889px" font-family="Times New Roman" fill="#000000" xml:space="preserve">59</text>
</g>
<g id = "ODBFPFZR" >
<line x1="70" y1="650" x2="50" y2="650" stroke="#000000" stroke-width="1px"/>
<text x="77" y="653" font-size="8.888889px" font-family="Times New Roman" fill="#000000" xml:space="preserve">60</text>
</g>
<g id = "GLTMHXEN" >
<line x1="70" y1="660" x2="50" y2="660" stroke="#000000" stroke-width="1px"/>
<text x="77" y="663" font-size="8.888889px" font-family="Times New Roman" fill="#000000" xml:space="preserve">61</text>
</g>
<g id = "YCZPBXMA" >
<line x1="70" y1="670" x2="50" y2="670" stroke="#000000" stroke-width="1px"/>
<text x="77" y="673" font-size="8.888889px" font-family="Times New Roman" fill="#000000" xml:space="preserve">62</text>
</g>
<g id = "WBEJEJXL" >
<line x1="70" y1="680" x2="50" y2="680" stroke="#000000" stroke-width="1px"/>
<text x="77" y="683" font-size="8.888889px" font-family="Times New Roman" fill="#000000" xml:space="preserve">63</text>
</g>
<g id = "HMOBHCYN" >
<line x1="70" y1="690" x2="50" y2="690" stroke="#000000" stroke-width="1px"/>
<text x="77" y="693" font-size="8.888889px" font-family="Times New Roman" fill="#000000" xml:space="preserve">64</text>
</g>
<g id = "XNCQOWAY" >
<line x1="70" y1="700" x2="50" y2="700" stroke="#000000" stroke-width="1px"/>
<text x="77" y="703" font-size="8.888889px" font-family="Times New Roman" fill="#000000" xml:space="preserve">65</text>
</g>
<g id = "BEKZXKEF" >
<line x1="70" y1="710" x2="50" y2="710" stroke="#000000" stroke-width="1px"/>
<text x="77" y="713" font-size="8.888889px" font-family="Times New Roman" fill="#000000" xml:space="preserve">66</text>
</g>
<g id = "YICCGZGH" >
<line x1="70" y1="720" x2="50" y2="720" stroke="#000000" stroke-width="1px"/>
<text x="77" y="723" font-size="8.888889px" font-family="Times New Roman" fill="#000000" xml:space="preserve">67</text>
</g>
<g id = "ZEVCQCDM" >
<line x1="70" y1="730" x2="50" y2="730" stroke="#000000" stroke-width="1px"/>
<text x="77" y="733" font-size="8.888889px" font-family="Times New Roman" fill="#000000" xml:space="preserve">68</text>
</g>
<g id = "GNWFSXWX" >
<line x1="70" y1="740" x2="50" y2="740" stroke="#000000" stroke-width="1px"/>
<text x="77" y="743" font-size="8.888889px" font-family="Times New Roman" fill="#000000" xml:space="preserve">69</text>
</g>
<g id = "QVDBKFRC" >
<line x1="70" y1="750" x2="50" y2="750" stroke="#000000" stroke-width="1px"/>
<text x="77" y="753" font-size="8.888889px" font-family="Times New Roman" fill="#000000" xml:space="preserve">70</text>
</g>
<g id = "KDZVZYFQ" >
<line x1="70" y1="760" x2="50" y2="760" stroke="#000000" stroke-width="1px"/>
<text x="77" y="763" font-size="8.888889px" font-family="Times New Roman" fill="#000000" xml:space="preserve">71</text>
</g>
<g id = "LOWNNEUW" >
<line x1="70" y1="770" x2="50" y2="770" stroke="#000000" stroke-width="1px"/>
<text x="77" y="773" font-size="8.888889px" font-family="Times New Roman" fill="#000000" xml:space="preserve">72</text>
</g>
<g id = "XZUGQDPX" >
<line x1="70" y1="780" x2="50" y2="780" stroke="#000000" stroke-width="1px"/>
<text x="77" y="783" font-size="8.888889px" font-family="Times New Roman" fill="#000000" xml:space="preserve">73</text>
</g>
<g id = "QTOAHRNW" >
<line x1="70" y1="790" x2="50" y2="790" stroke="#000000" stroke-width="1px"/>
<text x="77" y="793" font-size="8.888889px" font-family="Times New Roman" fill="#000000" xml:space="preserve">74</text>
</g>
<g id = "GJFQFYUX" >
<line x1="70" y1="800" x2="50" y2="800" stroke="#000000" stroke-width="1px"/>
<text x="77" y="803" font-size="8.888889px" font-family="Times New Roman" fill="#000000" xml:space="preserve">75</text>
</g>
<g id = "EKHYMCKL" >
<line x1="70" y1="810" x2="50" y2="810" stroke="#000000" stroke-width="1px"/>
<text x="77" y="813" font-size="8.888889px" font-family="Times New Roman" fill="#000000" xml:space="preserve">76</text>
</g>
<g id = "CBMUCBSD" >
<line x1="70" y1="820" x2="50" y2="820" stroke="#000000" stroke-width="1px"/>
<text x="77" y="823" font-size="8.888889px" font-family="Times New Roman" fill="#000000" xml:space="preserve">77</text>
</g>
<g id = "IRMHMCFX" >
<line x1="70" y1="830" x2="50" y2="830" stroke="#000000" stroke-width="1px"/>
<text x="77" y="833" font-size="8.888889px" font-family="Times New Roman" fill="#000000" xml:space="preserve">78</text>
</g>
<g id = "YOCKXJVJ" >
<line x1="70" y1="840" x2="50" y2="840" stroke="#000000" stroke-width="1px"/>
<text x="77" y="843" font-size="8.888889px" font-family="Times New Roman" fill="#000000" xml:space="preserve">79</text>
</g>
<g id = "XJILEYTD" >
<line x1="70" y1="850" x2="50" y2="850" stroke="#000000" stroke-width="1px"/>
<text x="77" y="853" font-size="8.888889px" font-family="Times New Roman" fill="#000000" xml:space="preserve">80</text>
</g>
<g id = "CYWAPBXQ" >
<line x1="70" y1="860" x2="50" y2="860" stroke="#000000" stroke-width="1px"/>
<text x="77" y="863" font-size="8.888889px" font-family="Times New Roman" fill="#000000" xml:space="preserve">81</text>
</g>
<g id = "QQRWETOX" >
<line x1="70" y1="870" x2="50" y2="870" stroke="#000000" stroke-width="1px"/>
<text x="77" y="873" font-size="8.888889px" font-family="Times New Roman" fill="#000000" xml:space="preserve">82</text>
</g>
<g id = "BTAOJYIA" >
<line x1="70" y1="880" x2="50" y2="880" stroke="#000000" stroke-width="1px"/>
<text x="77" y="883" font-size="8.888889px" font-family="Times New Roman" fill="#000000" xml:space="preserve">83</text>
</g>
<g id = "NMHHRUUK" >
<line x1="70" y1="890" x2="50" y2="890" stroke="#000000" stroke-width="1px"/>
<text x="77" y="893" font-size="8.888889px" font-family="Times New Roman" fill="#000000" xml:space="preserve">84</text>
</g>
<g id = "JEPVEIAO" >
<line x1="70" y1="900" x2="50" y2="900" stroke="#000000" stroke-width="1px"/>
<text x="77" y="903" font-size="8.888889px" font-family="Times New Roman" fill="#000000" xml:space="preserve">85</text>
</g>
<g id = "CSRQZBFH" >
<line x1="70" y1="910" x2="50" y2="910" stroke="#000000" stroke-width="1px"/>
<text x="77" y="913" font-size="8.888889px" font-family="Times New Roman" fill="#000000" xml:space="preserve">86</text>
</g>
<g id = "XHRVABDR" >
<line x1="70" y1="920" x2="50" y2="920" stroke="#000000" stroke-width="1px"/>
<text x="77" y="923" font-size="8.888889px" font-family="Times New Roman" fill="#000000" xml:space="preserve">87</text>
</g>
<g id = "DQOQKPJJ" >
<line x1="70" y1="930" x2="50" y2="930" stroke="#000000" stroke-width="1px"/>
<text x="77" y="933" font-size="8.888889px" font-family="Times New Roman" fill="#000000" xml:space="preserve">88</text>
</g>
<g id = "ZFRALCMW" >
<line x1="70" y1="940" x2="50" y2="940" stroke="#000000" stroke-width="1px"/>
<text x="77" y="943" font-size="8.888889px" font-family="Times New Roman" fill="#000000" xml:space="preserve">89</text>
</g>
<g id = "VRWNKMQP" >
<line x1="70" y1="950" x2="50" y2="950" stroke="#000000" stroke-width="1px"/>
<text x="77" y="953" font-size="8.888889px" font-family="Times New Roman" fill="#000000" xml:space="preserve">90</text>
</g>
<g id = "RYANGGLQ" >
<line x1="70" y1="960" x2="50" y2="960" stroke="#000000" stroke-width="1px"/>
<text x="77" y="963" font-size="8.888889px" font-family="Times New Roman" fill="#000000" xml:space="preserve">91</text>
</g>
<g id = "FNXEPNAM" >
<line x1="70" y1="970" x2="50" y2="970" stroke="#000000" stroke-width="1px"/>
<text x="77" y="973" font-size="8.888889px" font-family="Times New Roman" fill="#000000" xml:space="preserve">92</text>
</g>
<g id = "BBZWUUGX" >
<line x1="70" y1="980" x2="50" y2="980" stroke="#000000" stroke-width="1px"/>
<text x="77" y="983" font-size="8.888889px" font-family="Times New Roman" fill="#000000" xml:space="preserve">93</text>
</g>
<g id = "WDCEZSXM" >
<line x1="70" y1="990" x2="50" y2="990" stroke="#000000" stroke-width="1px"/>
<text x="77" y="993" font-size="8.888889px" font-family="Times New Roman" fill="#000000" xml:space="preserve">94</text>
</g>
<g id = "TUXHPPSL" >
<line x1="70" y1="1000" x2="50" y2="1000" stroke="#000000" stroke-width="1px"/>
<text x="77" y="1003" font-size="8.888889px" font-family="Times New Roman" fill="#000000" xml:space="preserve">95</text>
</g>
<g id = "HOJMEBQF" >
<line x1="70" y1="1010" x2="50" y2="1010" stroke="#000000" stroke-width="1px"/>
<text x="77" y="1013" font-size="8.888889px" font-family="Times New Roman" fill="#000000" xml:space="preserve">96</text>
</g>
<g id = "IZEZKBQY" >
<line x1="70" y1="1020" x2="50" y2="1020" stroke="#000000" stroke-width="1px"/>
<text x="77" y="1023" font-size="8.888889px" font-family="Times New Roman" fill="#000000" xml:space="preserve">97</text>
</g>
<g id = "KTZKOYHV" >
<line x1="110" y1="60" x2="130" y2="60" stroke="#000000" stroke-width="1px"/>
<text x="93.1111" y="63" font-size="8.888889px" font-family="Times New Roman" fill="#000000" xml:space="preserve">98</text>
</g>
<g id = "GKPEFVTW" >
<line x1="110" y1="70" x2="130" y2="70" stroke="#000000" stroke-width="1px"/>
<text x="93.1111" y="73" font-size="8.888889px" font-family="Times New Roman" fill="#000000" xml:space="preserve">99</text>
</g>
<g id = "KQOEQLOE" >
<line x1="110" y1="80" x2="130" y2="80" stroke="#000000" stroke-width="1px"/>
<text x="88.1667" y="83" font-size="8.888889px" font-family="Times New Roman" fill="#000000" xml:space="preserve">100</text>
</g>
<g id = "KWBSWXIZ" >
<line x1="110" y1="90" x2="130" y2="90" stroke="#000000" stroke-width="1px"/>
<text x="88.1667" y="93" font-size="8.888889px" font-family="Times New Roman" fill="#000000" xml:space="preserve">101</text>
</g>
<g id = "OSPBFUAR" >
<line x1="110" y1="100" x2="130" y2="100" stroke="#000000" stroke-width="1px"/>
<text x="88.1667" y="103" font-size="8.888889px" font-family="Times New Roman" fill="#000000" xml:space="preserve">102</text>
</g>
<g id = "LPZNZFQB" >
<line x1="110" y1="110" x2="130" y2="110" stroke="#000000" stroke-width="1px"/>
<text x="88.1667" y="113" font-size="8.888889px" font-family="Times New Roman" fill="#000000" xml:space="preserve">103</text>
</g>
<g id = "WDEBHGSH" >
<line x1="110" y1="120" x2="130" y2="120" stroke="#000000" stroke-width="1px"/>
<text x="88.1667" y="123" font-size="8.888889px" font-family="Times New Roman" fill="#000000" xml:space="preserve">104</text>
</g>
<g id = "HLHSQOKG" >
<line x1="110" y1="130" x2="130" y2="130" stroke="#000000" stroke-width="1px"/>
<text x="88.1667" y="133" font-size="8.888889px" font-family="Times New Roman" fill="#000000" xml:space="preserve">105</text>
</g>
<g id = "FALHYYQW" >
<line x1="110" y1="140" x2="130" y2="140" stroke="#000000" stroke-width="1px"/>
<text x="88.1667" y="143" font-size="8.888889px" font-family="Times New Roman" fill="#000000" xml:space="preserve">106</text>
</g>
<g id = "KJSPPCEB" >
<line x1="110" y1="150" x2="130" y2="150" stroke="#000000" stroke-width="1px"/>
<text x="88.1667" y="153" font-size="8.888889px" font-family="Times New Roman" fill="#000000" xml:space="preserve">107</text>
</g>
<g id = "YNTMSEQT" >
<line x1="110" y1="160" x2="130" y2="160" stroke="#000000" stroke-width="1px"/>
<text x="88.1667" y="163" font-size="8.888889px" font-family="Times New Roman" fill="#000000" xml:space="preserve">108</text>
</g>
<g id = "MRWEQLRS" >
<line x1="110" y1="170" x2="130" y2="170" stroke="#000000" stroke-width="1px"/>
<text x="88.1667" y="173" font-size="8.888889px" font-family="Times New Roman" fill="#000000" xml:space="preserve">109</text>
</g>
<g id = "CBMYFRIP" >
<line x1="110" y1="180" x2="130" y2="180" stroke="#000000" stroke-width="1px"/>
<text x="88.1667" y="183" font-size="8.888889px" font-family="Times New Roman" fill="#000000" xml:space="preserve">110</text>
</g>
<g id = "UQYZQNEI" >
<line x1="110" y1="190" x2="130" y2="190" stroke="#000000" stroke-width="1px"/>
<text x="88.1667" y="193" font-size="8.888889px" font-family="Times New Roman" fill="#000000" xml:space="preserve">111</text>
</g>
<g id = "OZALGMMR" >
<line x1="110" y1="200" x2="130" y2="200" stroke="#000000" stroke-width="1px"/>
<text x="88.1667" y="203" font-size="8.888889px" font-family="Times New Roman" fill="#000000" xml:space="preserve">112</text>
</g>
<g id = "UAGUKHNA" >
<line x1="110" y1="210" x2="130" y2="210" stroke="#000000" stroke-width="1px"/>
<text x="88.1667" y="213" font-size="8.888889px" font-family="Times New Roman" fill="#000000" xml:space="preserve">113</text>
</g>
<g id = "FBWWDXTL" >
<line x1="110" y1="220" x2="130" y2="220" stroke="#000000" stroke-width="1px"/>
<text x="88.1667" y="223" font-size="8.888889px" font-family="Times New Roman" fill="#000000" xml:space="preserve">114</text>
</g>
<g id = "NIZYIQAK" >
<line x1="110" y1="230" x2="130" y2="230" stroke="#000000" stroke-width="1px"/>
<text x="88.1667" y="233" font-size="8.888889px" font-family="Times New Roman" fill="#000000" xml:space="preserve">115</text>
</g>
<g id = "RIVAPVLD" >
<line x1="110" y1="240" x2="130" y2="240" stroke="#000000" stroke-width="1px"/>
<text x="88.1667" y="243" font-size="8.888889px" font-family="Times New Roman" fill="#000000" xml:space="preserve">116</text>
</g>
<g id = "NAFTQROH" >
<line x1="110" y1="250" x2="130" y2="250" stroke="#000000" stroke-width="1px"/>
<text x="88.1667" y="253" font-size="8.888889px" font-family="Times New Roman" fill="#000000" xml:space="preserve">117</text>
</g>
<g id = "UHNSXIBS" >
<line x1="110" y1="260" x2="130" y2="260" stroke="#000000" stroke-width="1px"/>
<text x="88.1667" y="263" font-size="8.888889px" font-family="Times New Roman" fill="#000000" xml:space="preserve">118</text>
</g>
<g id = "LROEBKXU" >
<line x1="110" y1="270" x2="130" y2="270" stroke="#000000" stroke-width="1px"/>
<text x="88.1667" y="273" font-size="8.888889px" font-family="Times New Roman" fill="#000000" xml:space="preserve">119</text>
</g>
<g id = "CFFNFPEE" >
<line x1="110" y1="280" x2="130" y2="280" stroke="#000000" stroke-width="1px"/>
<text x="88.1667" y="283" font-size="8.888889px" font-family="Times New Roman" fill="#000000" xml:space="preserve">120</text>
</g>
<g id = "EXERFSUI" >
<line x1="110" y1="290" x2="130" y2="290" stroke="#000000" stroke-width="1px"/>
<text x="88.1667" y="293" font-size="8.888889px" font-family="Times New Roman" fill="#000000" xml:space="preserve">121</text>
</g>
<g id = "BKYMPOIB" >
<line x1="110" y1="300" x2="130" y2="300" stroke="#000000" stroke-width="1px"/>
<text x="88.1667" y="303" font-size="8.888889px" font-family="Times New Roman" fill="#000000" xml:space="preserve">122</text>
</g>
<g id = "JJJTDYZR" >
<line x1="110" y1="310" x2="130" y2="310" stroke="#000000" stroke-width="1px"/>
<text x="88.1667" y="313" font-size="8.888889px" font-family="Times New Roman" fill="#000000" xml:space="preserve">123</text>
</g>
<g id = "YTROXUKL" >
<line x1="110" y1="320" x2="130" y2="320" stroke="#000000" stroke-width="1px"/>
<text x="88.1667" y="323" font-size="8.888889px" font-family="Times New Roman" fill="#000000" xml:space="preserve">124</text>
</g>
<g id = "FXPIFTZD" >
<line x1="110" y1="330" x2="130" y2="330" stroke="#000000" stroke-width="1px"/>
<text x="88.1667" y="333" font-size="8.888889px" font-family="Times New Roman" fill="#000000" xml:space="preserve">125</text>
</g>
<g id = "NMQPJPIL" >
<line x1="110" y1="340" x2="130" y2="340" stroke="#000000" stroke-width="1px"/>
<text x="88.1667" y="343" font-size="8.888889px" font-family="Times New Roman" fill="#000000" xml:space="preserve">126</text>
</g>
<g id = "MQNQWRGI" >
<line x1="110" y1="350" x2="130" y2="350" stroke="#000000" stroke-width="1px"/>
<text x="88.1667" y="353" font-size="8.888889px" font-family="Times New Roman" fill="#000000" xml:space="preserve">127</text>
</g>
<g id = "LRJDAHOZ" >
<line x1="110" y1="360" x2="130" y2="360" stroke="#000000" stroke-width="1px"/>
<text x="88.1667" y="363" font-size="8.888889px" font-family="Times New Roman" fill="#000000" xml:space="preserve">128</text>
</g>
<g id = "KSHJSJJZ" >
<line x1="110" y1="370" x2="130" y2="370" stroke="#000000" stroke-width="1px"/>
<text x="88.1667" y="373" font-size="8.888889px" font-family="Times New Roman" fill="#000000" xml:space="preserve">129</text>
</g>
<g id = "ZRDRDDEF" >
<line x1="110" y1="380" x2="130" y2="380" stroke="#000000" stroke-width="1px"/>
<text x="88.1667" y="383" font-size="8.888889px" font-family="Times New Roman" fill="#000000" xml:space="preserve">130</text>
</g>
<g id = "UVWUVRPB" >
<line x1="110" y1="390" x2="130" y2="390" stroke="#000000" stroke-width="1px"/>
<text x="88.1667" y="393" font-size="8.888889px" font-family="Times New Roman" fill="#000000" xml:space="preserve">131</text>
</g>
<g id = "MFYISYZZ" >
<line x1="110" y1="400" x2="130" y2="400" stroke="#000000" stroke-width="1px"/>
<text x="88.1667" y="403" font-size="8.888889px" font-family="Times New Roman" fill="#000000" xml:space="preserve">132</text>
</g>
<g id = "WFOUIVGC" >
<line x1="110" y1="410" x2="130" y2="410" stroke="#000000" stroke-width="1px"/>
<text x="88.1667" y="413" font-size="8.888889px" font-family="Times New Roman" fill="#000000" xml:space="preserve">133</text>
</g>
<g id = "CVUDTNOZ" >
<line x1="110" y1="420" x2="130" y2="420" stroke="#000000" stroke-width="1px"/>
<text x="88.1667" y="423" font-size="8.888889px" font-family="Times New Roman" fill="#000000" xml:space="preserve">134</text>
</g>
<g id = "HRVEODLV" >
<line x1="110" y1="430" x2="130" y2="430" stroke="#000000" stroke-width="1px"/>
<text x="88.1667" y="433" font-size="8.888889px" font-family="Times New Roman" fill="#000000" xml:space="preserve">135</text>
</g>
<g id = "PJFSLXAM" >
<line x1="110" y1="440" x2="130" y2="440" stroke="#000000" stroke-width="1px"/>
<text x="88.1667" y="443" font-size="8.888889px" font-family="Times New Roman" fill="#000000" xml:space="preserve">136</text>
</g>
<g id = "TONIXOCR" >
<line x1="110" y1="450" x2="130" y2="450" stroke="#000000" stroke-width="1px"/>
<text x="88.1667" y="453" font-size="8.888889px" font-family="Times New Roman" fill="#000000" xml:space="preserve">137</text>
</g>
<g id = "GAMAPURU" >
<line x1="110" y1="460" x2="130" y2="460" stroke="#000000" stroke-width="1px"/>
<text x="88.1667" y="463" font-size="8.888889px" font-family="Times New Roman" fill="#000000" xml:space="preserve">138</text>
</g>
<g id = "XAYCFHEM" >
<line x1="110" y1="470" x2="130" y2="470" stroke="#000000" stroke-width="1px"/>
<text x="88.1667" y="473" font-size="8.888889px" font-family="Times New Roman" fill="#000000" xml:space="preserve">139</text>
</g>
<g id = "XOYMTJJY" >
<line x1="110" y1="480" x2="130" y2="480" stroke="#000000" stroke-width="1px"/>
<text x="88.1667" y="483" font-size="8.888889px" font-family="Times New Roman" fill="#000000" xml:space="preserve">140</text>
</g>
<g id = "HEBUQWTX" >
<line x1="110" y1="490" x2="130" y2="490" stroke="#000000" stroke-width="1px"/>
<text x="88.1667" y="493" font-size="8.888889px" font-family="Times New Roman" fill="#000000" xml:space="preserve">141</text>
</g>
<g id = "XXFSXOFL" >
<line x1="110" y1="500" x2="130" y2="500" stroke="#000000" stroke-width="1px"/>
<text x="88.1667" y="503" font-size="8.888889px" font-family="Times New Roman" fill="#000000" xml:space="preserve">142</text>
</g>
<g id = "AXWEWYRM" >
<line x1="110" y1="510" x2="130" y2="510" stroke="#000000" stroke-width="1px"/>
<text x="88.1667" y="513" font-size="8.888889px" font-family="Times New Roman" fill="#000000" xml:space="preserve">143</text>
</g>
<g id = "SGVPIEJH" >
<line x1="110" y1="520" x2="130" y2="520" stroke="#000000" stroke-width="1px"/>
<text x="88.1667" y="523" font-size="8.888889px" font-family="Times New Roman" fill="#000000" xml:space="preserve">144</text>
</g>
<g id = "OPIUHGEK" >
<line x1="110" y1="530" x2="130" y2="530" stroke="#000000" stroke-width="1px"/>
<text x="88.1667" y="533" font-size="8.888889px" font-family="Times New Roman" fill="#000000" xml:space="preserve">145</text>
</g>
<g id = "WZLPOSJI" >
<line x1="110" y1="540" x2="130" y2="540" stroke="#000000" stroke-width="1px"/>
<text x="88.1667" y="543" font-size="8.888889px" font-family="Times New Roman" fill="#000000" xml:space="preserve">146</text>
</g>
<g id = "POCDWGKF" >
<line x1="110" y1="550" x2="130" y2="550" stroke="#000000" stroke-width="1px"/>
<text x="88.1667" y="553" font-size="8.888889px" font-family="Times New Roman" fill="#000000" xml:space="preserve">147</text>
</g>
<g id = "PUSQPZWJ" >
<line x1="110" y1="560" x2="130" y2="560" stroke="#000000" stroke-width="1px"/>
<text x="88.1667" y="563" font-size="8.888889px" font-family="Times New Roman" fill="#000000" xml:space="preserve">148</text>
</g>
<g id = "SMSZEYUL" >
<line x1="110" y1="570" x2="130" y2="570" stroke="#000000" stroke-width="1px"/>
<text x="88.1667" y="573" font-size="8.888889px" font-family="Times New Roman" fill="#000000" xml:space="preserve">149</text>
</g>
<g id = "CADBCYPJ" >
<line x1="110" y1="580" x2="130" y2="580" stroke="#000000" stroke-width="1px"/>
<text x="88.1667" y="583" font-size="8.888889px" font-family="Times New Roman" fill="#000000" xml:space="preserve">150</text>
</g>
<g id = "ELAIBOAQ" >
<line x1="110" y1="590" x2="130" y2="590" stroke="#000000" stroke-width="1px"/>
<text x="88.1667" y="593" font-size="8.888889px" font-family="Times New Roman" fill="#000000" xml:space="preserve">151</text>
</g>
<g id = "UZLWNRUU" >
<line x1="110" y1="600" x2="130" y2="600" stroke="#000000" stroke-width="1px"/>
<text x="88.1667" y="603" font-size="8.888889px" font-family="Times New Roman" fill="#000000" xml:space="preserve">152</text>
</g>
<g id = "RRCRSGKD" >
<line x1="110" y1="610" x2="130" y2="610" stroke="#000000" stroke-width="1px"/>
<text x="88.1667" y="613" font-size="8.888889px" font-family="Times New Roman" fill="#000000" xml:space="preserve">153</text>
</g>
<g id = "WXNNTRTR" >
<line x1="110" y1="620" x2="130" y2="620" stroke="#000000" stroke-width="1px"/>
<text x="88.1667" y="623" font-size="8.888889px" font-family="Times New Roman" fill="#000000" xml:space="preserve">154</text>
</g>
<g id = "XUTLQBPD" >
<line x1="110" y1="630" x2="130" y2="630" stroke="#000000" stroke-width="1px"/>
<text x="88.1667" y="633" font-size="8.888889px" font-family="Times New Roman" fill="#000000" xml:space="preserve">155</text>
</g>
<g id = "CJUXRVXU" >
<line x1="110" y1="640" x2="130" y2="640" stroke="#000000" stroke-width="1px"/>
<text x="88.1667" y="643" font-size="8.888889px" font-family="Times New Roman" fill="#000000" xml:space="preserve">156</text>
</g>
<g id = "UTQXGZXN" >
<line x1="110" y1="650" x2="130" y2="650" stroke="#000000" stroke-width="1px"/>
<text x="88.1667" y="653" font-size="8.888889px" font-family="Times New Roman" fill="#000000" xml:space="preserve">157</text>
</g>
<g id = "BQKSZMUM" >
<line x1="110" y1="660" x2="130" y2="660" stroke="#000000" stroke-width="1px"/>
<text x="88.1667" y="663" font-size="8.888889px" font-family="Times New Roman" fill="#000000" xml:space="preserve">158</text>
</g>
<g id = "OOQCLEWJ" >
<line x1="110" y1="670" x2="130" y2="670" stroke="#000000" stroke-width="1px"/>
<text x="88.1667" y="673" font-size="8.888889px" font-family="Times New Roman" fill="#000000" xml:space="preserve">159</text>
</g>
<g id = "RCKIPEOQ" >
<line x1="110" y1="680" x2="130" y2="680" stroke="#000000" stroke-width="1px"/>
<text x="88.1667" y="683" font-size="8.888889px" font-family="Times New Roman" fill="#000000" xml:space="preserve">160</text>
</g>
<g id = "WTSSHXBR" >
<line x1="110" y1="690" x2="130" y2="690" stroke="#000000" stroke-width="1px"/>
<text x="88.1667" y="693" font-size="8.888889px" font-family="Times New Roman" fill="#000000" xml:space="preserve">161</text>
</g>
<g id = "YPIHNSBW" >
<line x1="110" y1="700" x2="130" y2="700" stroke="#000000" stroke-width="1px"/>
<text x="88.1667" y="703" font-size="8.888889px" font-family="Times New Roman" fill="#000000" xml:space="preserve">162</text>
</g>
<g id = "BCXIDARF" >
<line x1="110" y1="710" x2="130" y2="710" stroke="#000000" stroke-width="1px"/>
<text x="88.1667" y="713" font-size="8.888889px" font-family="Times New Roman" fill="#000000" xml:space="preserve">163</text>
</g>
<g id = "JJOGYWSC" >
<line x1="110" y1="720" x2="130" y2="720" stroke="#000000" stroke-width="1px"/>
<text x="88.1667" y="723" font-size="8.888889px" font-family="Times New Roman" fill="#000000" xml:space="preserve">164</text>
</g>
<g id = "TQMMIHBB" >
<line x1="110" y1="730" x2="130" y2="730" stroke="#000000" stroke-width="1px"/>
<text x="88.1667" y="733" font-size="8.888889px" font-family="Times New Roman" fill="#000000" xml:space="preserve">165</text>
</g>
<g id = "FOTXZWZJ" >
<line x1="110" y1="740" x2="130" y2="740" stroke="#000000" stroke-width="1px"/>
<text x="88.1667" y="743" font-size="8.888889px" font-family="Times New Roman" fill="#000000" xml:space="preserve">166</text>
</g>
<g id = "OHCKDVGQ" >
<line x1="110" y1="750" x2="130" y2="750" stroke="#000000" stroke-width="1px"/>
<text x="88.1667" y="753" font-size="8.888889px" font-family="Times New Roman" fill="#000000" xml:space="preserve">167</text>
</g>
<g id = "BTZTNXTV" >
<line x1="110" y1="760" x2="130" y2="760" stroke="#000000" stroke-width="1px"/>
<text x="88.1667" y="763" font-size="8.888889px" font-family="Times New Roman" fill="#000000" xml:space="preserve">168</text>
</g>
<g id = "XHEHQUOG" >
<line x1="110" y1="770" x2="130" y2="770" stroke="#000000" stroke-width="1px"/>
<text x="88.1667" y="773" font-size="8.888889px" font-family="Times New Roman" fill="#000000" xml:space="preserve">169</text>
</g>
<g id = "RYHBXMAX" >
<line x1="110" y1="780" x2="130" y2="780" stroke="#000000" stroke-width="1px"/>
<text x="88.1667" y="783" font-size="8.888889px" font-family="Times New Roman" fill="#000000" xml:space="preserve">170</text>
</g>
<g id = "FOKXJBZZ" >
<line x1="110" y1="790" x2="130" y2="790" stroke="#000000" stroke-width="1px"/>
<text x="88.1667" y="793" font-size="8.888889px" font-family="Times New Roman" fill="#000000" xml:space="preserve">171</text>
</g>
<g id = "NHMKWEBP" >
<line x1="110" y1="800" x2="130" y2="800" stroke="#000000" stroke-width="1px"/>
<text x="88.1667" y="803" font-size="8.888889px" font-family="Times New Roman" fill="#000000" xml:space="preserve">172</text>
</g>
<g id = "MUHNBSGN" >
<line x1="110" y1="810" x2="130" y2="810" stroke="#000000" stroke-width="1px"/>
<text x="88.1667" y="813" font-size="8.888889px" font-family="Times New Roman" fill="#000000" xml:space="preserve">173</text>
</g>
<g id = "JALVGAHO" >
<line x1="110" y1="820" x2="130" y2="820" stroke="#000000" stroke-width="1px"/>
<text x="88.1667" y="823" font-size="8.888889px" font-family="Times New Roman" fill="#000000" xml:space="preserve">174</text>
</g>
<g id = "FFEYRANM" >
<line x1="110" y1="830" x2="130" y2="830" stroke="#000000" stroke-width="1px"/>
<text x="88.1667" y="833" font-size="8.888889px" font-family="Times New Roman" fill="#000000" xml:space="preserve">175</text>
</g>
<g id = "KTOUEUEO" >
<line x1="110" y1="840" x2="130" y2="840" stroke="#000000" stroke-width="1px"/>
<text x="88.1667" y="843" font-size="8.888889px" font-family="Times New Roman" fill="#000000" xml:space="preserve">176</text>
</g>
<g id = "KGDAVEEC" >
<line x1="110" y1="850" x2="130" y2="850" stroke="#000000" stroke-width="1px"/>
<text x="88.1667" y="853" font-size="8.888889px" font-family="Times New Roman" fill="#000000" xml:space="preserve">177</text>
</g>
<g id = "NXAMRNGG" >
<line x1="110" y1="860" x2="130" y2="860" stroke="#000000" stroke-width="1px"/>
<text x="88.1667" y="863" font-size="8.888889px" font-family="Times New Roman" fill="#000000" xml:space="preserve">178</text>
</g>
<g id = "VPGITTLA" >
<line x1="110" y1="870" x2="130" y2="870" stroke="#000000" stroke-width="1px"/>
<text x="88.1667" y="873" font-size="8.888889px" font-family="Times New Roman" fill="#000000" xml:space="preserve">179</text>
</g>
<g id = "HBJOFASW" >
<line x1="110" y1="880" x2="130" y2="880" stroke="#000000" stroke-width="1px"/>
<text x="88.1667" y="883" font-size="8.888889px" font-family="Times New Roman" fill="#000000" xml:space="preserve">180</text>
</g>
<g id = "AJRDDRPW" >
<line x1="110" y1="890" x2="130" y2="890" stroke="#000000" stroke-width="1px"/>
<text x="88.1667" y="893" font-size="8.888889px" font-family="Times New Roman" fill="#000000" xml:space="preserve">181</text>
</g>
<g id = "GRQGYZXQ" >
<line x1="110" y1="900" x2="130" y2="900" stroke="#000000" stroke-width="1px"/>
<text x="88.1667" y="903" font-size="8.888889px" font-family="Times New Roman" fill="#000000" xml:space="preserve">182</text>
</g>
<g id = "UPFLEHUW" >
<line x1="110" y1="910" x2="130" y2="910" stroke="#000000" stroke-width="1px"/>
<text x="88.1667" y="913" font-size="8.888889px" font-family="Times New Roman" fill="#000000" xml:space="preserve">183</text>
</g>
<g id = "ZZTTDGOO" >
<line x1="110" y1="920" x2="130" y2="920" stroke="#000000" stroke-width="1px"/>
<text x="88.1667" y="923" font-size="8.888889px" font-family="Times New Roman" fill="#000000" xml:space="preserve">184</text>
</g>
<g id = "PAXZGUPY" >
<line x1="110" y1="930" x2="130" y2="930" stroke="#000000" stroke-width="1px"/>
<text x="88.1667" y="933" font-size="8.888889px" font-family="Times New Roman" fill="#000000" xml:space="preserve">185</text>
</g>
<g id = "UQBWIFEI" >
<line x1="110" y1="940" x2="130" y2="940" stroke="#000000" stroke-width="1px"/>
<text x="88.1667" y="943" font-size="8.888889px" font-family="Times New Roman" fill="#000000" xml:space="preserve">186</text>
</g>
<g id = "ARXBQGGE" >
<line x1="110" y1="950" x2="130" y2="950" stroke="#000000" stroke-width="1px"/>
<text x="88.1667" y="953" font-size="8.888889px" font-family="Times New Roman" fill="#000000" xml:space="preserve">187</text>
</g>
<g id = "EETXQBLV" >
<line x1="110" y1="960" x2="130" y2="960" stroke="#000000" stroke-width="1px"/>
<text x="88.1667" y="963" font-size="8.888889px" font-family="Times New Roman" fill="#000000" xml:space="preserve">188</text>
</g>
<g id = "CICRLFCY" >
<line x1="110" y1="970" x2="130" y2="970" stroke="#000000" stroke-width="1px"/>
<text x="88.1667" y="973" font-size="8.888889px" font-family="Times New Roman" fill="#000000" xml:space="preserve">189</text>
</g>
<g id = "FGHVCVEM" >
<line x1="110" y1="980" x2="130" y2="980" stroke="#000000" stroke-width="1px"/>
<text x="88.1667" y="983" font-size="8.888889px" font-family="Times New Roman" fill="#000000" xml:space="preserve">190</text>
</g>
<g id = "LLEMDHUN" >
<line x1="110" y1="990" x2="130" y2="990" stroke="#000000" stroke-width="1px"/>
<text x="88.1667" y="993" font-size="8.888889px" font-family="Times New Roman" fill="#000000" xml:space="preserve">191</text>
</g>
<g id = "AOAGZOJV" >
<line x1="110" y1="1000" x2="130" y2="1000" stroke="#000000" stroke-width="1px"/>
<text x="88.1667" y="1003" font-size="8.888889px" font-family="Times New Roman" fill="#000000" xml:space="preserve">192</text>
</g>
<g id = "PZMSNJMD" >
<line x1="110" y1="1010" x2="130" y2="1010" stroke="#000000" stroke-width="1px"/>
<text x="88.1667" y="1013" font-size="8.888889px" font-family="Times New Roman" fill="#000000" xml:space="preserve">193</text>
</g>
<g id = "OZNOLTID" >
<line x1="110" y1="1020" x2="130" y2="1020" stroke="#000000" stroke-width="1px"/>
<text x="88.1667" y="1023" font-size="8.888889px" font-family="Times New Roman" fill="#000000" xml:space="preserve">194</text>
</g>
</g>
</g>
</g>
</g>
</svg>