<?xml version="1.0"  encoding="UTF-8" standalone="no"?>
<svg version="1.1" xmlns="http://www.w3.org/2000/svg" xmlns:xlink="http://www.w3.org/1999/xlink" stroke-linecap="round" stroke-linejoin="round" fill="none" width="180" height="220" viewBox="0 0 180 220" data-doc-id="symbol-Header 11X2" data-doc-ver="2">
<g id = "scene" >
<g id = "DocumentMainGroup" >
<g id = "BackgroundGroup" >
<rect x = "0" y="0" width="180" height="220" fill="#FFFFFF" fill-opacity="1"/>
</g>
<g id = "symbol-Header 11X2" >
<g id = "DocumentItemsGroup" >
<g id = "CQTVAKIJ" >
<rect x = "70" y="50" width="40" height="120" stroke="#0000FF" stroke-width="1px"/>
</g>
<g id = "POHVNQKY" >
<line x1="70" y1="60" x2="50" y2="60" stroke="#000000" stroke-width="1px"/>
<text x="77" y="63" font-size="8.888889px" font-family="Times New Roman" fill="#000000" xml:space="preserve">1</text>
</g>
<g id = "EMFTTUKX" >
<line x1="110" y1="60" x2="130" y2="60" stroke="#000000" stroke-width="1px"/>
<text x="98.0556" y="63" font-size="8.888889px" font-family="Times New Roman" fill="#000000" xml:space="preserve">2</text>
</g>
<g id = "DXDGZDOS" >
<line x1="70" y1="70" x2="50" y2="70" stroke="#000000" stroke-width="1px"/>
<text x="77" y="73" font-size="8.888889px" font-family="Times New Roman" fill="#000000" xml:space="preserve">3</text>
</g>
<g id = "KSKNJKDC" >
<line x1="110" y1="70" x2="130" y2="70" stroke="#000000" stroke-width="1px"/>
<text x="98.0556" y="73" font-size="8.888889px" font-family="Times New Roman" fill="#000000" xml:space="preserve">4</text>
</g>
<g id = "LHACGMLB" >
<line x1="70" y1="80" x2="50" y2="80" stroke="#000000" stroke-width="1px"/>
<text x="77" y="83" font-size="8.888889px" font-family="Times New Roman" fill="#000000" xml:space="preserve">5</text>
</g>
<g id = "JONIHNXM" >
<line x1="110" y1="80" x2="130" y2="80" stroke="#000000" stroke-width="1px"/>
<text x="98.0556" y="83" font-size="8.888889px" font-family="Times New Roman" fill="#000000" xml:space="preserve">6</text>
</g>
<g id = "LCFLBOWJ" >
<line x1="70" y1="90" x2="50" y2="90" stroke="#000000" stroke-width="1px"/>
<text x="77" y="93" font-size="8.888889px" font-family="Times New Roman" fill="#000000" xml:space="preserve">7</text>
</g>
<g id = "GVPTHWBT" >
<line x1="110" y1="90" x2="130" y2="90" stroke="#000000" stroke-width="1px"/>
<text x="98.0556" y="93" font-size="8.888889px" font-family="Times New Roman" fill="#000000" xml:space="preserve">8</text>
</g>
<g id = "HEJPFDGK" >
<line x1="70" y1="100" x2="50" y2="100" stroke="#000000" stroke-width="1px"/>
<text x="77" y="103" font-size="8.888889px" font-family="Times New Roman" fill="#000000" xml:space="preserve">9</text>
</g>
<g id = "SDWQFIQP" >
<line x1="110" y1="100" x2="130" y2="100" stroke="#000000" stroke-width="1px"/>
<text x="93.1111" y="103" font-size="8.888889px" font-family="Times New Roman" fill="#000000" xml:space="preserve">10</text>
</g>
<g id = "PJITTJOX" >
<line x1="70" y1="110" x2="50" y2="110" stroke="#000000" stroke-width="1px"/>
<text x="77" y="113" font-size="8.888889px" font-family="Times New Roman" fill="#000000" xml:space="preserve">11</text>
</g>
<g id = "XVBMBYHJ" >
<line x1="110" y1="110" x2="130" y2="110" stroke="#000000" stroke-width="1px"/>
<text x="93.1111" y="113" font-size="8.888889px" font-family="Times New Roman" fill="#000000" xml:space="preserve">12</text>
</g>
<g id = "BXYMRKFC" >
<line x1="70" y1="120" x2="50" y2="120" stroke="#000000" stroke-width="1px"/>
<text x="77" y="123" font-size="8.888889px" font-family="Times New Roman" fill="#000000" xml:space="preserve">13</text>
</g>
<g id = "HHYGEDOB" >
<line x1="110" y1="120" x2="130" y2="120" stroke="#000000" stroke-width="1px"/>
<text x="93.1111" y="123" font-size="8.888889px" font-family="Times New Roman" fill="#000000" xml:space="preserve">14</text>
</g>
<g id = "SSQWCSCS" >
<line x1="70" y1="130" x2="50" y2="130" stroke="#000000" stroke-width="1px"/>
<text x="77" y="133" font-size="8.888889px" font-family="Times New Roman" fill="#000000" xml:space="preserve">15</text>
</g>
<g id = "VEGKZTZG" >
<line x1="110" y1="130" x2="130" y2="130" stroke="#000000" stroke-width="1px"/>
<text x="93.1111" y="133" font-size="8.888889px" font-family="Times New Roman" fill="#000000" xml:space="preserve">16</text>
</g>
<g id = "YXBCTYOT" >
<line x1="70" y1="140" x2="50" y2="140" stroke="#000000" stroke-width="1px"/>
<text x="77" y="143" font-size="8.888889px" font-family="Times New Roman" fill="#000000" xml:space="preserve">17</text>
</g>
<g id = "QHBLYDLP" >
<line x1="110" y1="140" x2="130" y2="140" stroke="#000000" stroke-width="1px"/>
<text x="93.1111" y="143" font-size="8.888889px" font-family="Times New Roman" fill="#000000" xml:space="preserve">18</text>
</g>
<g id = "DDWSCFTL" >
<line x1="70" y1="150" x2="50" y2="150" stroke="#000000" stroke-width="1px"/>
<text x="77" y="153" font-size="8.888889px" font-family="Times New Roman" fill="#000000" xml:space="preserve">19</text>
</g>
<g id = "OIAJSYYU" >
<line x1="110" y1="150" x2="130" y2="150" stroke="#000000" stroke-width="1px"/>
<text x="93.1111" y="153" font-size="8.888889px" font-family="Times New Roman" fill="#000000" xml:space="preserve">20</text>
</g>
<g id = "DNPBTXBA" >
<line x1="70" y1="160" x2="50" y2="160" stroke="#000000" stroke-width="1px"/>
<text x="77" y="163" font-size="8.888889px" font-family="Times New Roman" fill="#000000" xml:space="preserve">21</text>
</g>
<g id = "ZEDZXVIE" >
<line x1="110" y1="160" x2="130" y2="160" stroke="#000000" stroke-width="1px"/>
<text x="93.1111" y="163" font-size="8.888889px" font-family="Times New Roman" fill="#000000" xml:space="preserve">22</text>
</g>
</g>
</g>
</g>
</g>
</svg>