<?xml version="1.0"  encoding="UTF-8" standalone="no"?>
<svg version="1.1" xmlns="http://www.w3.org/2000/svg" xmlns:xlink="http://www.w3.org/1999/xlink" stroke-linecap="round" stroke-linejoin="round" fill="none" width="180" height="490" viewBox="0 0 180 490" data-doc-id="symbol-Header 38X2" data-doc-ver="2">
<g id = "scene" >
<g id = "DocumentMainGroup" >
<g id = "BackgroundGroup" >
<rect x = "0" y="0" width="180" height="490" fill="#FFFFFF" fill-opacity="1"/>
</g>
<g id = "symbol-Header 38X2" >
<g id = "DocumentItemsGroup" >
<g id = "OXCDYIAV" >
<rect x = "70" y="50" width="40" height="390" stroke="#0000FF" stroke-width="1px"/>
</g>
<g id = "WEXAMWMY" >
<line x1="70" y1="60" x2="50" y2="60" stroke="#000000" stroke-width="1px"/>
<text x="77" y="63" font-size="8.888889px" font-family="Times New Roman" fill="#000000" xml:space="preserve">1</text>
</g>
<g id = "GHGAQIVN" >
<line x1="110" y1="60" x2="130" y2="60" stroke="#000000" stroke-width="1px"/>
<text x="98.0556" y="63" font-size="8.888889px" font-family="Times New Roman" fill="#000000" xml:space="preserve">2</text>
</g>
<g id = "DVQKGVJY" >
<line x1="70" y1="70" x2="50" y2="70" stroke="#000000" stroke-width="1px"/>
<text x="77" y="73" font-size="8.888889px" font-family="Times New Roman" fill="#000000" xml:space="preserve">3</text>
</g>
<g id = "ULOYIVDQ" >
<line x1="110" y1="70" x2="130" y2="70" stroke="#000000" stroke-width="1px"/>
<text x="98.0556" y="73" font-size="8.888889px" font-family="Times New Roman" fill="#000000" xml:space="preserve">4</text>
</g>
<g id = "AYEHSWTX" >
<line x1="70" y1="80" x2="50" y2="80" stroke="#000000" stroke-width="1px"/>
<text x="77" y="83" font-size="8.888889px" font-family="Times New Roman" fill="#000000" xml:space="preserve">5</text>
</g>
<g id = "NOCXRTYI" >
<line x1="110" y1="80" x2="130" y2="80" stroke="#000000" stroke-width="1px"/>
<text x="98.0556" y="83" font-size="8.888889px" font-family="Times New Roman" fill="#000000" xml:space="preserve">6</text>
</g>
<g id = "NMBUAEJL" >
<line x1="70" y1="90" x2="50" y2="90" stroke="#000000" stroke-width="1px"/>
<text x="77" y="93" font-size="8.888889px" font-family="Times New Roman" fill="#000000" xml:space="preserve">7</text>
</g>
<g id = "KYYHDOVK" >
<line x1="110" y1="90" x2="130" y2="90" stroke="#000000" stroke-width="1px"/>
<text x="98.0556" y="93" font-size="8.888889px" font-family="Times New Roman" fill="#000000" xml:space="preserve">8</text>
</g>
<g id = "VDUYNLQZ" >
<line x1="70" y1="100" x2="50" y2="100" stroke="#000000" stroke-width="1px"/>
<text x="77" y="103" font-size="8.888889px" font-family="Times New Roman" fill="#000000" xml:space="preserve">9</text>
</g>
<g id = "UHACMEHZ" >
<line x1="110" y1="100" x2="130" y2="100" stroke="#000000" stroke-width="1px"/>
<text x="93.1111" y="103" font-size="8.888889px" font-family="Times New Roman" fill="#000000" xml:space="preserve">10</text>
</g>
<g id = "UZCQAGUN" >
<line x1="70" y1="110" x2="50" y2="110" stroke="#000000" stroke-width="1px"/>
<text x="77" y="113" font-size="8.888889px" font-family="Times New Roman" fill="#000000" xml:space="preserve">11</text>
</g>
<g id = "XJPBJIPV" >
<line x1="110" y1="110" x2="130" y2="110" stroke="#000000" stroke-width="1px"/>
<text x="93.1111" y="113" font-size="8.888889px" font-family="Times New Roman" fill="#000000" xml:space="preserve">12</text>
</g>
<g id = "CUPJHFQB" >
<line x1="70" y1="120" x2="50" y2="120" stroke="#000000" stroke-width="1px"/>
<text x="77" y="123" font-size="8.888889px" font-family="Times New Roman" fill="#000000" xml:space="preserve">13</text>
</g>
<g id = "ZNWYPCWV" >
<line x1="110" y1="120" x2="130" y2="120" stroke="#000000" stroke-width="1px"/>
<text x="93.1111" y="123" font-size="8.888889px" font-family="Times New Roman" fill="#000000" xml:space="preserve">14</text>
</g>
<g id = "XIIOKHNM" >
<line x1="70" y1="130" x2="50" y2="130" stroke="#000000" stroke-width="1px"/>
<text x="77" y="133" font-size="8.888889px" font-family="Times New Roman" fill="#000000" xml:space="preserve">15</text>
</g>
<g id = "KKCFNCSA" >
<line x1="110" y1="130" x2="130" y2="130" stroke="#000000" stroke-width="1px"/>
<text x="93.1111" y="133" font-size="8.888889px" font-family="Times New Roman" fill="#000000" xml:space="preserve">16</text>
</g>
<g id = "DCAAVEIY" >
<line x1="70" y1="140" x2="50" y2="140" stroke="#000000" stroke-width="1px"/>
<text x="77" y="143" font-size="8.888889px" font-family="Times New Roman" fill="#000000" xml:space="preserve">17</text>
</g>
<g id = "ZTIKYNEH" >
<line x1="110" y1="140" x2="130" y2="140" stroke="#000000" stroke-width="1px"/>
<text x="93.1111" y="143" font-size="8.888889px" font-family="Times New Roman" fill="#000000" xml:space="preserve">18</text>
</g>
<g id = "JLTBHDBV" >
<line x1="70" y1="150" x2="50" y2="150" stroke="#000000" stroke-width="1px"/>
<text x="77" y="153" font-size="8.888889px" font-family="Times New Roman" fill="#000000" xml:space="preserve">19</text>
</g>
<g id = "KQODQBYR" >
<line x1="110" y1="150" x2="130" y2="150" stroke="#000000" stroke-width="1px"/>
<text x="93.1111" y="153" font-size="8.888889px" font-family="Times New Roman" fill="#000000" xml:space="preserve">20</text>
</g>
<g id = "UKKHYRDP" >
<line x1="70" y1="160" x2="50" y2="160" stroke="#000000" stroke-width="1px"/>
<text x="77" y="163" font-size="8.888889px" font-family="Times New Roman" fill="#000000" xml:space="preserve">21</text>
</g>
<g id = "KXWCMGLL" >
<line x1="110" y1="160" x2="130" y2="160" stroke="#000000" stroke-width="1px"/>
<text x="93.1111" y="163" font-size="8.888889px" font-family="Times New Roman" fill="#000000" xml:space="preserve">22</text>
</g>
<g id = "SPMWOQUN" >
<line x1="70" y1="170" x2="50" y2="170" stroke="#000000" stroke-width="1px"/>
<text x="77" y="173" font-size="8.888889px" font-family="Times New Roman" fill="#000000" xml:space="preserve">23</text>
</g>
<g id = "GUOXQONP" >
<line x1="110" y1="170" x2="130" y2="170" stroke="#000000" stroke-width="1px"/>
<text x="93.1111" y="173" font-size="8.888889px" font-family="Times New Roman" fill="#000000" xml:space="preserve">24</text>
</g>
<g id = "QCDKZISZ" >
<line x1="70" y1="180" x2="50" y2="180" stroke="#000000" stroke-width="1px"/>
<text x="77" y="183" font-size="8.888889px" font-family="Times New Roman" fill="#000000" xml:space="preserve">25</text>
</g>
<g id = "OVTTVRIE" >
<line x1="110" y1="180" x2="130" y2="180" stroke="#000000" stroke-width="1px"/>
<text x="93.1111" y="183" font-size="8.888889px" font-family="Times New Roman" fill="#000000" xml:space="preserve">26</text>
</g>
<g id = "GDFWRKBN" >
<line x1="70" y1="190" x2="50" y2="190" stroke="#000000" stroke-width="1px"/>
<text x="77" y="193" font-size="8.888889px" font-family="Times New Roman" fill="#000000" xml:space="preserve">27</text>
</g>
<g id = "TEWRPIDL" >
<line x1="110" y1="190" x2="130" y2="190" stroke="#000000" stroke-width="1px"/>
<text x="93.1111" y="193" font-size="8.888889px" font-family="Times New Roman" fill="#000000" xml:space="preserve">28</text>
</g>
<g id = "PPYLGYNU" >
<line x1="70" y1="200" x2="50" y2="200" stroke="#000000" stroke-width="1px"/>
<text x="77" y="203" font-size="8.888889px" font-family="Times New Roman" fill="#000000" xml:space="preserve">29</text>
</g>
<g id = "UKRFWCVN" >
<line x1="110" y1="200" x2="130" y2="200" stroke="#000000" stroke-width="1px"/>
<text x="93.1111" y="203" font-size="8.888889px" font-family="Times New Roman" fill="#000000" xml:space="preserve">30</text>
</g>
<g id = "YPFYIOLS" >
<line x1="70" y1="210" x2="50" y2="210" stroke="#000000" stroke-width="1px"/>
<text x="77" y="213" font-size="8.888889px" font-family="Times New Roman" fill="#000000" xml:space="preserve">31</text>
</g>
<g id = "PRPHYUHR" >
<line x1="110" y1="210" x2="130" y2="210" stroke="#000000" stroke-width="1px"/>
<text x="93.1111" y="213" font-size="8.888889px" font-family="Times New Roman" fill="#000000" xml:space="preserve">32</text>
</g>
<g id = "YCYUCOWO" >
<line x1="70" y1="220" x2="50" y2="220" stroke="#000000" stroke-width="1px"/>
<text x="77" y="223" font-size="8.888889px" font-family="Times New Roman" fill="#000000" xml:space="preserve">33</text>
</g>
<g id = "SMZQQSUU" >
<line x1="110" y1="220" x2="130" y2="220" stroke="#000000" stroke-width="1px"/>
<text x="93.1111" y="223" font-size="8.888889px" font-family="Times New Roman" fill="#000000" xml:space="preserve">34</text>
</g>
<g id = "AVLDSBMX" >
<line x1="70" y1="230" x2="50" y2="230" stroke="#000000" stroke-width="1px"/>
<text x="77" y="233" font-size="8.888889px" font-family="Times New Roman" fill="#000000" xml:space="preserve">35</text>
</g>
<g id = "LGGFHHBH" >
<line x1="110" y1="230" x2="130" y2="230" stroke="#000000" stroke-width="1px"/>
<text x="93.1111" y="233" font-size="8.888889px" font-family="Times New Roman" fill="#000000" xml:space="preserve">36</text>
</g>
<g id = "MQTKHPCB" >
<line x1="70" y1="240" x2="50" y2="240" stroke="#000000" stroke-width="1px"/>
<text x="77" y="243" font-size="8.888889px" font-family="Times New Roman" fill="#000000" xml:space="preserve">37</text>
</g>
<g id = "CXERFGFC" >
<line x1="110" y1="240" x2="130" y2="240" stroke="#000000" stroke-width="1px"/>
<text x="93.1111" y="243" font-size="8.888889px" font-family="Times New Roman" fill="#000000" xml:space="preserve">38</text>
</g>
<g id = "OEOYCLBU" >
<line x1="70" y1="250" x2="50" y2="250" stroke="#000000" stroke-width="1px"/>
<text x="77" y="253" font-size="8.888889px" font-family="Times New Roman" fill="#000000" xml:space="preserve">39</text>
</g>
<g id = "XYGNPXER" >
<line x1="110" y1="250" x2="130" y2="250" stroke="#000000" stroke-width="1px"/>
<text x="93.1111" y="253" font-size="8.888889px" font-family="Times New Roman" fill="#000000" xml:space="preserve">40</text>
</g>
<g id = "HTRDZVRM" >
<line x1="70" y1="260" x2="50" y2="260" stroke="#000000" stroke-width="1px"/>
<text x="77" y="263" font-size="8.888889px" font-family="Times New Roman" fill="#000000" xml:space="preserve">41</text>
</g>
<g id = "RIUAGFWJ" >
<line x1="110" y1="260" x2="130" y2="260" stroke="#000000" stroke-width="1px"/>
<text x="93.1111" y="263" font-size="8.888889px" font-family="Times New Roman" fill="#000000" xml:space="preserve">42</text>
</g>
<g id = "AGUSOOLA" >
<line x1="70" y1="270" x2="50" y2="270" stroke="#000000" stroke-width="1px"/>
<text x="77" y="273" font-size="8.888889px" font-family="Times New Roman" fill="#000000" xml:space="preserve">43</text>
</g>
<g id = "FHXHNLFB" >
<line x1="110" y1="270" x2="130" y2="270" stroke="#000000" stroke-width="1px"/>
<text x="93.1111" y="273" font-size="8.888889px" font-family="Times New Roman" fill="#000000" xml:space="preserve">44</text>
</g>
<g id = "IUWEWCSW" >
<line x1="70" y1="280" x2="50" y2="280" stroke="#000000" stroke-width="1px"/>
<text x="77" y="283" font-size="8.888889px" font-family="Times New Roman" fill="#000000" xml:space="preserve">45</text>
</g>
<g id = "CFKTIXSO" >
<line x1="110" y1="280" x2="130" y2="280" stroke="#000000" stroke-width="1px"/>
<text x="93.1111" y="283" font-size="8.888889px" font-family="Times New Roman" fill="#000000" xml:space="preserve">46</text>
</g>
<g id = "CHJWPJWZ" >
<line x1="70" y1="290" x2="50" y2="290" stroke="#000000" stroke-width="1px"/>
<text x="77" y="293" font-size="8.888889px" font-family="Times New Roman" fill="#000000" xml:space="preserve">47</text>
</g>
<g id = "JHASRHNT" >
<line x1="110" y1="290" x2="130" y2="290" stroke="#000000" stroke-width="1px"/>
<text x="93.1111" y="293" font-size="8.888889px" font-family="Times New Roman" fill="#000000" xml:space="preserve">48</text>
</g>
<g id = "MUYYCWQW" >
<line x1="70" y1="300" x2="50" y2="300" stroke="#000000" stroke-width="1px"/>
<text x="77" y="303" font-size="8.888889px" font-family="Times New Roman" fill="#000000" xml:space="preserve">49</text>
</g>
<g id = "BDWWKNQZ" >
<line x1="110" y1="300" x2="130" y2="300" stroke="#000000" stroke-width="1px"/>
<text x="93.1111" y="303" font-size="8.888889px" font-family="Times New Roman" fill="#000000" xml:space="preserve">50</text>
</g>
<g id = "JRVBNIBX" >
<line x1="70" y1="310" x2="50" y2="310" stroke="#000000" stroke-width="1px"/>
<text x="77" y="313" font-size="8.888889px" font-family="Times New Roman" fill="#000000" xml:space="preserve">51</text>
</g>
<g id = "XYOKELTL" >
<line x1="110" y1="310" x2="130" y2="310" stroke="#000000" stroke-width="1px"/>
<text x="93.1111" y="313" font-size="8.888889px" font-family="Times New Roman" fill="#000000" xml:space="preserve">52</text>
</g>
<g id = "OEIGRZZT" >
<line x1="70" y1="320" x2="50" y2="320" stroke="#000000" stroke-width="1px"/>
<text x="77" y="323" font-size="8.888889px" font-family="Times New Roman" fill="#000000" xml:space="preserve">53</text>
</g>
<g id = "BRLGXFDR" >
<line x1="110" y1="320" x2="130" y2="320" stroke="#000000" stroke-width="1px"/>
<text x="93.1111" y="323" font-size="8.888889px" font-family="Times New Roman" fill="#000000" xml:space="preserve">54</text>
</g>
<g id = "WFCNMQIY" >
<line x1="70" y1="330" x2="50" y2="330" stroke="#000000" stroke-width="1px"/>
<text x="77" y="333" font-size="8.888889px" font-family="Times New Roman" fill="#000000" xml:space="preserve">55</text>
</g>
<g id = "WUEZVRAO" >
<line x1="110" y1="330" x2="130" y2="330" stroke="#000000" stroke-width="1px"/>
<text x="93.1111" y="333" font-size="8.888889px" font-family="Times New Roman" fill="#000000" xml:space="preserve">56</text>
</g>
<g id = "KVBAZBGV" >
<line x1="70" y1="340" x2="50" y2="340" stroke="#000000" stroke-width="1px"/>
<text x="77" y="343" font-size="8.888889px" font-family="Times New Roman" fill="#000000" xml:space="preserve">57</text>
</g>
<g id = "ZZJFTDEO" >
<line x1="110" y1="340" x2="130" y2="340" stroke="#000000" stroke-width="1px"/>
<text x="93.1111" y="343" font-size="8.888889px" font-family="Times New Roman" fill="#000000" xml:space="preserve">58</text>
</g>
<g id = "YOWFKGQF" >
<line x1="70" y1="350" x2="50" y2="350" stroke="#000000" stroke-width="1px"/>
<text x="77" y="353" font-size="8.888889px" font-family="Times New Roman" fill="#000000" xml:space="preserve">59</text>
</g>
<g id = "KXHOFYJN" >
<line x1="110" y1="350" x2="130" y2="350" stroke="#000000" stroke-width="1px"/>
<text x="93.1111" y="353" font-size="8.888889px" font-family="Times New Roman" fill="#000000" xml:space="preserve">60</text>
</g>
<g id = "LYGJUZQW" >
<line x1="70" y1="360" x2="50" y2="360" stroke="#000000" stroke-width="1px"/>
<text x="77" y="363" font-size="8.888889px" font-family="Times New Roman" fill="#000000" xml:space="preserve">61</text>
</g>
<g id = "RDABCAYT" >
<line x1="110" y1="360" x2="130" y2="360" stroke="#000000" stroke-width="1px"/>
<text x="93.1111" y="363" font-size="8.888889px" font-family="Times New Roman" fill="#000000" xml:space="preserve">62</text>
</g>
<g id = "XLIVXFZM" >
<line x1="70" y1="370" x2="50" y2="370" stroke="#000000" stroke-width="1px"/>
<text x="77" y="373" font-size="8.888889px" font-family="Times New Roman" fill="#000000" xml:space="preserve">63</text>
</g>
<g id = "IQHBAASC" >
<line x1="110" y1="370" x2="130" y2="370" stroke="#000000" stroke-width="1px"/>
<text x="93.1111" y="373" font-size="8.888889px" font-family="Times New Roman" fill="#000000" xml:space="preserve">64</text>
</g>
<g id = "GQPJKORG" >
<line x1="70" y1="380" x2="50" y2="380" stroke="#000000" stroke-width="1px"/>
<text x="77" y="383" font-size="8.888889px" font-family="Times New Roman" fill="#000000" xml:space="preserve">65</text>
</g>
<g id = "KSMTZUQR" >
<line x1="110" y1="380" x2="130" y2="380" stroke="#000000" stroke-width="1px"/>
<text x="93.1111" y="383" font-size="8.888889px" font-family="Times New Roman" fill="#000000" xml:space="preserve">66</text>
</g>
<g id = "ORZWMOXX" >
<line x1="70" y1="390" x2="50" y2="390" stroke="#000000" stroke-width="1px"/>
<text x="77" y="393" font-size="8.888889px" font-family="Times New Roman" fill="#000000" xml:space="preserve">67</text>
</g>
<g id = "EHCJPSGV" >
<line x1="110" y1="390" x2="130" y2="390" stroke="#000000" stroke-width="1px"/>
<text x="93.1111" y="393" font-size="8.888889px" font-family="Times New Roman" fill="#000000" xml:space="preserve">68</text>
</g>
<g id = "POWOIACJ" >
<line x1="70" y1="400" x2="50" y2="400" stroke="#000000" stroke-width="1px"/>
<text x="77" y="403" font-size="8.888889px" font-family="Times New Roman" fill="#000000" xml:space="preserve">69</text>
</g>
<g id = "FEJRAVOL" >
<line x1="110" y1="400" x2="130" y2="400" stroke="#000000" stroke-width="1px"/>
<text x="93.1111" y="403" font-size="8.888889px" font-family="Times New Roman" fill="#000000" xml:space="preserve">70</text>
</g>
<g id = "AOKBACJS" >
<line x1="70" y1="410" x2="50" y2="410" stroke="#000000" stroke-width="1px"/>
<text x="77" y="413" font-size="8.888889px" font-family="Times New Roman" fill="#000000" xml:space="preserve">71</text>
</g>
<g id = "KCFCLRIM" >
<line x1="110" y1="410" x2="130" y2="410" stroke="#000000" stroke-width="1px"/>
<text x="93.1111" y="413" font-size="8.888889px" font-family="Times New Roman" fill="#000000" xml:space="preserve">72</text>
</g>
<g id = "AUSBCMQZ" >
<line x1="70" y1="420" x2="50" y2="420" stroke="#000000" stroke-width="1px"/>
<text x="77" y="423" font-size="8.888889px" font-family="Times New Roman" fill="#000000" xml:space="preserve">73</text>
</g>
<g id = "KFAZFUUI" >
<line x1="110" y1="420" x2="130" y2="420" stroke="#000000" stroke-width="1px"/>
<text x="93.1111" y="423" font-size="8.888889px" font-family="Times New Roman" fill="#000000" xml:space="preserve">74</text>
</g>
<g id = "ULHSYQQV" >
<line x1="70" y1="430" x2="50" y2="430" stroke="#000000" stroke-width="1px"/>
<text x="77" y="433" font-size="8.888889px" font-family="Times New Roman" fill="#000000" xml:space="preserve">75</text>
</g>
<g id = "WWYRXYFH" >
<line x1="110" y1="430" x2="130" y2="430" stroke="#000000" stroke-width="1px"/>
<text x="93.1111" y="433" font-size="8.888889px" font-family="Times New Roman" fill="#000000" xml:space="preserve">76</text>
</g>
</g>
</g>
</g>
</g>
</svg>