<?xml version="1.0"  encoding="UTF-8" standalone="no"?>
<svg version="1.1" xmlns="http://www.w3.org/2000/svg" xmlns:xlink="http://www.w3.org/1999/xlink" stroke-linecap="round" stroke-linejoin="round" fill="none" width="160" height="510" viewBox="0 0 160 510" data-doc-id="symbol-Terminal Block 40" data-doc-ver="2">
<g id = "scene" >
<g id = "DocumentMainGroup" >
<g id = "BackgroundGroup" >
<rect x = "0" y="0" width="160" height="510" fill="#FFFFFF" fill-opacity="1"/>
</g>
<g id = "symbol-Terminal Block 40" >
<g id = "DocumentItemsGroup" >
<g id = "VRDJAAMU" >
<rect x = "70" y="50" width="40" height="410" stroke="#0000FF" stroke-width="1px"/>
</g>
<g id = "UYNPMFES" >
<rect x = "74" y="57" width="6" height="6" rx="3" ry="3" stroke="#000000" stroke-width="1px"/>
<ellipse cx="77.00" cy="60.00" rx="3.00" ry="3.00" stroke="#000000" stroke-width="1.00px"/>
</g>
<g id = "RRNOLQTV" >
<line x1="75" y1="58" x2="79" y2="62" stroke="#000000" stroke-width="1px"/>
</g>
<g id = "TTKULCFT" >
<rect x = "74" y="67" width="6" height="6" rx="3" ry="3" stroke="#000000" stroke-width="1px"/>
<ellipse cx="77.00" cy="70.00" rx="3.00" ry="3.00" stroke="#000000" stroke-width="1.00px"/>
</g>
<g id = "QDHGNAGI" >
<line x1="75" y1="68" x2="79" y2="72" stroke="#000000" stroke-width="1px"/>
</g>
<g id = "FLLKYNZR" >
<rect x = "74" y="77" width="6" height="6" rx="3" ry="3" stroke="#000000" stroke-width="1px"/>
<ellipse cx="77.00" cy="80.00" rx="3.00" ry="3.00" stroke="#000000" stroke-width="1.00px"/>
</g>
<g id = "QFOSAPRP" >
<line x1="75" y1="78" x2="79" y2="82" stroke="#000000" stroke-width="1px"/>
</g>
<g id = "JKZIGZSD" >
<rect x = "74" y="87" width="6" height="6" rx="3" ry="3" stroke="#000000" stroke-width="1px"/>
<ellipse cx="77.00" cy="90.00" rx="3.00" ry="3.00" stroke="#000000" stroke-width="1.00px"/>
</g>
<g id = "SVNJOGIN" >
<line x1="75" y1="88" x2="79" y2="92" stroke="#000000" stroke-width="1px"/>
</g>
<g id = "AZQLAQCJ" >
<rect x = "74" y="97" width="6" height="6" rx="3" ry="3" stroke="#000000" stroke-width="1px"/>
<ellipse cx="77.00" cy="100.00" rx="3.00" ry="3.00" stroke="#000000" stroke-width="1.00px"/>
</g>
<g id = "WHTXKIQG" >
<line x1="75" y1="98" x2="79" y2="102" stroke="#000000" stroke-width="1px"/>
</g>
<g id = "TLAXNQKW" >
<rect x = "74" y="107" width="6" height="6" rx="3" ry="3" stroke="#000000" stroke-width="1px"/>
<ellipse cx="77.00" cy="110.00" rx="3.00" ry="3.00" stroke="#000000" stroke-width="1.00px"/>
</g>
<g id = "BLFOPIZC" >
<line x1="75" y1="108" x2="79" y2="112" stroke="#000000" stroke-width="1px"/>
</g>
<g id = "NQHWLIIH" >
<rect x = "74" y="117" width="6" height="6" rx="3" ry="3" stroke="#000000" stroke-width="1px"/>
<ellipse cx="77.00" cy="120.00" rx="3.00" ry="3.00" stroke="#000000" stroke-width="1.00px"/>
</g>
<g id = "DLHNJXPW" >
<line x1="75" y1="118" x2="79" y2="122" stroke="#000000" stroke-width="1px"/>
</g>
<g id = "HVDQIYLP" >
<rect x = "74" y="127" width="6" height="6" rx="3" ry="3" stroke="#000000" stroke-width="1px"/>
<ellipse cx="77.00" cy="130.00" rx="3.00" ry="3.00" stroke="#000000" stroke-width="1.00px"/>
</g>
<g id = "EWJTXHQV" >
<line x1="75" y1="128" x2="79" y2="132" stroke="#000000" stroke-width="1px"/>
</g>
<g id = "RLNWJJOC" >
<rect x = "74" y="137" width="6" height="6" rx="3" ry="3" stroke="#000000" stroke-width="1px"/>
<ellipse cx="77.00" cy="140.00" rx="3.00" ry="3.00" stroke="#000000" stroke-width="1.00px"/>
</g>
<g id = "EBVWEPVO" >
<line x1="75" y1="138" x2="79" y2="142" stroke="#000000" stroke-width="1px"/>
</g>
<g id = "ZEEDJYOK" >
<rect x = "74" y="147" width="6" height="6" rx="3" ry="3" stroke="#000000" stroke-width="1px"/>
<ellipse cx="77.00" cy="150.00" rx="3.00" ry="3.00" stroke="#000000" stroke-width="1.00px"/>
</g>
<g id = "KYAKVJAL" >
<line x1="75" y1="148" x2="79" y2="152" stroke="#000000" stroke-width="1px"/>
</g>
<g id = "ASZIVWJJ" >
<rect x = "74" y="157" width="6" height="6" rx="3" ry="3" stroke="#000000" stroke-width="1px"/>
<ellipse cx="77.00" cy="160.00" rx="3.00" ry="3.00" stroke="#000000" stroke-width="1.00px"/>
</g>
<g id = "FZBPLZFM" >
<line x1="75" y1="158" x2="79" y2="162" stroke="#000000" stroke-width="1px"/>
</g>
<g id = "DSWMBTKC" >
<rect x = "74" y="167" width="6" height="6" rx="3" ry="3" stroke="#000000" stroke-width="1px"/>
<ellipse cx="77.00" cy="170.00" rx="3.00" ry="3.00" stroke="#000000" stroke-width="1.00px"/>
</g>
<g id = "JVVVGQOA" >
<line x1="75" y1="168" x2="79" y2="172" stroke="#000000" stroke-width="1px"/>
</g>
<g id = "BRDICPQT" >
<rect x = "74" y="177" width="6" height="6" rx="3" ry="3" stroke="#000000" stroke-width="1px"/>
<ellipse cx="77.00" cy="180.00" rx="3.00" ry="3.00" stroke="#000000" stroke-width="1.00px"/>
</g>
<g id = "CAMHQJPE" >
<line x1="75" y1="178" x2="79" y2="182" stroke="#000000" stroke-width="1px"/>
</g>
<g id = "JMLOODJX" >
<rect x = "74" y="187" width="6" height="6" rx="3" ry="3" stroke="#000000" stroke-width="1px"/>
<ellipse cx="77.00" cy="190.00" rx="3.00" ry="3.00" stroke="#000000" stroke-width="1.00px"/>
</g>
<g id = "KCOMEBMX" >
<line x1="75" y1="188" x2="79" y2="192" stroke="#000000" stroke-width="1px"/>
</g>
<g id = "VUYRMKNB" >
<rect x = "74" y="197" width="6" height="6" rx="3" ry="3" stroke="#000000" stroke-width="1px"/>
<ellipse cx="77.00" cy="200.00" rx="3.00" ry="3.00" stroke="#000000" stroke-width="1.00px"/>
</g>
<g id = "QQLPGROC" >
<line x1="75" y1="198" x2="79" y2="202" stroke="#000000" stroke-width="1px"/>
</g>
<g id = "TRHHIUPD" >
<rect x = "74" y="207" width="6" height="6" rx="3" ry="3" stroke="#000000" stroke-width="1px"/>
<ellipse cx="77.00" cy="210.00" rx="3.00" ry="3.00" stroke="#000000" stroke-width="1.00px"/>
</g>
<g id = "ZWMMWZAC" >
<line x1="75" y1="208" x2="79" y2="212" stroke="#000000" stroke-width="1px"/>
</g>
<g id = "AHFHRRGO" >
<rect x = "74" y="217" width="6" height="6" rx="3" ry="3" stroke="#000000" stroke-width="1px"/>
<ellipse cx="77.00" cy="220.00" rx="3.00" ry="3.00" stroke="#000000" stroke-width="1.00px"/>
</g>
<g id = "KPTQRIFR" >
<line x1="75" y1="218" x2="79" y2="222" stroke="#000000" stroke-width="1px"/>
</g>
<g id = "YJXMCVWL" >
<rect x = "74" y="227" width="6" height="6" rx="3" ry="3" stroke="#000000" stroke-width="1px"/>
<ellipse cx="77.00" cy="230.00" rx="3.00" ry="3.00" stroke="#000000" stroke-width="1.00px"/>
</g>
<g id = "YGLFARUX" >
<line x1="75" y1="228" x2="79" y2="232" stroke="#000000" stroke-width="1px"/>
</g>
<g id = "HGFVGBZK" >
<rect x = "74" y="237" width="6" height="6" rx="3" ry="3" stroke="#000000" stroke-width="1px"/>
<ellipse cx="77.00" cy="240.00" rx="3.00" ry="3.00" stroke="#000000" stroke-width="1.00px"/>
</g>
<g id = "NXFVMNRF" >
<line x1="75" y1="238" x2="79" y2="242" stroke="#000000" stroke-width="1px"/>
</g>
<g id = "XTGGPCVS" >
<rect x = "74" y="247" width="6" height="6" rx="3" ry="3" stroke="#000000" stroke-width="1px"/>
<ellipse cx="77.00" cy="250.00" rx="3.00" ry="3.00" stroke="#000000" stroke-width="1.00px"/>
</g>
<g id = "VIMQXCJU" >
<line x1="75" y1="248" x2="79" y2="252" stroke="#000000" stroke-width="1px"/>
</g>
<g id = "ILEDVMCN" >
<rect x = "74" y="257" width="6" height="6" rx="3" ry="3" stroke="#000000" stroke-width="1px"/>
<ellipse cx="77.00" cy="260.00" rx="3.00" ry="3.00" stroke="#000000" stroke-width="1.00px"/>
</g>
<g id = "QADGEODL" >
<line x1="75" y1="258" x2="79" y2="262" stroke="#000000" stroke-width="1px"/>
</g>
<g id = "SKGXLZKH" >
<rect x = "74" y="267" width="6" height="6" rx="3" ry="3" stroke="#000000" stroke-width="1px"/>
<ellipse cx="77.00" cy="270.00" rx="3.00" ry="3.00" stroke="#000000" stroke-width="1.00px"/>
</g>
<g id = "ZUBNKGER" >
<line x1="75" y1="268" x2="79" y2="272" stroke="#000000" stroke-width="1px"/>
</g>
<g id = "OAEBCDPR" >
<rect x = "74" y="277" width="6" height="6" rx="3" ry="3" stroke="#000000" stroke-width="1px"/>
<ellipse cx="77.00" cy="280.00" rx="3.00" ry="3.00" stroke="#000000" stroke-width="1.00px"/>
</g>
<g id = "LHUMMMAO" >
<line x1="75" y1="278" x2="79" y2="282" stroke="#000000" stroke-width="1px"/>
</g>
<g id = "POCXNOSO" >
<rect x = "74" y="287" width="6" height="6" rx="3" ry="3" stroke="#000000" stroke-width="1px"/>
<ellipse cx="77.00" cy="290.00" rx="3.00" ry="3.00" stroke="#000000" stroke-width="1.00px"/>
</g>
<g id = "VSZRTGFP" >
<line x1="75" y1="288" x2="79" y2="292" stroke="#000000" stroke-width="1px"/>
</g>
<g id = "LLDMBWKF" >
<rect x = "74" y="297" width="6" height="6" rx="3" ry="3" stroke="#000000" stroke-width="1px"/>
<ellipse cx="77.00" cy="300.00" rx="3.00" ry="3.00" stroke="#000000" stroke-width="1.00px"/>
</g>
<g id = "QVHJBNKG" >
<line x1="75" y1="298" x2="79" y2="302" stroke="#000000" stroke-width="1px"/>
</g>
<g id = "CLHNSSWQ" >
<rect x = "74" y="307" width="6" height="6" rx="3" ry="3" stroke="#000000" stroke-width="1px"/>
<ellipse cx="77.00" cy="310.00" rx="3.00" ry="3.00" stroke="#000000" stroke-width="1.00px"/>
</g>
<g id = "LZYKKPDK" >
<line x1="75" y1="308" x2="79" y2="312" stroke="#000000" stroke-width="1px"/>
</g>
<g id = "UTUSNPQT" >
<rect x = "74" y="317" width="6" height="6" rx="3" ry="3" stroke="#000000" stroke-width="1px"/>
<ellipse cx="77.00" cy="320.00" rx="3.00" ry="3.00" stroke="#000000" stroke-width="1.00px"/>
</g>
<g id = "LTFWPRBN" >
<line x1="75" y1="318" x2="79" y2="322" stroke="#000000" stroke-width="1px"/>
</g>
<g id = "VGLSFAXT" >
<rect x = "74" y="327" width="6" height="6" rx="3" ry="3" stroke="#000000" stroke-width="1px"/>
<ellipse cx="77.00" cy="330.00" rx="3.00" ry="3.00" stroke="#000000" stroke-width="1.00px"/>
</g>
<g id = "KIOLLHZP" >
<line x1="75" y1="328" x2="79" y2="332" stroke="#000000" stroke-width="1px"/>
</g>
<g id = "RSMODNOX" >
<rect x = "74" y="337" width="6" height="6" rx="3" ry="3" stroke="#000000" stroke-width="1px"/>
<ellipse cx="77.00" cy="340.00" rx="3.00" ry="3.00" stroke="#000000" stroke-width="1.00px"/>
</g>
<g id = "SWPUQSHC" >
<line x1="75" y1="338" x2="79" y2="342" stroke="#000000" stroke-width="1px"/>
</g>
<g id = "RJWIZOZL" >
<rect x = "74" y="347" width="6" height="6" rx="3" ry="3" stroke="#000000" stroke-width="1px"/>
<ellipse cx="77.00" cy="350.00" rx="3.00" ry="3.00" stroke="#000000" stroke-width="1.00px"/>
</g>
<g id = "WXUCUBMW" >
<line x1="75" y1="348" x2="79" y2="352" stroke="#000000" stroke-width="1px"/>
</g>
<g id = "NRGXUMYI" >
<rect x = "74" y="357" width="6" height="6" rx="3" ry="3" stroke="#000000" stroke-width="1px"/>
<ellipse cx="77.00" cy="360.00" rx="3.00" ry="3.00" stroke="#000000" stroke-width="1.00px"/>
</g>
<g id = "ULNYYMJE" >
<line x1="75" y1="358" x2="79" y2="362" stroke="#000000" stroke-width="1px"/>
</g>
<g id = "GSLRLCOB" >
<rect x = "74" y="367" width="6" height="6" rx="3" ry="3" stroke="#000000" stroke-width="1px"/>
<ellipse cx="77.00" cy="370.00" rx="3.00" ry="3.00" stroke="#000000" stroke-width="1.00px"/>
</g>
<g id = "OQDVHPEU" >
<line x1="75" y1="368" x2="79" y2="372" stroke="#000000" stroke-width="1px"/>
</g>
<g id = "FSUWYYYK" >
<rect x = "74" y="377" width="6" height="6" rx="3" ry="3" stroke="#000000" stroke-width="1px"/>
<ellipse cx="77.00" cy="380.00" rx="3.00" ry="3.00" stroke="#000000" stroke-width="1.00px"/>
</g>
<g id = "VWUGNVIO" >
<line x1="75" y1="378" x2="79" y2="382" stroke="#000000" stroke-width="1px"/>
</g>
<g id = "UDIOKVYP" >
<rect x = "74" y="387" width="6" height="6" rx="3" ry="3" stroke="#000000" stroke-width="1px"/>
<ellipse cx="77.00" cy="390.00" rx="3.00" ry="3.00" stroke="#000000" stroke-width="1.00px"/>
</g>
<g id = "HJMEENDF" >
<line x1="75" y1="388" x2="79" y2="392" stroke="#000000" stroke-width="1px"/>
</g>
<g id = "CBUIRYMA" >
<rect x = "74" y="397" width="6" height="6" rx="3" ry="3" stroke="#000000" stroke-width="1px"/>
<ellipse cx="77.00" cy="400.00" rx="3.00" ry="3.00" stroke="#000000" stroke-width="1.00px"/>
</g>
<g id = "YWBPRLPS" >
<line x1="75" y1="398" x2="79" y2="402" stroke="#000000" stroke-width="1px"/>
</g>
<g id = "GWITIGOE" >
<rect x = "74" y="407" width="6" height="6" rx="3" ry="3" stroke="#000000" stroke-width="1px"/>
<ellipse cx="77.00" cy="410.00" rx="3.00" ry="3.00" stroke="#000000" stroke-width="1.00px"/>
</g>
<g id = "UZWCFNSH" >
<line x1="75" y1="408" x2="79" y2="412" stroke="#000000" stroke-width="1px"/>
</g>
<g id = "UMRMDTTK" >
<rect x = "74" y="417" width="6" height="6" rx="3" ry="3" stroke="#000000" stroke-width="1px"/>
<ellipse cx="77.00" cy="420.00" rx="3.00" ry="3.00" stroke="#000000" stroke-width="1.00px"/>
</g>
<g id = "OKTBIJSB" >
<line x1="75" y1="418" x2="79" y2="422" stroke="#000000" stroke-width="1px"/>
</g>
<g id = "SIJGQGTD" >
<rect x = "74" y="427" width="6" height="6" rx="3" ry="3" stroke="#000000" stroke-width="1px"/>
<ellipse cx="77.00" cy="430.00" rx="3.00" ry="3.00" stroke="#000000" stroke-width="1.00px"/>
</g>
<g id = "REOTBJDK" >
<line x1="75" y1="428" x2="79" y2="432" stroke="#000000" stroke-width="1px"/>
</g>
<g id = "YABMSERA" >
<rect x = "74" y="437" width="6" height="6" rx="3" ry="3" stroke="#000000" stroke-width="1px"/>
<ellipse cx="77.00" cy="440.00" rx="3.00" ry="3.00" stroke="#000000" stroke-width="1.00px"/>
</g>
<g id = "MSOWCKAW" >
<line x1="75" y1="438" x2="79" y2="442" stroke="#000000" stroke-width="1px"/>
</g>
<g id = "YBQENIQR" >
<rect x = "74" y="447" width="6" height="6" rx="3" ry="3" stroke="#000000" stroke-width="1px"/>
<ellipse cx="77.00" cy="450.00" rx="3.00" ry="3.00" stroke="#000000" stroke-width="1.00px"/>
</g>
<g id = "NXHPGTOP" >
<line x1="75" y1="448" x2="79" y2="452" stroke="#000000" stroke-width="1px"/>
</g>
<g id = "HYPOQIIJ" >
<line x1="70" y1="60" x2="50" y2="60" stroke="#000000" stroke-width="1px"/>
<text x="77" y="63" font-size="8.888889px" font-family="Times New Roman" fill="#000000" xml:space="preserve">1</text>
</g>
<g id = "JHMLSKMK" >
<line x1="70" y1="70" x2="50" y2="70" stroke="#000000" stroke-width="1px"/>
<text x="77" y="73" font-size="8.888889px" font-family="Times New Roman" fill="#000000" xml:space="preserve">2</text>
</g>
<g id = "CLFBFNVV" >
<line x1="70" y1="80" x2="50" y2="80" stroke="#000000" stroke-width="1px"/>
<text x="77" y="83" font-size="8.888889px" font-family="Times New Roman" fill="#000000" xml:space="preserve">3</text>
</g>
<g id = "TJIMUCEM" >
<line x1="70" y1="90" x2="50" y2="90" stroke="#000000" stroke-width="1px"/>
<text x="77" y="93" font-size="8.888889px" font-family="Times New Roman" fill="#000000" xml:space="preserve">4</text>
</g>
<g id = "RCJNQGBW" >
<line x1="70" y1="100" x2="50" y2="100" stroke="#000000" stroke-width="1px"/>
<text x="77" y="103" font-size="8.888889px" font-family="Times New Roman" fill="#000000" xml:space="preserve">5</text>
</g>
<g id = "XSVXQZGI" >
<line x1="70" y1="110" x2="50" y2="110" stroke="#000000" stroke-width="1px"/>
<text x="77" y="113" font-size="8.888889px" font-family="Times New Roman" fill="#000000" xml:space="preserve">6</text>
</g>
<g id = "PBOFBXLK" >
<line x1="70" y1="120" x2="50" y2="120" stroke="#000000" stroke-width="1px"/>
<text x="77" y="123" font-size="8.888889px" font-family="Times New Roman" fill="#000000" xml:space="preserve">7</text>
</g>
<g id = "ZXHWANAH" >
<line x1="70" y1="130" x2="50" y2="130" stroke="#000000" stroke-width="1px"/>
<text x="77" y="133" font-size="8.888889px" font-family="Times New Roman" fill="#000000" xml:space="preserve">8</text>
</g>
<g id = "QNJDAHAL" >
<line x1="70" y1="140" x2="50" y2="140" stroke="#000000" stroke-width="1px"/>
<text x="77" y="143" font-size="8.888889px" font-family="Times New Roman" fill="#000000" xml:space="preserve">9</text>
</g>
<g id = "AKSJJNSY" >
<line x1="70" y1="150" x2="50" y2="150" stroke="#000000" stroke-width="1px"/>
<text x="77" y="153" font-size="8.888889px" font-family="Times New Roman" fill="#000000" xml:space="preserve">10</text>
</g>
<g id = "CXJFEOJW" >
<line x1="70" y1="160" x2="50" y2="160" stroke="#000000" stroke-width="1px"/>
<text x="77" y="163" font-size="8.888889px" font-family="Times New Roman" fill="#000000" xml:space="preserve">11</text>
</g>
<g id = "VHMYXMEL" >
<line x1="70" y1="170" x2="50" y2="170" stroke="#000000" stroke-width="1px"/>
<text x="77" y="173" font-size="8.888889px" font-family="Times New Roman" fill="#000000" xml:space="preserve">12</text>
</g>
<g id = "CRGLUJOY" >
<line x1="70" y1="180" x2="50" y2="180" stroke="#000000" stroke-width="1px"/>
<text x="77" y="183" font-size="8.888889px" font-family="Times New Roman" fill="#000000" xml:space="preserve">13</text>
</g>
<g id = "EPQTIIHS" >
<line x1="70" y1="190" x2="50" y2="190" stroke="#000000" stroke-width="1px"/>
<text x="77" y="193" font-size="8.888889px" font-family="Times New Roman" fill="#000000" xml:space="preserve">14</text>
</g>
<g id = "CQSBBUES" >
<line x1="70" y1="200" x2="50" y2="200" stroke="#000000" stroke-width="1px"/>
<text x="77" y="203" font-size="8.888889px" font-family="Times New Roman" fill="#000000" xml:space="preserve">15</text>
</g>
<g id = "CFMRGDKE" >
<line x1="70" y1="210" x2="50" y2="210" stroke="#000000" stroke-width="1px"/>
<text x="77" y="213" font-size="8.888889px" font-family="Times New Roman" fill="#000000" xml:space="preserve">16</text>
</g>
<g id = "IUHBSVTM" >
<line x1="70" y1="220" x2="50" y2="220" stroke="#000000" stroke-width="1px"/>
<text x="77" y="223" font-size="8.888889px" font-family="Times New Roman" fill="#000000" xml:space="preserve">17</text>
</g>
<g id = "GJIIBLNC" >
<line x1="70" y1="230" x2="50" y2="230" stroke="#000000" stroke-width="1px"/>
<text x="77" y="233" font-size="8.888889px" font-family="Times New Roman" fill="#000000" xml:space="preserve">18</text>
</g>
<g id = "IOUZDHIM" >
<line x1="70" y1="240" x2="50" y2="240" stroke="#000000" stroke-width="1px"/>
<text x="77" y="243" font-size="8.888889px" font-family="Times New Roman" fill="#000000" xml:space="preserve">19</text>
</g>
<g id = "NKSWFPQT" >
<line x1="70" y1="250" x2="50" y2="250" stroke="#000000" stroke-width="1px"/>
<text x="77" y="253" font-size="8.888889px" font-family="Times New Roman" fill="#000000" xml:space="preserve">20</text>
</g>
<g id = "DBUCJPZQ" >
<line x1="70" y1="260" x2="50" y2="260" stroke="#000000" stroke-width="1px"/>
<text x="77" y="263" font-size="8.888889px" font-family="Times New Roman" fill="#000000" xml:space="preserve">21</text>
</g>
<g id = "LVQAZEBQ" >
<line x1="70" y1="270" x2="50" y2="270" stroke="#000000" stroke-width="1px"/>
<text x="77" y="273" font-size="8.888889px" font-family="Times New Roman" fill="#000000" xml:space="preserve">22</text>
</g>
<g id = "DTODWLXY" >
<line x1="70" y1="280" x2="50" y2="280" stroke="#000000" stroke-width="1px"/>
<text x="77" y="283" font-size="8.888889px" font-family="Times New Roman" fill="#000000" xml:space="preserve">23</text>
</g>
<g id = "NKCGPMNX" >
<line x1="70" y1="290" x2="50" y2="290" stroke="#000000" stroke-width="1px"/>
<text x="77" y="293" font-size="8.888889px" font-family="Times New Roman" fill="#000000" xml:space="preserve">24</text>
</g>
<g id = "PBLQMSBG" >
<line x1="70" y1="300" x2="50" y2="300" stroke="#000000" stroke-width="1px"/>
<text x="77" y="303" font-size="8.888889px" font-family="Times New Roman" fill="#000000" xml:space="preserve">25</text>
</g>
<g id = "UFEONNCL" >
<line x1="70" y1="310" x2="50" y2="310" stroke="#000000" stroke-width="1px"/>
<text x="77" y="313" font-size="8.888889px" font-family="Times New Roman" fill="#000000" xml:space="preserve">26</text>
</g>
<g id = "ARUZKKSJ" >
<line x1="70" y1="320" x2="50" y2="320" stroke="#000000" stroke-width="1px"/>
<text x="77" y="323" font-size="8.888889px" font-family="Times New Roman" fill="#000000" xml:space="preserve">27</text>
</g>
<g id = "NRXDYWFB" >
<line x1="70" y1="330" x2="50" y2="330" stroke="#000000" stroke-width="1px"/>
<text x="77" y="333" font-size="8.888889px" font-family="Times New Roman" fill="#000000" xml:space="preserve">28</text>
</g>
<g id = "PISRAVHO" >
<line x1="70" y1="340" x2="50" y2="340" stroke="#000000" stroke-width="1px"/>
<text x="77" y="343" font-size="8.888889px" font-family="Times New Roman" fill="#000000" xml:space="preserve">29</text>
</g>
<g id = "JRWODSNJ" >
<line x1="70" y1="350" x2="50" y2="350" stroke="#000000" stroke-width="1px"/>
<text x="77" y="353" font-size="8.888889px" font-family="Times New Roman" fill="#000000" xml:space="preserve">30</text>
</g>
<g id = "NJOOWNQK" >
<line x1="70" y1="360" x2="50" y2="360" stroke="#000000" stroke-width="1px"/>
<text x="77" y="363" font-size="8.888889px" font-family="Times New Roman" fill="#000000" xml:space="preserve">31</text>
</g>
<g id = "YSLKHENH" >
<line x1="70" y1="370" x2="50" y2="370" stroke="#000000" stroke-width="1px"/>
<text x="77" y="373" font-size="8.888889px" font-family="Times New Roman" fill="#000000" xml:space="preserve">32</text>
</g>
<g id = "PSQWCXBE" >
<line x1="70" y1="380" x2="50" y2="380" stroke="#000000" stroke-width="1px"/>
<text x="77" y="383" font-size="8.888889px" font-family="Times New Roman" fill="#000000" xml:space="preserve">33</text>
</g>
<g id = "RBKUBRMU" >
<line x1="70" y1="390" x2="50" y2="390" stroke="#000000" stroke-width="1px"/>
<text x="77" y="393" font-size="8.888889px" font-family="Times New Roman" fill="#000000" xml:space="preserve">34</text>
</g>
<g id = "KUZUBALU" >
<line x1="70" y1="400" x2="50" y2="400" stroke="#000000" stroke-width="1px"/>
<text x="77" y="403" font-size="8.888889px" font-family="Times New Roman" fill="#000000" xml:space="preserve">35</text>
</g>
<g id = "ZKEVUIID" >
<line x1="70" y1="410" x2="50" y2="410" stroke="#000000" stroke-width="1px"/>
<text x="77" y="413" font-size="8.888889px" font-family="Times New Roman" fill="#000000" xml:space="preserve">36</text>
</g>
<g id = "WZTFIWZL" >
<line x1="70" y1="420" x2="50" y2="420" stroke="#000000" stroke-width="1px"/>
<text x="77" y="423" font-size="8.888889px" font-family="Times New Roman" fill="#000000" xml:space="preserve">37</text>
</g>
<g id = "NBBPTDHE" >
<line x1="70" y1="430" x2="50" y2="430" stroke="#000000" stroke-width="1px"/>
<text x="77" y="433" font-size="8.888889px" font-family="Times New Roman" fill="#000000" xml:space="preserve">38</text>
</g>
<g id = "QTOMGNWG" >
<line x1="70" y1="440" x2="50" y2="440" stroke="#000000" stroke-width="1px"/>
<text x="77" y="443" font-size="8.888889px" font-family="Times New Roman" fill="#000000" xml:space="preserve">39</text>
</g>
<g id = "ZNYZPHQT" >
<line x1="70" y1="450" x2="50" y2="450" stroke="#000000" stroke-width="1px"/>
<text x="77" y="453" font-size="8.888889px" font-family="Times New Roman" fill="#000000" xml:space="preserve">40</text>
</g>
</g>
</g>
</g>
</g>
</svg>