<?xml version="1.0"  encoding="UTF-8" standalone="no"?>
<svg version="1.1" xmlns="http://www.w3.org/2000/svg" xmlns:xlink="http://www.w3.org/1999/xlink" stroke-linecap="round" stroke-linejoin="round" fill="none" width="160" height="900" viewBox="0 0 160 900" data-doc-id="symbol-Terminal Block 79" data-doc-ver="2">
<g id = "scene" >
<g id = "DocumentMainGroup" >
<g id = "BackgroundGroup" >
<rect x = "0" y="0" width="160" height="900" fill="#FFFFFF" fill-opacity="1"/>
</g>
<g id = "symbol-Terminal Block 79" >
<g id = "DocumentItemsGroup" >
<g id = "NDSHMJYA" >
<rect x = "70" y="50" width="40" height="800" stroke="#0000FF" stroke-width="1px"/>
</g>
<g id = "FLGOLAYJ" >
<rect x = "74" y="57" width="6" height="6" rx="3" ry="3" stroke="#000000" stroke-width="1px"/>
<ellipse cx="77.00" cy="60.00" rx="3.00" ry="3.00" stroke="#000000" stroke-width="1.00px"/>
</g>
<g id = "KKUMVKGQ" >
<line x1="75" y1="58" x2="79" y2="62" stroke="#000000" stroke-width="1px"/>
</g>
<g id = "RTFQSEEX" >
<rect x = "74" y="67" width="6" height="6" rx="3" ry="3" stroke="#000000" stroke-width="1px"/>
<ellipse cx="77.00" cy="70.00" rx="3.00" ry="3.00" stroke="#000000" stroke-width="1.00px"/>
</g>
<g id = "NESJRSNP" >
<line x1="75" y1="68" x2="79" y2="72" stroke="#000000" stroke-width="1px"/>
</g>
<g id = "UMZFIDKH" >
<rect x = "74" y="77" width="6" height="6" rx="3" ry="3" stroke="#000000" stroke-width="1px"/>
<ellipse cx="77.00" cy="80.00" rx="3.00" ry="3.00" stroke="#000000" stroke-width="1.00px"/>
</g>
<g id = "JNZYPULL" >
<line x1="75" y1="78" x2="79" y2="82" stroke="#000000" stroke-width="1px"/>
</g>
<g id = "XXIXRFVD" >
<rect x = "74" y="87" width="6" height="6" rx="3" ry="3" stroke="#000000" stroke-width="1px"/>
<ellipse cx="77.00" cy="90.00" rx="3.00" ry="3.00" stroke="#000000" stroke-width="1.00px"/>
</g>
<g id = "SUELHSGM" >
<line x1="75" y1="88" x2="79" y2="92" stroke="#000000" stroke-width="1px"/>
</g>
<g id = "PXEIKGXD" >
<rect x = "74" y="97" width="6" height="6" rx="3" ry="3" stroke="#000000" stroke-width="1px"/>
<ellipse cx="77.00" cy="100.00" rx="3.00" ry="3.00" stroke="#000000" stroke-width="1.00px"/>
</g>
<g id = "GFXKDOHZ" >
<line x1="75" y1="98" x2="79" y2="102" stroke="#000000" stroke-width="1px"/>
</g>
<g id = "RNKCETHK" >
<rect x = "74" y="107" width="6" height="6" rx="3" ry="3" stroke="#000000" stroke-width="1px"/>
<ellipse cx="77.00" cy="110.00" rx="3.00" ry="3.00" stroke="#000000" stroke-width="1.00px"/>
</g>
<g id = "FVJFTYRD" >
<line x1="75" y1="108" x2="79" y2="112" stroke="#000000" stroke-width="1px"/>
</g>
<g id = "WMTSVPQB" >
<rect x = "74" y="117" width="6" height="6" rx="3" ry="3" stroke="#000000" stroke-width="1px"/>
<ellipse cx="77.00" cy="120.00" rx="3.00" ry="3.00" stroke="#000000" stroke-width="1.00px"/>
</g>
<g id = "SZOPLTKJ" >
<line x1="75" y1="118" x2="79" y2="122" stroke="#000000" stroke-width="1px"/>
</g>
<g id = "ERSSOIJX" >
<rect x = "74" y="127" width="6" height="6" rx="3" ry="3" stroke="#000000" stroke-width="1px"/>
<ellipse cx="77.00" cy="130.00" rx="3.00" ry="3.00" stroke="#000000" stroke-width="1.00px"/>
</g>
<g id = "ISKAAXAB" >
<line x1="75" y1="128" x2="79" y2="132" stroke="#000000" stroke-width="1px"/>
</g>
<g id = "KDXZOFTU" >
<rect x = "74" y="137" width="6" height="6" rx="3" ry="3" stroke="#000000" stroke-width="1px"/>
<ellipse cx="77.00" cy="140.00" rx="3.00" ry="3.00" stroke="#000000" stroke-width="1.00px"/>
</g>
<g id = "KTELZUWP" >
<line x1="75" y1="138" x2="79" y2="142" stroke="#000000" stroke-width="1px"/>
</g>
<g id = "MCXSXOSO" >
<rect x = "74" y="147" width="6" height="6" rx="3" ry="3" stroke="#000000" stroke-width="1px"/>
<ellipse cx="77.00" cy="150.00" rx="3.00" ry="3.00" stroke="#000000" stroke-width="1.00px"/>
</g>
<g id = "DNHKZQIB" >
<line x1="75" y1="148" x2="79" y2="152" stroke="#000000" stroke-width="1px"/>
</g>
<g id = "OGUWNAHS" >
<rect x = "74" y="157" width="6" height="6" rx="3" ry="3" stroke="#000000" stroke-width="1px"/>
<ellipse cx="77.00" cy="160.00" rx="3.00" ry="3.00" stroke="#000000" stroke-width="1.00px"/>
</g>
<g id = "FYPJKFAT" >
<line x1="75" y1="158" x2="79" y2="162" stroke="#000000" stroke-width="1px"/>
</g>
<g id = "PLVEYUFO" >
<rect x = "74" y="167" width="6" height="6" rx="3" ry="3" stroke="#000000" stroke-width="1px"/>
<ellipse cx="77.00" cy="170.00" rx="3.00" ry="3.00" stroke="#000000" stroke-width="1.00px"/>
</g>
<g id = "LNHMNJMU" >
<line x1="75" y1="168" x2="79" y2="172" stroke="#000000" stroke-width="1px"/>
</g>
<g id = "OZDXEYLU" >
<rect x = "74" y="177" width="6" height="6" rx="3" ry="3" stroke="#000000" stroke-width="1px"/>
<ellipse cx="77.00" cy="180.00" rx="3.00" ry="3.00" stroke="#000000" stroke-width="1.00px"/>
</g>
<g id = "DPZYJUSQ" >
<line x1="75" y1="178" x2="79" y2="182" stroke="#000000" stroke-width="1px"/>
</g>
<g id = "HATAOKIO" >
<rect x = "74" y="187" width="6" height="6" rx="3" ry="3" stroke="#000000" stroke-width="1px"/>
<ellipse cx="77.00" cy="190.00" rx="3.00" ry="3.00" stroke="#000000" stroke-width="1.00px"/>
</g>
<g id = "WRFUUMMG" >
<line x1="75" y1="188" x2="79" y2="192" stroke="#000000" stroke-width="1px"/>
</g>
<g id = "GJVQRUXE" >
<rect x = "74" y="197" width="6" height="6" rx="3" ry="3" stroke="#000000" stroke-width="1px"/>
<ellipse cx="77.00" cy="200.00" rx="3.00" ry="3.00" stroke="#000000" stroke-width="1.00px"/>
</g>
<g id = "OYKMVIAW" >
<line x1="75" y1="198" x2="79" y2="202" stroke="#000000" stroke-width="1px"/>
</g>
<g id = "UCAIQZSD" >
<rect x = "74" y="207" width="6" height="6" rx="3" ry="3" stroke="#000000" stroke-width="1px"/>
<ellipse cx="77.00" cy="210.00" rx="3.00" ry="3.00" stroke="#000000" stroke-width="1.00px"/>
</g>
<g id = "DNHKMBOX" >
<line x1="75" y1="208" x2="79" y2="212" stroke="#000000" stroke-width="1px"/>
</g>
<g id = "CMNWOOOZ" >
<rect x = "74" y="217" width="6" height="6" rx="3" ry="3" stroke="#000000" stroke-width="1px"/>
<ellipse cx="77.00" cy="220.00" rx="3.00" ry="3.00" stroke="#000000" stroke-width="1.00px"/>
</g>
<g id = "BYSUGBMB" >
<line x1="75" y1="218" x2="79" y2="222" stroke="#000000" stroke-width="1px"/>
</g>
<g id = "AZUNMDFL" >
<rect x = "74" y="227" width="6" height="6" rx="3" ry="3" stroke="#000000" stroke-width="1px"/>
<ellipse cx="77.00" cy="230.00" rx="3.00" ry="3.00" stroke="#000000" stroke-width="1.00px"/>
</g>
<g id = "RRTPSXZK" >
<line x1="75" y1="228" x2="79" y2="232" stroke="#000000" stroke-width="1px"/>
</g>
<g id = "JQLZDYQX" >
<rect x = "74" y="237" width="6" height="6" rx="3" ry="3" stroke="#000000" stroke-width="1px"/>
<ellipse cx="77.00" cy="240.00" rx="3.00" ry="3.00" stroke="#000000" stroke-width="1.00px"/>
</g>
<g id = "JSRMICWS" >
<line x1="75" y1="238" x2="79" y2="242" stroke="#000000" stroke-width="1px"/>
</g>
<g id = "AVQKARLK" >
<rect x = "74" y="247" width="6" height="6" rx="3" ry="3" stroke="#000000" stroke-width="1px"/>
<ellipse cx="77.00" cy="250.00" rx="3.00" ry="3.00" stroke="#000000" stroke-width="1.00px"/>
</g>
<g id = "WNPTCXEH" >
<line x1="75" y1="248" x2="79" y2="252" stroke="#000000" stroke-width="1px"/>
</g>
<g id = "WMVVMECP" >
<rect x = "74" y="257" width="6" height="6" rx="3" ry="3" stroke="#000000" stroke-width="1px"/>
<ellipse cx="77.00" cy="260.00" rx="3.00" ry="3.00" stroke="#000000" stroke-width="1.00px"/>
</g>
<g id = "NYUMKWVS" >
<line x1="75" y1="258" x2="79" y2="262" stroke="#000000" stroke-width="1px"/>
</g>
<g id = "ZQNKBABI" >
<rect x = "74" y="267" width="6" height="6" rx="3" ry="3" stroke="#000000" stroke-width="1px"/>
<ellipse cx="77.00" cy="270.00" rx="3.00" ry="3.00" stroke="#000000" stroke-width="1.00px"/>
</g>
<g id = "LFEADEXA" >
<line x1="75" y1="268" x2="79" y2="272" stroke="#000000" stroke-width="1px"/>
</g>
<g id = "ZKGUKZGU" >
<rect x = "74" y="277" width="6" height="6" rx="3" ry="3" stroke="#000000" stroke-width="1px"/>
<ellipse cx="77.00" cy="280.00" rx="3.00" ry="3.00" stroke="#000000" stroke-width="1.00px"/>
</g>
<g id = "KLXYKTLL" >
<line x1="75" y1="278" x2="79" y2="282" stroke="#000000" stroke-width="1px"/>
</g>
<g id = "LSYRXKLZ" >
<rect x = "74" y="287" width="6" height="6" rx="3" ry="3" stroke="#000000" stroke-width="1px"/>
<ellipse cx="77.00" cy="290.00" rx="3.00" ry="3.00" stroke="#000000" stroke-width="1.00px"/>
</g>
<g id = "SCFFSGWZ" >
<line x1="75" y1="288" x2="79" y2="292" stroke="#000000" stroke-width="1px"/>
</g>
<g id = "WMFAVZUC" >
<rect x = "74" y="297" width="6" height="6" rx="3" ry="3" stroke="#000000" stroke-width="1px"/>
<ellipse cx="77.00" cy="300.00" rx="3.00" ry="3.00" stroke="#000000" stroke-width="1.00px"/>
</g>
<g id = "CSAQIOVJ" >
<line x1="75" y1="298" x2="79" y2="302" stroke="#000000" stroke-width="1px"/>
</g>
<g id = "AWCFPMLE" >
<rect x = "74" y="307" width="6" height="6" rx="3" ry="3" stroke="#000000" stroke-width="1px"/>
<ellipse cx="77.00" cy="310.00" rx="3.00" ry="3.00" stroke="#000000" stroke-width="1.00px"/>
</g>
<g id = "RPZHRYAB" >
<line x1="75" y1="308" x2="79" y2="312" stroke="#000000" stroke-width="1px"/>
</g>
<g id = "RGVQJZXB" >
<rect x = "74" y="317" width="6" height="6" rx="3" ry="3" stroke="#000000" stroke-width="1px"/>
<ellipse cx="77.00" cy="320.00" rx="3.00" ry="3.00" stroke="#000000" stroke-width="1.00px"/>
</g>
<g id = "OLHPLQOV" >
<line x1="75" y1="318" x2="79" y2="322" stroke="#000000" stroke-width="1px"/>
</g>
<g id = "ZSUHPFIM" >
<rect x = "74" y="327" width="6" height="6" rx="3" ry="3" stroke="#000000" stroke-width="1px"/>
<ellipse cx="77.00" cy="330.00" rx="3.00" ry="3.00" stroke="#000000" stroke-width="1.00px"/>
</g>
<g id = "CVWOTTDH" >
<line x1="75" y1="328" x2="79" y2="332" stroke="#000000" stroke-width="1px"/>
</g>
<g id = "SVMFHPZD" >
<rect x = "74" y="337" width="6" height="6" rx="3" ry="3" stroke="#000000" stroke-width="1px"/>
<ellipse cx="77.00" cy="340.00" rx="3.00" ry="3.00" stroke="#000000" stroke-width="1.00px"/>
</g>
<g id = "NHDXWCKP" >
<line x1="75" y1="338" x2="79" y2="342" stroke="#000000" stroke-width="1px"/>
</g>
<g id = "ZVQUNMHK" >
<rect x = "74" y="347" width="6" height="6" rx="3" ry="3" stroke="#000000" stroke-width="1px"/>
<ellipse cx="77.00" cy="350.00" rx="3.00" ry="3.00" stroke="#000000" stroke-width="1.00px"/>
</g>
<g id = "PAPGBSXP" >
<line x1="75" y1="348" x2="79" y2="352" stroke="#000000" stroke-width="1px"/>
</g>
<g id = "LFHVKVKN" >
<rect x = "74" y="357" width="6" height="6" rx="3" ry="3" stroke="#000000" stroke-width="1px"/>
<ellipse cx="77.00" cy="360.00" rx="3.00" ry="3.00" stroke="#000000" stroke-width="1.00px"/>
</g>
<g id = "FSREPEWH" >
<line x1="75" y1="358" x2="79" y2="362" stroke="#000000" stroke-width="1px"/>
</g>
<g id = "NVCLGDXD" >
<rect x = "74" y="367" width="6" height="6" rx="3" ry="3" stroke="#000000" stroke-width="1px"/>
<ellipse cx="77.00" cy="370.00" rx="3.00" ry="3.00" stroke="#000000" stroke-width="1.00px"/>
</g>
<g id = "FAGVKHPN" >
<line x1="75" y1="368" x2="79" y2="372" stroke="#000000" stroke-width="1px"/>
</g>
<g id = "UVTFNJBR" >
<rect x = "74" y="377" width="6" height="6" rx="3" ry="3" stroke="#000000" stroke-width="1px"/>
<ellipse cx="77.00" cy="380.00" rx="3.00" ry="3.00" stroke="#000000" stroke-width="1.00px"/>
</g>
<g id = "RZYXLTJG" >
<line x1="75" y1="378" x2="79" y2="382" stroke="#000000" stroke-width="1px"/>
</g>
<g id = "YQVXURNU" >
<rect x = "74" y="387" width="6" height="6" rx="3" ry="3" stroke="#000000" stroke-width="1px"/>
<ellipse cx="77.00" cy="390.00" rx="3.00" ry="3.00" stroke="#000000" stroke-width="1.00px"/>
</g>
<g id = "EHPUGBBR" >
<line x1="75" y1="388" x2="79" y2="392" stroke="#000000" stroke-width="1px"/>
</g>
<g id = "LMTFGTHE" >
<rect x = "74" y="397" width="6" height="6" rx="3" ry="3" stroke="#000000" stroke-width="1px"/>
<ellipse cx="77.00" cy="400.00" rx="3.00" ry="3.00" stroke="#000000" stroke-width="1.00px"/>
</g>
<g id = "STSVTURO" >
<line x1="75" y1="398" x2="79" y2="402" stroke="#000000" stroke-width="1px"/>
</g>
<g id = "RCTWPDMC" >
<rect x = "74" y="407" width="6" height="6" rx="3" ry="3" stroke="#000000" stroke-width="1px"/>
<ellipse cx="77.00" cy="410.00" rx="3.00" ry="3.00" stroke="#000000" stroke-width="1.00px"/>
</g>
<g id = "XHOJQHDU" >
<line x1="75" y1="408" x2="79" y2="412" stroke="#000000" stroke-width="1px"/>
</g>
<g id = "YEXMNLIJ" >
<rect x = "74" y="417" width="6" height="6" rx="3" ry="3" stroke="#000000" stroke-width="1px"/>
<ellipse cx="77.00" cy="420.00" rx="3.00" ry="3.00" stroke="#000000" stroke-width="1.00px"/>
</g>
<g id = "PCGROCWX" >
<line x1="75" y1="418" x2="79" y2="422" stroke="#000000" stroke-width="1px"/>
</g>
<g id = "HBYVJCVA" >
<rect x = "74" y="427" width="6" height="6" rx="3" ry="3" stroke="#000000" stroke-width="1px"/>
<ellipse cx="77.00" cy="430.00" rx="3.00" ry="3.00" stroke="#000000" stroke-width="1.00px"/>
</g>
<g id = "MTQRNURY" >
<line x1="75" y1="428" x2="79" y2="432" stroke="#000000" stroke-width="1px"/>
</g>
<g id = "QSGCAERA" >
<rect x = "74" y="437" width="6" height="6" rx="3" ry="3" stroke="#000000" stroke-width="1px"/>
<ellipse cx="77.00" cy="440.00" rx="3.00" ry="3.00" stroke="#000000" stroke-width="1.00px"/>
</g>
<g id = "TZUYHZNA" >
<line x1="75" y1="438" x2="79" y2="442" stroke="#000000" stroke-width="1px"/>
</g>
<g id = "LZDDMTWY" >
<rect x = "74" y="447" width="6" height="6" rx="3" ry="3" stroke="#000000" stroke-width="1px"/>
<ellipse cx="77.00" cy="450.00" rx="3.00" ry="3.00" stroke="#000000" stroke-width="1.00px"/>
</g>
<g id = "JKCLKKTR" >
<line x1="75" y1="448" x2="79" y2="452" stroke="#000000" stroke-width="1px"/>
</g>
<g id = "APTDQKDQ" >
<rect x = "74" y="457" width="6" height="6" rx="3" ry="3" stroke="#000000" stroke-width="1px"/>
<ellipse cx="77.00" cy="460.00" rx="3.00" ry="3.00" stroke="#000000" stroke-width="1.00px"/>
</g>
<g id = "UEPYJNHZ" >
<line x1="75" y1="458" x2="79" y2="462" stroke="#000000" stroke-width="1px"/>
</g>
<g id = "OEGEADRO" >
<rect x = "74" y="467" width="6" height="6" rx="3" ry="3" stroke="#000000" stroke-width="1px"/>
<ellipse cx="77.00" cy="470.00" rx="3.00" ry="3.00" stroke="#000000" stroke-width="1.00px"/>
</g>
<g id = "NNMPDAPO" >
<line x1="75" y1="468" x2="79" y2="472" stroke="#000000" stroke-width="1px"/>
</g>
<g id = "JNNRKFCR" >
<rect x = "74" y="477" width="6" height="6" rx="3" ry="3" stroke="#000000" stroke-width="1px"/>
<ellipse cx="77.00" cy="480.00" rx="3.00" ry="3.00" stroke="#000000" stroke-width="1.00px"/>
</g>
<g id = "JLFMTFTH" >
<line x1="75" y1="478" x2="79" y2="482" stroke="#000000" stroke-width="1px"/>
</g>
<g id = "NXRBPWWB" >
<rect x = "74" y="487" width="6" height="6" rx="3" ry="3" stroke="#000000" stroke-width="1px"/>
<ellipse cx="77.00" cy="490.00" rx="3.00" ry="3.00" stroke="#000000" stroke-width="1.00px"/>
</g>
<g id = "GIPMTPWM" >
<line x1="75" y1="488" x2="79" y2="492" stroke="#000000" stroke-width="1px"/>
</g>
<g id = "ZPKNPFDZ" >
<rect x = "74" y="497" width="6" height="6" rx="3" ry="3" stroke="#000000" stroke-width="1px"/>
<ellipse cx="77.00" cy="500.00" rx="3.00" ry="3.00" stroke="#000000" stroke-width="1.00px"/>
</g>
<g id = "EWRBCRNV" >
<line x1="75" y1="498" x2="79" y2="502" stroke="#000000" stroke-width="1px"/>
</g>
<g id = "NNHBJSPR" >
<rect x = "74" y="507" width="6" height="6" rx="3" ry="3" stroke="#000000" stroke-width="1px"/>
<ellipse cx="77.00" cy="510.00" rx="3.00" ry="3.00" stroke="#000000" stroke-width="1.00px"/>
</g>
<g id = "FOAZOFMO" >
<line x1="75" y1="508" x2="79" y2="512" stroke="#000000" stroke-width="1px"/>
</g>
<g id = "ALXGTMDX" >
<rect x = "74" y="517" width="6" height="6" rx="3" ry="3" stroke="#000000" stroke-width="1px"/>
<ellipse cx="77.00" cy="520.00" rx="3.00" ry="3.00" stroke="#000000" stroke-width="1.00px"/>
</g>
<g id = "GBWBRZQO" >
<line x1="75" y1="518" x2="79" y2="522" stroke="#000000" stroke-width="1px"/>
</g>
<g id = "XMGFCLIZ" >
<rect x = "74" y="527" width="6" height="6" rx="3" ry="3" stroke="#000000" stroke-width="1px"/>
<ellipse cx="77.00" cy="530.00" rx="3.00" ry="3.00" stroke="#000000" stroke-width="1.00px"/>
</g>
<g id = "OWPZEDGF" >
<line x1="75" y1="528" x2="79" y2="532" stroke="#000000" stroke-width="1px"/>
</g>
<g id = "QSSQTZCM" >
<rect x = "74" y="537" width="6" height="6" rx="3" ry="3" stroke="#000000" stroke-width="1px"/>
<ellipse cx="77.00" cy="540.00" rx="3.00" ry="3.00" stroke="#000000" stroke-width="1.00px"/>
</g>
<g id = "HRUPXGTP" >
<line x1="75" y1="538" x2="79" y2="542" stroke="#000000" stroke-width="1px"/>
</g>
<g id = "WLPAGLIS" >
<rect x = "74" y="547" width="6" height="6" rx="3" ry="3" stroke="#000000" stroke-width="1px"/>
<ellipse cx="77.00" cy="550.00" rx="3.00" ry="3.00" stroke="#000000" stroke-width="1.00px"/>
</g>
<g id = "OIZIKIRW" >
<line x1="75" y1="548" x2="79" y2="552" stroke="#000000" stroke-width="1px"/>
</g>
<g id = "WODFAUVW" >
<rect x = "74" y="557" width="6" height="6" rx="3" ry="3" stroke="#000000" stroke-width="1px"/>
<ellipse cx="77.00" cy="560.00" rx="3.00" ry="3.00" stroke="#000000" stroke-width="1.00px"/>
</g>
<g id = "MZKCENEU" >
<line x1="75" y1="558" x2="79" y2="562" stroke="#000000" stroke-width="1px"/>
</g>
<g id = "RSGSGUQG" >
<rect x = "74" y="567" width="6" height="6" rx="3" ry="3" stroke="#000000" stroke-width="1px"/>
<ellipse cx="77.00" cy="570.00" rx="3.00" ry="3.00" stroke="#000000" stroke-width="1.00px"/>
</g>
<g id = "TATDTBBQ" >
<line x1="75" y1="568" x2="79" y2="572" stroke="#000000" stroke-width="1px"/>
</g>
<g id = "IDTTESBN" >
<rect x = "74" y="577" width="6" height="6" rx="3" ry="3" stroke="#000000" stroke-width="1px"/>
<ellipse cx="77.00" cy="580.00" rx="3.00" ry="3.00" stroke="#000000" stroke-width="1.00px"/>
</g>
<g id = "GSUQCGCN" >
<line x1="75" y1="578" x2="79" y2="582" stroke="#000000" stroke-width="1px"/>
</g>
<g id = "UTEWLEFG" >
<rect x = "74" y="587" width="6" height="6" rx="3" ry="3" stroke="#000000" stroke-width="1px"/>
<ellipse cx="77.00" cy="590.00" rx="3.00" ry="3.00" stroke="#000000" stroke-width="1.00px"/>
</g>
<g id = "QRQTJGMI" >
<line x1="75" y1="588" x2="79" y2="592" stroke="#000000" stroke-width="1px"/>
</g>
<g id = "PPBWFTCV" >
<rect x = "74" y="597" width="6" height="6" rx="3" ry="3" stroke="#000000" stroke-width="1px"/>
<ellipse cx="77.00" cy="600.00" rx="3.00" ry="3.00" stroke="#000000" stroke-width="1.00px"/>
</g>
<g id = "ANFURMWD" >
<line x1="75" y1="598" x2="79" y2="602" stroke="#000000" stroke-width="1px"/>
</g>
<g id = "KLBERCVR" >
<rect x = "74" y="607" width="6" height="6" rx="3" ry="3" stroke="#000000" stroke-width="1px"/>
<ellipse cx="77.00" cy="610.00" rx="3.00" ry="3.00" stroke="#000000" stroke-width="1.00px"/>
</g>
<g id = "AWUIAOAB" >
<line x1="75" y1="608" x2="79" y2="612" stroke="#000000" stroke-width="1px"/>
</g>
<g id = "CWLHHOPW" >
<rect x = "74" y="617" width="6" height="6" rx="3" ry="3" stroke="#000000" stroke-width="1px"/>
<ellipse cx="77.00" cy="620.00" rx="3.00" ry="3.00" stroke="#000000" stroke-width="1.00px"/>
</g>
<g id = "RCQZIIWU" >
<line x1="75" y1="618" x2="79" y2="622" stroke="#000000" stroke-width="1px"/>
</g>
<g id = "PPWCAUKZ" >
<rect x = "74" y="627" width="6" height="6" rx="3" ry="3" stroke="#000000" stroke-width="1px"/>
<ellipse cx="77.00" cy="630.00" rx="3.00" ry="3.00" stroke="#000000" stroke-width="1.00px"/>
</g>
<g id = "ZQRZJOAQ" >
<line x1="75" y1="628" x2="79" y2="632" stroke="#000000" stroke-width="1px"/>
</g>
<g id = "YAXYYXNV" >
<rect x = "74" y="637" width="6" height="6" rx="3" ry="3" stroke="#000000" stroke-width="1px"/>
<ellipse cx="77.00" cy="640.00" rx="3.00" ry="3.00" stroke="#000000" stroke-width="1.00px"/>
</g>
<g id = "HLKTDIZR" >
<line x1="75" y1="638" x2="79" y2="642" stroke="#000000" stroke-width="1px"/>
</g>
<g id = "QTCDZSFV" >
<rect x = "74" y="647" width="6" height="6" rx="3" ry="3" stroke="#000000" stroke-width="1px"/>
<ellipse cx="77.00" cy="650.00" rx="3.00" ry="3.00" stroke="#000000" stroke-width="1.00px"/>
</g>
<g id = "YNRXRGNR" >
<line x1="75" y1="648" x2="79" y2="652" stroke="#000000" stroke-width="1px"/>
</g>
<g id = "AOSTZDZR" >
<rect x = "74" y="657" width="6" height="6" rx="3" ry="3" stroke="#000000" stroke-width="1px"/>
<ellipse cx="77.00" cy="660.00" rx="3.00" ry="3.00" stroke="#000000" stroke-width="1.00px"/>
</g>
<g id = "OQSKEBEF" >
<line x1="75" y1="658" x2="79" y2="662" stroke="#000000" stroke-width="1px"/>
</g>
<g id = "WJXTEZJF" >
<rect x = "74" y="667" width="6" height="6" rx="3" ry="3" stroke="#000000" stroke-width="1px"/>
<ellipse cx="77.00" cy="670.00" rx="3.00" ry="3.00" stroke="#000000" stroke-width="1.00px"/>
</g>
<g id = "GHUVGRMD" >
<line x1="75" y1="668" x2="79" y2="672" stroke="#000000" stroke-width="1px"/>
</g>
<g id = "TXVEWBYJ" >
<rect x = "74" y="677" width="6" height="6" rx="3" ry="3" stroke="#000000" stroke-width="1px"/>
<ellipse cx="77.00" cy="680.00" rx="3.00" ry="3.00" stroke="#000000" stroke-width="1.00px"/>
</g>
<g id = "XQXTMKHW" >
<line x1="75" y1="678" x2="79" y2="682" stroke="#000000" stroke-width="1px"/>
</g>
<g id = "VBBUBOYP" >
<rect x = "74" y="687" width="6" height="6" rx="3" ry="3" stroke="#000000" stroke-width="1px"/>
<ellipse cx="77.00" cy="690.00" rx="3.00" ry="3.00" stroke="#000000" stroke-width="1.00px"/>
</g>
<g id = "OIKJOQDL" >
<line x1="75" y1="688" x2="79" y2="692" stroke="#000000" stroke-width="1px"/>
</g>
<g id = "GQKHTSRY" >
<rect x = "74" y="697" width="6" height="6" rx="3" ry="3" stroke="#000000" stroke-width="1px"/>
<ellipse cx="77.00" cy="700.00" rx="3.00" ry="3.00" stroke="#000000" stroke-width="1.00px"/>
</g>
<g id = "WGSOYMBI" >
<line x1="75" y1="698" x2="79" y2="702" stroke="#000000" stroke-width="1px"/>
</g>
<g id = "SURHLNHC" >
<rect x = "74" y="707" width="6" height="6" rx="3" ry="3" stroke="#000000" stroke-width="1px"/>
<ellipse cx="77.00" cy="710.00" rx="3.00" ry="3.00" stroke="#000000" stroke-width="1.00px"/>
</g>
<g id = "FURTEIYI" >
<line x1="75" y1="708" x2="79" y2="712" stroke="#000000" stroke-width="1px"/>
</g>
<g id = "NFJTJHOZ" >
<rect x = "74" y="717" width="6" height="6" rx="3" ry="3" stroke="#000000" stroke-width="1px"/>
<ellipse cx="77.00" cy="720.00" rx="3.00" ry="3.00" stroke="#000000" stroke-width="1.00px"/>
</g>
<g id = "YUYBNUWY" >
<line x1="75" y1="718" x2="79" y2="722" stroke="#000000" stroke-width="1px"/>
</g>
<g id = "KFKZTAFI" >
<rect x = "74" y="727" width="6" height="6" rx="3" ry="3" stroke="#000000" stroke-width="1px"/>
<ellipse cx="77.00" cy="730.00" rx="3.00" ry="3.00" stroke="#000000" stroke-width="1.00px"/>
</g>
<g id = "NZYWULPJ" >
<line x1="75" y1="728" x2="79" y2="732" stroke="#000000" stroke-width="1px"/>
</g>
<g id = "XTJOVNPS" >
<rect x = "74" y="737" width="6" height="6" rx="3" ry="3" stroke="#000000" stroke-width="1px"/>
<ellipse cx="77.00" cy="740.00" rx="3.00" ry="3.00" stroke="#000000" stroke-width="1.00px"/>
</g>
<g id = "UXTDGHLM" >
<line x1="75" y1="738" x2="79" y2="742" stroke="#000000" stroke-width="1px"/>
</g>
<g id = "XMTDONFM" >
<rect x = "74" y="747" width="6" height="6" rx="3" ry="3" stroke="#000000" stroke-width="1px"/>
<ellipse cx="77.00" cy="750.00" rx="3.00" ry="3.00" stroke="#000000" stroke-width="1.00px"/>
</g>
<g id = "DSOAJVEA" >
<line x1="75" y1="748" x2="79" y2="752" stroke="#000000" stroke-width="1px"/>
</g>
<g id = "BAHBQODH" >
<rect x = "74" y="757" width="6" height="6" rx="3" ry="3" stroke="#000000" stroke-width="1px"/>
<ellipse cx="77.00" cy="760.00" rx="3.00" ry="3.00" stroke="#000000" stroke-width="1.00px"/>
</g>
<g id = "KPKAXLMV" >
<line x1="75" y1="758" x2="79" y2="762" stroke="#000000" stroke-width="1px"/>
</g>
<g id = "QSGWPQRE" >
<rect x = "74" y="767" width="6" height="6" rx="3" ry="3" stroke="#000000" stroke-width="1px"/>
<ellipse cx="77.00" cy="770.00" rx="3.00" ry="3.00" stroke="#000000" stroke-width="1.00px"/>
</g>
<g id = "FYSQKZOI" >
<line x1="75" y1="768" x2="79" y2="772" stroke="#000000" stroke-width="1px"/>
</g>
<g id = "WMZPQUPA" >
<rect x = "74" y="777" width="6" height="6" rx="3" ry="3" stroke="#000000" stroke-width="1px"/>
<ellipse cx="77.00" cy="780.00" rx="3.00" ry="3.00" stroke="#000000" stroke-width="1.00px"/>
</g>
<g id = "DTPGUKAT" >
<line x1="75" y1="778" x2="79" y2="782" stroke="#000000" stroke-width="1px"/>
</g>
<g id = "CFKQOMNO" >
<rect x = "74" y="787" width="6" height="6" rx="3" ry="3" stroke="#000000" stroke-width="1px"/>
<ellipse cx="77.00" cy="790.00" rx="3.00" ry="3.00" stroke="#000000" stroke-width="1.00px"/>
</g>
<g id = "VHDYTVYF" >
<line x1="75" y1="788" x2="79" y2="792" stroke="#000000" stroke-width="1px"/>
</g>
<g id = "TLLUIAOH" >
<rect x = "74" y="797" width="6" height="6" rx="3" ry="3" stroke="#000000" stroke-width="1px"/>
<ellipse cx="77.00" cy="800.00" rx="3.00" ry="3.00" stroke="#000000" stroke-width="1.00px"/>
</g>
<g id = "UWJZZVCN" >
<line x1="75" y1="798" x2="79" y2="802" stroke="#000000" stroke-width="1px"/>
</g>
<g id = "QTFWYHBY" >
<rect x = "74" y="807" width="6" height="6" rx="3" ry="3" stroke="#000000" stroke-width="1px"/>
<ellipse cx="77.00" cy="810.00" rx="3.00" ry="3.00" stroke="#000000" stroke-width="1.00px"/>
</g>
<g id = "CCGURNOO" >
<line x1="75" y1="808" x2="79" y2="812" stroke="#000000" stroke-width="1px"/>
</g>
<g id = "XOKFXBIF" >
<rect x = "74" y="817" width="6" height="6" rx="3" ry="3" stroke="#000000" stroke-width="1px"/>
<ellipse cx="77.00" cy="820.00" rx="3.00" ry="3.00" stroke="#000000" stroke-width="1.00px"/>
</g>
<g id = "UCKWFEKT" >
<line x1="75" y1="818" x2="79" y2="822" stroke="#000000" stroke-width="1px"/>
</g>
<g id = "RMSRGKMJ" >
<rect x = "74" y="827" width="6" height="6" rx="3" ry="3" stroke="#000000" stroke-width="1px"/>
<ellipse cx="77.00" cy="830.00" rx="3.00" ry="3.00" stroke="#000000" stroke-width="1.00px"/>
</g>
<g id = "UTMIBPBH" >
<line x1="75" y1="828" x2="79" y2="832" stroke="#000000" stroke-width="1px"/>
</g>
<g id = "EVYHELBN" >
<rect x = "74" y="837" width="6" height="6" rx="3" ry="3" stroke="#000000" stroke-width="1px"/>
<ellipse cx="77.00" cy="840.00" rx="3.00" ry="3.00" stroke="#000000" stroke-width="1.00px"/>
</g>
<g id = "SJLPCICY" >
<line x1="75" y1="838" x2="79" y2="842" stroke="#000000" stroke-width="1px"/>
</g>
<g id = "RIDMAVZO" >
<line x1="70" y1="60" x2="50" y2="60" stroke="#000000" stroke-width="1px"/>
<text x="77" y="63" font-size="8.888889px" font-family="Times New Roman" fill="#000000" xml:space="preserve">1</text>
</g>
<g id = "PMRVPHJZ" >
<line x1="70" y1="70" x2="50" y2="70" stroke="#000000" stroke-width="1px"/>
<text x="77" y="73" font-size="8.888889px" font-family="Times New Roman" fill="#000000" xml:space="preserve">2</text>
</g>
<g id = "PGUERKKS" >
<line x1="70" y1="80" x2="50" y2="80" stroke="#000000" stroke-width="1px"/>
<text x="77" y="83" font-size="8.888889px" font-family="Times New Roman" fill="#000000" xml:space="preserve">3</text>
</g>
<g id = "YQBDZVBY" >
<line x1="70" y1="90" x2="50" y2="90" stroke="#000000" stroke-width="1px"/>
<text x="77" y="93" font-size="8.888889px" font-family="Times New Roman" fill="#000000" xml:space="preserve">4</text>
</g>
<g id = "CSIHCYTV" >
<line x1="70" y1="100" x2="50" y2="100" stroke="#000000" stroke-width="1px"/>
<text x="77" y="103" font-size="8.888889px" font-family="Times New Roman" fill="#000000" xml:space="preserve">5</text>
</g>
<g id = "WMWIZEXS" >
<line x1="70" y1="110" x2="50" y2="110" stroke="#000000" stroke-width="1px"/>
<text x="77" y="113" font-size="8.888889px" font-family="Times New Roman" fill="#000000" xml:space="preserve">6</text>
</g>
<g id = "GTNZTUNW" >
<line x1="70" y1="120" x2="50" y2="120" stroke="#000000" stroke-width="1px"/>
<text x="77" y="123" font-size="8.888889px" font-family="Times New Roman" fill="#000000" xml:space="preserve">7</text>
</g>
<g id = "SVOGTWSQ" >
<line x1="70" y1="130" x2="50" y2="130" stroke="#000000" stroke-width="1px"/>
<text x="77" y="133" font-size="8.888889px" font-family="Times New Roman" fill="#000000" xml:space="preserve">8</text>
</g>
<g id = "HZYSNNIE" >
<line x1="70" y1="140" x2="50" y2="140" stroke="#000000" stroke-width="1px"/>
<text x="77" y="143" font-size="8.888889px" font-family="Times New Roman" fill="#000000" xml:space="preserve">9</text>
</g>
<g id = "CXLZUVLR" >
<line x1="70" y1="150" x2="50" y2="150" stroke="#000000" stroke-width="1px"/>
<text x="77" y="153" font-size="8.888889px" font-family="Times New Roman" fill="#000000" xml:space="preserve">10</text>
</g>
<g id = "HXNAKIRC" >
<line x1="70" y1="160" x2="50" y2="160" stroke="#000000" stroke-width="1px"/>
<text x="77" y="163" font-size="8.888889px" font-family="Times New Roman" fill="#000000" xml:space="preserve">11</text>
</g>
<g id = "NPMXZBWQ" >
<line x1="70" y1="170" x2="50" y2="170" stroke="#000000" stroke-width="1px"/>
<text x="77" y="173" font-size="8.888889px" font-family="Times New Roman" fill="#000000" xml:space="preserve">12</text>
</g>
<g id = "HKIHNCPJ" >
<line x1="70" y1="180" x2="50" y2="180" stroke="#000000" stroke-width="1px"/>
<text x="77" y="183" font-size="8.888889px" font-family="Times New Roman" fill="#000000" xml:space="preserve">13</text>
</g>
<g id = "QVSMQMQA" >
<line x1="70" y1="190" x2="50" y2="190" stroke="#000000" stroke-width="1px"/>
<text x="77" y="193" font-size="8.888889px" font-family="Times New Roman" fill="#000000" xml:space="preserve">14</text>
</g>
<g id = "KLFTQBEM" >
<line x1="70" y1="200" x2="50" y2="200" stroke="#000000" stroke-width="1px"/>
<text x="77" y="203" font-size="8.888889px" font-family="Times New Roman" fill="#000000" xml:space="preserve">15</text>
</g>
<g id = "HREOJBDO" >
<line x1="70" y1="210" x2="50" y2="210" stroke="#000000" stroke-width="1px"/>
<text x="77" y="213" font-size="8.888889px" font-family="Times New Roman" fill="#000000" xml:space="preserve">16</text>
</g>
<g id = "NNKHVLRU" >
<line x1="70" y1="220" x2="50" y2="220" stroke="#000000" stroke-width="1px"/>
<text x="77" y="223" font-size="8.888889px" font-family="Times New Roman" fill="#000000" xml:space="preserve">17</text>
</g>
<g id = "ZXOJYKAI" >
<line x1="70" y1="230" x2="50" y2="230" stroke="#000000" stroke-width="1px"/>
<text x="77" y="233" font-size="8.888889px" font-family="Times New Roman" fill="#000000" xml:space="preserve">18</text>
</g>
<g id = "GOYFQIWK" >
<line x1="70" y1="240" x2="50" y2="240" stroke="#000000" stroke-width="1px"/>
<text x="77" y="243" font-size="8.888889px" font-family="Times New Roman" fill="#000000" xml:space="preserve">19</text>
</g>
<g id = "HJGRVUBH" >
<line x1="70" y1="250" x2="50" y2="250" stroke="#000000" stroke-width="1px"/>
<text x="77" y="253" font-size="8.888889px" font-family="Times New Roman" fill="#000000" xml:space="preserve">20</text>
</g>
<g id = "XOWJFAIR" >
<line x1="70" y1="260" x2="50" y2="260" stroke="#000000" stroke-width="1px"/>
<text x="77" y="263" font-size="8.888889px" font-family="Times New Roman" fill="#000000" xml:space="preserve">21</text>
</g>
<g id = "XEVPVQSE" >
<line x1="70" y1="270" x2="50" y2="270" stroke="#000000" stroke-width="1px"/>
<text x="77" y="273" font-size="8.888889px" font-family="Times New Roman" fill="#000000" xml:space="preserve">22</text>
</g>
<g id = "LVYJCBPM" >
<line x1="70" y1="280" x2="50" y2="280" stroke="#000000" stroke-width="1px"/>
<text x="77" y="283" font-size="8.888889px" font-family="Times New Roman" fill="#000000" xml:space="preserve">23</text>
</g>
<g id = "NMBAVZKU" >
<line x1="70" y1="290" x2="50" y2="290" stroke="#000000" stroke-width="1px"/>
<text x="77" y="293" font-size="8.888889px" font-family="Times New Roman" fill="#000000" xml:space="preserve">24</text>
</g>
<g id = "RQMBKTOQ" >
<line x1="70" y1="300" x2="50" y2="300" stroke="#000000" stroke-width="1px"/>
<text x="77" y="303" font-size="8.888889px" font-family="Times New Roman" fill="#000000" xml:space="preserve">25</text>
</g>
<g id = "CECEUEZR" >
<line x1="70" y1="310" x2="50" y2="310" stroke="#000000" stroke-width="1px"/>
<text x="77" y="313" font-size="8.888889px" font-family="Times New Roman" fill="#000000" xml:space="preserve">26</text>
</g>
<g id = "YNFXRLRP" >
<line x1="70" y1="320" x2="50" y2="320" stroke="#000000" stroke-width="1px"/>
<text x="77" y="323" font-size="8.888889px" font-family="Times New Roman" fill="#000000" xml:space="preserve">27</text>
</g>
<g id = "IWEZOKZK" >
<line x1="70" y1="330" x2="50" y2="330" stroke="#000000" stroke-width="1px"/>
<text x="77" y="333" font-size="8.888889px" font-family="Times New Roman" fill="#000000" xml:space="preserve">28</text>
</g>
<g id = "TTXMGCDS" >
<line x1="70" y1="340" x2="50" y2="340" stroke="#000000" stroke-width="1px"/>
<text x="77" y="343" font-size="8.888889px" font-family="Times New Roman" fill="#000000" xml:space="preserve">29</text>
</g>
<g id = "BEMGDHNB" >
<line x1="70" y1="350" x2="50" y2="350" stroke="#000000" stroke-width="1px"/>
<text x="77" y="353" font-size="8.888889px" font-family="Times New Roman" fill="#000000" xml:space="preserve">30</text>
</g>
<g id = "YITTITKW" >
<line x1="70" y1="360" x2="50" y2="360" stroke="#000000" stroke-width="1px"/>
<text x="77" y="363" font-size="8.888889px" font-family="Times New Roman" fill="#000000" xml:space="preserve">31</text>
</g>
<g id = "UQFYEKLD" >
<line x1="70" y1="370" x2="50" y2="370" stroke="#000000" stroke-width="1px"/>
<text x="77" y="373" font-size="8.888889px" font-family="Times New Roman" fill="#000000" xml:space="preserve">32</text>
</g>
<g id = "QKPQUNXS" >
<line x1="70" y1="380" x2="50" y2="380" stroke="#000000" stroke-width="1px"/>
<text x="77" y="383" font-size="8.888889px" font-family="Times New Roman" fill="#000000" xml:space="preserve">33</text>
</g>
<g id = "TKLOMPVY" >
<line x1="70" y1="390" x2="50" y2="390" stroke="#000000" stroke-width="1px"/>
<text x="77" y="393" font-size="8.888889px" font-family="Times New Roman" fill="#000000" xml:space="preserve">34</text>
</g>
<g id = "ISVTFREL" >
<line x1="70" y1="400" x2="50" y2="400" stroke="#000000" stroke-width="1px"/>
<text x="77" y="403" font-size="8.888889px" font-family="Times New Roman" fill="#000000" xml:space="preserve">35</text>
</g>
<g id = "XXQMYBHD" >
<line x1="70" y1="410" x2="50" y2="410" stroke="#000000" stroke-width="1px"/>
<text x="77" y="413" font-size="8.888889px" font-family="Times New Roman" fill="#000000" xml:space="preserve">36</text>
</g>
<g id = "WTFLFXVV" >
<line x1="70" y1="420" x2="50" y2="420" stroke="#000000" stroke-width="1px"/>
<text x="77" y="423" font-size="8.888889px" font-family="Times New Roman" fill="#000000" xml:space="preserve">37</text>
</g>
<g id = "BPRINAZM" >
<line x1="70" y1="430" x2="50" y2="430" stroke="#000000" stroke-width="1px"/>
<text x="77" y="433" font-size="8.888889px" font-family="Times New Roman" fill="#000000" xml:space="preserve">38</text>
</g>
<g id = "ANTQWEGH" >
<line x1="70" y1="440" x2="50" y2="440" stroke="#000000" stroke-width="1px"/>
<text x="77" y="443" font-size="8.888889px" font-family="Times New Roman" fill="#000000" xml:space="preserve">39</text>
</g>
<g id = "CGIRAAPF" >
<line x1="70" y1="450" x2="50" y2="450" stroke="#000000" stroke-width="1px"/>
<text x="77" y="453" font-size="8.888889px" font-family="Times New Roman" fill="#000000" xml:space="preserve">40</text>
</g>
<g id = "TRSOBHVY" >
<line x1="70" y1="460" x2="50" y2="460" stroke="#000000" stroke-width="1px"/>
<text x="77" y="463" font-size="8.888889px" font-family="Times New Roman" fill="#000000" xml:space="preserve">41</text>
</g>
<g id = "DPQWCSLD" >
<line x1="70" y1="470" x2="50" y2="470" stroke="#000000" stroke-width="1px"/>
<text x="77" y="473" font-size="8.888889px" font-family="Times New Roman" fill="#000000" xml:space="preserve">42</text>
</g>
<g id = "YGRNUBHJ" >
<line x1="70" y1="480" x2="50" y2="480" stroke="#000000" stroke-width="1px"/>
<text x="77" y="483" font-size="8.888889px" font-family="Times New Roman" fill="#000000" xml:space="preserve">43</text>
</g>
<g id = "XUGIPDHU" >
<line x1="70" y1="490" x2="50" y2="490" stroke="#000000" stroke-width="1px"/>
<text x="77" y="493" font-size="8.888889px" font-family="Times New Roman" fill="#000000" xml:space="preserve">44</text>
</g>
<g id = "SAJYMTDH" >
<line x1="70" y1="500" x2="50" y2="500" stroke="#000000" stroke-width="1px"/>
<text x="77" y="503" font-size="8.888889px" font-family="Times New Roman" fill="#000000" xml:space="preserve">45</text>
</g>
<g id = "TPCQOZWF" >
<line x1="70" y1="510" x2="50" y2="510" stroke="#000000" stroke-width="1px"/>
<text x="77" y="513" font-size="8.888889px" font-family="Times New Roman" fill="#000000" xml:space="preserve">46</text>
</g>
<g id = "AMQBQXCH" >
<line x1="70" y1="520" x2="50" y2="520" stroke="#000000" stroke-width="1px"/>
<text x="77" y="523" font-size="8.888889px" font-family="Times New Roman" fill="#000000" xml:space="preserve">47</text>
</g>
<g id = "TTUGHZIM" >
<line x1="70" y1="530" x2="50" y2="530" stroke="#000000" stroke-width="1px"/>
<text x="77" y="533" font-size="8.888889px" font-family="Times New Roman" fill="#000000" xml:space="preserve">48</text>
</g>
<g id = "ZYCYLCMK" >
<line x1="70" y1="540" x2="50" y2="540" stroke="#000000" stroke-width="1px"/>
<text x="77" y="543" font-size="8.888889px" font-family="Times New Roman" fill="#000000" xml:space="preserve">49</text>
</g>
<g id = "ZAFUDLYX" >
<line x1="70" y1="550" x2="50" y2="550" stroke="#000000" stroke-width="1px"/>
<text x="77" y="553" font-size="8.888889px" font-family="Times New Roman" fill="#000000" xml:space="preserve">50</text>
</g>
<g id = "NTTCHNZO" >
<line x1="70" y1="560" x2="50" y2="560" stroke="#000000" stroke-width="1px"/>
<text x="77" y="563" font-size="8.888889px" font-family="Times New Roman" fill="#000000" xml:space="preserve">51</text>
</g>
<g id = "LDLWSRVO" >
<line x1="70" y1="570" x2="50" y2="570" stroke="#000000" stroke-width="1px"/>
<text x="77" y="573" font-size="8.888889px" font-family="Times New Roman" fill="#000000" xml:space="preserve">52</text>
</g>
<g id = "QUYNCGIP" >
<line x1="70" y1="580" x2="50" y2="580" stroke="#000000" stroke-width="1px"/>
<text x="77" y="583" font-size="8.888889px" font-family="Times New Roman" fill="#000000" xml:space="preserve">53</text>
</g>
<g id = "VUJKHXJS" >
<line x1="70" y1="590" x2="50" y2="590" stroke="#000000" stroke-width="1px"/>
<text x="77" y="593" font-size="8.888889px" font-family="Times New Roman" fill="#000000" xml:space="preserve">54</text>
</g>
<g id = "LOCKXDBQ" >
<line x1="70" y1="600" x2="50" y2="600" stroke="#000000" stroke-width="1px"/>
<text x="77" y="603" font-size="8.888889px" font-family="Times New Roman" fill="#000000" xml:space="preserve">55</text>
</g>
<g id = "ASBDZQMT" >
<line x1="70" y1="610" x2="50" y2="610" stroke="#000000" stroke-width="1px"/>
<text x="77" y="613" font-size="8.888889px" font-family="Times New Roman" fill="#000000" xml:space="preserve">56</text>
</g>
<g id = "OWNZSJQT" >
<line x1="70" y1="620" x2="50" y2="620" stroke="#000000" stroke-width="1px"/>
<text x="77" y="623" font-size="8.888889px" font-family="Times New Roman" fill="#000000" xml:space="preserve">57</text>
</g>
<g id = "ZGSAINVT" >
<line x1="70" y1="630" x2="50" y2="630" stroke="#000000" stroke-width="1px"/>
<text x="77" y="633" font-size="8.888889px" font-family="Times New Roman" fill="#000000" xml:space="preserve">58</text>
</g>
<g id = "MHIUNEOP" >
<line x1="70" y1="640" x2="50" y2="640" stroke="#000000" stroke-width="1px"/>
<text x="77" y="643" font-size="8.888889px" font-family="Times New Roman" fill="#000000" xml:space="preserve">59</text>
</g>
<g id = "LFZDLJXD" >
<line x1="70" y1="650" x2="50" y2="650" stroke="#000000" stroke-width="1px"/>
<text x="77" y="653" font-size="8.888889px" font-family="Times New Roman" fill="#000000" xml:space="preserve">60</text>
</g>
<g id = "HOPUKVJB" >
<line x1="70" y1="660" x2="50" y2="660" stroke="#000000" stroke-width="1px"/>
<text x="77" y="663" font-size="8.888889px" font-family="Times New Roman" fill="#000000" xml:space="preserve">61</text>
</g>
<g id = "EQDREQXZ" >
<line x1="70" y1="670" x2="50" y2="670" stroke="#000000" stroke-width="1px"/>
<text x="77" y="673" font-size="8.888889px" font-family="Times New Roman" fill="#000000" xml:space="preserve">62</text>
</g>
<g id = "OAYHOAQP" >
<line x1="70" y1="680" x2="50" y2="680" stroke="#000000" stroke-width="1px"/>
<text x="77" y="683" font-size="8.888889px" font-family="Times New Roman" fill="#000000" xml:space="preserve">63</text>
</g>
<g id = "MZVIFISD" >
<line x1="70" y1="690" x2="50" y2="690" stroke="#000000" stroke-width="1px"/>
<text x="77" y="693" font-size="8.888889px" font-family="Times New Roman" fill="#000000" xml:space="preserve">64</text>
</g>
<g id = "WJWUXLUF" >
<line x1="70" y1="700" x2="50" y2="700" stroke="#000000" stroke-width="1px"/>
<text x="77" y="703" font-size="8.888889px" font-family="Times New Roman" fill="#000000" xml:space="preserve">65</text>
</g>
<g id = "OHDYKBRD" >
<line x1="70" y1="710" x2="50" y2="710" stroke="#000000" stroke-width="1px"/>
<text x="77" y="713" font-size="8.888889px" font-family="Times New Roman" fill="#000000" xml:space="preserve">66</text>
</g>
<g id = "DBJNFITT" >
<line x1="70" y1="720" x2="50" y2="720" stroke="#000000" stroke-width="1px"/>
<text x="77" y="723" font-size="8.888889px" font-family="Times New Roman" fill="#000000" xml:space="preserve">67</text>
</g>
<g id = "HGWIGQTW" >
<line x1="70" y1="730" x2="50" y2="730" stroke="#000000" stroke-width="1px"/>
<text x="77" y="733" font-size="8.888889px" font-family="Times New Roman" fill="#000000" xml:space="preserve">68</text>
</g>
<g id = "UQZOEIJT" >
<line x1="70" y1="740" x2="50" y2="740" stroke="#000000" stroke-width="1px"/>
<text x="77" y="743" font-size="8.888889px" font-family="Times New Roman" fill="#000000" xml:space="preserve">69</text>
</g>
<g id = "JBBKPSUD" >
<line x1="70" y1="750" x2="50" y2="750" stroke="#000000" stroke-width="1px"/>
<text x="77" y="753" font-size="8.888889px" font-family="Times New Roman" fill="#000000" xml:space="preserve">70</text>
</g>
<g id = "VQPVPPQY" >
<line x1="70" y1="760" x2="50" y2="760" stroke="#000000" stroke-width="1px"/>
<text x="77" y="763" font-size="8.888889px" font-family="Times New Roman" fill="#000000" xml:space="preserve">71</text>
</g>
<g id = "ECVIVNCG" >
<line x1="70" y1="770" x2="50" y2="770" stroke="#000000" stroke-width="1px"/>
<text x="77" y="773" font-size="8.888889px" font-family="Times New Roman" fill="#000000" xml:space="preserve">72</text>
</g>
<g id = "ASATEURA" >
<line x1="70" y1="780" x2="50" y2="780" stroke="#000000" stroke-width="1px"/>
<text x="77" y="783" font-size="8.888889px" font-family="Times New Roman" fill="#000000" xml:space="preserve">73</text>
</g>
<g id = "QUREOWTZ" >
<line x1="70" y1="790" x2="50" y2="790" stroke="#000000" stroke-width="1px"/>
<text x="77" y="793" font-size="8.888889px" font-family="Times New Roman" fill="#000000" xml:space="preserve">74</text>
</g>
<g id = "EZGMGCVF" >
<line x1="70" y1="800" x2="50" y2="800" stroke="#000000" stroke-width="1px"/>
<text x="77" y="803" font-size="8.888889px" font-family="Times New Roman" fill="#000000" xml:space="preserve">75</text>
</g>
<g id = "LSEPKOPM" >
<line x1="70" y1="810" x2="50" y2="810" stroke="#000000" stroke-width="1px"/>
<text x="77" y="813" font-size="8.888889px" font-family="Times New Roman" fill="#000000" xml:space="preserve">76</text>
</g>
<g id = "YBPRITLW" >
<line x1="70" y1="820" x2="50" y2="820" stroke="#000000" stroke-width="1px"/>
<text x="77" y="823" font-size="8.888889px" font-family="Times New Roman" fill="#000000" xml:space="preserve">77</text>
</g>
<g id = "PGHXLWOU" >
<line x1="70" y1="830" x2="50" y2="830" stroke="#000000" stroke-width="1px"/>
<text x="77" y="833" font-size="8.888889px" font-family="Times New Roman" fill="#000000" xml:space="preserve">78</text>
</g>
<g id = "LHGFBCAL" >
<line x1="70" y1="840" x2="50" y2="840" stroke="#000000" stroke-width="1px"/>
<text x="77" y="843" font-size="8.888889px" font-family="Times New Roman" fill="#000000" xml:space="preserve">79</text>
</g>
</g>
</g>
</g>
</g>
</svg>