<?xml version="1.0"  encoding="UTF-8" standalone="no"?>
<svg version="1.1" xmlns="http://www.w3.org/2000/svg" xmlns:xlink="http://www.w3.org/1999/xlink" stroke-linecap="round" stroke-linejoin="round" fill="none" width="160" height="320" viewBox="0 0 160 320" data-doc-id="symbol-Terminal Block 21" data-doc-ver="2">
<g id = "scene" >
<g id = "DocumentMainGroup" >
<g id = "BackgroundGroup" >
<rect x = "0" y="0" width="160" height="320" fill="#FFFFFF" fill-opacity="1"/>
</g>
<g id = "symbol-Terminal Block 21" >
<g id = "DocumentItemsGroup" >
<g id = "KKCGFSFZ" >
<rect x = "70" y="50" width="40" height="220" stroke="#0000FF" stroke-width="1px"/>
</g>
<g id = "CAKDBOPQ" >
<rect x = "74" y="57" width="6" height="6" rx="3" ry="3" stroke="#000000" stroke-width="1px"/>
<ellipse cx="77.00" cy="60.00" rx="3.00" ry="3.00" stroke="#000000" stroke-width="1.00px"/>
</g>
<g id = "CQIDWATV" >
<line x1="75" y1="58" x2="79" y2="62" stroke="#000000" stroke-width="1px"/>
</g>
<g id = "FRNXTCLM" >
<rect x = "74" y="67" width="6" height="6" rx="3" ry="3" stroke="#000000" stroke-width="1px"/>
<ellipse cx="77.00" cy="70.00" rx="3.00" ry="3.00" stroke="#000000" stroke-width="1.00px"/>
</g>
<g id = "SNFQLKLA" >
<line x1="75" y1="68" x2="79" y2="72" stroke="#000000" stroke-width="1px"/>
</g>
<g id = "GELBLBBG" >
<rect x = "74" y="77" width="6" height="6" rx="3" ry="3" stroke="#000000" stroke-width="1px"/>
<ellipse cx="77.00" cy="80.00" rx="3.00" ry="3.00" stroke="#000000" stroke-width="1.00px"/>
</g>
<g id = "TOSTMTBQ" >
<line x1="75" y1="78" x2="79" y2="82" stroke="#000000" stroke-width="1px"/>
</g>
<g id = "WUMDXSUY" >
<rect x = "74" y="87" width="6" height="6" rx="3" ry="3" stroke="#000000" stroke-width="1px"/>
<ellipse cx="77.00" cy="90.00" rx="3.00" ry="3.00" stroke="#000000" stroke-width="1.00px"/>
</g>
<g id = "YGWXJKPR" >
<line x1="75" y1="88" x2="79" y2="92" stroke="#000000" stroke-width="1px"/>
</g>
<g id = "JINXRBEN" >
<rect x = "74" y="97" width="6" height="6" rx="3" ry="3" stroke="#000000" stroke-width="1px"/>
<ellipse cx="77.00" cy="100.00" rx="3.00" ry="3.00" stroke="#000000" stroke-width="1.00px"/>
</g>
<g id = "JVFICPUA" >
<line x1="75" y1="98" x2="79" y2="102" stroke="#000000" stroke-width="1px"/>
</g>
<g id = "NAUSSZGH" >
<rect x = "74" y="107" width="6" height="6" rx="3" ry="3" stroke="#000000" stroke-width="1px"/>
<ellipse cx="77.00" cy="110.00" rx="3.00" ry="3.00" stroke="#000000" stroke-width="1.00px"/>
</g>
<g id = "BRFZOSWJ" >
<line x1="75" y1="108" x2="79" y2="112" stroke="#000000" stroke-width="1px"/>
</g>
<g id = "CLTDINCS" >
<rect x = "74" y="117" width="6" height="6" rx="3" ry="3" stroke="#000000" stroke-width="1px"/>
<ellipse cx="77.00" cy="120.00" rx="3.00" ry="3.00" stroke="#000000" stroke-width="1.00px"/>
</g>
<g id = "XHWUUORI" >
<line x1="75" y1="118" x2="79" y2="122" stroke="#000000" stroke-width="1px"/>
</g>
<g id = "KLCNFVPB" >
<rect x = "74" y="127" width="6" height="6" rx="3" ry="3" stroke="#000000" stroke-width="1px"/>
<ellipse cx="77.00" cy="130.00" rx="3.00" ry="3.00" stroke="#000000" stroke-width="1.00px"/>
</g>
<g id = "EQKKTWAQ" >
<line x1="75" y1="128" x2="79" y2="132" stroke="#000000" stroke-width="1px"/>
</g>
<g id = "WFYLDDBT" >
<rect x = "74" y="137" width="6" height="6" rx="3" ry="3" stroke="#000000" stroke-width="1px"/>
<ellipse cx="77.00" cy="140.00" rx="3.00" ry="3.00" stroke="#000000" stroke-width="1.00px"/>
</g>
<g id = "GZZRTBBT" >
<line x1="75" y1="138" x2="79" y2="142" stroke="#000000" stroke-width="1px"/>
</g>
<g id = "KFLKBTEP" >
<rect x = "74" y="147" width="6" height="6" rx="3" ry="3" stroke="#000000" stroke-width="1px"/>
<ellipse cx="77.00" cy="150.00" rx="3.00" ry="3.00" stroke="#000000" stroke-width="1.00px"/>
</g>
<g id = "DAZDIYXW" >
<line x1="75" y1="148" x2="79" y2="152" stroke="#000000" stroke-width="1px"/>
</g>
<g id = "IEUSJHBY" >
<rect x = "74" y="157" width="6" height="6" rx="3" ry="3" stroke="#000000" stroke-width="1px"/>
<ellipse cx="77.00" cy="160.00" rx="3.00" ry="3.00" stroke="#000000" stroke-width="1.00px"/>
</g>
<g id = "GZEGVPAZ" >
<line x1="75" y1="158" x2="79" y2="162" stroke="#000000" stroke-width="1px"/>
</g>
<g id = "DFBKHBLB" >
<rect x = "74" y="167" width="6" height="6" rx="3" ry="3" stroke="#000000" stroke-width="1px"/>
<ellipse cx="77.00" cy="170.00" rx="3.00" ry="3.00" stroke="#000000" stroke-width="1.00px"/>
</g>
<g id = "EISETPDA" >
<line x1="75" y1="168" x2="79" y2="172" stroke="#000000" stroke-width="1px"/>
</g>
<g id = "VXAEUSQI" >
<rect x = "74" y="177" width="6" height="6" rx="3" ry="3" stroke="#000000" stroke-width="1px"/>
<ellipse cx="77.00" cy="180.00" rx="3.00" ry="3.00" stroke="#000000" stroke-width="1.00px"/>
</g>
<g id = "TENHGPLP" >
<line x1="75" y1="178" x2="79" y2="182" stroke="#000000" stroke-width="1px"/>
</g>
<g id = "SLWKURCN" >
<rect x = "74" y="187" width="6" height="6" rx="3" ry="3" stroke="#000000" stroke-width="1px"/>
<ellipse cx="77.00" cy="190.00" rx="3.00" ry="3.00" stroke="#000000" stroke-width="1.00px"/>
</g>
<g id = "PNEWAOWH" >
<line x1="75" y1="188" x2="79" y2="192" stroke="#000000" stroke-width="1px"/>
</g>
<g id = "QXCQUEXI" >
<rect x = "74" y="197" width="6" height="6" rx="3" ry="3" stroke="#000000" stroke-width="1px"/>
<ellipse cx="77.00" cy="200.00" rx="3.00" ry="3.00" stroke="#000000" stroke-width="1.00px"/>
</g>
<g id = "OSXKSWJT" >
<line x1="75" y1="198" x2="79" y2="202" stroke="#000000" stroke-width="1px"/>
</g>
<g id = "EVWENTVR" >
<rect x = "74" y="207" width="6" height="6" rx="3" ry="3" stroke="#000000" stroke-width="1px"/>
<ellipse cx="77.00" cy="210.00" rx="3.00" ry="3.00" stroke="#000000" stroke-width="1.00px"/>
</g>
<g id = "IUSOKSHO" >
<line x1="75" y1="208" x2="79" y2="212" stroke="#000000" stroke-width="1px"/>
</g>
<g id = "WUIWMZEX" >
<rect x = "74" y="217" width="6" height="6" rx="3" ry="3" stroke="#000000" stroke-width="1px"/>
<ellipse cx="77.00" cy="220.00" rx="3.00" ry="3.00" stroke="#000000" stroke-width="1.00px"/>
</g>
<g id = "QBBKUMIA" >
<line x1="75" y1="218" x2="79" y2="222" stroke="#000000" stroke-width="1px"/>
</g>
<g id = "ANTZOPLF" >
<rect x = "74" y="227" width="6" height="6" rx="3" ry="3" stroke="#000000" stroke-width="1px"/>
<ellipse cx="77.00" cy="230.00" rx="3.00" ry="3.00" stroke="#000000" stroke-width="1.00px"/>
</g>
<g id = "YJGTRNZC" >
<line x1="75" y1="228" x2="79" y2="232" stroke="#000000" stroke-width="1px"/>
</g>
<g id = "UARZSEVH" >
<rect x = "74" y="237" width="6" height="6" rx="3" ry="3" stroke="#000000" stroke-width="1px"/>
<ellipse cx="77.00" cy="240.00" rx="3.00" ry="3.00" stroke="#000000" stroke-width="1.00px"/>
</g>
<g id = "TSHAOPJM" >
<line x1="75" y1="238" x2="79" y2="242" stroke="#000000" stroke-width="1px"/>
</g>
<g id = "ULOLJGJJ" >
<rect x = "74" y="247" width="6" height="6" rx="3" ry="3" stroke="#000000" stroke-width="1px"/>
<ellipse cx="77.00" cy="250.00" rx="3.00" ry="3.00" stroke="#000000" stroke-width="1.00px"/>
</g>
<g id = "LHMAQZPA" >
<line x1="75" y1="248" x2="79" y2="252" stroke="#000000" stroke-width="1px"/>
</g>
<g id = "PQMRKCET" >
<rect x = "74" y="257" width="6" height="6" rx="3" ry="3" stroke="#000000" stroke-width="1px"/>
<ellipse cx="77.00" cy="260.00" rx="3.00" ry="3.00" stroke="#000000" stroke-width="1.00px"/>
</g>
<g id = "YSAOIQMN" >
<line x1="75" y1="258" x2="79" y2="262" stroke="#000000" stroke-width="1px"/>
</g>
<g id = "QAZMREIV" >
<line x1="70" y1="60" x2="50" y2="60" stroke="#000000" stroke-width="1px"/>
<text x="77" y="63" font-size="8.888889px" font-family="Times New Roman" fill="#000000" xml:space="preserve">1</text>
</g>
<g id = "PDTNRLKB" >
<line x1="70" y1="70" x2="50" y2="70" stroke="#000000" stroke-width="1px"/>
<text x="77" y="73" font-size="8.888889px" font-family="Times New Roman" fill="#000000" xml:space="preserve">2</text>
</g>
<g id = "WEIXQMRL" >
<line x1="70" y1="80" x2="50" y2="80" stroke="#000000" stroke-width="1px"/>
<text x="77" y="83" font-size="8.888889px" font-family="Times New Roman" fill="#000000" xml:space="preserve">3</text>
</g>
<g id = "UNIRSQNI" >
<line x1="70" y1="90" x2="50" y2="90" stroke="#000000" stroke-width="1px"/>
<text x="77" y="93" font-size="8.888889px" font-family="Times New Roman" fill="#000000" xml:space="preserve">4</text>
</g>
<g id = "TIODIIQS" >
<line x1="70" y1="100" x2="50" y2="100" stroke="#000000" stroke-width="1px"/>
<text x="77" y="103" font-size="8.888889px" font-family="Times New Roman" fill="#000000" xml:space="preserve">5</text>
</g>
<g id = "DHANKVCQ" >
<line x1="70" y1="110" x2="50" y2="110" stroke="#000000" stroke-width="1px"/>
<text x="77" y="113" font-size="8.888889px" font-family="Times New Roman" fill="#000000" xml:space="preserve">6</text>
</g>
<g id = "RUEOLRWV" >
<line x1="70" y1="120" x2="50" y2="120" stroke="#000000" stroke-width="1px"/>
<text x="77" y="123" font-size="8.888889px" font-family="Times New Roman" fill="#000000" xml:space="preserve">7</text>
</g>
<g id = "JPPWKHUW" >
<line x1="70" y1="130" x2="50" y2="130" stroke="#000000" stroke-width="1px"/>
<text x="77" y="133" font-size="8.888889px" font-family="Times New Roman" fill="#000000" xml:space="preserve">8</text>
</g>
<g id = "WPWQSHMM" >
<line x1="70" y1="140" x2="50" y2="140" stroke="#000000" stroke-width="1px"/>
<text x="77" y="143" font-size="8.888889px" font-family="Times New Roman" fill="#000000" xml:space="preserve">9</text>
</g>
<g id = "YSZUSZZN" >
<line x1="70" y1="150" x2="50" y2="150" stroke="#000000" stroke-width="1px"/>
<text x="77" y="153" font-size="8.888889px" font-family="Times New Roman" fill="#000000" xml:space="preserve">10</text>
</g>
<g id = "ZTMWHMZZ" >
<line x1="70" y1="160" x2="50" y2="160" stroke="#000000" stroke-width="1px"/>
<text x="77" y="163" font-size="8.888889px" font-family="Times New Roman" fill="#000000" xml:space="preserve">11</text>
</g>
<g id = "RNYDODWW" >
<line x1="70" y1="170" x2="50" y2="170" stroke="#000000" stroke-width="1px"/>
<text x="77" y="173" font-size="8.888889px" font-family="Times New Roman" fill="#000000" xml:space="preserve">12</text>
</g>
<g id = "NWGMDIXA" >
<line x1="70" y1="180" x2="50" y2="180" stroke="#000000" stroke-width="1px"/>
<text x="77" y="183" font-size="8.888889px" font-family="Times New Roman" fill="#000000" xml:space="preserve">13</text>
</g>
<g id = "GEDOCSMZ" >
<line x1="70" y1="190" x2="50" y2="190" stroke="#000000" stroke-width="1px"/>
<text x="77" y="193" font-size="8.888889px" font-family="Times New Roman" fill="#000000" xml:space="preserve">14</text>
</g>
<g id = "VIGHBXDG" >
<line x1="70" y1="200" x2="50" y2="200" stroke="#000000" stroke-width="1px"/>
<text x="77" y="203" font-size="8.888889px" font-family="Times New Roman" fill="#000000" xml:space="preserve">15</text>
</g>
<g id = "BKVFJTAI" >
<line x1="70" y1="210" x2="50" y2="210" stroke="#000000" stroke-width="1px"/>
<text x="77" y="213" font-size="8.888889px" font-family="Times New Roman" fill="#000000" xml:space="preserve">16</text>
</g>
<g id = "HJFHMLHV" >
<line x1="70" y1="220" x2="50" y2="220" stroke="#000000" stroke-width="1px"/>
<text x="77" y="223" font-size="8.888889px" font-family="Times New Roman" fill="#000000" xml:space="preserve">17</text>
</g>
<g id = "CTBRGOMB" >
<line x1="70" y1="230" x2="50" y2="230" stroke="#000000" stroke-width="1px"/>
<text x="77" y="233" font-size="8.888889px" font-family="Times New Roman" fill="#000000" xml:space="preserve">18</text>
</g>
<g id = "WZOUULRL" >
<line x1="70" y1="240" x2="50" y2="240" stroke="#000000" stroke-width="1px"/>
<text x="77" y="243" font-size="8.888889px" font-family="Times New Roman" fill="#000000" xml:space="preserve">19</text>
</g>
<g id = "XZYPBLCS" >
<line x1="70" y1="250" x2="50" y2="250" stroke="#000000" stroke-width="1px"/>
<text x="77" y="253" font-size="8.888889px" font-family="Times New Roman" fill="#000000" xml:space="preserve">20</text>
</g>
<g id = "MNLUDWQV" >
<line x1="70" y1="260" x2="50" y2="260" stroke="#000000" stroke-width="1px"/>
<text x="77" y="263" font-size="8.888889px" font-family="Times New Roman" fill="#000000" xml:space="preserve">21</text>
</g>
</g>
</g>
</g>
</g>
</svg>