<?xml version="1.0"  encoding="UTF-8" standalone="no"?>
<svg version="1.1" xmlns="http://www.w3.org/2000/svg" xmlns:xlink="http://www.w3.org/1999/xlink" stroke-linecap="round" stroke-linejoin="round" fill="none" width="160" height="190" viewBox="0 0 160 190" data-doc-id="symbol-Terminal Block 8" data-doc-ver="2">
<g id = "scene" >
<g id = "DocumentMainGroup" >
<g id = "BackgroundGroup" >
<rect x = "0" y="0" width="160" height="190" fill="#FFFFFF" fill-opacity="1"/>
</g>
<g id = "symbol-Terminal Block 8" >
<g id = "DocumentItemsGroup" >
<g id = "MBGOKTMK" >
<rect x = "70" y="50" width="40" height="90" stroke="#0000FF" stroke-width="1px"/>
</g>
<g id = "CKSZXSNB" >
<rect x = "74" y="57" width="6" height="6" rx="3" ry="3" stroke="#000000" stroke-width="1px"/>
<ellipse cx="77.00" cy="60.00" rx="3.00" ry="3.00" stroke="#000000" stroke-width="1.00px"/>
</g>
<g id = "QQOWIRQA" >
<line x1="75" y1="58" x2="79" y2="62" stroke="#000000" stroke-width="1px"/>
</g>
<g id = "ODIXFGXH" >
<rect x = "74" y="67" width="6" height="6" rx="3" ry="3" stroke="#000000" stroke-width="1px"/>
<ellipse cx="77.00" cy="70.00" rx="3.00" ry="3.00" stroke="#000000" stroke-width="1.00px"/>
</g>
<g id = "OZNFZBSA" >
<line x1="75" y1="68" x2="79" y2="72" stroke="#000000" stroke-width="1px"/>
</g>
<g id = "LZCPBIBM" >
<rect x = "74" y="77" width="6" height="6" rx="3" ry="3" stroke="#000000" stroke-width="1px"/>
<ellipse cx="77.00" cy="80.00" rx="3.00" ry="3.00" stroke="#000000" stroke-width="1.00px"/>
</g>
<g id = "NQTBKAZR" >
<line x1="75" y1="78" x2="79" y2="82" stroke="#000000" stroke-width="1px"/>
</g>
<g id = "IYWHQZPP" >
<rect x = "74" y="87" width="6" height="6" rx="3" ry="3" stroke="#000000" stroke-width="1px"/>
<ellipse cx="77.00" cy="90.00" rx="3.00" ry="3.00" stroke="#000000" stroke-width="1.00px"/>
</g>
<g id = "JLBFTEZS" >
<line x1="75" y1="88" x2="79" y2="92" stroke="#000000" stroke-width="1px"/>
</g>
<g id = "WWKUFRWR" >
<rect x = "74" y="97" width="6" height="6" rx="3" ry="3" stroke="#000000" stroke-width="1px"/>
<ellipse cx="77.00" cy="100.00" rx="3.00" ry="3.00" stroke="#000000" stroke-width="1.00px"/>
</g>
<g id = "VAIBQXEQ" >
<line x1="75" y1="98" x2="79" y2="102" stroke="#000000" stroke-width="1px"/>
</g>
<g id = "SJDJLBWF" >
<rect x = "74" y="107" width="6" height="6" rx="3" ry="3" stroke="#000000" stroke-width="1px"/>
<ellipse cx="77.00" cy="110.00" rx="3.00" ry="3.00" stroke="#000000" stroke-width="1.00px"/>
</g>
<g id = "KRNHNKTY" >
<line x1="75" y1="108" x2="79" y2="112" stroke="#000000" stroke-width="1px"/>
</g>
<g id = "YIWGBUWY" >
<rect x = "74" y="117" width="6" height="6" rx="3" ry="3" stroke="#000000" stroke-width="1px"/>
<ellipse cx="77.00" cy="120.00" rx="3.00" ry="3.00" stroke="#000000" stroke-width="1.00px"/>
</g>
<g id = "CSLHPOLK" >
<line x1="75" y1="118" x2="79" y2="122" stroke="#000000" stroke-width="1px"/>
</g>
<g id = "BVNXHGJX" >
<rect x = "74" y="127" width="6" height="6" rx="3" ry="3" stroke="#000000" stroke-width="1px"/>
<ellipse cx="77.00" cy="130.00" rx="3.00" ry="3.00" stroke="#000000" stroke-width="1.00px"/>
</g>
<g id = "XIQOZPOJ" >
<line x1="75" y1="128" x2="79" y2="132" stroke="#000000" stroke-width="1px"/>
</g>
<g id = "KEWIOUUA" >
<line x1="70" y1="60" x2="50" y2="60" stroke="#000000" stroke-width="1px"/>
<text x="77" y="63" font-size="8.888889px" font-family="Times New Roman" fill="#000000" xml:space="preserve">1</text>
</g>
<g id = "DUIADANG" >
<line x1="70" y1="70" x2="50" y2="70" stroke="#000000" stroke-width="1px"/>
<text x="77" y="73" font-size="8.888889px" font-family="Times New Roman" fill="#000000" xml:space="preserve">2</text>
</g>
<g id = "UDBQMCXE" >
<line x1="70" y1="80" x2="50" y2="80" stroke="#000000" stroke-width="1px"/>
<text x="77" y="83" font-size="8.888889px" font-family="Times New Roman" fill="#000000" xml:space="preserve">3</text>
</g>
<g id = "GDEDMRJU" >
<line x1="70" y1="90" x2="50" y2="90" stroke="#000000" stroke-width="1px"/>
<text x="77" y="93" font-size="8.888889px" font-family="Times New Roman" fill="#000000" xml:space="preserve">4</text>
</g>
<g id = "ZTCZOUEC" >
<line x1="70" y1="100" x2="50" y2="100" stroke="#000000" stroke-width="1px"/>
<text x="77" y="103" font-size="8.888889px" font-family="Times New Roman" fill="#000000" xml:space="preserve">5</text>
</g>
<g id = "MPCJRLKZ" >
<line x1="70" y1="110" x2="50" y2="110" stroke="#000000" stroke-width="1px"/>
<text x="77" y="113" font-size="8.888889px" font-family="Times New Roman" fill="#000000" xml:space="preserve">6</text>
</g>
<g id = "FWGURBCO" >
<line x1="70" y1="120" x2="50" y2="120" stroke="#000000" stroke-width="1px"/>
<text x="77" y="123" font-size="8.888889px" font-family="Times New Roman" fill="#000000" xml:space="preserve">7</text>
</g>
<g id = "QSSYSKKH" >
<line x1="70" y1="130" x2="50" y2="130" stroke="#000000" stroke-width="1px"/>
<text x="77" y="133" font-size="8.888889px" font-family="Times New Roman" fill="#000000" xml:space="preserve">8</text>
</g>
</g>
</g>
</g>
</g>
</svg>