<?xml version="1.0"  encoding="UTF-8" standalone="no"?>
<svg version="1.1" xmlns="http://www.w3.org/2000/svg" xmlns:xlink="http://www.w3.org/1999/xlink" stroke-linecap="round" stroke-linejoin="round" fill="none" width="180" height="160" viewBox="0 0 180 160" data-doc-id="symbol-Socket 5X2" data-doc-ver="2">
<g id = "scene" >
<g id = "DocumentMainGroup" >
<g id = "BackgroundGroup" >
<rect x = "0" y="0" width="180" height="160" fill="#FFFFFF" fill-opacity="1"/>
</g>
<g id = "symbol-Socket 5X2" >
<g id = "DocumentItemsGroup" >
<g id = "FLCGIRXZ" >
<rect x = "70" y="50" width="40" height="60" stroke="#0000FF" stroke-width="1px"/>
</g>
<g id = "LSAGYVIJ" >
<line x1="70" y1="64" x2="71.5" y2="63.7" stroke="#0000FF" stroke-width="1px"/>
<line x1="71.5" y1="63.7" x2="72.8" y2="62.9" stroke="#0000FF" stroke-width="1px"/>
<line x1="72.8" y1="62.9" x2="73.7" y2="61.6" stroke="#0000FF" stroke-width="1px"/>
<line x1="73.7" y1="61.6" x2="74" y2="60.1" stroke="#0000FF" stroke-width="1px"/>
<line x1="74" y1="60.1" x2="73.8" y2="58.6" stroke="#0000FF" stroke-width="1px"/>
<line x1="73.8" y1="58.6" x2="73" y2="57.3" stroke="#0000FF" stroke-width="1px"/>
<line x1="73" y1="57.3" x2="71.8" y2="56.4" stroke="#0000FF" stroke-width="1px"/>
<line x1="71.8" y1="56.4" x2="70.3" y2="56" stroke="#0000FF" stroke-width="1px"/>
</g>
<g id = "IXPQLULP" >
<line x1="110" y1="56" x2="108.5" y2="56.3" stroke="#0000FF" stroke-width="1px"/>
<line x1="108.5" y1="56.3" x2="107.2" y2="57.1" stroke="#0000FF" stroke-width="1px"/>
<line x1="107.2" y1="57.1" x2="106.3" y2="58.4" stroke="#0000FF" stroke-width="1px"/>
<line x1="106.3" y1="58.4" x2="106" y2="59.9" stroke="#0000FF" stroke-width="1px"/>
<line x1="106" y1="59.9" x2="106.2" y2="61.4" stroke="#0000FF" stroke-width="1px"/>
<line x1="106.2" y1="61.4" x2="107" y2="62.7" stroke="#0000FF" stroke-width="1px"/>
<line x1="107" y1="62.7" x2="108.2" y2="63.6" stroke="#0000FF" stroke-width="1px"/>
<line x1="108.2" y1="63.6" x2="109.7" y2="64" stroke="#0000FF" stroke-width="1px"/>
</g>
<g id = "LYUTQIPB" >
<line x1="70" y1="74" x2="71.5" y2="73.7" stroke="#0000FF" stroke-width="1px"/>
<line x1="71.5" y1="73.7" x2="72.8" y2="72.9" stroke="#0000FF" stroke-width="1px"/>
<line x1="72.8" y1="72.9" x2="73.7" y2="71.6" stroke="#0000FF" stroke-width="1px"/>
<line x1="73.7" y1="71.6" x2="74" y2="70.1" stroke="#0000FF" stroke-width="1px"/>
<line x1="74" y1="70.1" x2="73.8" y2="68.6" stroke="#0000FF" stroke-width="1px"/>
<line x1="73.8" y1="68.6" x2="73" y2="67.3" stroke="#0000FF" stroke-width="1px"/>
<line x1="73" y1="67.3" x2="71.8" y2="66.4" stroke="#0000FF" stroke-width="1px"/>
<line x1="71.8" y1="66.4" x2="70.3" y2="66" stroke="#0000FF" stroke-width="1px"/>
</g>
<g id = "WRUPMBIW" >
<line x1="110" y1="66" x2="108.5" y2="66.3" stroke="#0000FF" stroke-width="1px"/>
<line x1="108.5" y1="66.3" x2="107.2" y2="67.1" stroke="#0000FF" stroke-width="1px"/>
<line x1="107.2" y1="67.1" x2="106.3" y2="68.4" stroke="#0000FF" stroke-width="1px"/>
<line x1="106.3" y1="68.4" x2="106" y2="69.9" stroke="#0000FF" stroke-width="1px"/>
<line x1="106" y1="69.9" x2="106.2" y2="71.4" stroke="#0000FF" stroke-width="1px"/>
<line x1="106.2" y1="71.4" x2="107" y2="72.7" stroke="#0000FF" stroke-width="1px"/>
<line x1="107" y1="72.7" x2="108.2" y2="73.6" stroke="#0000FF" stroke-width="1px"/>
<line x1="108.2" y1="73.6" x2="109.7" y2="74" stroke="#0000FF" stroke-width="1px"/>
</g>
<g id = "LEEQCJLH" >
<line x1="70" y1="84" x2="71.5" y2="83.7" stroke="#0000FF" stroke-width="1px"/>
<line x1="71.5" y1="83.7" x2="72.8" y2="82.9" stroke="#0000FF" stroke-width="1px"/>
<line x1="72.8" y1="82.9" x2="73.7" y2="81.6" stroke="#0000FF" stroke-width="1px"/>
<line x1="73.7" y1="81.6" x2="74" y2="80.1" stroke="#0000FF" stroke-width="1px"/>
<line x1="74" y1="80.1" x2="73.8" y2="78.6" stroke="#0000FF" stroke-width="1px"/>
<line x1="73.8" y1="78.6" x2="73" y2="77.3" stroke="#0000FF" stroke-width="1px"/>
<line x1="73" y1="77.3" x2="71.8" y2="76.4" stroke="#0000FF" stroke-width="1px"/>
<line x1="71.8" y1="76.4" x2="70.3" y2="76" stroke="#0000FF" stroke-width="1px"/>
</g>
<g id = "DCBWYVIG" >
<line x1="110" y1="76" x2="108.5" y2="76.3" stroke="#0000FF" stroke-width="1px"/>
<line x1="108.5" y1="76.3" x2="107.2" y2="77.1" stroke="#0000FF" stroke-width="1px"/>
<line x1="107.2" y1="77.1" x2="106.3" y2="78.4" stroke="#0000FF" stroke-width="1px"/>
<line x1="106.3" y1="78.4" x2="106" y2="79.9" stroke="#0000FF" stroke-width="1px"/>
<line x1="106" y1="79.9" x2="106.2" y2="81.4" stroke="#0000FF" stroke-width="1px"/>
<line x1="106.2" y1="81.4" x2="107" y2="82.7" stroke="#0000FF" stroke-width="1px"/>
<line x1="107" y1="82.7" x2="108.2" y2="83.6" stroke="#0000FF" stroke-width="1px"/>
<line x1="108.2" y1="83.6" x2="109.7" y2="84" stroke="#0000FF" stroke-width="1px"/>
</g>
<g id = "XWPESTFC" >
<line x1="70" y1="94" x2="71.5" y2="93.7" stroke="#0000FF" stroke-width="1px"/>
<line x1="71.5" y1="93.7" x2="72.8" y2="92.9" stroke="#0000FF" stroke-width="1px"/>
<line x1="72.8" y1="92.9" x2="73.7" y2="91.6" stroke="#0000FF" stroke-width="1px"/>
<line x1="73.7" y1="91.6" x2="74" y2="90.1" stroke="#0000FF" stroke-width="1px"/>
<line x1="74" y1="90.1" x2="73.8" y2="88.6" stroke="#0000FF" stroke-width="1px"/>
<line x1="73.8" y1="88.6" x2="73" y2="87.3" stroke="#0000FF" stroke-width="1px"/>
<line x1="73" y1="87.3" x2="71.8" y2="86.4" stroke="#0000FF" stroke-width="1px"/>
<line x1="71.8" y1="86.4" x2="70.3" y2="86" stroke="#0000FF" stroke-width="1px"/>
</g>
<g id = "DGOLWXKW" >
<line x1="110" y1="86" x2="108.5" y2="86.3" stroke="#0000FF" stroke-width="1px"/>
<line x1="108.5" y1="86.3" x2="107.2" y2="87.1" stroke="#0000FF" stroke-width="1px"/>
<line x1="107.2" y1="87.1" x2="106.3" y2="88.4" stroke="#0000FF" stroke-width="1px"/>
<line x1="106.3" y1="88.4" x2="106" y2="89.9" stroke="#0000FF" stroke-width="1px"/>
<line x1="106" y1="89.9" x2="106.2" y2="91.4" stroke="#0000FF" stroke-width="1px"/>
<line x1="106.2" y1="91.4" x2="107" y2="92.7" stroke="#0000FF" stroke-width="1px"/>
<line x1="107" y1="92.7" x2="108.2" y2="93.6" stroke="#0000FF" stroke-width="1px"/>
<line x1="108.2" y1="93.6" x2="109.7" y2="94" stroke="#0000FF" stroke-width="1px"/>
</g>
<g id = "YSZDXTXY" >
<line x1="70" y1="104" x2="71.5" y2="103.7" stroke="#0000FF" stroke-width="1px"/>
<line x1="71.5" y1="103.7" x2="72.8" y2="102.9" stroke="#0000FF" stroke-width="1px"/>
<line x1="72.8" y1="102.9" x2="73.7" y2="101.6" stroke="#0000FF" stroke-width="1px"/>
<line x1="73.7" y1="101.6" x2="74" y2="100.1" stroke="#0000FF" stroke-width="1px"/>
<line x1="74" y1="100.1" x2="73.8" y2="98.6" stroke="#0000FF" stroke-width="1px"/>
<line x1="73.8" y1="98.6" x2="73" y2="97.3" stroke="#0000FF" stroke-width="1px"/>
<line x1="73" y1="97.3" x2="71.8" y2="96.4" stroke="#0000FF" stroke-width="1px"/>
<line x1="71.8" y1="96.4" x2="70.3" y2="96" stroke="#0000FF" stroke-width="1px"/>
</g>
<g id = "HBOZFCPR" >
<line x1="110" y1="96" x2="108.5" y2="96.3" stroke="#0000FF" stroke-width="1px"/>
<line x1="108.5" y1="96.3" x2="107.2" y2="97.1" stroke="#0000FF" stroke-width="1px"/>
<line x1="107.2" y1="97.1" x2="106.3" y2="98.4" stroke="#0000FF" stroke-width="1px"/>
<line x1="106.3" y1="98.4" x2="106" y2="99.9" stroke="#0000FF" stroke-width="1px"/>
<line x1="106" y1="99.9" x2="106.2" y2="101.4" stroke="#0000FF" stroke-width="1px"/>
<line x1="106.2" y1="101.4" x2="107" y2="102.7" stroke="#0000FF" stroke-width="1px"/>
<line x1="107" y1="102.7" x2="108.2" y2="103.6" stroke="#0000FF" stroke-width="1px"/>
<line x1="108.2" y1="103.6" x2="109.7" y2="104" stroke="#0000FF" stroke-width="1px"/>
</g>
<g id = "XYIPBOSK" >
<line x1="70" y1="60" x2="50" y2="60" stroke="#000000" stroke-width="1px"/>
<text x="77" y="63" font-size="8.888889px" font-family="Times New Roman" fill="#000000" xml:space="preserve">1</text>
</g>
<g id = "VCLSIEJT" >
<line x1="110" y1="60" x2="130" y2="60" stroke="#000000" stroke-width="1px"/>
<text x="98.0556" y="63" font-size="8.888889px" font-family="Times New Roman" fill="#000000" xml:space="preserve">2</text>
</g>
<g id = "MTRIXORA" >
<line x1="70" y1="70" x2="50" y2="70" stroke="#000000" stroke-width="1px"/>
<text x="77" y="73" font-size="8.888889px" font-family="Times New Roman" fill="#000000" xml:space="preserve">3</text>
</g>
<g id = "XOHUGMSP" >
<line x1="110" y1="70" x2="130" y2="70" stroke="#000000" stroke-width="1px"/>
<text x="98.0556" y="73" font-size="8.888889px" font-family="Times New Roman" fill="#000000" xml:space="preserve">4</text>
</g>
<g id = "KBKRZEKJ" >
<line x1="70" y1="80" x2="50" y2="80" stroke="#000000" stroke-width="1px"/>
<text x="77" y="83" font-size="8.888889px" font-family="Times New Roman" fill="#000000" xml:space="preserve">5</text>
</g>
<g id = "HKNZRAFV" >
<line x1="110" y1="80" x2="130" y2="80" stroke="#000000" stroke-width="1px"/>
<text x="98.0556" y="83" font-size="8.888889px" font-family="Times New Roman" fill="#000000" xml:space="preserve">6</text>
</g>
<g id = "ZSQEZIKU" >
<line x1="70" y1="90" x2="50" y2="90" stroke="#000000" stroke-width="1px"/>
<text x="77" y="93" font-size="8.888889px" font-family="Times New Roman" fill="#000000" xml:space="preserve">7</text>
</g>
<g id = "JOQCDYLL" >
<line x1="110" y1="90" x2="130" y2="90" stroke="#000000" stroke-width="1px"/>
<text x="98.0556" y="93" font-size="8.888889px" font-family="Times New Roman" fill="#000000" xml:space="preserve">8</text>
</g>
<g id = "LVHUXCFW" >
<line x1="70" y1="100" x2="50" y2="100" stroke="#000000" stroke-width="1px"/>
<text x="77" y="103" font-size="8.888889px" font-family="Times New Roman" fill="#000000" xml:space="preserve">9</text>
</g>
<g id = "LXCLJVEK" >
<line x1="110" y1="100" x2="130" y2="100" stroke="#000000" stroke-width="1px"/>
<text x="93.1111" y="103" font-size="8.888889px" font-family="Times New Roman" fill="#000000" xml:space="preserve">10</text>
</g>
</g>
</g>
</g>
</g>
</svg>